<?xml version="1.0" encoding="UTF-8" standalone="no"?>
<!-- Created with Inkscape (http://www.inkscape.org/) -->

<svg
   width="45.096992mm"
   height="45.702747mm"
   viewBox="0 0 45.096992 45.702747"
   version="1.1"
   id="svg1"
   inkscape:version="1.4.2 (ebf0e94, 2025-05-08)"
   sodipodi:docname="type5.svg"
   xmlns:inkscape="http://www.inkscape.org/namespaces/inkscape"
   xmlns:sodipodi="http://sodipodi.sourceforge.net/DTD/sodipodi-0.dtd"
   xmlns="http://www.w3.org/2000/svg"
   xmlns:svg="http://www.w3.org/2000/svg">
  <sodipodi:namedview
     id="namedview1"
     pagecolor="#ffffff"
     bordercolor="#000000"
     borderopacity="0.25"
     inkscape:showpageshadow="2"
     inkscape:pageopacity="0.0"
     inkscape:pagecheckerboard="0"
     inkscape:deskcolor="#d1d1d1"
     inkscape:document-units="mm"
     inkscape:zoom="0.71535494"
     inkscape:cx="294.95847"
     inkscape:cy="116.72527"
     inkscape:window-width="1920"
     inkscape:window-height="1011"
     inkscape:window-x="0"
     inkscape:window-y="0"
     inkscape:window-maximized="1"
     inkscape:current-layer="layer1" />
  <defs
     id="defs1" />
  <g
     inkscape:label="Layer 1"
     inkscape:groupmode="layer"
     id="layer1"
     transform="translate(-26.9875,-117.73958)">
    <g
       id="g886"
       transform="matrix(0.26458333,0,0,0.26458333,-31.21942,58.927646)">
      <path
         id="path241"
         d="m 251.65466,253.61467 c 0.39467,0 1.25467,0 1.684,-0.072 l 0.18,4.48134 c -0.932,0.32266 -2.58133,0.53733 -3.908,0.53733 -3.51333,0 -7.13333,-1.50533 -7.13333,-6.596 v -7.20533 h -2.47334 v -4.48134 h 2.47334 v -3.908 l 6.452,-1.07466 v 4.98266 h 4.26666 v 4.48134 h -4.26666 v 6.16533 c 0,1.972 0.968,2.68933 2.72533,2.68933"
         style="fill:#3239b0;fill-opacity:1;fill-rule:nonzero;stroke:none;stroke-width:0.133333" />
      <path
         id="path242"
         d="m 259.18266,257.84534 -5.664,-17.56667 h 6.812 l 1.46933,8.06667 0.50134,3.15467 h 0.072 l 0.60933,-3.15467 1.68533,-8.06667 h 6.452 l -8.46,26.70667 h -6.45333 l 2.976,-9.14"
         style="fill:#3239b0;fill-opacity:1;fill-rule:nonzero;stroke:none;stroke-width:0.133333" />
      <path
         id="path243"
         d="m 279.54399,251.89334 c 0,0.89733 0.57334,1.46933 1.36267,1.46933 0.896,0 1.39867,-0.644 1.39867,-1.43333 v -5.37733 c 0,-1.076 -0.43067,-1.61334 -1.25467,-1.61334 -0.86133,0 -1.50667,0.78934 -1.50667,1.68534 v 5.26933 m -6.452,-5.26933 c 0,-1.36267 -0.53733,-1.864 -1.792,-1.864 v -4.48134 c 2.11467,-0.53733 5.484,-0.644 7.13334,1.97067 0,0 1.57733,-2.508 4.80266,-2.508 3.15467,0 5.37734,2.15067 5.52134,6.16667 0.072,1.89866 0.072,4.01333 0,6.09333 -0.144,4.51733 -2.832,6.56 -6.41734,6.56 -1.72,0 -2.796,-0.57333 -2.796,-0.57333 v 8.99733 h -6.452 v -20.36133"
         style="fill:#3239b0;fill-opacity:1;fill-rule:nonzero;stroke:none;stroke-width:0.133333" />
      <path
         id="path244"
         d="m 297.46933,247.91467 c 0,0 0.60933,-0.036 1.21866,-0.17866 0.824,-0.18 1.07467,-0.39467 1.07467,-1.47067 0,-0.896 -0.43067,-1.32667 -1.11067,-1.32667 -0.68133,0 -1.18266,0.43067 -1.18266,1.25467 v 1.72133 m 1.28933,5.448 c 0.71733,0 1.292,-0.50133 1.328,-1.43333 l 5.91333,0.18 c -0.14266,3.97867 -3.22533,6.452 -7.24133,6.452 -3.97867,0 -7.492,-2.11467 -7.70667,-6.70267 -0.072,-1.75733 -0.072,-3.33466 0,-5.19866 0.144,-4.15867 3.54934,-6.91867 7.88667,-6.91867 3.944,0 7.27733,2.07867 7.27733,6.344 0,2.51067 -1.21866,3.264 -3.97866,3.836 -2.18667,0.46667 -4.768,0.82533 -4.768,0.82533 v 1.112 c 0,0.932 0.50133,1.504 1.28933,1.504"
         style="fill:#3239b0;fill-opacity:1;fill-rule:nonzero;stroke:none;stroke-width:0.133333" />
      <path
         id="path245"
         d="m 324.49866,264.29734 c -4.12267,0 -8.424,-2.32933 -8.604,-7.564 l 6.09467,-0.35867 c 0.14266,1.75734 1.004,2.54534 2.40133,2.54534 1.54133,0 2.36533,-1.43467 2.36533,-3.47734 0,-2.724 -1.11066,-3.33333 -2.40133,-3.33333 -1.00267,0 -1.68533,0.752 -1.936,1.32533 l -5.16133,-0.35733 1.004,-14.77067 h 13.65733 v 5.37867 h -8.496 l -0.39467,4.80267 c 0,0 1.36267,-0.68134 3.51334,-0.68134 3.51333,0 6.668,2.22267 6.668,7.528 0,6.16667 -4.19467,8.96267 -8.71067,8.96267"
         style="fill:#3239b0;fill-opacity:1;fill-rule:nonzero;stroke:none;stroke-width:0.133333" />
      <path
         id="path246"
         d="m 242.71599,352.39214 c 0.44134,0.27187 1.08667,0.49853 1.76667,0.49853 1.00933,0 1.59867,-0.53186 1.59867,-1.30266 0,-0.71454 -0.408,-1.12134 -1.44,-1.51867 -1.24667,-0.4412 -2.016,-1.08813 -2.016,-2.16413 0,-1.19067 0.98533,-2.07454 2.46933,-2.07454 0.78267,0 1.34933,0.18294 1.68933,0.37454 l -0.272,0.80413 c -0.24933,-0.13587 -0.76,-0.3624 -1.45066,-0.3624 -1.04267,0 -1.43867,0.62387 -1.43867,1.1452 0,0.71307 0.464,1.0652 1.51867,1.47187 1.29066,0.49853 1.948,1.1224 1.948,2.24533 0,1.17867 -0.872,2.19747 -2.67467,2.19747 -0.736,0 -1.54,-0.21467 -1.948,-0.48707 l 0.24933,-0.8276"
         style="fill:#000000;fill-opacity:1;fill-rule:nonzero;stroke:none;stroke-width:0.133333" />
      <path
         id="path247"
         d="m 249.08533,350.86254 c 0,1.20147 0.69066,2.1068 1.66533,2.1068 0.952,0 1.66667,-0.89333 1.66667,-2.1292 0,-0.92973 -0.46534,-2.1084 -1.64267,-2.1084 -1.17867,0 -1.68933,1.088 -1.68933,2.1308 m 4.352,-0.0557 c 0,2.02813 -1.40534,2.912 -2.73067,2.912 -1.48533,0 -2.62933,-1.08814 -2.62933,-2.82147 0,-1.83587 1.20133,-2.91347 2.72,-2.91347 1.57466,0 2.64,1.14534 2.64,2.82294"
         style="fill:#000000;fill-opacity:1;fill-rule:nonzero;stroke:none;stroke-width:0.133333" />
      <path
         id="path248"
         d="m 254.79866,353.59321 v -4.72494 h -0.77067 v -0.75893 h 0.77067 v -0.25987 c 0,-0.7708 0.16933,-1.47493 0.63467,-1.91613 0.37333,-0.36253 0.872,-0.51093 1.33733,-0.51093 0.35067,0 0.65733,0.0803 0.84933,0.1588 l -0.136,0.77186 c -0.148,-0.0692 -0.35066,-0.12493 -0.63466,-0.12493 -0.84934,0 -1.06534,0.7464 -1.06534,1.58547 v 0.29573 h 1.32534 v 0.75893 h -1.32534 v 4.72494 h -0.98533"
         style="fill:#000000;fill-opacity:1;fill-rule:nonzero;stroke:none;stroke-width:0.133333" />
      <path
         id="path249"
         d="m 259.33199,346.53334 v 1.576 h 1.428 v 0.75893 h -1.428 v 2.9572 c 0,0.67974 0.19334,1.0652 0.748,1.0652 0.26,0 0.45334,-0.0333 0.57734,-0.0683 l 0.0453,0.74946 c -0.192,0.0787 -0.49867,0.13494 -0.884,0.13494 -0.464,0 -0.83867,-0.14694 -1.076,-0.4188 -0.284,-0.2948 -0.38533,-0.7828 -0.38533,-1.42814 v -2.9916 h -0.85067 v -0.75893 h 0.85067 v -1.31453 l 0.97466,-0.26147"
         style="fill:#000000;fill-opacity:1;fill-rule:nonzero;stroke:none;stroke-width:0.133333" />
      <path
         id="path250"
         d="m 265.27199,351.39587 c 0,0.12387 0.0227,0.24787 0.0453,0.36147 0.192,0.69213 0.76933,1.16813 1.49466,1.16813 1.044,0 1.66667,-0.84946 1.66667,-2.10826 0,-1.0984 -0.56667,-2.04014 -1.632,-2.04014 -0.68,0 -1.31467,0.4656 -1.51867,1.22454 -0.0227,0.11293 -0.056,0.24893 -0.056,0.40773 v 0.98653 m -1.032,2.19734 c 0.0227,-0.37347 0.0453,-0.9292 0.0453,-1.41614 v -6.6292 h 0.98666 v 3.44534 h 0.0227 c 0.35067,-0.612 0.98533,-1.00934 1.86933,-1.00934 1.36,0 2.32267,1.13334 2.312,2.8 0,1.95987 -1.236,2.93494 -2.45866,2.93494 -0.79467,0 -1.42934,-0.3052 -1.836,-1.0308 h -0.0347 l -0.0453,0.9052 h -0.86134"
         style="fill:#000000;fill-opacity:1;fill-rule:nonzero;stroke:none;stroke-width:0.133333" />
      <path
         id="path251"
         d="m 270.73466,353.59321 h 0.99688 v -8.04531 h -0.99688 z"
         style="fill:#000000;fill-opacity:1;fill-rule:nonzero;stroke:none;stroke-width:0.133333" />
      <path
         id="path252"
         d="m 274.02266,350.86254 c 0,1.20147 0.69067,2.1068 1.66533,2.1068 0.95067,0 1.66534,-0.89333 1.66534,-2.1292 0,-0.92973 -0.464,-2.1084 -1.64267,-2.1084 -1.17867,0 -1.688,1.088 -1.688,2.1308 m 4.35067,-0.0557 c 0,2.02813 -1.40534,2.912 -2.73067,2.912 -1.48533,0 -2.62933,-1.08814 -2.62933,-2.82147 0,-1.83587 1.20133,-2.91347 2.72,-2.91347 1.57466,0 2.64,1.14534 2.64,2.82294"
         style="fill:#000000;fill-opacity:1;fill-rule:nonzero;stroke:none;stroke-width:0.133333" />
      <path
         id="path253"
         d="m 280.61866,351.39587 c 0,0.12387 0.0227,0.24787 0.0453,0.36147 0.19334,0.69213 0.77067,1.16813 1.496,1.16813 1.04267,0 1.66534,-0.84946 1.66534,-2.10826 0,-1.0984 -0.56667,-2.04014 -1.632,-2.04014 -0.68,0 -1.31467,0.4656 -1.51867,1.22454 -0.0227,0.11293 -0.056,0.24893 -0.056,0.40773 v 0.98653 m -1.032,2.19734 c 0.024,-0.37347 0.0467,-0.9292 0.0467,-1.41614 v -6.6292 h 0.98533 v 3.44534 h 0.0227 c 0.35066,-0.612 0.98533,-1.00934 1.86933,-1.00934 1.36,0 2.32267,1.13334 2.312,2.8 0,1.95987 -1.236,2.93494 -2.45867,2.93494 -0.79333,0 -1.428,-0.3052 -1.836,-1.0308 h -0.0333 l -0.0467,0.9052 h -0.86133"
         style="fill:#000000;fill-opacity:1;fill-rule:nonzero;stroke:none;stroke-width:0.133333" />
      <path
         id="path254"
         d="m 285.94666,352.57454 c 0.29333,0.19213 0.81467,0.3948 1.31333,0.3948 0.72534,0 1.06534,-0.36147 1.06534,-0.81467 0,-0.476 -0.28267,-0.73586 -1.02,-1.00933 -0.98534,-0.35053 -1.44934,-0.8948 -1.44934,-1.55213 0,-0.88387 0.71334,-1.60934 1.89067,-1.60934 0.556,0 1.044,0.1588 1.34933,0.34014 l -0.24933,0.72546 c -0.21467,-0.13493 -0.612,-0.31773 -1.12133,-0.31773 -0.58934,0 -0.91867,0.34013 -0.91867,0.74853 0,0.45307 0.32933,0.6572 1.04267,0.92907 0.952,0.36253 1.44,0.83853 1.44,1.65467 0,0.96253 -0.748,1.6428 -2.052,1.6428 -0.6,0 -1.15467,-0.14694 -1.54134,-0.37347 l 0.25067,-0.7588"
         style="fill:#000000;fill-opacity:1;fill-rule:nonzero;stroke:none;stroke-width:0.133333" />
      <path
         id="path255"
         d="m 293.37066,348.10934 0.72533,2.788 c 0.15867,0.612 0.30534,1.17867 0.408,1.74387 h 0.0333 c 0.12533,-0.55574 0.30666,-1.14387 0.488,-1.73334 l 0.89466,-2.79853 h 0.83867 l 0.84933,2.7428 c 0.204,0.6572 0.364,1.23333 0.488,1.78907 h 0.0347 c 0.0907,-0.55574 0.23733,-1.13187 0.41867,-1.77867 l 0.78266,-2.7532 h 0.98534 l -1.768,5.48387 h -0.90667 l -0.83867,-2.6172 c -0.19333,-0.612 -0.352,-1.15627 -0.488,-1.80147 h -0.0213 c -0.136,0.6572 -0.30667,1.22387 -0.49867,1.81187 l -0.884,2.6068 h -0.90666 l -1.65467,-5.48387 h 1.02"
         style="fill:#000000;fill-opacity:1;fill-rule:nonzero;stroke:none;stroke-width:0.133333" />
      <path
         id="path256"
         d="m 301.31599,353.59321 v -5.48387 h 0.99734 v 5.48387 h -0.99734 m 1.11067,-7.02494 c 0.012,0.3396 -0.23733,0.612 -0.63467,0.612 -0.352,0 -0.60133,-0.2724 -0.60133,-0.612 0,-0.35213 0.26133,-0.62453 0.624,-0.62453 0.37467,0 0.612,0.2724 0.612,0.62453"
         style="fill:#000000;fill-opacity:1;fill-rule:nonzero;stroke:none;stroke-width:0.133333" />
      <path
         id="path257"
         d="m 305.16933,346.53334 v 1.576 h 1.428 v 0.75893 h -1.428 v 2.9572 c 0,0.67974 0.192,1.0652 0.748,1.0652 0.26,0 0.45333,-0.0333 0.57733,-0.0683 l 0.0453,0.74946 c -0.192,0.0787 -0.49866,0.13494 -0.884,0.13494 -0.464,0 -0.83866,-0.14694 -1.076,-0.4188 -0.284,-0.2948 -0.38533,-0.7828 -0.38533,-1.42814 v -2.9916 h -0.85067 v -0.75893 h 0.85067 v -1.31453 l 0.97467,-0.26147"
         style="fill:#000000;fill-opacity:1;fill-rule:nonzero;stroke:none;stroke-width:0.133333" />
      <path
         id="path258"
         d="m 307.71999,345.54787 h 0.99734 v 3.42294 h 0.0227 c 0.15867,-0.2828 0.408,-0.53334 0.71334,-0.70307 0.29466,-0.1704 0.64666,-0.28387 1.02,-0.28387 0.73733,0 1.916,0.4536 1.916,2.3468 v 3.26254 h -0.99734 v -3.14947 c 0,-0.88387 -0.32933,-1.63333 -1.26933,-1.63333 -0.64667,0 -1.156,0.4536 -1.33733,0.99893 -0.0573,0.136 -0.068,0.2828 -0.068,0.47613 v 3.30774 h -0.99734 v -8.04534"
         style="fill:#000000;fill-opacity:1;fill-rule:nonzero;stroke:none;stroke-width:0.133333" />
      <path
         id="path259"
         d="m 320.32399,353.38907 c -0.26133,0.13747 -0.83866,0.31774 -1.576,0.31774 -1.65466,0 -2.73066,-1.12294 -2.73066,-2.79894 0,-1.68813 1.156,-2.912 2.94666,-2.912 0.588,0 1.11067,0.1468 1.38267,0.2828 l -0.22667,0.7708 c -0.23866,-0.13493 -0.612,-0.25986 -1.156,-0.25986 -1.25866,0 -1.93733,0.9292 -1.93733,2.07293 0,1.2692 0.81467,2.052 1.90267,2.052 0.56666,0 0.94133,-0.14787 1.224,-0.27333 l 0.17066,0.74786"
         style="fill:#000000;fill-opacity:1;fill-rule:nonzero;stroke:none;stroke-width:0.133333" />
      <path
         id="path260"
         d="m 321.49199,353.59321 h 0.9974 v -8.04531 h -0.9974 z"
         style="fill:#000000;fill-opacity:1;fill-rule:nonzero;stroke:none;stroke-width:0.133333" />
      <path
         id="path261"
         d="m 327.64533,350.31881 c 0.012,-0.63494 -0.26,-1.62147 -1.38267,-1.62147 -1.008,0 -1.45067,0.9308 -1.52933,1.62147 h 2.912 m -2.92267,0.71293 c 0.0213,1.34947 0.88267,1.90427 1.88,1.90427 0.71467,0 1.14533,-0.1256 1.51867,-0.28294 l 0.17066,0.7136 c -0.352,0.15987 -0.95333,0.34014 -1.82533,0.34014 -1.688,0 -2.69733,-1.11094 -2.69733,-2.7656 0,-1.6532 0.97466,-2.95734 2.57333,-2.95734 1.79067,0 2.26667,1.576 2.26667,2.5844 0,0.2036 -0.024,0.3624 -0.0347,0.46347 h -3.852"
         style="fill:#000000;fill-opacity:1;fill-rule:nonzero;stroke:none;stroke-width:0.133333" />
      <path
         id="path262"
         d="m 332.73466,350.79481 c -1.088,-0.0229 -2.32267,0.17026 -2.32267,1.2344 0,0.6468 0.43067,0.952 0.94134,0.952 0.71333,0 1.16666,-0.45307 1.32533,-0.9172 l 0.056,-0.31707 v -0.95213 m 0.148,2.7984 -0.0787,-0.69054 h -0.0347 c -0.30534,0.43067 -0.896,0.81614 -1.67734,0.81614 -1.11066,0 -1.67733,-0.7828 -1.67733,-1.57614 0,-1.32546 1.17867,-2.05053 3.29733,-2.04 v -0.1136 c 0,-0.45306 -0.124,-1.26773 -1.24533,-1.26773 -0.51067,0 -1.044,0.15893 -1.428,0.40787 l -0.228,-0.6584 c 0.45467,-0.29374 1.11067,-0.48694 1.80267,-0.48694 1.67733,0 2.08533,1.14534 2.08533,2.24427 v 2.05053 c 0,0.476 0.0227,0.94107 0.0907,1.31454 h -0.90666"
         style="fill:#000000;fill-opacity:1;fill-rule:nonzero;stroke:none;stroke-width:0.133333" />
      <path
         id="path263"
         d="m 335.30932,349.81974 c 0,-0.6452 -0.012,-1.20093 -0.0453,-1.7104 h 0.872 l 0.0347,1.07613 h 0.0453 c 0.24933,-0.736 0.84933,-1.2016 1.51867,-1.2016 l 0.28266,0.0349 v 0.94 c -0.10133,-0.0228 -0.204,-0.0348 -0.34,-0.0348 -0.70266,0 -1.20133,0.53333 -1.33733,1.2812 -0.0227,0.136 -0.0453,0.2948 -0.0453,0.4656 v 2.9224 h -0.98534 v -3.77347"
         style="fill:#000000;fill-opacity:1;fill-rule:nonzero;stroke:none;stroke-width:0.133333" />
      <path
         id="path264"
         d="m 246.72666,366.99067 c -0.26,0.13747 -0.83733,0.3172 -1.57467,0.3172 -1.65466,0 -2.732,-1.12147 -2.732,-2.79853 0,-1.688 1.15734,-2.912 2.94667,-2.912 0.58933,0 1.11067,0.148 1.384,0.28293 l -0.22667,0.77027 c -0.23866,-0.1344 -0.612,-0.25987 -1.15733,-0.25987 -1.25733,0 -1.93733,0.92907 -1.93733,2.0744 0,1.26827 0.816,2.05107 1.904,2.05107 0.56666,0 0.94133,-0.14787 1.224,-0.2724 l 0.16933,0.74693"
         style="fill:#000000;fill-opacity:1;fill-rule:nonzero;stroke:none;stroke-width:0.133333" />
      <path
         id="path265"
         d="m 252.48533,365.6984 c 0,0.56667 0.012,1.0656 0.0453,1.4964 h -0.884 l -0.0573,-0.8948 h -0.0227 c -0.26,0.44267 -0.83867,1.01974 -1.81333,1.01974 -0.86134,0 -1.892,-0.476 -1.892,-2.40254 v -3.2068 h 0.99733 v 3.03654 c 0,1.04373 0.31733,1.7452 1.224,1.7452 0.668,0 1.13333,-0.464 1.31467,-0.90667 0.056,-0.14693 0.0907,-0.32813 0.0907,-0.5084 v -3.36667 h 0.99734 v 3.988"
         style="fill:#000000;fill-opacity:1;fill-rule:nonzero;stroke:none;stroke-width:0.133333" />
      <path
         id="path266"
         d="m 255.34266,360.136 v 1.5744 h 1.428 v 0.7604 h -1.428 v 2.95574 c 0,0.68026 0.192,1.0656 0.748,1.0656 0.26,0 0.45333,-0.0333 0.57733,-0.0681 l 0.0453,0.74947 c -0.192,0.0787 -0.49867,0.1344 -0.884,0.1344 -0.464,0 -0.83867,-0.1464 -1.076,-0.4188 -0.284,-0.29427 -0.38534,-0.78227 -0.38534,-1.4276 v -2.99067 h -0.85066 v -0.7604 h 0.85066 v -1.31453 l 0.97467,-0.25987"
         style="fill:#000000;fill-opacity:1;fill-rule:nonzero;stroke:none;stroke-width:0.133333" />
      <path
         id="path267"
         d="m 263.77466,363.91974 c 0.012,-0.63427 -0.26,-1.61974 -1.38267,-1.61974 -1.008,0 -1.44933,0.9292 -1.52933,1.61974 h 2.912 m -2.92267,0.7152 c 0.0213,1.34786 0.88267,1.90253 1.88,1.90253 0.71467,0 1.14534,-0.12387 1.51867,-0.2828 l 0.17067,0.71467 c -0.352,0.1588 -0.952,0.33853 -1.82534,0.33853 -1.688,0 -2.69733,-1.11053 -2.69733,-2.7652 0,-1.6536 0.97467,-2.9572 2.57333,-2.9572 1.79067,0 2.26667,1.576 2.26667,2.58387 0,0.20413 -0.0227,0.3624 -0.0347,0.4656 h -3.852"
         style="fill:#000000;fill-opacity:1;fill-rule:nonzero;stroke:none;stroke-width:0.133333" />
      <path
         id="path268"
         d="m 269.71466,363.94267 c 0,-0.12547 -0.012,-0.2948 -0.0467,-0.41867 -0.14666,-0.63493 -0.69066,-1.15733 -1.43866,-1.15733 -1.03067,0 -1.64267,0.90787 -1.64267,2.11973 0,1.11094 0.544,2.02974 1.62,2.02974 0.66933,0 1.28133,-0.44267 1.46133,-1.19067 0.0347,-0.1348 0.0467,-0.2724 0.0467,-0.43067 v -0.95213 m 0.996,-4.7932 v 6.6292 c 0,0.4864 0.012,1.04267 0.0453,1.41613 h -0.89466 l -0.0453,-0.95106 h -0.0227 c -0.30534,0.612 -0.97467,1.076 -1.86934,1.076 -1.32666,0 -2.34666,-1.1224 -2.34666,-2.788 -0.0107,-1.82387 1.12266,-2.94627 2.46,-2.94627 0.83866,0 1.40533,0.39733 1.65466,0.83853 h 0.0227 v -3.27453 h 0.996"
         style="fill:#000000;fill-opacity:1;fill-rule:nonzero;stroke:none;stroke-width:0.133333" />
      <path
         id="path269"
         d="m 276.06133,363.87454 c 0,-0.1704 -0.0107,-0.3172 -0.056,-0.4532 -0.18134,-0.5776 -0.66934,-1.05467 -1.39467,-1.05467 -0.95067,0 -1.63067,0.8052 -1.63067,2.07453 0,1.0776 0.544,1.9724 1.62,1.9724 0.612,0 1.168,-0.38546 1.38267,-1.0204 0.056,-0.1692 0.0787,-0.36253 0.0787,-0.53173 v -0.98693 m 1.032,-2.16414 c -0.0227,0.3964 -0.0453,0.83907 -0.0453,1.5068 v 3.18547 c 0,1.2572 -0.24933,2.028 -0.78266,2.50413 -0.532,0.4984 -1.30267,0.6572 -1.99334,0.6572 -0.65866,0 -1.38266,-0.1588 -1.82533,-0.4536 l 0.24933,-0.75826 c 0.36267,0.22653 0.92934,0.42906 1.60934,0.42906 1.02,0 1.768,-0.53333 1.768,-1.91453 v -0.612 h -0.0227 c -0.30533,0.50933 -0.89467,0.9188 -1.74533,0.9188 -1.36,0 -2.33467,-1.15627 -2.33467,-2.67507 0,-1.85986 1.21333,-2.91293 2.47067,-2.91293 0.952,0 1.47333,0.5 1.71066,0.952 h 0.0227 l 0.0453,-0.82707 h 0.87334"
         style="fill:#000000;fill-opacity:1;fill-rule:nonzero;stroke:none;stroke-width:0.133333" />
      <path
         id="path270"
         d="m 282.18266,363.91974 c 0.0107,-0.63427 -0.26133,-1.61974 -1.38267,-1.61974 -1.008,0 -1.45066,0.9292 -1.52933,1.61974 h 2.912 m -2.924,0.7152 c 0.0227,1.34786 0.884,1.90253 1.88133,1.90253 0.71467,0 1.144,-0.12387 1.51867,-0.2828 l 0.17067,0.71467 c -0.352,0.1588 -0.95334,0.33853 -1.82534,0.33853 -1.688,0 -2.69733,-1.11053 -2.69733,-2.7652 0,-1.6536 0.97467,-2.9572 2.57333,-2.9572 1.79067,0 2.26534,1.576 2.26534,2.58387 0,0.20413 -0.0227,0.3624 -0.0333,0.4656 h -3.85333"
         style="fill:#000000;fill-opacity:1;fill-rule:nonzero;stroke:none;stroke-width:0.133333" />
      <path
         id="path271"
         d="m 284.24666,366.176 c 0.29333,0.19227 0.81467,0.39587 1.31333,0.39587 0.72534,0 1.06534,-0.36253 1.06534,-0.81613 0,-0.47547 -0.28267,-0.736 -1.01867,-1.0088 -0.98667,-0.35107 -1.45067,-0.89387 -1.45067,-1.55214 0,-0.8844 0.71334,-1.60933 1.892,-1.60933 0.55467,0 1.04267,0.15987 1.348,0.34 l -0.24933,0.72507 c -0.21467,-0.1344 -0.612,-0.3172 -1.12133,-0.3172 -0.58934,0 -0.91734,0.34013 -0.91734,0.74946 0,0.45214 0.328,0.65734 1.04134,0.9276 0.952,0.36307 1.44,0.83907 1.44,1.65467 0,0.96413 -0.748,1.6428 -2.052,1.6428 -0.6,0 -1.15467,-0.1464 -1.54,-0.37347 l 0.24933,-0.7584"
         style="fill:#000000;fill-opacity:1;fill-rule:nonzero;stroke:none;stroke-width:0.133333" />
      <path
         id="path620"
         d="m 368.52399,395.01614 h -126.612 c -12.10533,0 -21.91733,-9.81347 -21.91733,-21.91774 V 244.19867 c 0,-12.10533 9.812,-21.91733 21.91733,-21.91733 h 126.612 c 12.104,0 21.916,9.812 21.916,21.91733 V 373.0984 c 0,12.10427 -9.812,21.91774 -21.916,21.91774 m -95.828,-26.664 -0.24933,0.75826 c 0.44267,0.2948 1.16667,0.4536 1.82533,0.4536 0.69067,0 1.46134,-0.1588 1.99334,-0.6572 0.53333,-0.47613 0.78266,-1.24693 0.78266,-2.50413 v -3.18547 c 0,-0.66773 0.0227,-1.1104 0.0453,-1.5068 h -0.87334 l -0.0453,0.82707 h -0.0227 c -0.23733,-0.452 -0.75866,-0.952 -1.71066,-0.952 -1.25734,0 -2.47067,1.05307 -2.47067,2.91293 0,1.5188 0.97467,2.67507 2.33467,2.67507 0.85066,0 1.44,-0.40947 1.74533,-0.9188 h 0.0227 v 0.612 c 0,1.3812 -0.748,1.91453 -1.768,1.91453 -0.68,0 -1.24667,-0.20253 -1.60934,-0.42906 m -4.65866,-6.76667 c -1.33734,0 -2.47067,1.1224 -2.46,2.94627 0,1.6656 1.02,2.788 2.34666,2.788 0.89467,0 1.564,-0.464 1.86934,-1.076 h 0.0227 l 0.0453,0.95106 h 0.89466 v 0 c -0.0333,-0.37346 -0.0453,-0.92973 -0.0453,-1.41613 v -6.6292 h -0.996 v 3.27453 h -0.0227 c -0.24933,-0.4412 -0.816,-0.83853 -1.65466,-0.83853 m -20.176,0.12493 v 3.2068 c 0,1.92654 1.03066,2.40254 1.892,2.40254 0.97466,0 1.55333,-0.57707 1.81333,-1.01974 h 0.0227 l 0.0573,0.8948 h 0.884 v 0 c -0.0333,-0.4308 -0.0453,-0.92973 -0.0453,-1.4964 v -3.988 h -0.99734 v 3.36667 c 0,0.18027 -0.0347,0.36147 -0.0907,0.5084 -0.18134,0.44267 -0.64667,0.90667 -1.31467,0.90667 -0.90667,0 -1.224,-0.70147 -1.224,-1.7452 v -3.03654 h -0.99733 m 36.38533,4.4656 -0.24933,0.7584 c 0.38533,0.22707 0.94,0.37347 1.54,0.37347 1.304,0 2.052,-0.67867 2.052,-1.6428 0,-0.8156 -0.488,-1.2916 -1.44,-1.65467 -0.71334,-0.27026 -1.04134,-0.47546 -1.04134,-0.9276 0,-0.40933 0.328,-0.74946 0.91734,-0.74946 0.50933,0 0.90666,0.1828 1.12133,0.3172 l 0.24933,-0.72507 c -0.30533,-0.18013 -0.79333,-0.34 -1.348,-0.34 -1.17866,0 -1.892,0.72493 -1.892,1.60933 0,0.65827 0.464,1.20107 1.45067,1.55214 0.736,0.2728 1.01867,0.53333 1.01867,1.0088 0,0.4536 -0.34,0.81613 -1.06534,0.81613 -0.49866,0 -1.02,-0.2036 -1.31333,-0.39587 m -3.36667,-4.59053 c -1.59866,0 -2.57333,1.3036 -2.57333,2.9572 0,1.65467 1.00933,2.7652 2.69733,2.7652 0.872,0 1.47334,-0.17973 1.82534,-0.33853 l -0.17067,-0.71467 c -0.37467,0.15893 -0.804,0.2828 -1.51867,0.2828 -0.99733,0 -1.85866,-0.55467 -1.88133,-1.90253 h 3.85333 c 0.0107,-0.1032 0.0333,-0.26147 0.0333,-0.4656 0,-1.00787 -0.47467,-2.58387 -2.26534,-2.58387 m -18.408,0 c -1.59866,0 -2.57333,1.3036 -2.57333,2.9572 0,1.65467 1.00933,2.7652 2.69733,2.7652 0.87334,0 1.47334,-0.17973 1.82534,-0.33853 l -0.17067,-0.71467 c -0.37333,0.15893 -0.804,0.2828 -1.51867,0.2828 -0.99733,0 -1.85866,-0.55467 -1.88,-1.90253 h 3.852 c 0.012,-0.1032 0.0347,-0.26147 0.0347,-0.4656 0,-1.00787 -0.476,-2.58387 -2.26667,-2.58387 m -8.95466,0.12493 v 0.7604 h 0.85066 v 2.99067 c 0,0.64533 0.10134,1.13333 0.38534,1.4276 0.23733,0.2724 0.612,0.4188 1.076,0.4188 0.38533,0 0.692,-0.0557 0.884,-0.1344 L 256.668,366.424 c -0.124,0.0348 -0.31733,0.0681 -0.57733,0.0681 -0.556,0 -0.748,-0.38534 -0.748,-1.0656 v -2.95574 h 1.428 v -0.7604 h -1.428 v -1.5744 l -0.97467,0.25987 v 1.31453 h -0.85066 m -8.15067,-0.11306 c -1.78933,0 -2.94667,1.224 -2.94667,2.912 0,1.67706 1.07734,2.79853 2.732,2.79853 0.73734,0 1.31467,-0.17973 1.57467,-0.3172 l -0.16933,-0.74693 c -0.28267,0.12453 -0.65734,0.2724 -1.224,0.2724 -1.088,0 -1.904,-0.7828 -1.904,-2.05107 0,-1.14533 0.68,-2.0744 1.93733,-2.0744 0.54533,0 0.91867,0.12547 1.15733,0.25987 l 0.22667,-0.77027 c -0.27333,-0.13493 -0.79467,-0.28293 -1.384,-0.28293 M 332.668,350.10263 c -2.092,0 -3.25333,0.72387 -3.25333,2.04 0,0.79334 0.56667,1.57614 1.67733,1.57614 0.78134,0 1.372,-0.38547 1.67734,-0.81614 h 0.0347 l 0.0787,0.69054 h 0.90666 v 0 c -0.068,-0.37347 -0.0907,-0.83854 -0.0907,-1.31454 v -2.05053 c 0,-1.09893 -0.408,-2.24427 -2.08533,-2.24427 -0.692,0 -1.348,0.1932 -1.80267,0.48694 l 0.228,0.6584 c 0.384,-0.24894 0.91733,-0.40787 1.428,-0.40787 1.12133,0 1.24533,0.81467 1.24533,1.26773 v 0.1136 c -0.0147,0 -0.0293,0 -0.044,0 m -52.17333,2.58534 h 0.0333 c 0.408,0.7256 1.04267,1.0308 1.836,1.0308 1.22267,0 2.45867,-0.97507 2.45867,-2.93494 0.0107,-1.66666 -0.952,-2.8 -2.312,-2.8 -0.884,0 -1.51867,0.39734 -1.86933,1.00934 h -0.0227 v -3.44534 h -0.98533 v 6.6292 c 0,0.48694 -0.0227,1.04267 -0.0467,1.41614 h 0.86133 l 0.0467,-0.9052 m -4.76133,-4.70414 c -1.51867,0 -2.72,1.0776 -2.72,2.91347 0,1.73333 1.144,2.82147 2.62933,2.82147 1.32533,0 2.73067,-0.88387 2.73067,-2.912 0,-1.6776 -1.06534,-2.82294 -2.64,-2.82294 m -10.58667,4.70414 h 0.0347 c 0.40666,0.7256 1.04133,1.0308 1.836,1.0308 1.22266,0 2.45866,-0.97507 2.45866,-2.93494 0.0107,-1.66666 -0.952,-2.8 -2.312,-2.8 -0.884,0 -1.51866,0.39734 -1.86933,1.00934 h -0.0227 v -3.44534 h -0.98666 v 6.6292 c 0,0.48694 -0.0227,1.04267 -0.0453,1.41614 h 0.86134 l 0.0453,-0.9052 m -14.34933,-4.70414 c -1.51867,0 -2.72,1.0776 -2.72,2.91347 0,1.73333 1.144,2.82147 2.62933,2.82147 1.32533,0 2.73067,-0.88387 2.73067,-2.912 0,-1.6776 -1.06534,-2.82294 -2.64,-2.82294 m 75.54533,0 c -1.59867,0 -2.57333,1.30414 -2.57333,2.95734 0,1.65466 1.00933,2.7656 2.69733,2.7656 0.872,0 1.47333,-0.18027 1.82533,-0.34014 l -0.17066,-0.7136 c -0.37334,0.15734 -0.804,0.28294 -1.51867,0.28294 -0.99733,0 -1.85867,-0.5548 -1.88,-1.90427 h 3.852 c 0.0107,-0.10107 0.0347,-0.25987 0.0347,-0.46347 0,-1.0084 -0.476,-2.5844 -2.26667,-2.5844 m -7.37867,0.012 c -1.79066,0 -2.94666,1.22387 -2.94666,2.912 0,1.676 1.076,2.79894 2.73066,2.79894 0.73734,0 1.31467,-0.18027 1.576,-0.31774 l -0.17066,-0.74786 c -0.28267,0.12546 -0.65734,0.27333 -1.224,0.27333 -1.088,0 -1.90267,-0.7828 -1.90267,-2.052 0,-1.14373 0.67867,-2.07293 1.93733,-2.07293 0.544,0 0.91734,0.12493 1.156,0.25986 l 0.22667,-0.7708 c -0.272,-0.136 -0.79467,-0.2828 -1.38267,-0.2828 m -15.62,0.11347 v 0.75893 h 0.85067 v 2.9916 c 0,0.64534 0.10133,1.13334 0.38533,1.42814 0.23734,0.27186 0.612,0.4188 1.076,0.4188 0.38534,0 0.692,-0.0563 0.884,-0.13494 l -0.0453,-0.74946 c -0.124,0.0349 -0.31733,0.0683 -0.57733,0.0683 -0.556,0 -0.748,-0.38546 -0.748,-1.0652 v -2.9572 h 1.428 v -0.75893 h -1.428 v -1.576 l -0.97467,0.26147 v 1.31453 h -0.85067 m -17.39733,4.4652 -0.25067,0.7588 c 0.38667,0.22653 0.94134,0.37347 1.54134,0.37347 1.304,0 2.052,-0.68027 2.052,-1.6428 0,-0.81614 -0.488,-1.29214 -1.44,-1.65467 -0.71334,-0.27187 -1.04267,-0.476 -1.04267,-0.92907 0,-0.4084 0.32933,-0.74853 0.91867,-0.74853 0.50933,0 0.90666,0.1828 1.12133,0.31773 l 0.24933,-0.72546 c -0.30533,-0.18134 -0.79333,-0.34014 -1.34933,-0.34014 -1.17733,0 -1.89067,0.72547 -1.89067,1.60934 0,0.65733 0.464,1.2016 1.44934,1.55213 0.73733,0.27347 1.02,0.53333 1.02,1.00933 0,0.4532 -0.34,0.81467 -1.06534,0.81467 -0.49866,0 -1.02,-0.20267 -1.31333,-0.3948 m -28.44,-4.4652 v 0.75893 h 0.85067 v 2.9916 c 0,0.64534 0.10133,1.13334 0.38533,1.42814 0.23733,0.27186 0.612,0.4188 1.076,0.4188 0.38533,0 0.692,-0.0563 0.884,-0.13494 l -0.0453,-0.74946 c -0.124,0.0349 -0.31734,0.0683 -0.57734,0.0683 -0.55466,0 -0.748,-0.38546 -0.748,-1.0652 v -2.9572 h 1.428 v -0.75893 h -1.428 v -1.576 l -0.97466,0.26147 v 1.31453 h -0.85067 m -14.79067,4.2828 -0.24933,0.8276 c 0.408,0.2724 1.212,0.48707 1.948,0.48707 1.80267,0 2.67467,-1.0188 2.67467,-2.19747 0,-1.12293 -0.65734,-1.7468 -1.948,-2.24533 -1.05467,-0.40667 -1.51867,-0.7588 -1.51867,-1.47187 0,-0.52133 0.396,-1.1452 1.43867,-1.1452 0.69066,0 1.20133,0.22653 1.45066,0.3624 l 0.272,-0.80413 c -0.34,-0.1916 -0.90666,-0.37454 -1.68933,-0.37454 -1.484,0 -2.46933,0.88387 -2.46933,2.07454 0,1.076 0.76933,1.72293 2.016,2.16413 1.032,0.39733 1.44,0.80413 1.44,1.51867 0,0.7708 -0.58934,1.30266 -1.59867,1.30266 -0.68,0 -1.32533,-0.22666 -1.76667,-0.49853 m 92.548,-4.2828 c 0.0333,0.50947 0.0453,1.0652 0.0453,1.7104 v 3.77347 h 0.98534 v -2.9224 c 0,-0.1708 0.0227,-0.3296 0.0453,-0.4656 0.136,-0.74787 0.63467,-1.2812 1.33733,-1.2812 0.136,0 0.23867,0.012 0.34,0.0348 v -0.94 l -0.28266,-0.0349 c -0.66934,0 -1.26934,0.4656 -1.51867,1.2016 h -0.0453 l -0.0347,-1.07613 h -0.872 m -13.772,-2.56147 v 8.04534 h 0.99734 v -8.04534 h -0.99734 m -11.36933,3.26254 c 0.94,0 1.26933,0.74946 1.26933,1.63333 v 3.14947 h 0.99734 v -3.26254 c 0,-1.8932 -1.17867,-2.3468 -1.916,-2.3468 -0.37334,0 -0.72534,0.11347 -1.02,0.28387 -0.30534,0.16973 -0.55467,0.42027 -0.71334,0.70307 h -0.0227 v -3.42294 h -0.99734 v 8.04534 h 0.99734 v -3.30774 c 0,-0.19333 0.0107,-0.34013 0.068,-0.47613 0.18133,-0.54533 0.69066,-0.99893 1.33733,-0.99893 m -8.80667,-0.70107 v 5.48387 h 0.99734 v -5.48387 h -0.99734 m -5.02133,1.0652 h 0.0213 c 0.136,0.6452 0.29467,1.18947 0.488,1.80147 l 0.83867,2.6172 h 0.90667 l 1.768,-5.48387 h -0.98534 l -0.78266,2.7532 c -0.18134,0.6468 -0.328,1.22293 -0.41867,1.77867 h -0.0347 c -0.124,-0.55574 -0.284,-1.13187 -0.488,-1.78907 l -0.84933,-2.7428 h -0.83867 l -0.89466,2.79853 c -0.18134,0.58947 -0.36267,1.1776 -0.488,1.73334 h -0.0333 c -0.10266,-0.5652 -0.24933,-1.13187 -0.408,-1.74387 l -0.72533,-2.788 h -1.02 l 1.65467,5.48387 h 0.90666 l 0.884,-2.6068 c 0.192,-0.588 0.36267,-1.15467 0.49867,-1.81187 m -25.56,-3.62667 v 8.04534 h 0.99733 v -8.04534 h -0.99733 m -16.70667,2.56147 v 0.75893 h 0.77067 v 4.72494 h 0.98533 v -4.72494 h 1.32534 v -0.75893 h -1.32534 v -0.29573 c 0,-0.83907 0.216,-1.58547 1.06534,-1.58547 0.284,0 0.48666,0.0557 0.63466,0.12493 l 0.136,-0.77186 c -0.192,-0.0785 -0.49866,-0.1588 -0.84933,-0.1588 -0.46533,0 -0.964,0.1484 -1.33733,0.51093 -0.46534,0.4412 -0.63467,1.14533 -0.63467,1.91613 v 0.25987 h -0.77067 m 47.78667,-2.1656 c -0.36267,0 -0.624,0.2724 -0.624,0.62453 0,0.3396 0.24933,0.612 0.60133,0.612 0.39734,0 0.64667,-0.2724 0.63467,-0.612 0,-0.35213 -0.23733,-0.62453 -0.612,-0.62453 m -28.10667,-105.9744 c -0.868,0 -1.708,0.13067 -2.408,0.30933 v 4.48134 c 1.25467,0 1.792,0.50133 1.792,1.864 v 20.36133 h 6.452 v -8.99733 c 0,0 1.076,0.57333 2.796,0.57333 3.58534,0 6.27334,-2.04267 6.41734,-6.56 0.072,-2.08 0.072,-4.19467 0,-6.09333 -0.144,-4.016 -2.36667,-6.16667 -5.52134,-6.16667 -3.22533,0 -4.80266,2.508 -4.80266,2.508 -1.10267,-1.748 -2.97334,-2.28 -4.72534,-2.28 m -20.18933,0.30933 5.664,17.56667 -2.976,9.14 h 6.45333 l 8.46,-26.70667 h -6.452 l -1.68533,8.06667 -0.60933,3.15467 h -0.072 l -0.50134,-3.15467 -1.46933,-8.06667 h -6.812 m 68.47067,16.096 -6.09467,0.35867 c 0.18,5.23467 4.48133,7.564 8.604,7.564 4.516,0 8.71067,-2.796 8.71067,-8.96267 0,-5.30533 -3.15467,-7.528 -6.668,-7.528 -2.15067,0 -3.51334,0.68134 -3.51334,0.68134 l 0.39467,-4.80267 h 8.496 v -5.37867 h -13.65733 l -1.004,14.77067 5.16133,0.35733 c 0.25067,-0.57333 0.93333,-1.32533 1.936,-1.32533 1.29067,0 2.40133,0.60933 2.40133,3.33333 0,2.04267 -0.824,3.47734 -2.36533,3.47734 -1.39733,0 -2.25867,-0.788 -2.40133,-2.54534 m -23.05067,-16.63333 c -4.33733,0 -7.74267,2.76 -7.88667,6.91867 -0.072,1.864 -0.072,3.44133 0,5.19866 0.21467,4.588 3.728,6.70267 7.70667,6.70267 4.016,0 7.09867,-2.47333 7.24133,-6.452 l -5.91333,-0.18 c -0.036,0.932 -0.61067,1.43333 -1.328,1.43333 -0.788,0 -1.28933,-0.572 -1.28933,-1.504 v -1.112 c 0,0 2.58133,-0.35866 4.768,-0.82533 2.76,-0.572 3.97866,-1.32533 3.97866,-3.836 0,-4.26533 -3.33333,-6.344 -7.27733,-6.344 m -58.93467,0.53733 v 4.48134 h 2.47334 v 7.20533 c 0,5.09067 3.62,6.596 7.13333,6.596 1.32667,0 2.976,-0.21467 3.908,-0.53733 l -0.18,-4.48134 c -0.42933,0.072 -1.28933,0.072 -1.684,0.072 -1.75733,0 -2.72533,-0.71733 -2.72533,-2.68933 v -6.16533 h 4.26666 v -4.48134 h -4.26666 v -4.98266 l -6.452,1.07466 v 3.908 h -2.47334 m 28.20267,126.23747 c -1.076,0 -1.62,-0.9188 -1.62,-2.02974 0,-1.21186 0.612,-2.11973 1.64267,-2.11973 0.748,0 1.292,0.5224 1.43866,1.15733 0.0347,0.12387 0.0467,0.2932 0.0467,0.41867 v 0.95213 c 0,0.15827 -0.012,0.29587 -0.0467,0.43067 -0.18,0.748 -0.792,1.19067 -1.46133,1.19067 m 6.39333,-0.10254 c -1.076,0 -1.62,-0.8948 -1.62,-1.9724 0,-1.26933 0.68,-2.07453 1.63067,-2.07453 0.72533,0 1.21333,0.47707 1.39467,1.05467 0.0453,0.136 0.056,0.2828 0.056,0.4532 v 0.98693 c 0,0.1692 -0.0227,0.36253 -0.0787,0.53173 -0.21467,0.63494 -0.77067,1.0204 -1.38267,1.0204 m 7.58267,-2.49386 h -2.912 c 0.0787,-0.69054 0.52133,-1.61974 1.52933,-1.61974 1.12134,0 1.39334,0.98547 1.38267,1.61974 m -18.408,0 h -2.912 c 0.08,-0.69054 0.52133,-1.61974 1.52933,-1.61974 1.12267,0 1.39467,0.98547 1.38267,1.61974 m 67.57867,-10.93853 c -0.51067,0 -0.94134,-0.3052 -0.94134,-0.952 0,-1.01307 1.12,-1.23707 2.16667,-1.23707 0.052,0 0.104,0.001 0.156,0.003 v 0.95213 l -0.056,0.31707 c -0.15867,0.46413 -0.612,0.9172 -1.32533,0.9172 m -55.66534,-0.0119 c -0.97466,0 -1.66533,-0.90533 -1.66533,-2.1068 0,-1.0428 0.50933,-2.1308 1.688,-2.1308 1.17867,0 1.64267,1.17867 1.64267,2.1084 0,1.23587 -0.71467,2.1292 -1.66534,2.1292 m -24.93733,0 c -0.97467,0 -1.66533,-0.90533 -1.66533,-2.1068 0,-1.0428 0.51066,-2.1308 1.68933,-2.1308 1.17733,0 1.64267,1.17867 1.64267,2.1084 0,1.23587 -0.71467,2.1292 -1.66667,2.1292 m 31.40933,-0.0439 c -0.72533,0 -1.30266,-0.476 -1.496,-1.16813 -0.0227,-0.1136 -0.0453,-0.2376 -0.0453,-0.36147 v -0.98653 c 0,-0.1588 0.0333,-0.2948 0.056,-0.40773 0.204,-0.75894 0.83867,-1.22454 1.51867,-1.22454 1.06533,0 1.632,0.94174 1.632,2.04014 0,1.2588 -0.62267,2.10826 -1.66534,2.10826 m -15.348,0 c -0.72533,0 -1.30266,-0.476 -1.49466,-1.16813 -0.0227,-0.1136 -0.0453,-0.2376 -0.0453,-0.36147 v -0.98653 c 0,-0.1588 0.0333,-0.2948 0.056,-0.40773 0.204,-0.75894 0.83867,-1.22454 1.51867,-1.22454 1.06533,0 1.632,0.94174 1.632,2.04014 0,1.2588 -0.62267,2.10826 -1.66667,2.10826 m 60.83334,-2.60666 h -2.912 c 0.0787,-0.69067 0.52133,-1.62147 1.52933,-1.62147 1.12267,0 1.39467,0.98653 1.38267,1.62147 m -46.73867,-96.95614 c -0.78933,0 -1.36267,-0.572 -1.36267,-1.46933 v -5.26933 c 0,-0.896 0.64534,-1.68534 1.50667,-1.68534 0.824,0 1.25467,0.53734 1.25467,1.61334 v 5.37733 c 0,0.78933 -0.50267,1.43333 -1.39867,1.43333 m 16.56267,-5.448 v -1.72133 c 0,-0.824 0.50133,-1.25467 1.18266,-1.25467 0.68,0 1.11067,0.43067 1.11067,1.32667 0,1.076 -0.25067,1.29067 -1.07467,1.47067 -0.60933,0.14266 -1.21866,0.17866 -1.21866,0.17866"
         style="fill:#e2e3f4;fill-opacity:1;fill-rule:nonzero;stroke:none;stroke-width:0.133333" />
      <path
         id="path621"
         d="m 249.61066,258.56134 c -3.51333,0 -7.13333,-1.50533 -7.13333,-6.596 v -7.20533 h -2.47334 v -4.48134 h 2.47334 v -3.908 l 6.452,-1.07466 v 4.98266 h 4.26666 v 4.48134 h -4.26666 v 6.16533 c 0,1.972 0.968,2.68933 2.72533,2.68933 0.39467,0 1.25467,0 1.684,-0.072 l 0.18,4.48134 c -0.932,0.32266 -2.58133,0.53733 -3.908,0.53733"
         style="fill:#3239b0;fill-opacity:1;fill-rule:nonzero;stroke:none;stroke-width:0.133333" />
      <path
         id="path622"
         d="m 262.65999,266.98534 h -6.45333 l 2.976,-9.14 -5.664,-17.56667 h 6.812 l 1.46933,8.06667 0.50134,3.15467 h 0.072 l 0.60933,-3.15467 1.68533,-8.06667 h 6.452 l -8.46,26.70667"
         style="fill:#3239b0;fill-opacity:1;fill-rule:nonzero;stroke:none;stroke-width:0.133333" />
      <path
         id="path623"
         d="m 279.54399,266.98534 h -6.452 v -20.36133 c 0,-1.36267 -0.53733,-1.864 -1.792,-1.864 v -4.48134 c 0.7,-0.17866 1.54,-0.30933 2.408,-0.30933 1.752,0 3.62267,0.532 4.72534,2.28 0,0 1.57733,-2.508 4.80266,-2.508 3.15467,0 5.37734,2.15067 5.52134,6.16667 0.072,1.89866 0.072,4.01333 0,6.09333 -0.144,4.51733 -2.832,6.56 -6.41734,6.56 -1.72,0 -2.796,-0.57333 -2.796,-0.57333 v 8.99733 m 1.50667,-22.04667 c -0.86133,0 -1.50667,0.78934 -1.50667,1.68534 v 5.26933 c 0,0.89733 0.57334,1.46933 1.36267,1.46933 0.896,0 1.39867,-0.644 1.39867,-1.43333 v -5.37733 c 0,-1.076 -0.43067,-1.61334 -1.25467,-1.61334"
         style="fill:#3239b0;fill-opacity:1;fill-rule:nonzero;stroke:none;stroke-width:0.133333" />
      <path
         id="path624"
         d="m 298.75866,258.56134 c -3.97867,0 -7.492,-2.11467 -7.70667,-6.70267 -0.072,-1.75733 -0.072,-3.33466 0,-5.19866 0.144,-4.15867 3.54934,-6.91867 7.88667,-6.91867 3.944,0 7.27733,2.07867 7.27733,6.344 0,2.51067 -1.21866,3.264 -3.97866,3.836 -2.18667,0.46667 -4.768,0.82533 -4.768,0.82533 v 1.112 c 0,0.932 0.50133,1.504 1.28933,1.504 0.71733,0 1.292,-0.50133 1.328,-1.43333 l 5.91333,0.18 c -0.14266,3.97867 -3.22533,6.452 -7.24133,6.452 m -0.10667,-13.62267 c -0.68133,0 -1.18266,0.43067 -1.18266,1.25467 v 1.72133 c 0,0 0.60933,-0.036 1.21866,-0.17866 0.824,-0.18 1.07467,-0.39467 1.07467,-1.47067 0,-0.896 -0.43067,-1.32667 -1.11067,-1.32667"
         style="fill:#3239b0;fill-opacity:1;fill-rule:nonzero;stroke:none;stroke-width:0.133333" />
      <path
         id="path625"
         d="m 324.49866,264.29734 c -4.12267,0 -8.424,-2.32933 -8.604,-7.564 l 6.09467,-0.35867 c 0.14266,1.75734 1.004,2.54534 2.40133,2.54534 1.54133,0 2.36533,-1.43467 2.36533,-3.47734 0,-2.724 -1.11066,-3.33333 -2.40133,-3.33333 -1.00267,0 -1.68533,0.752 -1.936,1.32533 l -5.16133,-0.35733 1.004,-14.77067 h 13.65733 v 5.37867 h -8.496 l -0.39467,4.80267 c 0,0 1.36267,-0.68134 3.51334,-0.68134 3.51333,0 6.668,2.22267 6.668,7.528 0,6.16667 -4.19467,8.96267 -8.71067,8.96267"
         style="fill:#3239b0;fill-opacity:1;fill-rule:nonzero;stroke:none;stroke-width:0.133333" />
      <path
         id="path626"
         d="m 244.41466,353.70681 c -0.736,0 -1.54,-0.21467 -1.948,-0.48707 l 0.24933,-0.8276 c 0.44134,0.27187 1.08667,0.49853 1.76667,0.49853 1.00933,0 1.59867,-0.53186 1.59867,-1.30266 0,-0.71454 -0.408,-1.12134 -1.44,-1.51867 -1.24667,-0.4412 -2.016,-1.08813 -2.016,-2.16413 0,-1.19067 0.98533,-2.07454 2.46933,-2.07454 0.78267,0 1.34933,0.18294 1.68933,0.37454 l -0.272,0.80413 c -0.24933,-0.13587 -0.76,-0.3624 -1.45066,-0.3624 -1.04267,0 -1.43867,0.62387 -1.43867,1.1452 0,0.71307 0.464,1.0652 1.51867,1.47187 1.29066,0.49853 1.948,1.1224 1.948,2.24533 0,1.17867 -0.872,2.19747 -2.67467,2.19747"
         style="fill:#070819;fill-opacity:1;fill-rule:nonzero;stroke:none;stroke-width:0.133333" />
      <path
         id="path627"
         d="m 250.70666,353.71881 c -1.48533,0 -2.62933,-1.08814 -2.62933,-2.82147 0,-1.83587 1.20133,-2.91347 2.72,-2.91347 1.57466,0 2.64,1.14534 2.64,2.82294 0,2.02813 -1.40534,2.912 -2.73067,2.912 m 0.068,-4.98707 c -1.17867,0 -1.68933,1.088 -1.68933,2.1308 0,1.20147 0.69066,2.1068 1.66533,2.1068 0.952,0 1.66667,-0.89333 1.66667,-2.1292 0,-0.92973 -0.46534,-2.1084 -1.64267,-2.1084"
         style="fill:#070819;fill-opacity:1;fill-rule:nonzero;stroke:none;stroke-width:0.133333" />
      <path
         id="path628"
         d="m 255.78399,353.59321 h -0.98533 v -4.72494 h -0.77067 v -0.75893 h 0.77067 v -0.25987 c 0,-0.7708 0.16933,-1.47493 0.63467,-1.91613 0.37333,-0.36253 0.872,-0.51093 1.33733,-0.51093 0.35067,0 0.65733,0.0803 0.84933,0.1588 l -0.136,0.77186 c -0.148,-0.0692 -0.35066,-0.12493 -0.63466,-0.12493 -0.84934,0 -1.06534,0.7464 -1.06534,1.58547 v 0.29573 h 1.32534 v 0.75893 h -1.32534 v 4.72494"
         style="fill:#070819;fill-opacity:1;fill-rule:nonzero;stroke:none;stroke-width:0.133333" />
      <path
         id="path629"
         d="m 259.81866,353.70681 c -0.464,0 -0.83867,-0.14694 -1.076,-0.4188 -0.284,-0.2948 -0.38533,-0.7828 -0.38533,-1.42814 v -2.9916 h -0.85067 v -0.75893 h 0.85067 v -1.31453 l 0.97466,-0.26147 v 1.576 h 1.428 v 0.75893 h -1.428 v 2.9572 c 0,0.67974 0.19334,1.0652 0.748,1.0652 0.26,0 0.45334,-0.0333 0.57734,-0.0683 l 0.0453,0.74946 c -0.192,0.0787 -0.49867,0.13494 -0.884,0.13494"
         style="fill:#070819;fill-opacity:1;fill-rule:nonzero;stroke:none;stroke-width:0.133333" />
      <path
         id="path630"
         d="m 267.01733,353.71881 c -0.79467,0 -1.42934,-0.3052 -1.836,-1.0308 h -0.0347 l -0.0453,0.9052 h -0.86134 c 0.0227,-0.37347 0.0453,-0.9292 0.0453,-1.41614 v -6.6292 h 0.98666 v 3.44534 h 0.0227 c 0.35067,-0.612 0.98533,-1.00934 1.86933,-1.00934 1.36,0 2.32267,1.13334 2.312,2.8 0,1.95987 -1.236,2.93494 -2.45866,2.93494 m -0.17067,-4.94174 c -0.68,0 -1.31467,0.4656 -1.51867,1.22454 -0.0227,0.11293 -0.056,0.24893 -0.056,0.40773 v 0.98653 c 0,0.12387 0.0227,0.24787 0.0453,0.36147 0.192,0.69213 0.76933,1.16813 1.49466,1.16813 1.044,0 1.66667,-0.84946 1.66667,-2.10826 0,-1.0984 -0.56667,-2.04014 -1.632,-2.04014"
         style="fill:#070819;fill-opacity:1;fill-rule:nonzero;stroke:none;stroke-width:0.133333" />
      <path
         id="path631"
         d="m 270.73466,353.59321 h 0.99688 v -8.04531 h -0.99688 z"
         style="fill:#070819;fill-opacity:1;fill-rule:nonzero;stroke:none;stroke-width:0.133333" />
      <path
         id="path632"
         d="m 275.64266,353.71881 c -1.48533,0 -2.62933,-1.08814 -2.62933,-2.82147 0,-1.83587 1.20133,-2.91347 2.72,-2.91347 1.57466,0 2.64,1.14534 2.64,2.82294 0,2.02813 -1.40534,2.912 -2.73067,2.912 m 0.068,-4.98707 c -1.17867,0 -1.688,1.088 -1.688,2.1308 0,1.20147 0.69067,2.1068 1.66533,2.1068 0.95067,0 1.66534,-0.89333 1.66534,-2.1292 0,-0.92973 -0.464,-2.1084 -1.64267,-2.1084"
         style="fill:#070819;fill-opacity:1;fill-rule:nonzero;stroke:none;stroke-width:0.133333" />
      <path
         id="path633"
         d="m 282.36399,353.71881 c -0.79333,0 -1.428,-0.3052 -1.836,-1.0308 h -0.0333 l -0.0467,0.9052 h -0.86133 c 0.024,-0.37347 0.0467,-0.9292 0.0467,-1.41614 v -6.6292 h 0.98533 v 3.44534 h 0.0227 c 0.35066,-0.612 0.98533,-1.00934 1.86933,-1.00934 1.36,0 2.32267,1.13334 2.312,2.8 0,1.95987 -1.236,2.93494 -2.45867,2.93494 m -0.17066,-4.94174 c -0.68,0 -1.31467,0.4656 -1.51867,1.22454 -0.0227,0.11293 -0.056,0.24893 -0.056,0.40773 v 0.98653 c 0,0.12387 0.0227,0.24787 0.0453,0.36147 0.19334,0.69213 0.77067,1.16813 1.496,1.16813 1.04267,0 1.66534,-0.84946 1.66534,-2.10826 0,-1.0984 -0.56667,-2.04014 -1.632,-2.04014"
         style="fill:#070819;fill-opacity:1;fill-rule:nonzero;stroke:none;stroke-width:0.133333" />
      <path
         id="path634"
         d="m 287.23733,353.70681 c -0.6,0 -1.15467,-0.14694 -1.54134,-0.37347 l 0.25067,-0.7588 c 0.29333,0.19213 0.81467,0.3948 1.31333,0.3948 0.72534,0 1.06534,-0.36147 1.06534,-0.81467 0,-0.476 -0.28267,-0.73586 -1.02,-1.00933 -0.98534,-0.35053 -1.44934,-0.8948 -1.44934,-1.55213 0,-0.88387 0.71334,-1.60934 1.89067,-1.60934 0.556,0 1.044,0.1588 1.34933,0.34014 l -0.24933,0.72546 c -0.21467,-0.13493 -0.612,-0.31773 -1.12133,-0.31773 -0.58934,0 -0.91867,0.34013 -0.91867,0.74853 0,0.45307 0.32933,0.6572 1.04267,0.92907 0.952,0.36253 1.44,0.83853 1.44,1.65467 0,0.96253 -0.748,1.6428 -2.052,1.6428"
         style="fill:#070819;fill-opacity:1;fill-rule:nonzero;stroke:none;stroke-width:0.133333" />
      <path
         id="path635"
         d="m 298.54933,353.59321 h -0.90667 l -0.83867,-2.6172 c -0.19333,-0.612 -0.352,-1.15627 -0.488,-1.80147 h -0.0213 c -0.136,0.6572 -0.30667,1.22387 -0.49867,1.81187 l -0.884,2.6068 h -0.90666 l -1.65467,-5.48387 h 1.02 l 0.72533,2.788 c 0.15867,0.612 0.30534,1.17867 0.408,1.74387 h 0.0333 c 0.12533,-0.55574 0.30666,-1.14387 0.488,-1.73334 l 0.89466,-2.79853 h 0.83867 l 0.84933,2.7428 c 0.204,0.6572 0.364,1.23333 0.488,1.78907 h 0.0347 c 0.0907,-0.55574 0.23733,-1.13187 0.41867,-1.77867 l 0.78266,-2.7532 h 0.98534 l -1.768,5.48387"
         style="fill:#070819;fill-opacity:1;fill-rule:nonzero;stroke:none;stroke-width:0.133333" />
      <path
         id="path636"
         d="m 302.31333,353.59321 h -0.99734 v -5.48387 h 0.99734 v 5.48387 m -0.52134,-6.41294 c -0.352,0 -0.60133,-0.2724 -0.60133,-0.612 0,-0.35213 0.26133,-0.62453 0.624,-0.62453 0.37467,0 0.612,0.2724 0.612,0.62453 0.012,0.3396 -0.23733,0.612 -0.63467,0.612"
         style="fill:#070819;fill-opacity:1;fill-rule:nonzero;stroke:none;stroke-width:0.133333" />
      <path
         id="path637"
         d="m 305.65599,353.70681 c -0.464,0 -0.83866,-0.14694 -1.076,-0.4188 -0.284,-0.2948 -0.38533,-0.7828 -0.38533,-1.42814 v -2.9916 h -0.85067 v -0.75893 h 0.85067 v -1.31453 l 0.97467,-0.26147 v 1.576 h 1.428 v 0.75893 h -1.428 v 2.9572 c 0,0.67974 0.192,1.0652 0.748,1.0652 0.26,0 0.45333,-0.0333 0.57733,-0.0683 l 0.0453,0.74946 c -0.192,0.0787 -0.49866,0.13494 -0.884,0.13494"
         style="fill:#070819;fill-opacity:1;fill-rule:nonzero;stroke:none;stroke-width:0.133333" />
      <path
         id="path638"
         d="m 312.38933,353.59321 h -0.99734 v -3.14947 c 0,-0.88387 -0.32933,-1.63333 -1.26933,-1.63333 -0.64667,0 -1.156,0.4536 -1.33733,0.99893 -0.0573,0.136 -0.068,0.2828 -0.068,0.47613 v 3.30774 h -0.99734 v -8.04534 h 0.99734 v 3.42294 h 0.0227 c 0.15867,-0.2828 0.408,-0.53334 0.71334,-0.70307 0.29466,-0.1704 0.64666,-0.28387 1.02,-0.28387 0.73733,0 1.916,0.4536 1.916,2.3468 v 3.26254"
         style="fill:#070819;fill-opacity:1;fill-rule:nonzero;stroke:none;stroke-width:0.133333" />
      <path
         id="path639"
         d="m 318.74799,353.70681 c -1.65466,0 -2.73066,-1.12294 -2.73066,-2.79894 0,-1.68813 1.156,-2.912 2.94666,-2.912 0.588,0 1.11067,0.1468 1.38267,0.2828 l -0.22667,0.7708 c -0.23866,-0.13493 -0.612,-0.25986 -1.156,-0.25986 -1.25866,0 -1.93733,0.9292 -1.93733,2.07293 0,1.2692 0.81467,2.052 1.90267,2.052 0.56666,0 0.94133,-0.14787 1.224,-0.27333 l 0.17066,0.74786 c -0.26133,0.13747 -0.83866,0.31774 -1.576,0.31774"
         style="fill:#070819;fill-opacity:1;fill-rule:nonzero;stroke:none;stroke-width:0.133333" />
      <path
         id="path640"
         d="m 321.49199,353.59321 h 0.9974 v -8.04531 h -0.9974 z"
         style="fill:#070819;fill-opacity:1;fill-rule:nonzero;stroke:none;stroke-width:0.133333" />
      <path
         id="path641"
         d="m 326.46666,353.70681 c -1.688,0 -2.69733,-1.11094 -2.69733,-2.7656 0,-1.6532 0.97466,-2.95734 2.57333,-2.95734 1.79067,0 2.26667,1.576 2.26667,2.5844 0,0.2036 -0.024,0.3624 -0.0347,0.46347 h -3.852 c 0.0213,1.34947 0.88267,1.90427 1.88,1.90427 0.71467,0 1.14533,-0.1256 1.51867,-0.28294 l 0.17066,0.7136 c -0.352,0.15987 -0.95333,0.34014 -1.82533,0.34014 m -0.204,-5.00947 c -1.008,0 -1.45067,0.9308 -1.52933,1.62147 h 2.912 c 0.012,-0.63494 -0.26,-1.62147 -1.38267,-1.62147"
         style="fill:#070819;fill-opacity:1;fill-rule:nonzero;stroke:none;stroke-width:0.133333" />
      <path
         id="path642"
         d="m 331.09199,353.71881 c -1.11066,0 -1.67733,-0.7828 -1.67733,-1.57614 0,-1.31613 1.16133,-2.04 3.25333,-2.04 0.0147,0 0.0293,0 0.044,0 v -0.1136 c 0,-0.45306 -0.124,-1.26773 -1.24533,-1.26773 -0.51067,0 -1.044,0.15893 -1.428,0.40787 l -0.228,-0.6584 c 0.45467,-0.29374 1.11067,-0.48694 1.80267,-0.48694 1.67733,0 2.08533,1.14534 2.08533,2.24427 v 2.05053 c 0,0.476 0.0227,0.94107 0.0907,1.31454 h -0.90666 l -0.0787,-0.69054 h -0.0347 c -0.30534,0.43067 -0.896,0.81614 -1.67734,0.81614 m 1.48667,-2.92667 c -1.04667,0 -2.16667,0.224 -2.16667,1.23707 0,0.6468 0.43067,0.952 0.94134,0.952 0.71333,0 1.16666,-0.45307 1.32533,-0.9172 l 0.056,-0.31707 v -0.95213 c -0.052,-0.002 -0.104,-0.003 -0.156,-0.003"
         style="fill:#070819;fill-opacity:1;fill-rule:nonzero;stroke:none;stroke-width:0.133333" />
      <path
         id="path643"
         d="m 336.29466,353.59321 h -0.98534 v -3.77347 c 0,-0.6452 -0.012,-1.20093 -0.0453,-1.7104 h 0.872 l 0.0347,1.07613 h 0.0453 c 0.24933,-0.736 0.84933,-1.2016 1.51867,-1.2016 l 0.28266,0.0349 v 0.94 c -0.10133,-0.0228 -0.204,-0.0348 -0.34,-0.0348 -0.70266,0 -1.20133,0.53333 -1.33733,1.2812 -0.0227,0.136 -0.0453,0.2948 -0.0453,0.4656 v 2.9224"
         style="fill:#070819;fill-opacity:1;fill-rule:nonzero;stroke:none;stroke-width:0.133333" />
      <path
         id="path644"
         d="m 245.15199,367.30787 c -1.65466,0 -2.732,-1.12147 -2.732,-2.79853 0,-1.688 1.15734,-2.912 2.94667,-2.912 0.58933,0 1.11067,0.148 1.384,0.28293 l -0.22667,0.77027 c -0.23866,-0.1344 -0.612,-0.25987 -1.15733,-0.25987 -1.25733,0 -1.93733,0.92907 -1.93733,2.0744 0,1.26827 0.816,2.05107 1.904,2.05107 0.56666,0 0.94133,-0.14787 1.224,-0.2724 l 0.16933,0.74693 c -0.26,0.13747 -0.83733,0.3172 -1.57467,0.3172"
         style="fill:#070819;fill-opacity:1;fill-rule:nonzero;stroke:none;stroke-width:0.133333" />
      <path
         id="path645"
         d="m 249.75333,367.31974 c -0.86134,0 -1.892,-0.476 -1.892,-2.40254 v -3.2068 h 0.99733 v 3.03654 c 0,1.04373 0.31733,1.7452 1.224,1.7452 0.668,0 1.13333,-0.464 1.31467,-0.90667 0.056,-0.14693 0.0907,-0.32813 0.0907,-0.5084 v -3.36667 h 0.99734 v 3.988 c 0,0.56667 0.012,1.0656 0.0453,1.4964 h -0.884 l -0.0573,-0.8948 h -0.0227 c -0.26,0.44267 -0.83867,1.01974 -1.81333,1.01974"
         style="fill:#070819;fill-opacity:1;fill-rule:nonzero;stroke:none;stroke-width:0.133333" />
      <path
         id="path646"
         d="m 255.82933,367.30787 c -0.464,0 -0.83867,-0.1464 -1.076,-0.4188 -0.284,-0.29427 -0.38534,-0.78227 -0.38534,-1.4276 v -2.99067 h -0.85066 v -0.7604 h 0.85066 v -1.31453 l 0.97467,-0.25987 v 1.5744 h 1.428 v 0.7604 h -1.428 v 2.95574 c 0,0.68026 0.192,1.0656 0.748,1.0656 0.26,0 0.45333,-0.0333 0.57733,-0.0681 l 0.0453,0.74947 c -0.192,0.0787 -0.49867,0.1344 -0.884,0.1344"
         style="fill:#070819;fill-opacity:1;fill-rule:nonzero;stroke:none;stroke-width:0.133333" />
      <path
         id="path647"
         d="m 262.59599,367.30787 c -1.688,0 -2.69733,-1.11053 -2.69733,-2.7652 0,-1.6536 0.97467,-2.9572 2.57333,-2.9572 1.79067,0 2.26667,1.576 2.26667,2.58387 0,0.20413 -0.0227,0.3624 -0.0347,0.4656 h -3.852 c 0.0213,1.34786 0.88267,1.90253 1.88,1.90253 0.71467,0 1.14534,-0.12387 1.51867,-0.2828 l 0.17067,0.71467 c -0.352,0.1588 -0.952,0.33853 -1.82534,0.33853 m -0.204,-5.00787 c -1.008,0 -1.44933,0.9292 -1.52933,1.61974 h 2.912 c 0.012,-0.63427 -0.26,-1.61974 -1.38267,-1.61974"
         style="fill:#070819;fill-opacity:1;fill-rule:nonzero;stroke:none;stroke-width:0.133333" />
      <path
         id="path648"
         d="m 267.92399,367.31974 c -1.32666,0 -2.34666,-1.1224 -2.34666,-2.788 -0.0107,-1.82387 1.12266,-2.94627 2.46,-2.94627 0.83866,0 1.40533,0.39733 1.65466,0.83853 h 0.0227 v -3.27453 h 0.996 v 6.6292 c 0,0.4864 0.012,1.04267 0.0453,1.41613 h -0.89466 l -0.0453,-0.95106 h -0.0227 c -0.30534,0.612 -0.97467,1.076 -1.86934,1.076 m 0.30534,-4.95307 c -1.03067,0 -1.64267,0.90787 -1.64267,2.11973 0,1.11094 0.544,2.02974 1.62,2.02974 0.66933,0 1.28133,-0.44267 1.46133,-1.19067 0.0347,-0.1348 0.0467,-0.2724 0.0467,-0.43067 v -0.95213 c 0,-0.12547 -0.012,-0.2948 -0.0467,-0.41867 -0.14666,-0.63493 -0.69066,-1.15733 -1.43866,-1.15733"
         style="fill:#070819;fill-opacity:1;fill-rule:nonzero;stroke:none;stroke-width:0.133333" />
      <path
         id="path649"
         d="m 274.27199,369.564 c -0.65866,0 -1.38266,-0.1588 -1.82533,-0.4536 l 0.24933,-0.75826 c 0.36267,0.22653 0.92934,0.42906 1.60934,0.42906 1.02,0 1.768,-0.53333 1.768,-1.91453 v -0.612 h -0.0227 c -0.30533,0.50933 -0.89467,0.9188 -1.74533,0.9188 -1.36,0 -2.33467,-1.15627 -2.33467,-2.67507 0,-1.85986 1.21333,-2.91293 2.47067,-2.91293 0.952,0 1.47333,0.5 1.71066,0.952 h 0.0227 l 0.0453,-0.82707 h 0.87334 c -0.0227,0.3964 -0.0453,0.83907 -0.0453,1.5068 v 3.18547 c 0,1.2572 -0.24933,2.028 -0.78266,2.50413 -0.532,0.4984 -1.30267,0.6572 -1.99334,0.6572 m 0.33867,-7.19733 c -0.95067,0 -1.63067,0.8052 -1.63067,2.07453 0,1.0776 0.544,1.9724 1.62,1.9724 0.612,0 1.168,-0.38546 1.38267,-1.0204 0.056,-0.1692 0.0787,-0.36253 0.0787,-0.53173 v -0.98693 c 0,-0.1704 -0.0107,-0.3172 -0.056,-0.4532 -0.18134,-0.5776 -0.66934,-1.05467 -1.39467,-1.05467"
         style="fill:#070819;fill-opacity:1;fill-rule:nonzero;stroke:none;stroke-width:0.133333" />
      <path
         id="path650"
         d="m 281.00399,367.30787 c -1.688,0 -2.69733,-1.11053 -2.69733,-2.7652 0,-1.6536 0.97467,-2.9572 2.57333,-2.9572 1.79067,0 2.26534,1.576 2.26534,2.58387 0,0.20413 -0.0227,0.3624 -0.0333,0.4656 h -3.85333 c 0.0227,1.34786 0.884,1.90253 1.88133,1.90253 0.71467,0 1.144,-0.12387 1.51867,-0.2828 l 0.17067,0.71467 c -0.352,0.1588 -0.95334,0.33853 -1.82534,0.33853 m -0.204,-5.00787 c -1.008,0 -1.45066,0.9292 -1.52933,1.61974 h 2.912 C 282.1934,363.28547 281.92137,362.3 280.80003,362.3"
         style="fill:#070819;fill-opacity:1;fill-rule:nonzero;stroke:none;stroke-width:0.133333" />
      <path
         id="path651"
         d="m 285.53733,367.30787 c -0.6,0 -1.15467,-0.1464 -1.54,-0.37347 l 0.24933,-0.7584 c 0.29333,0.19227 0.81467,0.39587 1.31333,0.39587 0.72534,0 1.06534,-0.36253 1.06534,-0.81613 0,-0.47547 -0.28267,-0.736 -1.01867,-1.0088 -0.98667,-0.35107 -1.45067,-0.89387 -1.45067,-1.55214 0,-0.8844 0.71334,-1.60933 1.892,-1.60933 0.55467,0 1.04267,0.15987 1.348,0.34 l -0.24933,0.72507 c -0.21467,-0.1344 -0.612,-0.3172 -1.12133,-0.3172 -0.58934,0 -0.91734,0.34013 -0.91734,0.74946 0,0.45214 0.328,0.65734 1.04134,0.9276 0.952,0.36307 1.44,0.83907 1.44,1.65467 0,0.96413 -0.748,1.6428 -2.052,1.6428"
         style="fill:#070819;fill-opacity:1;fill-rule:nonzero;stroke:none;stroke-width:0.133333" />
      <path
         id="path837"
         d="m 264.75466,303.98801 c -3.032,-0.212 -6.08533,-0.10934 -9.09467,0.30786 -0.73866,0.10147 -1.48133,0.22294 -2.22533,0.1724 -1.02667,-0.0724 -2,-0.46826 -3.008,-0.68026 -2.296,-0.48387 -4.78533,0.036 -6.69333,1.4 -1.90934,1.36253 -3.20934,3.54946 -3.49734,5.87706 -0.208,1.688 0.17334,3.5604 1.44534,4.69067 1.09466,0.97493 2.63066,1.23747 4.08133,1.46147 2.91467,0.45106 5.83067,0.9 8.76133,1.23226 2.20134,0.24787 4.448,0.4292 6.61867,-0.0188 3.532,-0.728 6.66133,-3.19893 8.188,-6.4656 1.05867,-2.26346 1.17333,-5.35146 -0.79733,-6.8848 -1.052,-0.8188 -2.45067,-0.99906 -3.77867,-1.09226"
         style="fill:#ab4140;fill-opacity:1;fill-rule:nonzero;stroke:none;stroke-width:0.133333" />
      <path
         id="path838"
         d="m 266.16666,301.11721 c 1.784,1.52293 4.444,1.00933 6.788,1.04426 2.03867,0.0307 4.03333,0.54267 6.03733,0.9156 2.00534,0.37347 4.09334,0.6068 6.064,0.0869 1.972,-0.52134 3.81467,-1.9348 4.33467,-3.9052 0.36933,-1.39374 0.048,-2.8828 -0.48933,-4.22027 -0.31867,-0.7948 -0.72134,-1.57027 -1.30134,-2.20253 -1.20133,-1.308 -3.04133,-1.85867 -4.81466,-1.94 -1.77334,-0.0827 -3.536,0.24533 -5.304,0.416 -2.14534,0.208 -4.32134,0.184 -6.42934,0.63733 -2.10666,0.45333 -4.20666,1.46787 -5.38533,3.272 -1.18,1.80413 -1.13867,4.49587 0.5,5.89587"
         style="fill:#ab4140;fill-opacity:1;fill-rule:nonzero;stroke:none;stroke-width:0.133333" />
      <path
         id="path839"
         d="m 332.21733,293.74787 c 0.228,-3.15453 0.34266,-6.67453 -1.72934,-9.06386 -1.96666,-2.26934 -5.26266,-2.748 -8.26133,-2.908 -5.29067,-0.28267 -10.72133,-0.02 -15.65467,1.90933 -4.93333,1.928 -9.33866,5.732 -10.97733,10.76933 -0.75067,2.30934 -0.62667,5.35894 1.49467,6.54267 0.61733,0.34533 1.32933,0.4772 2.03066,0.56667 2.168,0.27346 4.36267,0.16 6.54667,0.1068 4.192,-0.10254 8.38933,0.0131 12.56933,0.348 2.42934,0.1932 4.892,0.45986 7.28534,0.003 2.39333,-0.4588 4.76,-1.776 5.82666,-3.96827 0.64534,-1.32386 0.76267,-2.83586 0.86934,-4.3052"
         style="fill:#ab4140;fill-opacity:1;fill-rule:nonzero;stroke:none;stroke-width:0.133333" />
      <path
         id="path840"
         d="m 278.06266,313.49214 c -1.42533,1.81573 -1.75733,4.26093 -1.72933,6.57187 0.0133,1.06146 0.108,2.17613 0.688,3.06413 0.75333,1.15213 2.152,1.67867 3.48,2.03853 5.33333,1.44534 10.94666,1.33334 16.47066,1.2104 1.612,-0.0359 3.29334,-0.088 4.71334,-0.85466 1.67466,-0.9052 2.72533,-2.69427 3.17333,-4.54374 0.44933,-1.848 0.37467,-3.78026 0.296,-5.68133 -0.064,-1.57187 -0.192,-3.3 -1.29333,-4.42387 -1.15734,-1.18026 -2.99334,-1.2948 -4.64667,-1.30413 -4.02133,-0.0256 -8.04533,0.1228 -12.05333,0.44267 -3.336,0.26666 -7.03334,0.84786 -9.09867,3.48013"
         style="fill:#ab4140;fill-opacity:1;fill-rule:nonzero;stroke:none;stroke-width:0.133333" />
      <path
         id="path841"
         d="m 317.15733,314.95987 c -0.69334,1.67867 -0.62934,3.65467 0.17333,5.28387 0.48533,0.98547 1.26667,1.86987 2.29733,2.2484 0.656,0.2412 1.37067,0.2636 2.06934,0.28493 6.30533,0.19374 12.61066,0.3844 18.91599,0.576 1.88934,0.0573 3.82934,0.1084 5.61467,-0.51293 2.54667,-0.88547 4.55733,-3.212 4.976,-5.87507 0.41733,-2.66346 -0.824,-5.5396 -3.09867,-6.9864 -0.976,-0.6188 -2.09066,-0.97706 -3.192,-1.3292 -3.57733,-1.14266 -7.25333,-2.29893 -11.004,-2.0948 -3.20533,0.176 -6.26533,1.33854 -9.23199,2.56147 -3.01734,1.24267 -6.27334,2.8276 -7.52,5.84373"
         style="fill:#ab4140;fill-opacity:1;fill-rule:nonzero;stroke:none;stroke-width:0.133333" />
      <path
         id="path842"
         d="m 358.08266,303.64267 c 1.80666,0.0557 3.64133,0.10947 5.39733,-0.32386 1.756,-0.43334 3.45467,-1.424 4.33467,-3.00427 1.50533,-2.6984 0.0867,-6.30253 -2.408,-8.1252 -2.49467,-1.824 -5.736,-2.244 -8.82534,-2.312 -3.29066,-0.072 -6.588,0.18933 -9.82666,0.77733 -1.25467,0.228 -2.528,0.51734 -3.604,1.20134 -1.93467,1.228 -2.94267,3.70906 -2.53734,5.96533 0.40667,2.25733 2.14267,4.19067 4.30267,4.95987 1.36533,0.48813 2.84267,0.5376 4.292,0.5828 2.95867,0.0933 5.916,0.18546 8.87467,0.27866"
         style="fill:#ab4140;fill-opacity:1;fill-rule:nonzero;stroke:none;stroke-width:0.133333" />
      <path
         id="path843"
         d="m 268.53199,305.08027 c -1.05066,-0.81773 -2.44933,-0.99906 -3.77733,-1.09226 -0.99333,-0.0708 -1.98933,-0.0921 -2.98533,-0.0948 0.16266,2.148 -0.23334,5.26666 -3.44267,6.82813 -3.872,1.88387 -12.07067,1.1412 -18.13733,1.1708 -0.009,1.44533 0.424,2.91467 1.492,3.8636 1.09466,0.97493 2.63066,1.23747 4.08,1.46147 2.916,0.45106 5.832,0.9 8.76266,1.23226 2.20134,0.24787 4.448,0.4292 6.61867,-0.0188 3.532,-0.728 6.66133,-3.19893 8.188,-6.4656 1.05867,-2.26346 1.17467,-5.35146 -0.79867,-6.8848"
         style="fill:#9e302f;fill-opacity:1;fill-rule:nonzero;stroke:none;stroke-width:0.133333" />
      <path
         id="path844"
         d="m 288.90133,295.03854 c -0.31867,-0.7948 -0.72134,-1.57027 -1.30134,-2.20253 -1.20133,-1.308 -3.04133,-1.85867 -4.81466,-1.94 -0.33067,-0.016 -0.66267,-0.005 -0.99467,0.005 0.29067,0.988 0.41467,2.21467 0.052,3.60027 -0.82,3.13853 -9.61733,3.26506 -16.92,4.24373 0.14133,0.91347 0.53467,1.76507 1.244,2.37187 1.784,1.52293 4.444,1.00933 6.788,1.04426 2.03867,0.0307 4.03333,0.54267 6.03867,0.9156 2.004,0.37347 4.092,0.6068 6.06266,0.0869 1.972,-0.52134 3.81467,-1.9348 4.33467,-3.9052 0.36933,-1.39374 0.048,-2.8828 -0.48933,-4.22027"
         style="fill:#9e302f;fill-opacity:1;fill-rule:nonzero;stroke:none;stroke-width:0.133333" />
      <path
         id="path845"
         d="m 330.48799,284.68401 c -1.92533,-2.22134 -5.12266,-2.724 -8.07066,-2.89467 1.01066,3.336 0.432,7.816 -1.9,10.52 -3.21334,3.72813 -15.64,0.832 -25,2.4376 -0.65067,2.2692 -0.46267,5.11453 1.572,6.2504 0.61733,0.34533 1.32933,0.4772 2.03066,0.56667 2.168,0.27346 4.36267,0.16 6.54667,0.1068 4.192,-0.10254 8.38933,0.0131 12.56933,0.348 2.42934,0.1932 4.892,0.45986 7.28534,0.003 2.39333,-0.4588 4.76,-1.776 5.82666,-3.96827 0.64534,-1.32386 0.76267,-2.83586 0.86934,-4.3052 0.228,-3.15453 0.34266,-6.67453 -1.72934,-9.06386"
         style="fill:#9e302f;fill-opacity:1;fill-rule:nonzero;stroke:none;stroke-width:0.133333" />
      <path
         id="path846"
         d="m 305.15466,315.29734 c -0.064,-1.57187 -0.192,-3.3 -1.29333,-4.42387 -1.15734,-1.18026 -2.99334,-1.2948 -4.64667,-1.30413 -0.556,-0.004 -1.112,0.004 -1.66667,0.008 1.70267,10.5484 -13.40266,10.2136 -21.188,9.3084 -0.02,0.3948 -0.0307,0.788 -0.0267,1.17854 0.0133,1.06146 0.108,2.17613 0.688,3.06413 0.752,1.15213 2.152,1.67867 3.48,2.03853 5.33333,1.44534 10.94666,1.33334 16.47066,1.2104 1.612,-0.0344 3.29334,-0.088 4.71334,-0.85466 1.67466,-0.9052 2.72533,-2.69427 3.17333,-4.54374 0.44933,-1.848 0.37467,-3.78026 0.296,-5.68133"
         style="fill:#9e302f;fill-opacity:1;fill-rule:nonzero;stroke:none;stroke-width:0.133333" />
      <path
         id="path847"
         d="m 348.10532,309.97867 c -0.976,-0.6188 -2.09066,-0.97706 -3.192,-1.3292 -1.30533,-0.41773 -2.62533,-0.83493 -3.956,-1.188 0.80667,2.0188 1.24134,4.60254 -0.432,6.65827 -2.95466,3.62973 -13.54533,0.73907 -23.77066,2.3376 -0.18667,1.28387 0.003,2.62293 0.576,3.7864 0.48533,0.98547 1.26667,1.86987 2.29733,2.2484 0.656,0.2412 1.37067,0.2636 2.06934,0.28493 6.30533,0.19374 12.61066,0.3844 18.91599,0.576 1.88934,0.0573 3.82934,0.1084 5.61467,-0.51293 2.54667,-0.88547 4.55733,-3.212 4.976,-5.87507 0.41733,-2.66346 -0.824,-5.5396 -3.09867,-6.9864"
         style="fill:#9e302f;fill-opacity:1;fill-rule:nonzero;stroke:none;stroke-width:0.133333" />
      <path
         id="path848"
         d="m 365.40666,292.18934 c -1.98667,-1.452 -4.44534,-2.008 -6.924,-2.21067 0.836,1.54134 1.37866,3.26 0.92133,4.7744 -1.10933,3.66307 -8.10933,1.76667 -18.74,3.26414 0.46933,2.1708 2.156,4.01613 4.252,4.764 1.36533,0.48813 2.84267,0.5376 4.292,0.5828 2.95867,0.0933 5.916,0.18546 8.87467,0.27866 1.80666,0.0557 3.64133,0.10947 5.39733,-0.32386 1.75733,-0.43334 3.45467,-1.424 4.33467,-3.00427 1.50533,-2.6984 0.0867,-6.30253 -2.408,-8.1252"
         style="fill:#9e302f;fill-opacity:1;fill-rule:nonzero;stroke:none;stroke-width:0.133333" />
      <path
         id="path849"
         d="m 268.53333,305.08027 c -0.636,-0.4948 -1.39867,-0.75626 -2.196,-0.90573 0.13333,1.30147 -0.15867,2.72027 -0.716,3.91093 -1.52667,3.2676 -4.65467,5.73854 -8.188,6.46667 -2.16934,0.44787 -4.416,0.26667 -6.61867,0.0187 -2.93067,-0.33227 -5.84667,-0.7828 -8.76133,-1.23227 -0.59334,-0.0907 -1.2,-0.19067 -1.78534,-0.3412 0.172,1.05893 0.61867,2.05213 1.41334,2.7584 1.09466,0.97493 2.63066,1.23747 4.08133,1.46147 2.91467,0.45106 5.83067,0.9 8.76133,1.23226 2.20134,0.24787 4.448,0.4292 6.61867,-0.0188 3.532,-0.728 6.66133,-3.19893 8.188,-6.4656 1.05867,-2.26346 1.17333,-5.35146 -0.79733,-6.8848"
         style="fill:#873434;fill-opacity:1;fill-rule:nonzero;stroke:none;stroke-width:0.133333" />
      <path
         id="path850"
         d="m 288.90133,295.03854 c -0.31867,-0.7948 -0.72134,-1.57027 -1.30134,-2.20253 -0.63333,-0.69067 -1.44533,-1.16667 -2.33066,-1.47734 0.48933,1.284 0.764,2.696 0.41333,4.0216 -0.52133,1.97027 -2.364,3.38374 -4.33467,3.9052 -1.972,0.51974 -4.06,0.2864 -6.064,-0.0871 -2.00533,-0.37294 -4,-0.8864 -6.03733,-0.9156 -1.43733,-0.0229 -2.99067,0.16093 -4.388,-0.0427 0.052,1.10253 0.46933,2.15987 1.308,2.87707 1.784,1.52293 4.444,1.00933 6.788,1.04426 2.03867,0.0307 4.03333,0.54267 6.03733,0.9156 2.00534,0.37347 4.09334,0.6068 6.064,0.0869 1.972,-0.52134 3.81467,-1.9348 4.33467,-3.9052 0.36933,-1.39374 0.048,-2.8828 -0.48933,-4.22027"
         style="fill:#873434;fill-opacity:1;fill-rule:nonzero;stroke:none;stroke-width:0.133333" />
      <path
         id="path851"
         d="m 330.48799,284.68401 c -0.68933,-0.796 -1.544,-1.36934 -2.49066,-1.78667 0.784,2.124 0.67866,4.64667 0.51066,6.97067 -0.10666,1.47066 -0.224,2.98266 -0.86933,4.308 -1.06667,2.18906 -3.43333,3.50786 -5.82667,3.9652 -2.39333,0.4588 -4.856,0.19213 -7.28533,-0.003 -4.18,-0.33333 -8.37733,-0.44947 -12.568,-0.3464 -2.184,0.0532 -4.37867,0.16667 -6.54667,-0.10667 l -0.208,-0.0281 c 0.12267,1.39573 0.68134,2.66813 1.88534,3.34 0.61733,0.34533 1.32933,0.4772 2.03066,0.56667 2.168,0.27346 4.36267,0.16 6.54667,0.1068 4.192,-0.10254 8.38933,0.0131 12.56933,0.348 2.42934,0.1932 4.892,0.45986 7.28534,0.003 2.39333,-0.4588 4.76,-1.776 5.82666,-3.96827 0.64534,-1.32386 0.76267,-2.83586 0.86934,-4.3052 0.228,-3.15453 0.34266,-6.67453 -1.72934,-9.06386"
         style="fill:#873434;fill-opacity:1;fill-rule:nonzero;stroke:none;stroke-width:0.133333" />
      <path
         id="path852"
         d="m 305.15466,315.29734 c -0.064,-1.57187 -0.192,-3.3 -1.29333,-4.42387 -0.676,-0.6896 -1.584,-1.0136 -2.552,-1.16826 0.0813,0.56826 0.11333,1.15053 0.136,1.712 0.0787,1.9016 0.15333,3.83333 -0.29467,5.6812 -0.44933,1.85106 -1.5,3.64013 -3.17467,4.54426 -1.41866,0.76667 -3.10133,0.82134 -4.71333,0.85574 -5.524,0.12293 -11.13733,0.23493 -16.46933,-1.2104 -0.132,-0.0359 -0.26534,-0.0744 -0.39867,-0.11347 0.0773,0.6948 0.24667,1.3724 0.62667,1.9536 0.75333,1.15213 2.152,1.67867 3.48,2.03853 5.33333,1.44534 10.94666,1.33334 16.47066,1.2104 1.612,-0.0359 3.29334,-0.088 4.71334,-0.85466 1.67466,-0.9052 2.72533,-2.69427 3.17333,-4.54374 0.44933,-1.848 0.37467,-3.78026 0.296,-5.68133"
         style="fill:#873434;fill-opacity:1;fill-rule:nonzero;stroke:none;stroke-width:0.133333" />
      <path
         id="path853"
         d="m 348.10532,309.97867 c -0.32933,-0.20933 -0.676,-0.38653 -1.032,-0.54693 0.45067,1.15627 0.61467,2.42707 0.42134,3.65373 -0.41734,2.664 -2.42934,4.99054 -4.976,5.876 -1.78534,0.62134 -3.724,0.5692 -5.61334,0.512 -6.30533,-0.19066 -12.61066,-0.3828 -18.91599,-0.57346 -0.384,-0.012 -0.772,-0.0265 -1.15334,-0.0745 0.10934,0.48907 0.27334,0.96774 0.49467,1.41827 0.48533,0.98547 1.26667,1.86987 2.29733,2.24693 0.656,0.24267 1.37067,0.26507 2.06934,0.2864 6.30533,0.19374 12.61066,0.3844 18.91599,0.576 1.88934,0.0573 3.82934,0.1084 5.61467,-0.51293 2.54667,-0.88547 4.55733,-3.212 4.976,-5.87507 0.41733,-2.66346 -0.824,-5.5396 -3.09867,-6.9864"
         style="fill:#873434;fill-opacity:1;fill-rule:nonzero;stroke:none;stroke-width:0.133333" />
      <path
         id="path854"
         d="m 365.40666,292.18934 c -0.39467,-0.28933 -0.81067,-0.54 -1.24,-0.76267 0.704,1.632 0.79866,3.4692 -0.06,5.00934 -0.88134,1.58013 -2.57867,2.57186 -4.33467,3.00413 -1.756,0.43333 -3.59067,0.3796 -5.39867,0.3224 -2.95733,-0.0917 -5.916,-0.18387 -8.87333,-0.27707 -1.45067,-0.0453 -2.928,-0.0959 -4.29333,-0.5828 l -0.33467,-0.13186 c 0.65733,1.83706 2.19467,3.3516 4.044,4.0104 1.36533,0.48813 2.84267,0.5376 4.292,0.5828 2.95867,0.0933 5.916,0.18546 8.87467,0.27866 1.80666,0.0557 3.64133,0.10947 5.39733,-0.32386 1.756,-0.43334 3.45467,-1.424 4.33467,-3.00427 1.50533,-2.6984 0.0867,-6.30253 -2.408,-8.1252"
         style="fill:#873434;fill-opacity:1;fill-rule:nonzero;stroke:none;stroke-width:0.133333" />
      <path
         id="path855"
         d="m 244.99733,307.30681 -0.252,0.1796 c -1.32,1.024 -2.17334,3.1016 -0.344,4.17346 1.49466,0.87507 4.14266,0.62134 5.56266,-0.252 1.612,-0.99066 2.10267,-3.1428 0.84267,-4.58386 -1.28533,-1.47347 -4.47467,-0.26147 -5.80933,0.4828"
         style="fill:#bd5858;fill-opacity:1;fill-rule:nonzero;stroke:none;stroke-width:0.133333" />
      <path
         id="path856"
         d="m 274.39199,292.86934 c -1.45866,-0.16933 -3.428,0.32667 -4.07466,1.8 -0.69734,1.5828 0.38133,2.78373 1.856,3.03067 0.116,0.0317 0.23866,0.0547 0.37733,0.0531 1.59733,-0.008 3.36267,-0.2984 4.316,-1.70613 0.41333,-0.61093 0.46267,-1.67347 -0.0787,-2.2136 -0.59466,-0.59467 -1.588,-0.87067 -2.396,-0.964"
         style="fill:#bd5858;fill-opacity:1;fill-rule:nonzero;stroke:none;stroke-width:0.133333" />
      <path
         id="path857"
         d="m 307.34799,286.55067 c -1.736,0.772 -3.65066,2.77067 -2.216,4.69467 l 0.14267,0.15733 c 0.0853,0.11067 0.18667,0.21734 0.32133,0.30667 1.58534,1.07067 3.86667,0.53867 5.43734,-0.26533 1.296,-0.66267 3.86133,-3.344 2.332,-4.872 -1.79334,-1.79467 -4.03334,-0.90267 -6.01734,-0.0213"
         style="fill:#bd5858;fill-opacity:1;fill-rule:nonzero;stroke:none;stroke-width:0.133333" />
      <path
         id="path858"
         d="m 284.82933,312.36667 -0.096,-0.007 -0.248,-0.0401 c -2.084,-0.12387 -4.156,0.94853 -5.192,2.78547 -0.44267,0.7828 -0.32667,1.73333 0.16933,2.45106 0.648,0.93694 1.764,1.14214 2.82933,1.18747 1.94267,0.0776 4.20667,-0.50773 5.084,-2.4172 0.88667,-1.92813 -0.69066,-3.64373 -2.54666,-3.95987"
         style="fill:#bd5858;fill-opacity:1;fill-rule:nonzero;stroke:none;stroke-width:0.133333" />
      <path
         id="path859"
         d="m 320.98266,315.57707 0.12,0.13494 c 0.0893,0.11973 0.19867,0.23333 0.344,0.3292 1.57067,1.0348 3.96667,0.3468 5.51067,-0.38814 1.38533,-0.65986 3.02666,-2.73333 1.59466,-4.16506 -2.20533,-2.2052 -10.00266,0.7104 -7.56933,4.08906"
         style="fill:#bd5858;fill-opacity:1;fill-rule:nonzero;stroke:none;stroke-width:0.133333" />
      <path
         id="path860"
         d="m 349.49199,292.35067 c -1.44533,-0.43066 -2.988,-0.18 -4.22533,0.624 -0.14,0.064 -0.27734,0.15467 -0.40534,0.28667 l -0.24266,0.30373 c -0.89467,1.1964 -0.83734,2.93334 0.76266,3.54854 1.43467,0.55146 3.77067,0.1676 4.9,-0.89067 1.32,-1.23747 1.044,-3.32693 -0.78933,-3.87227"
         style="fill:#bd5858;fill-opacity:1;fill-rule:nonzero;stroke:none;stroke-width:0.133333" />
    </g>
  </g>
</svg>
