<?xml version="1.0" encoding="UTF-8" standalone="no"?>
<!-- Created with Inkscape (http://www.inkscape.org/) -->

<svg
   width="33.636856mm"
   height="12.293947mm"
   viewBox="0 0 33.636856 12.293947"
   version="1.1"
   id="svg1"
   inkscape:version="1.4.2 (ebf0e94, 2025-05-08)"
   sodipodi:docname="type3.svg"
   xmlns:inkscape="http://www.inkscape.org/namespaces/inkscape"
   xmlns:sodipodi="http://sodipodi.sourceforge.net/DTD/sodipodi-0.dtd"
   xmlns="http://www.w3.org/2000/svg"
   xmlns:svg="http://www.w3.org/2000/svg">
  <sodipodi:namedview
     id="namedview1"
     pagecolor="#ffffff"
     bordercolor="#000000"
     borderopacity="0.25"
     inkscape:showpageshadow="2"
     inkscape:pageopacity="0.0"
     inkscape:pagecheckerboard="0"
     inkscape:deskcolor="#d1d1d1"
     inkscape:document-units="mm"
     inkscape:zoom="0.71535494"
     inkscape:cx="236.24636"
     inkscape:cy="172.64157"
     inkscape:window-width="1920"
     inkscape:window-height="1011"
     inkscape:window-x="0"
     inkscape:window-y="0"
     inkscape:window-maximized="1"
     inkscape:current-layer="layer1" />
  <defs
     id="defs1" />
  <g
     inkscape:label="Layer 1"
     inkscape:groupmode="layer"
     id="layer1"
     transform="translate(-42.597921,-102.65833)">
    <g
       id="g885"
       transform="matrix(0.26458333,0,0,0.26458333,-121.72681,79.116584)">
      <path
         id="path219"
         d="m 621.17865,111.56268 c 1.08133,-10.012 11.928,-22.172002 26.57867,-22.560002 7.22533,-0.192 9.72133,0.752 11.452,1.694667 1.77866,0.969333 2.74933,1.938667 7.21733,1.676 8.81733,-0.518667 9.46533,-4.149333 15.04133,-0.648 5.57467,3.501333 3.37067,4.278667 12.70534,3.501333 5.13333,-0.429333 7.20933,0.0067 10.30133,0.441334 2.53067,0.356 5.74267,0.712 11.87067,0.594666 13.61333,-0.258666 22.55999,3.112 29.04133,12.965332 6.48266,9.85467 0.648,14.00267 -6.22267,15.55867 -6.872,1.556 -3.37067,6.484 -12.57733,6.484 -9.20533,0 -3.88933,2.852 -18.67067,2.46266 -6.212,-0.16266 -14.89866,0.33734 -23.96933,0.83734 -12.50933,0.69066 -25.752,1.38133 -34.24533,0.32933 -14.65067,-1.81467 -30.07867,-8.94533 -28.52267,-23.33733"
         style="fill:#ab4140;fill-opacity:1;fill-rule:nonzero;stroke:none;stroke-width:0.133333" />
      <path
         id="path220"
         d="m 716.87732,96.261345 c 6.228,1.462667 11.528,4.726665 17.27866,9.399995 7.18667,5.844 -2.952,16.46267 -26.252,16.03867 -23.30266,-0.42667 -26.54266,5.03467 -52.26266,5.86267 -21.704,0.69866 -30.07734,-6.75867 -34.56134,-14.22 -0.14533,13.2 14.58934,19.81866 28.62134,21.55733 8.49333,1.052 21.736,0.36133 34.24533,-0.328 9.07067,-0.50133 17.75733,-1.00133 23.96933,-0.83867 14.78134,0.38934 9.46534,-2.46266 18.67067,-2.46266 9.20666,0 5.70533,-4.928 12.57733,-6.484 6.87067,-1.556 12.70533,-5.704 6.22267,-15.55867 -6.396,-9.721332 -15.19867,-13.125332 -28.50933,-12.966665"
         style="fill:#9e302f;fill-opacity:1;fill-rule:nonzero;stroke:none;stroke-width:0.133333" />
      <path
         id="path221"
         d="m 631.04798,105.47734 -0.264,-0.032 c -0.60133,-0.14533 -0.972,-0.75066 -0.82666,-1.352 0.652,-2.704 2.57333,-5.143995 5.14,-6.526662 2.412,-1.3 5.30933,-1.692 8.15466,-1.104 0.252,0.052 0.50134,0.110667 0.752,0.170667 0.49867,0.118667 0.97067,0.230667 1.42667,0.270667 1.26533,0.112 2.564,-0.352 3.47333,-1.241334 0.444,-0.433333 1.15334,-0.424 1.58534,0.01867 0.43333,0.441333 0.42533,1.152 -0.016,1.585333 -1.372,1.34 -3.324,2.041334 -5.23867,1.872 -0.62,-0.05467 -1.19467,-0.190666 -1.75067,-0.324 -0.228,-0.05333 -0.456,-0.109333 -0.68533,-0.156 -2.3,-0.473333 -4.716,-0.152 -6.636,0.882667 -2.01733,1.085332 -3.52133,2.983992 -4.02667,5.077332 -0.12133,0.51466 -0.58133,0.85866 -1.088,0.85866"
         style="fill:#873434;fill-opacity:1;fill-rule:nonzero;stroke:none;stroke-width:0.133333" />
      <path
         id="path222"
         d="m 649.18665,110.37201 c -0.168,0 -0.33867,-0.0387 -0.49867,-0.11733 -0.55466,-0.27734 -0.78,-0.95067 -0.504,-1.50534 3.016,-6.05333 8.48534,-10.122662 14.26934,-10.621328 2.39866,-0.209334 5.35333,0.448 6.45733,2.903998 0.28267,0.62933 0.388,1.28267 0.48,1.85867 0.0867,0.53066 0.168,1.03333 0.36933,1.404 0.47734,0.872 1.73867,1.13866 2.67734,0.94266 1.23866,-0.25466 2.368,-1.132 3.308,-1.956 0.19866,-0.176 0.396,-0.352 0.592,-0.52933 0.95066,-0.852 1.932,-1.73467 3.14133,-2.36267 1.85067,-0.961328 3.84933,-1.023995 5.348,-0.17066 0.95067,0.54266 1.58933,1.376 2.15067,2.112 0.38533,0.504 0.74933,0.98 1.16933,1.32 1.16267,0.94 2.952,0.984 4.38267,0.91466 0.79066,-0.0373 1.71733,-0.108 2.592,-0.35066 1.352,-0.376 2.58933,-1.18267 3.48133,-2.26667 0.39333,-0.47867 1.09867,-0.548 1.58,-0.15467 0.47733,0.39334 0.54667,1.1 0.152,1.57867 -1.18133,1.43733 -2.81867,2.504 -4.612,3.00267 -1.08933,0.304 -2.172,0.388 -3.08667,0.432 -1.82666,0.084 -4.148,0.004 -5.89866,-1.412 -0.62934,-0.508 -1.09334,-1.11467 -1.54134,-1.70134 -0.47466,-0.62133 -0.924,-1.20933 -1.48,-1.52533 -0.98133,-0.56 -2.29866,-0.25733 -3.20266,0.212 -0.95734,0.49733 -1.792,1.24667 -2.67734,2.04133 -0.20266,0.184 -0.40666,0.36667 -0.612,0.54534 -1.16,1.01866 -2.584,2.10666 -4.33333,2.46666 -2.09867,0.43467 -4.196,-0.41466 -5.09867,-2.06266 -0.38666,-0.70934 -0.508,-1.46134 -0.61466,-2.12267 -0.0787,-0.48267 -0.152,-0.93733 -0.31334,-1.29733 -0.62266,-1.38667 -2.66533,-1.72134 -4.21733,-1.588 -5.012,0.432 -9.78533,4.028 -12.456,9.38666 -0.196,0.39467 -0.59333,0.62267 -1.004,0.62267"
         style="fill:#873434;fill-opacity:1;fill-rule:nonzero;stroke:none;stroke-width:0.133333" />
      <path
         id="path223"
         d="m 643.34932,122.64268 c -0.20267,0 -0.40134,-0.02 -0.596,-0.0613 -1.43467,-0.308 -2.44534,-1.688 -2.70267,-3.696 -0.024,-0.192 -0.0467,-0.38933 -0.068,-0.58533 -0.092,-0.86 -0.17867,-1.67067 -0.59733,-2.136 -0.31734,-0.352 -0.89867,-0.54267 -1.516,-0.492 -0.58667,0.0467 -1.23734,0.27867 -2.04667,0.73467 -1.99067,1.11866 -3.64933,2.75333 -4.796,4.72666 -0.312,0.536 -0.99867,0.716 -1.53467,0.40534 -0.53466,-0.31067 -0.716,-0.99734 -0.40533,-1.532 1.348,-2.32 3.29733,-4.24134 5.63733,-5.556 0.69334,-0.39067 1.756,-0.92 2.972,-1.01467 1.316,-0.10267 2.57334,0.35733 3.35867,1.22933 0.90133,1.00267 1.03733,2.27334 1.15733,3.392 0.0213,0.18267 0.04,0.364 0.0627,0.54134 0.10533,0.812 0.43867,1.68 0.948,1.78933 0.19067,0.0413 0.464,-0.0213 0.74933,-0.168 0.55867,-0.28533 1.048,-0.79333 1.56534,-1.32933 0.35333,-0.368 0.71866,-0.74667 1.14,-1.09334 1.43466,-1.18533 3.61866,-1.67066 5.01866,-0.31066 0.48667,0.472 0.73334,1.05333 0.932,1.51866 0.128,0.30534 0.252,0.59334 0.4,0.76267 0.23067,0.26 0.69067,0.38933 1.16667,0.32267 0.616,-0.0827 1.23733,-0.43734 1.712,-0.73734 1.28533,-0.81333 2.42133,-1.82533 3.37733,-3.00666 0.39067,-0.48134 1.096,-0.55467 1.57734,-0.16534 0.48133,0.39067 0.556,1.096 0.16666,1.57734 -1.11066,1.37066 -2.43066,2.54533 -3.92266,3.48933 -0.66534,0.42267 -1.56534,0.92533 -2.61067,1.06533 -1.24,0.16534 -2.41467,-0.23066 -3.14667,-1.06133 -0.39066,-0.44133 -0.6,-0.93467 -0.78533,-1.36933 -0.13733,-0.324 -0.26667,-0.63067 -0.428,-0.78667 -0.408,-0.396 -1.39733,-0.092 -2.02933,0.43067 -0.32267,0.26533 -0.62934,0.58266 -0.95334,0.91866 -0.62266,0.64667 -1.26533,1.31467 -2.156,1.77067 -0.552,0.28267 -1.11066,0.42667 -1.64666,0.42667"
         style="fill:#873434;fill-opacity:1;fill-rule:nonzero;stroke:none;stroke-width:0.133333" />
      <path
         id="path224"
         d="m 663.21332,129.78534 c -0.20534,0 -0.412,-0.056 -0.59867,-0.17333 -0.524,-0.33067 -0.68,-1.024 -0.34933,-1.54667 1.664,-2.63066 3.98533,-5.976 7.19733,-8.51866 3.31867,-2.628 7.13333,-3.97334 10.73467,-3.78534 0.55866,0.028 1.21466,0.1 1.83466,0.41734 1.43867,0.73466 2.13867,2.436 1.97067,4.792 l -0.028,0.36 c -0.084,1.112 -0.172,2.25866 0.34933,2.92533 0.70134,0.89333 2.376,0.748 3.06134,0.64267 1.53466,-0.232 3,-0.73467 4.35333,-1.49334 0.53733,-0.30133 1.05467,-0.64133 1.60133,-1.00133 0.68134,-0.448 1.38667,-0.91067 2.14667,-1.304 1.776,-0.91733 3.50533,-1.19867 4.99733,-0.81867 0.60934,0.156 1.07467,0.40934 1.42134,0.77467 0.548,0.58 0.66533,1.28 0.76,1.84133 0.0253,0.15734 0.0507,0.31467 0.092,0.464 0.16133,0.6 0.712,1.15867 1.436,1.45867 0.68,0.28133 1.50533,0.37867 2.59066,0.30533 2.41334,-0.16 4.80267,-1.06 6.72534,-2.53066 0.49066,-0.376 1.196,-0.28267 1.572,0.20933 0.376,0.492 0.28133,1.196 -0.20934,1.572 -2.26933,1.736 -5.088,2.79733 -7.94,2.988 -1.42133,0.0947 -2.6,-0.06 -3.596,-0.472 -1.372,-0.56933 -2.39866,-1.66933 -2.74533,-2.944 -0.0587,-0.22 -0.0987,-0.44933 -0.136,-0.67733 -0.0413,-0.24934 -0.1,-0.588 -0.18,-0.67334 -0.008,-0.008 -0.076,-0.0733 -0.34667,-0.14266 -1.204,-0.308 -2.51866,0.17733 -3.41066,0.63866 -0.65734,0.34 -1.28267,0.75067 -1.94534,1.18534 -0.55466,0.36533 -1.13066,0.74266 -1.73733,1.08266 -1.58933,0.892 -3.31067,1.48134 -5.112,1.75467 -2.30533,0.35067 -4.14133,-0.17333 -5.16133,-1.476 -1.06267,-1.35067 -0.928,-3.08667 -0.82134,-4.48 l 0.0253,-0.34933 c 0.036,-0.508 0.0893,-2.204 -0.752,-2.63467 -0.24667,-0.124 -0.608,-0.16 -0.93067,-0.176 -3.052,-0.156 -6.336,1.016 -9.228,3.30533 -2.94667,2.33334 -5.124,5.47867 -6.69333,7.95867 -0.21334,0.33733 -0.576,0.52133 -0.948,0.52133"
         style="fill:#873434;fill-opacity:1;fill-rule:nonzero;stroke:none;stroke-width:0.133333" />
      <path
         id="path225"
         d="m 716.92398,114.52134 c -0.28933,0 -0.576,-0.0187 -0.856,-0.0547 -0.88533,-0.116 -1.59066,-0.42134 -2.09466,-0.90934 -0.88934,-0.864 -0.968,-2.02133 -1.03067,-2.952 -0.036,-0.55866 -0.0733,-1.084 -0.25733,-1.42933 -0.41734,-0.772 -1.78534,-0.88667 -2.95734,-0.66 -2.848,0.55467 -5.75333,2.24533 -8.636,5.024 -0.44533,0.42933 -1.15333,0.41867 -1.58533,-0.028 -0.42933,-0.44667 -0.41733,-1.15733 0.0293,-1.58533 3.2,-3.08534 6.48534,-4.97334 9.76267,-5.61067 1.91733,-0.376 4.33867,-0.1 5.36,1.796 0.41733,0.77333 0.47333,1.60667 0.52267,2.34133 0.044,0.66 0.0827,1.22934 0.352,1.492 0.14933,0.14267 0.43333,0.24534 0.82266,0.29734 1.19067,0.15333 2.572,-0.18667 4.23067,-1.04267 0.53067,-0.27333 1.04933,-0.572 1.56667,-0.872 0.96266,-0.552 1.956,-1.12533 3.04133,-1.55733 1.52,-0.60534 3.41867,-0.564 4.23067,0.89866 0.20933,0.37467 0.28133,0.74534 0.34,1.04267 l 0.084,0.34933 c 0.18266,0.508 1.04933,0.77067 1.79866,0.848 2.64533,0.26534 5.43733,-0.60933 7.45467,-2.352 0.47066,-0.40533 1.17866,-0.352 1.58266,0.116 0.404,0.46934 0.352,1.17734 -0.116,1.58134 -2.476,2.13866 -5.89733,3.21466 -9.14933,2.88533 -1.90266,-0.19467 -3.212,-1.016 -3.68,-2.31467 -0.0893,-0.24666 -0.136,-0.47733 -0.17466,-0.68 -0.0307,-0.15066 -0.064,-0.32133 -0.1,-0.38666 -0.0867,-0.15867 -0.73067,-0.18667 -1.44,0.096 -0.936,0.372 -1.81867,0.88 -2.75334,1.41866 -0.54666,0.31467 -1.09466,0.62934 -1.656,0.92 -1.72533,0.88934 -3.268,1.328 -4.692,1.328"
         style="fill:#873434;fill-opacity:1;fill-rule:nonzero;stroke:none;stroke-width:0.133333" />
      <path
         id="path226"
         d="m 728.61598,122.82134 c -0.94133,0 -1.812,-0.44666 -2.26933,-1.18266 -0.23333,-0.37467 -0.32267,-0.75467 -0.396,-1.06 l -0.052,-0.21067 c -0.67867,0.26533 -1.29467,0.68667 -1.78533,1.22533 -0.41867,0.45867 -1.12934,0.488 -1.58534,0.0707 -0.456,-0.41733 -0.48933,-1.12667 -0.0707,-1.584 0.74933,-0.82 1.696,-1.45867 2.73733,-1.844 0.35867,-0.13333 0.84,-0.268 1.37867,-0.12667 0.688,0.18 1.22,0.75467 1.46266,1.57734 0.0373,0.12133 0.0667,0.248 0.0973,0.37333 0.036,0.156 0.0773,0.33067 0.11866,0.396 0.032,0.052 0.20667,0.14 0.436,0.11733 0.36134,-0.0333 0.76134,-0.264 1.068,-0.46266 0.61867,-0.39734 1.18934,-0.86667 1.69734,-1.39467 0.43066,-0.448 1.13866,-0.46133 1.58533,-0.0333 0.44666,0.42933 0.46133,1.13866 0.032,1.58533 -0.628,0.656 -1.33467,1.23733 -2.1,1.72933 -0.52133,0.336 -1.228,0.73067 -2.07467,0.81067 l -0.28,0.0133"
         style="fill:#873434;fill-opacity:1;fill-rule:nonzero;stroke:none;stroke-width:0.133333" />
      <path
         id="path227"
         d="m 691.88398,114.65868 c -0.23466,0 -0.48,-0.044 -0.732,-0.156 -0.70133,-0.312 -0.972,-0.94267 -1.152,-1.36 l -0.0467,-0.10934 c -0.46134,0.10267 -0.89067,0.34 -1.224,0.67334 -0.43734,0.43866 -1.14667,0.44133 -1.58667,0.003 -0.43867,-0.43733 -0.44,-1.14666 -0.003,-1.58533 0.688,-0.69067 1.59467,-1.16 2.552,-1.32533 0.27467,-0.0467 0.68934,-0.092 1.12267,0.0707 0.772,0.28267 1.06933,0.97467 1.24667,1.388 l 0.012,0.0253 0.10133,-0.0733 0.93067,-0.692 c 0.49866,-0.368 1.20133,-0.26533 1.56933,0.232 0.36933,0.49734 0.26533,1.2 -0.23067,1.56934 l -0.93066,0.69066 c -0.24534,0.18267 -0.87334,0.64934 -1.62934,0.64934"
         style="fill:#873434;fill-opacity:1;fill-rule:nonzero;stroke:none;stroke-width:0.133333" />
      <path
         id="path228"
         d="m 723.94932,105.06401 c -0.70667,0 -1.35467,-0.3 -1.75467,-0.82267 -0.25867,-0.336 -0.37467,-0.71333 -0.45733,-0.99466 -0.612,0.15333 -1.188,0.472 -1.64134,0.908 -0.44533,0.43066 -1.15466,0.41866 -1.58533,-0.028 -0.42933,-0.44667 -0.41733,-1.156 0.028,-1.58667 0.824,-0.79467 1.89733,-1.344 3.024,-1.54933 0.296,-0.0547 0.68933,-0.096 1.11333,0.0613 0.84667,0.31733 1.08,1.10933 1.20534,1.536 l 0.0693,0.22267 c 0.21733,-0.0173 0.42933,-0.124 0.57867,-0.204 0.51466,-0.276 0.992,-0.61867 1.416,-1.02267 0.44666,-0.428 1.15733,-0.40933 1.584,0.04 0.428,0.44933 0.40933,1.15867 -0.04,1.58533 -0.56934,0.54267 -1.20934,1.00534 -1.90134,1.376 -0.372,0.19734 -0.87466,0.43067 -1.464,0.472 l -0.17466,0.007"
         style="fill:#873434;fill-opacity:1;fill-rule:nonzero;stroke:none;stroke-width:0.133333" />
      <path
         id="path229"
         d="m 664.21198,112.08534 c -0.45466,0 -0.80666,-0.13866 -1.06533,-0.3 -0.42,-0.264 -0.64667,-0.62933 -0.812,-0.89466 l -0.13867,-0.20934 c -0.116,-0.14 -0.42933,-0.208 -0.73333,-0.15866 -0.45467,0.0733 -0.94533,0.34666 -1.42133,0.60933 l -0.30667,0.19333 c -0.284,0.55067 -0.94667,0.74667 -1.49733,0.46134 -0.55067,-0.284 -0.75334,-0.98134 -0.46934,-1.532 0.312,-0.6 0.85867,-0.90267 1.18667,-1.08267 0.58133,-0.324 1.30667,-0.72667 2.14933,-0.864 1.11067,-0.18 2.18534,0.18133 2.81334,0.93733 0.12,0.14134 0.22266,0.30134 0.324,0.46134 l 0.0733,0.11733 c 0.072,-0.0213 0.18667,-0.0653 0.35333,-0.15733 0.52934,-0.29467 1.02934,-0.64667 1.49067,-1.044 0.468,-0.40534 1.176,-0.35334 1.58133,0.11466 0.404,0.46934 0.35334,1.17734 -0.11466,1.58267 -0.576,0.49733 -1.204,0.936 -1.86667,1.30533 -0.60533,0.33867 -1.12,0.46 -1.54667,0.46"
         style="fill:#873434;fill-opacity:1;fill-rule:nonzero;stroke:none;stroke-width:0.133333" />
      <path
         id="path230"
         d="m 650.15198,130.11468 c -0.46133,0 -0.94933,-0.124 -1.38666,-0.49867 -0.30534,-0.26133 -0.47867,-0.56933 -0.60667,-0.796 l -0.0707,-0.12667 -0.0427,0.0147 c -0.19334,0.0867 -0.416,0.31333 -0.632,0.532 -0.43467,0.44133 -1.14534,0.448 -1.58667,0.012 -0.44,-0.43467 -0.44667,-1.144 -0.012,-1.58533 0.328,-0.332 0.73467,-0.74534 1.312,-1.004 0.80933,-0.36267 1.732,-0.26934 2.34933,0.23733 0.32534,0.26667 0.50534,0.58667 0.63734,0.82133 l 0.0867,0.14667 c 0.092,-0.008 0.296,-0.0493 0.68934,-0.23467 l 1.58933,-0.75066 c 0.55733,-0.264 1.228,-0.0253 1.49333,0.536 0.264,0.56 0.024,1.228 -0.536,1.492 l -1.59066,0.75066 c -0.296,0.14 -0.96267,0.45334 -1.69334,0.45334"
         style="fill:#873434;fill-opacity:1;fill-rule:nonzero;stroke:none;stroke-width:0.133333" />
      <path
         id="path231"
         d="m 676.10932,131.40268 c -0.33867,0 -0.66934,-0.0693 -0.96934,-0.212 -0.45333,-0.216 -0.748,-0.54134 -0.98266,-0.80267 l -0.28134,-0.28133 c -0.0293,-0.007 -0.21066,-0.0307 -0.884,0.35733 -0.53466,0.312 -1.22133,0.12667 -1.532,-0.40933 -0.31066,-0.536 -0.12666,-1.22134 0.40934,-1.53067 0.528,-0.30533 1.76133,-1.02 2.97333,-0.44133 0.45333,0.21733 0.74533,0.54266 0.98133,0.804 l 0.28134,0.28 c 0.02,-0.007 0.13866,-0.0107 0.272,-0.1 0.244,-0.15867 0.47333,-0.46 0.71333,-0.776 0.376,-0.49467 1.08,-0.588 1.572,-0.21467 0.492,0.376 0.588,1.08 0.21333,1.572 -0.31333,0.412 -0.704,0.924 -1.27066,1.296 -0.464,0.304 -0.988,0.45867 -1.496,0.45867"
         style="fill:#873434;fill-opacity:1;fill-rule:nonzero;stroke:none;stroke-width:0.133333" />
      <path
         id="path232"
         d="m 636.20265,108.69734 c -0.16,0 -0.32267,-0.036 -0.476,-0.108 -0.56133,-0.264 -0.80133,-0.932 -0.53733,-1.492 0.45733,-0.97333 1.51066,-1.628 2.68533,-1.66666 0.82933,-0.0347 1.72267,0.23866 2.604,0.79866 l 0.112,0.0707 c 0.50133,-0.448 0.992,-0.924 1.45867,-1.412 0.428,-0.448 1.13866,-0.46533 1.58666,-0.0387 0.448,0.428 0.464,1.13867 0.0373,1.58667 -0.512,0.536 -1.04934,1.05733 -1.60134,1.54933 -0.21466,0.192 -0.61466,0.548 -1.208,0.624 -0.69466,0.0907 -1.22266,-0.25333 -1.54133,-0.45733 -0.53067,-0.336 -0.988,-0.49333 -1.37333,-0.48 -0.31867,0.0107 -0.63334,0.17467 -0.73067,0.38 -0.192,0.40533 -0.59467,0.64533 -1.016,0.64533"
         style="fill:#873434;fill-opacity:1;fill-rule:nonzero;stroke:none;stroke-width:0.133333" />
      <path
         id="path233"
         d="m 660.97865,97.576012 h -0.0573 c -0.556,0 -1.03067,-0.281334 -1.45067,-0.424 -0.14133,-0.04933 -0.28267,-0.152 -0.428,-0.190667 -0.276,-0.07733 -0.45733,-0.084 -0.50267,-0.06267 -0.43733,0.44 -1.13333,0.417334 -1.572,-0.02 -0.43866,-0.436 -0.428,-1.162666 0.008,-1.602666 0.624,-0.626667 1.59334,-0.821334 2.66134,-0.529334 0.18666,0.05067 0.37333,0.113334 0.55866,0.176 0.29067,0.09867 0.564,0.192 0.772,0.196 0.252,-0.0067 0.46267,-0.113333 0.59734,-0.290666 0.37333,-0.494667 1.076,-0.592 1.57066,-0.218667 0.49467,0.373333 0.592,1.185333 0.21867,1.678667 -0.55333,0.732 -1.45867,1.288 -2.376,1.288"
         style="fill:#873434;fill-opacity:1;fill-rule:nonzero;stroke:none;stroke-width:0.133333" />
      <path
         id="path234"
         d="m 624.62798,115.52268 -0.32666,-0.0493 c -0.59334,-0.18 -0.928,-0.80533 -0.748,-1.39866 0.256,-0.84267 0.724,-1.54 1.352,-2.016 0.77866,-0.592 1.768,-0.792 2.652,-0.53734 0.316,0.0933 0.57333,0.228 0.8,0.34534 l 0.34133,0.164 0.009,0.004 c 0.40667,-0.31867 0.99467,-0.32267 1.408,0.0213 0.476,0.39733 0.54,1.10533 0.144,1.58 -0.52533,0.632 -1.44266,0.82933 -2.336,0.5 -0.20933,-0.076 -0.408,-0.17733 -0.60666,-0.28133 -0.14667,-0.0773 -0.28534,-0.14934 -0.38534,-0.17867 -0.19333,-0.056 -0.464,0.012 -0.672,0.16933 -0.24533,0.18667 -0.444,0.49867 -0.56,0.88134 -0.14666,0.484 -0.592,0.796 -1.072,0.796"
         style="fill:#873434;fill-opacity:1;fill-rule:nonzero;stroke:none;stroke-width:0.133333" />
      <path
         id="path235"
         d="m 647.96532,114.77334 c -0.35067,0 -0.70667,-0.1 -1.02134,-0.30533 -1.78,-1.16133 -2.77066,-0.23467 -2.78,-0.224 -0.74,0.71867 -1.924,0.70133 -2.64266,-0.0387 -0.71867,-0.74 -0.70267,-1.92266 0.0373,-2.64266 1.08,-1.05067 4.024,-2.448 7.42933,-0.224 0.86534,0.564 1.108,1.72133 0.54267,2.58666 -0.35733,0.548 -0.956,0.848 -1.56533,0.848"
         style="fill:#bd5858;fill-opacity:1;fill-rule:nonzero;stroke:none;stroke-width:0.133333" />
      <path
         id="path236"
         d="m 652.95865,111.24668 -0.23467,-0.016 c -1.01866,-0.128 -1.744,-1.04534 -1.62266,-2.06534 0.324,-2.74266 2.764,-7.924 9.52933,-7.85066 1.032,0.009 1.86133,0.85466 1.852,1.88533 -0.009,1.02667 -0.844,1.852 -1.86933,1.852 h -0.0987 c -4.94267,0 -5.64,4.09733 -5.70267,4.56667 -0.12533,0.93866 -0.93066,1.628 -1.85333,1.628"
         style="fill:#bd5858;fill-opacity:1;fill-rule:nonzero;stroke:none;stroke-width:0.133333" />
      <path
         id="path237"
         d="m 672.42798,102.27201 c -0.24533,0 -0.496,-0.0493 -0.73333,-0.152 -0.944,-0.40667 -1.38533,-1.49067 -0.98533,-2.437332 1.01466,-2.398666 4.52133,-6.588 10.55333,-5.269333 1.00933,0.22 1.648,1.217333 1.42667,2.225333 -0.22,1.008 -1.212,1.646667 -2.22534,1.426667 -4.396,-0.965333 -6.13333,2.667995 -6.31733,3.085335 -0.308,0.7 -0.99733,1.12133 -1.71867,1.12133"
         style="fill:#bd5858;fill-opacity:1;fill-rule:nonzero;stroke:none;stroke-width:0.133333" />
      <path
         id="path238"
         d="m 663.21198,122.06001 c -0.36933,0 -0.74266,-0.10933 -1.068,-0.336 -0.84533,-0.59067 -1.05466,-1.75333 -0.46266,-2.6 0.264,-0.38133 6.58666,-9.31733 13.96266,-7.54133 1.004,0.24133 1.62267,1.25066 1.38134,2.25466 -0.24267,1.00267 -1.25067,1.62 -2.256,1.38 -4.06934,-0.97733 -8.61334,4.03334 -10.02267,6.04667 -0.36533,0.51867 -0.94533,0.796 -1.53467,0.796"
         style="fill:#bd5858;fill-opacity:1;fill-rule:nonzero;stroke:none;stroke-width:0.133333" />
      <path
         id="path239"
         d="m 702.73198,120.36268 c -0.24266,0 -0.488,-0.0467 -0.724,-0.14667 -0.952,-0.4 -1.4,-1.49467 -0.99866,-2.44667 0.34933,-0.83333 3.56266,-8.112 8.528,-6.876 1.00133,0.248 1.612,1.26134 1.364,2.264 -0.24934,1.00134 -1.264,1.61067 -2.264,1.36267 -1.24667,-0.30133 -3.27067,2.52933 -4.18267,4.69867 -0.30133,0.71466 -0.99333,1.144 -1.72267,1.144"
         style="fill:#bd5858;fill-opacity:1;fill-rule:nonzero;stroke:none;stroke-width:0.133333" />
      <path
         id="path240"
         d="m 708.59465,104.24001 c -0.67867,0 -1.33067,-0.368 -1.664,-1.00933 -0.472,-0.91467 -0.12133,-2.03734 0.792,-2.51467 0.20133,-0.104 5,-2.561332 9.01733,-0.27733 0.89734,0.50933 1.21067,1.65066 0.70134,2.548 -0.51067,0.89866 -1.65067,1.21066 -2.54934,0.70133 -2.23733,-1.27067 -5.41466,0.328 -5.44533,0.34533 -0.27333,0.14 -0.564,0.20667 -0.852,0.20667"
         style="fill:#bd5858;fill-opacity:1;fill-rule:nonzero;stroke:none;stroke-width:0.133333" />
      <path
         id="path598"
         d="m 659.07332,135.43201 c -3.388,-0.0373 -6.48667,-0.188 -9.13867,-0.504 2.65067,0.316 5.752,0.46667 9.13867,0.504 m -9.32934,-0.52667 c -0.0133,-0.001 -0.028,-0.003 -0.0427,-0.005 0.0147,0.003 0.0293,0.004 0.0427,0.005 m -3.64933,-0.55866 c -0.003,-0.001 -0.004,-0.001 -0.007,-0.001 0.003,0 0.005,0 0.007,0.001 m -0.036,-0.007 c -0.005,-10e-4 -0.012,-0.003 -0.0173,-0.004 0.005,0.001 0.012,0.003 0.0173,0.004 m -0.0307,-0.007 c -13.43466,-2.48933 -26.276,-9.58 -24.84933,-22.77066 1.08133,-10.012 11.928,-22.172002 26.57867,-22.560002 0.64,-0.01733 1.24266,-0.02533 1.81066,-0.02533 5.85067,0 8.06267,0.86 9.64134,1.72 1.57733,0.86 2.52,1.72 5.83066,1.72 0.42134,0 0.88134,-0.01333 1.38667,-0.044 6.012,-0.353333 8.22667,-2.153333 10.79333,-2.153333 1.19867,0 2.47334,0.392 4.248,1.505333 4.292,2.694667 3.97334,3.776 7.85867,3.776 1.16133,0 2.69733,-0.096 4.84667,-0.274667 1.488,-0.124 2.72133,-0.177333 3.79466,-0.177333 2.62934,0 4.31067,0.309333 6.50667,0.618667 2.196,0.308 4.90533,0.617333 9.58667,0.617333 0.71466,0 1.47333,-0.0067 2.284,-0.02267 0.47866,-0.0093 0.95333,-0.01333 1.42,-0.01333 12.82133,0 21.36666,3.472 27.62133,12.978662 1.98133,3.012 2.812,5.492 2.81466,7.52667 -0.003,-2.03467 -0.83333,-4.51467 -2.81466,-7.52667 -6.25334,-9.505329 -14.80933,-12.971995 -27.62933,-12.971995 -0.29067,0 -0.584,0.0027 -0.88,0.0053 6.228,1.462667 11.528,4.726665 17.27866,9.399995 1.98667,1.616 2.64933,3.596 2.076,5.608 -1.16133,0.448 -2.40533,0.68667 -3.64133,0.68667 -0.31467,0 -0.62933,-0.016 -0.94267,-0.0467 -0.74933,-0.0773 -1.616,-0.34 -1.79866,-0.848 l -0.084,-0.34933 c -0.0587,-0.29733 -0.13067,-0.668 -0.34,-1.04267 -0.50267,-0.90533 -1.42134,-1.26666 -2.40934,-1.26666 -0.608,0 -1.24133,0.13733 -1.82133,0.368 -1.08533,0.432 -2.07867,1.00533 -3.04133,1.55733 -0.51734,0.3 -1.036,0.59867 -1.56667,0.872 -1.40133,0.72267 -2.604,1.07867 -3.66267,1.07867 -0.19466,0 -0.384,-0.012 -0.568,-0.036 -0.38933,-0.052 -0.67333,-0.15467 -0.82266,-0.29734 -0.26934,-0.26266 -0.308,-0.832 -0.352,-1.492 -0.0493,-0.73466 -0.10534,-1.568 -0.52267,-2.34133 -0.772,-1.43333 -2.344,-1.94 -3.89467,-1.94 -0.5,0 -0.99733,0.052 -1.46533,0.144 -3.27733,0.63733 -6.56267,2.52533 -9.76267,5.61067 -0.44666,0.428 -0.45866,1.13866 -0.0293,1.58533 0.22133,0.228 0.51467,0.34267 0.808,0.34267 0.28,0 0.56,-0.10534 0.77733,-0.31467 2.88267,-2.77867 5.788,-4.46933 8.636,-5.024 0.344,-0.0653 0.704,-0.10267 1.052,-0.10267 0.84,0 1.61067,0.21734 1.90534,0.76267 0.184,0.34533 0.22133,0.87067 0.25733,1.42933 0.0627,0.93067 0.14133,2.088 1.03067,2.952 0.504,0.488 1.20933,0.79334 2.09466,0.90934 0.28,0.036 0.56667,0.0547 0.856,0.0547 1.424,0 2.96667,-0.43866 4.692,-1.328 0.56134,-0.29066 1.10934,-0.60533 1.656,-0.92 0.93467,-0.53866 1.81734,-1.04666 2.75334,-1.41866 0.38133,-0.152 0.74533,-0.21467 1.01333,-0.21467 0.228,0 0.38667,0.0453 0.42667,0.11867 0.036,0.0653 0.0693,0.236 0.1,0.38666 0.0387,0.20267 0.0853,0.43334 0.17466,0.68 0.468,1.29867 1.77734,2.12 3.68,2.31467 0.388,0.0387 0.77734,0.0587 1.16667,0.0587 0.69867,0 1.39866,-0.0627 2.09066,-0.18267 -1.48266,1.732 -3.89199,3.36933 -7.16533,4.68533 -0.25733,-0.292 -0.576,-0.49733 -0.93866,-0.592 -0.16267,-0.0427 -0.31867,-0.06 -0.46934,-0.06 -0.348,0 -0.65866,0.0933 -0.90933,0.18667 -1.04133,0.38533 -1.988,1.024 -2.73733,1.844 -0.0707,0.0773 -0.128,0.16133 -0.17334,0.25067 -3.67866,0.86533 -8.036,1.38133 -13.032,1.38133 -0.444,0 -0.89333,-0.004 -1.348,-0.012 -0.87066,-0.0173 -1.71333,-0.024 -2.53066,-0.024 -1.05067,0 -2.05734,0.012 -3.02667,0.036 -0.10533,-0.22533 -0.24533,-0.448 -0.44133,-0.656 -0.34667,-0.36533 -0.812,-0.61867 -1.42134,-0.77467 -0.43066,-0.10933 -0.88133,-0.16533 -1.348,-0.16533 -1.14666,0 -2.38666,0.332 -3.64933,0.984 -0.71733,0.37067 -1.38533,0.804 -2.03067,1.228 -3.40666,0.4 -6.384,0.94933 -9.35066,1.544 -0.27334,-0.676 -0.2,-1.62133 -0.13067,-2.54133 l 0.028,-0.36 c 0.168,-2.356 -0.532,-4.05734 -1.97067,-4.792 -0.62,-0.31734 -1.276,-0.38934 -1.83466,-0.41734 -0.22134,-0.012 -0.444,-0.0173 -0.668,-0.0173 -3.40134,0 -6.95334,1.33733 -10.06667,3.80267 -2.86133,2.26533 -5.01333,5.16533 -6.62667,7.63066 -2.19466,0.16934 -4.58,0.30134 -7.19466,0.38534 -0.54267,0.0173 -1.07734,0.0293 -1.60267,0.0373 -0.0173,-0.0613 -0.0387,-0.12267 -0.0667,-0.18133 -0.192,-0.40667 -0.596,-0.64267 -1.016,-0.64267 -0.16,0 -0.32266,0.0333 -0.47733,0.10667 l -1.48933,0.70266 c -0.32667,-0.008 -0.65067,-0.0173 -0.97067,-0.0293 -0.12267,-0.20667 -0.288,-0.448 -0.54267,-0.656 -0.36666,-0.30267 -0.84266,-0.45733 -1.33733,-0.45733 -0.33733,0 -0.684,0.072 -1.012,0.22 -0.37733,0.16933 -0.68267,0.404 -0.94,0.64 -14.83467,-1.43334 -21.34267,-7.696 -25.10667,-13.96 -0.132,12.04933 12.13467,18.616 24.948,20.99066 m -7.96266,-18.66933 c 0.54133,0 1.036,0.18533 1.32,0.5 0.41866,0.46533 0.50533,1.276 0.59733,2.136 0.0213,0.196 0.044,0.39333 0.068,0.58533 0.25733,2.008 1.268,3.388 2.70267,3.696 0.19466,0.0413 0.39333,0.0613 0.596,0.0613 0.536,0 1.09466,-0.144 1.64666,-0.42667 0.89067,-0.456 1.53334,-1.124 2.156,-1.77067 0.324,-0.336 0.63067,-0.65333 0.95334,-0.91866 0.43066,-0.35734 1.02933,-0.612 1.49466,-0.612 0.216,0 0.404,0.0547 0.53467,0.18133 0.16133,0.156 0.29067,0.46267 0.428,0.78667 0.18533,0.43466 0.39467,0.928 0.78533,1.36933 0.62267,0.70667 1.56534,1.09867 2.59467,1.09867 0.18133,0 0.36667,-0.012 0.552,-0.0373 1.04533,-0.14 1.94533,-0.64266 2.61067,-1.06533 1.492,-0.944 2.812,-2.11867 3.92266,-3.48933 0.38934,-0.48134 0.31467,-1.18667 -0.16666,-1.57734 -0.208,-0.168 -0.45734,-0.25066 -0.70534,-0.25066 -0.32666,0 -0.65066,0.14266 -0.872,0.416 -0.956,1.18133 -2.092,2.19333 -3.37733,3.00666 -0.47467,0.3 -1.096,0.65467 -1.712,0.73734 -0.0827,0.012 -0.16667,0.0173 -0.248,0.0173 -0.38267,0 -0.728,-0.12533 -0.91867,-0.34 -0.148,-0.16933 -0.272,-0.45733 -0.4,-0.76267 -0.19866,-0.46533 -0.44533,-1.04666 -0.932,-1.51866 -0.59333,-0.57734 -1.32933,-0.82267 -2.08933,-0.82267 -1.02933,0 -2.104,0.45067 -2.92933,1.13333 -0.42134,0.34667 -0.78667,0.72534 -1.14,1.09334 -0.51734,0.536 -1.00667,1.044 -1.56534,1.32933 -0.22666,0.11733 -0.44533,0.18 -0.62133,0.18 -0.0467,0 -0.0893,-0.004 -0.128,-0.012 -0.50933,-0.10933 -0.84267,-0.97733 -0.948,-1.78933 -0.0227,-0.17734 -0.0413,-0.35867 -0.0627,-0.54134 -0.12,-1.11866 -0.256,-2.38933 -1.15733,-3.392 -0.712,-0.79066 -1.81467,-1.244 -2.996,-1.244 -0.12,0 -0.24133,0.005 -0.36267,0.0147 -1.216,0.0947 -2.27866,0.624 -2.972,1.01467 -2.34,1.31466 -4.28933,3.236 -5.63733,5.556 -0.31067,0.53466 -0.12933,1.22133 0.40533,1.532 0.17734,0.104 0.372,0.152 0.564,0.152 0.38667,0 0.76267,-0.19867 0.97067,-0.55734 1.14667,-1.97333 2.80533,-3.608 4.796,-4.72666 0.80933,-0.456 1.46,-0.688 2.04667,-0.73467 0.0653,-0.005 0.13066,-0.008 0.196,-0.008 m 35.612,-4.31467 c -6.5,0 -11.756,7.428 -11.996,7.77467 -0.592,0.84667 -0.38267,2.00933 0.46266,2.6 0.32534,0.22667 0.69867,0.336 1.068,0.336 0.58934,0 1.16934,-0.27733 1.53467,-0.796 1.28667,-1.83733 5.184,-6.172 8.948,-6.172 0.36,0 0.72,0.04 1.07467,0.12533 0.14666,0.0347 0.29333,0.052 0.43733,0.052 0.84533,0 1.61067,-0.57466 1.81867,-1.432 0.24133,-1.004 -0.37734,-2.01333 -1.38134,-2.25466 -0.66533,-0.16 -1.32133,-0.23334 -1.96666,-0.23334 m 34.73333,-0.59733 c -4.32133,0 -7.07867,6.248 -7.40133,7.01733 -0.40134,0.952 0.0467,2.04667 0.99866,2.44667 0.236,0.1 0.48134,0.14667 0.724,0.14667 0.72934,0 1.42134,-0.42934 1.72267,-1.144 0.86667,-2.06267 2.73733,-4.72134 3.99067,-4.72134 0.0653,0 0.12933,0.008 0.192,0.0227 0.15066,0.0373 0.30133,0.056 0.45066,0.056 0.83867,0 1.60134,-0.56933 1.81334,-1.41867 0.248,-1.00266 -0.36267,-2.016 -1.364,-2.264 -0.38667,-0.0973 -0.76267,-0.14133 -1.12667,-0.14133 m -81.62933,0.66133 c -0.656,0 -1.32,0.22267 -1.876,0.64534 -0.628,0.476 -1.096,1.17333 -1.352,2.016 -0.18,0.59333 0.15466,1.21866 0.748,1.39866 l 0.32666,0.0493 c 0.48,0 0.92534,-0.312 1.072,-0.796 0.116,-0.38267 0.31467,-0.69467 0.56,-0.88134 0.15867,-0.12 0.35467,-0.188 0.52534,-0.188 0.052,0 0.10133,0.005 0.14666,0.0187 0.1,0.0293 0.23867,0.10133 0.38534,0.17867 0.19866,0.104 0.39733,0.20533 0.60666,0.28133 0.288,0.10667 0.57734,0.15733 0.856,0.15733 0.58667,0 1.124,-0.228 1.48,-0.65733 0.396,-0.47467 0.332,-1.18267 -0.144,-1.58 -0.20933,-0.17333 -0.464,-0.25867 -0.71733,-0.25867 -0.24533,0 -0.49067,0.08 -0.69067,0.23734 l -0.009,-0.004 -0.34133,-0.164 c -0.22667,-0.11734 -0.484,-0.252 -0.8,-0.34534 -0.25334,-0.072 -0.51467,-0.108 -0.776,-0.108 m 18.47066,2.46934 c 0.44,0 1.008,0.13866 1.692,0.58533 0.31467,0.20533 0.67067,0.30533 1.02134,0.30533 0.60933,0 1.208,-0.3 1.56533,-0.848 0.56533,-0.86533 0.32267,-2.02266 -0.54267,-2.58666 -1.32933,-0.86934 -2.58933,-1.18534 -3.69466,-1.18534 -1.72534,0 -3.076,0.76934 -3.73467,1.40934 -0.74,0.72 -0.756,1.90266 -0.0373,2.64266 0.36533,0.37734 0.852,0.56667 1.34,0.56667 0.46933,0 0.94,-0.176 1.30266,-0.528 0.005,-0.007 0.38267,-0.36133 1.088,-0.36133 m 44.70134,-0.84934 0.0467,0.10934 c 0.18,0.41733 0.45067,1.048 1.152,1.36 0.252,0.112 0.49734,0.156 0.732,0.156 0.756,0 1.384,-0.46667 1.62934,-0.64934 l 0.93066,-0.69066 c 0.496,-0.36934 0.6,-1.072 0.23067,-1.56934 -0.21867,-0.296 -0.55733,-0.452 -0.9,-0.452 -0.232,0 -0.468,0.072 -0.66933,0.22 l -0.93067,0.692 -0.10133,0.0733 -0.012,-0.0253 c -0.17734,-0.41333 -0.47467,-1.10533 -1.24667,-1.388 -0.22933,-0.0867 -0.45467,-0.11466 -0.656,-0.11466 -0.17733,0 -0.33733,0.0227 -0.46667,0.044 -0.95733,0.16533 -1.864,0.63466 -2.552,1.32533 -0.43733,0.43867 -0.436,1.148 0.003,1.58533 0.22,0.21867 0.50533,0.328 0.792,0.328 0.288,0 0.57467,-0.11066 0.79467,-0.33066 0.33333,-0.33334 0.76266,-0.57067 1.224,-0.67334 m -28.292,-2.52666 c 0.23333,0 0.444,0.0653 0.53466,0.17466 l 0.13867,0.20934 c 0.16533,0.26533 0.392,0.63066 0.812,0.89466 0.25867,0.16134 0.61067,0.3 1.06533,0.3 0.42667,0 0.94134,-0.12133 1.54667,-0.46 0.66267,-0.36933 1.29067,-0.808 1.86667,-1.30533 0.468,-0.40533 0.51866,-1.11333 0.11466,-1.58267 -0.22266,-0.256 -0.53466,-0.388 -0.84933,-0.388 -0.26,0 -0.52,0.0907 -0.732,0.27334 -0.46133,0.39733 -0.96133,0.74933 -1.49067,1.044 -0.16666,0.092 -0.28133,0.136 -0.35333,0.15733 l -0.0733,-0.11733 c -0.10134,-0.16 -0.204,-0.32 -0.324,-0.46134 -0.52134,-0.628 -1.34934,-0.98266 -2.25067,-0.98266 -0.18533,0 -0.37333,0.0147 -0.56267,0.0453 -0.84266,0.13733 -1.568,0.54 -2.14933,0.864 -0.328,0.18 -0.87467,0.48267 -1.18667,1.08267 -0.284,0.55066 -0.0813,1.248 0.46934,1.532 0.16933,0.088 0.35066,0.13066 0.528,0.13066 0.396,0 0.77333,-0.21066 0.96933,-0.592 l 0.30667,-0.19333 c 0.476,-0.26267 0.96666,-0.536 1.42133,-0.60933 0.0667,-0.0107 0.13333,-0.016 0.19867,-0.016 m -10.18,-2.976 c -0.2,0.59333 -0.32267,1.152 -0.38,1.63466 -0.12134,1.02 0.604,1.93734 1.62266,2.06534 l 0.23467,0.016 c 0.92267,0 1.728,-0.68934 1.85333,-1.628 0.0627,-0.46934 0.76,-4.56667 5.70267,-4.56667 h 0.0987 c 1.02533,0 1.86,-0.82533 1.86933,-1.852 0.009,-1.03067 -0.82,-1.876 -1.852,-1.88533 -0.048,0 -0.0947,-10e-4 -0.14267,-10e-4 -0.74666,0 -1.44,0.0653 -2.084,0.184 1.364,-0.62133 2.79334,-1.00933 4.24267,-1.13466 0.20533,-0.0173 0.41733,-0.0267 0.63467,-0.0267 1.43066,0 3.04133,0.41067 3.58266,1.61467 0.16134,0.36 0.23467,0.81466 0.31334,1.29733 0.10666,0.66133 0.228,1.41333 0.61466,2.12267 0.744,1.36 2.30134,2.176 4.00267,2.176 0.36133,0 0.72933,-0.0373 1.096,-0.11334 1.74933,-0.36 3.17333,-1.448 4.33333,-2.46666 0.20534,-0.17867 0.40934,-0.36134 0.612,-0.54534 0.88534,-0.79466 1.72,-1.544 2.67734,-2.04133 0.556,-0.28933 1.26933,-0.51467 1.96533,-0.51467 0.43333,0 0.86,0.0867 1.23733,0.30267 0.556,0.316 1.00534,0.904 1.48,1.52533 0.448,0.58667 0.912,1.19334 1.54134,1.70134 1.468,1.18666 3.336,1.43466 4.97866,1.43466 0.31734,0 0.62534,-0.009 0.92,-0.0227 0.91467,-0.044 1.99734,-0.128 3.08667,-0.432 1.79333,-0.49867 3.43067,-1.56534 4.612,-3.00267 0.39467,-0.47867 0.32533,-1.18533 -0.152,-1.57867 -0.20933,-0.172 -0.46267,-0.25466 -0.71333,-0.25466 -0.324,0 -0.64534,0.14 -0.86667,0.40933 -0.892,1.084 -2.12933,1.89067 -3.48133,2.26667 -0.87467,0.24266 -1.80134,0.31333 -2.592,0.35066 -0.26534,0.0133 -0.544,0.0227 -0.828,0.0227 -1.24534,0 -2.608,-0.172 -3.55467,-0.93733 -0.42,-0.34 -0.784,-0.816 -1.16933,-1.32 -0.56134,-0.736 -1.2,-1.56934 -2.15067,-2.112 -0.70133,-0.398668 -1.512,-0.597335 -2.36667,-0.597335 -0.97066,0 -1.996,0.256 -2.98133,0.767995 -1.20933,0.628 -2.19067,1.51067 -3.14133,2.36267 -0.196,0.17733 -0.39334,0.35333 -0.592,0.52933 -0.94,0.824 -2.06934,1.70134 -3.308,1.956 -0.19334,0.04 -0.39867,0.06 -0.60934,0.06 -0.81466,0 -1.68933,-0.30933 -2.068,-1.00266 -0.20133,-0.37067 -0.28266,-0.87334 -0.36933,-1.404 -0.092,-0.576 -0.19733,-1.22934 -0.48,-1.85867 -0.97733,-2.175998 -3.40933,-2.939998 -5.62,-2.939998 -0.284,0 -0.564,0.012 -0.83733,0.036 -5.784,0.498666 -11.25334,4.567998 -14.26934,10.621328 -0.276,0.55467 -0.0507,1.228 0.504,1.50534 0.16,0.0787 0.33067,0.11733 0.49867,0.11733 0.41067,0 0.808,-0.228 1.004,-0.62267 0.388,-0.77733 0.82,-1.51866 1.29067,-2.21866 m -13.464,-2.10267 c -0.048,0 -0.0947,0.001 -0.14267,0.003 -1.17467,0.0387 -2.228,0.69333 -2.68533,1.66666 -0.264,0.56 -0.024,1.228 0.53733,1.492 0.15333,0.072 0.316,0.108 0.476,0.108 0.42133,0 0.824,-0.24 1.016,-0.64533 0.0973,-0.20533 0.412,-0.36933 0.73067,-0.38 0.016,0 0.032,0 0.048,0 0.37466,0 0.816,0.15733 1.32533,0.48 0.284,0.18133 0.73067,0.472 1.31333,0.472 0.0747,0 0.15067,-0.005 0.228,-0.0147 0.59334,-0.076 0.99334,-0.432 1.208,-0.624 0.552,-0.492 1.08934,-1.01333 1.60134,-1.54933 0.42666,-0.448 0.41066,-1.15867 -0.0373,-1.58667 -0.21733,-0.20666 -0.496,-0.30933 -0.77333,-0.30933 -0.296,0 -0.592,0.11733 -0.81333,0.348 -0.46667,0.488 -0.95734,0.964 -1.45867,1.412 l -0.112,-0.0707 c -0.83067,-0.52666 -1.672,-0.80133 -2.46133,-0.80133 m 2.64666,-9.231998 c -1.97066,0 -3.88666,0.465333 -5.56666,1.370666 -2.56667,1.382667 -4.488,3.822662 -5.14,6.526662 -0.14534,0.60134 0.22533,1.20667 0.82666,1.352 l 0.264,0.032 c 0.50667,0 0.96667,-0.344 1.088,-0.85866 0.50534,-2.09334 2.00934,-3.992 4.02667,-5.077335 1.33867,-0.722667 2.91867,-1.096 4.532,-1.096 0.70133,0 1.408,0.07067 2.104,0.213333 0.22933,0.04667 0.45733,0.102667 0.68533,0.156 0.556,0.133334 1.13067,0.269334 1.75067,0.324 0.188,0.016 0.37733,0.02533 0.56667,0.02533 1.728,0 3.436,-0.689334 4.672,-1.897334 0.44133,-0.433333 0.44933,-1.144 0.016,-1.585333 -0.21867,-0.224 -0.51067,-0.337333 -0.80134,-0.337333 -0.28266,0 -0.56533,0.105333 -0.784,0.318666 -0.82,0.801334 -1.95733,1.258667 -3.1,1.258667 -0.124,0 -0.248,-0.0067 -0.37333,-0.01733 -0.456,-0.04 -0.928,-0.152 -1.42667,-0.270667 -0.25066,-0.06 -0.5,-0.118667 -0.752,-0.170667 -0.86266,-0.178666 -1.73066,-0.266666 -2.588,-0.266666 m 81.07334,7.050669 c 0.0827,0.28133 0.19866,0.65866 0.45733,0.99466 0.4,0.52267 1.048,0.82267 1.75467,0.82267 l 0.17466,-0.007 c 0.58934,-0.0413 1.092,-0.27466 1.464,-0.472 0.692,-0.37066 1.332,-0.83333 1.90134,-1.376 0.44933,-0.42666 0.468,-1.136 0.04,-1.58533 -0.22,-0.232 -0.516,-0.34933 -0.81334,-0.34933 -0.27733,0 -0.55466,0.10266 -0.77066,0.30933 -0.424,0.404 -0.90134,0.74667 -1.416,1.02267 -0.14934,0.08 -0.36134,0.18666 -0.57867,0.204 l -0.0693,-0.22267 c -0.12534,-0.42667 -0.35867,-1.21867 -1.20534,-1.536 -0.22133,-0.0827 -0.43466,-0.11067 -0.63066,-0.11067 -0.17867,0 -0.34134,0.0227 -0.48267,0.0493 -1.12667,0.20533 -2.2,0.75466 -3.024,1.54933 -0.44533,0.43067 -0.45733,1.14 -0.028,1.58667 0.22,0.228 0.51333,0.34266 0.80667,0.34266 0.28133,0 0.56133,-0.10533 0.77866,-0.31466 0.45334,-0.436 1.02934,-0.75467 1.64134,-0.908 m -8.86,-3.777336 c -2.72267,0 -5.016,1.174666 -5.15467,1.246666 -0.91333,0.47733 -1.264,1.6 -0.792,2.51467 0.33333,0.64133 0.98533,1.00933 1.664,1.00933 0.288,0 0.57867,-0.0667 0.852,-0.20667 0.0227,-0.012 1.65733,-0.83466 3.40667,-0.83466 0.692,0 1.404,0.12933 2.03866,0.48933 0.292,0.16533 0.60934,0.24533 0.92267,0.24533 0.65067,-0.001 1.28267,-0.34 1.62667,-0.94666 0.50933,-0.89734 0.196,-2.03867 -0.70134,-2.548 -1.26666,-0.720003 -2.61066,-0.969336 -3.86266,-0.969336 m -33.85734,-5.306667 c -4.66533,0 -7.42933,3.436 -8.31066,5.52 -0.4,0.946663 0.0413,2.030663 0.98533,2.437333 0.23733,0.10267 0.488,0.152 0.73333,0.152 0.72134,0 1.41067,-0.42133 1.71867,-1.12133 0.16267,-0.36934 1.536,-3.248003 4.88667,-3.248003 0.44133,0 0.91866,0.05067 1.43066,0.162667 0.13467,0.02933 0.26934,0.044 0.40134,0.044 0.86266,0 1.632,-0.596 1.824,-1.470667 0.22133,-1.008 -0.41734,-2.005333 -1.42667,-2.225333 -0.79067,-0.173333 -1.53733,-0.250667 -2.24267,-0.250667 m -20.40133,2.725334 c 0.0867,0 0.23333,0.02 0.424,0.07333 0.14533,0.03867 0.28667,0.141333 0.428,0.190667 0.42,0.142666 0.89467,0.424 1.45067,0.424 h 0.0573 c 0.91733,0 1.82267,-0.556 2.376,-1.288 0.37333,-0.493334 0.276,-1.305334 -0.21867,-1.678667 -0.20266,-0.152 -0.44,-0.226667 -0.676,-0.226667 -0.33866,0 -0.67466,0.153334 -0.89466,0.445334 -0.13467,0.177333 -0.34534,0.284 -0.59734,0.290666 -0.208,-0.004 -0.48133,-0.09733 -0.772,-0.196 -0.18533,-0.06267 -0.372,-0.125333 -0.55866,-0.176 -0.32667,-0.08933 -0.64267,-0.133333 -0.944,-0.133333 -0.684,0 -1.284,0.226667 -1.71734,0.662667 -0.436,0.44 -0.44666,1.166666 -0.008,1.602666 0.224,0.224 0.516,0.338667 0.80667,0.338667 0.27733,0 0.552,-0.104 0.76533,-0.318667 0.0133,-0.0067 0.04,-0.01067 0.0787,-0.01067 m 51.88933,36.882666 v 0 c 10e-4,0 0.003,0 0.003,0 0,0 -0.001,0 -0.003,0 m -10e-4,0 c -0.744,0 -1.55333,-0.0107 -2.43467,-0.0333 0.88,0.0227 1.69067,0.0333 2.43467,0.0333 m -2.48133,-0.0347 c -0.0107,0 -0.0213,0 -0.032,0 0.0107,0 0.0213,0 0.032,0 m -0.10934,-0.003 c -0.0613,-0.001 -0.124,-0.003 -0.188,-0.004 0.064,10e-4 0.12667,0.003 0.188,0.004 m -0.192,-0.004 h -10e-4 10e-4 m -0.0947,-0.003 c -0.73334,-0.016 -1.49867,-0.024 -2.29467,-0.024 v 0 c 0.796,0 1.56133,0.008 2.29467,0.024 m 15.58,-2.272 c 0.86,-0.11467 1.94266,-0.184 3.37733,-0.184 -1.43467,0 -2.51733,0.0693 -3.37733,0.184 m -57.49067,-4.52934 c 1.368,-1.932 3.06133,-3.97733 5.136,-5.62 2.72,-2.15333 5.78933,-3.31866 8.684,-3.31866 0.18133,0 0.36267,0.005 0.544,0.0133 0.32267,0.016 0.684,0.052 0.93067,0.176 0.84133,0.43067 0.788,2.12667 0.752,2.63467 l -0.0253,0.34933 c -0.0747,0.96933 -0.16266,2.10667 0.14934,3.16267 -4.64267,0.94933 -9.508,1.94666 -16.17067,2.60266"
         style="fill:#9a4050;fill-opacity:1;fill-rule:nonzero;stroke:none;stroke-width:0.133333" />
      <path
         id="path599"
         d="m 660.81865,135.44134 c -0.58933,0 -1.17067,-0.004 -1.74533,-0.009 -3.38667,-0.0373 -6.488,-0.188 -9.13867,-0.504 -0.064,-0.007 -0.12667,-0.0147 -0.19067,-0.0227 -0.0133,-0.001 -0.028,-0.003 -0.0427,-0.005 v 0 c -1.2,-0.148 -2.40534,-0.33333 -3.60667,-0.55333 -10e-4,-0.001 -0.004,-0.001 -0.007,-0.001 -0.0107,-0.003 -0.0187,-0.004 -0.0293,-0.005 -0.005,-0.001 -0.012,-0.003 -0.0173,-0.004 -0.005,-0.001 -0.008,-0.001 -0.0133,-0.003 -12.81333,-2.37466 -25.08,-8.94133 -24.948,-20.99066 3.764,6.264 10.272,12.52666 25.10667,13.96 -0.136,0.124 -0.25867,0.24933 -0.372,0.364 -0.43467,0.44133 -0.428,1.15066 0.012,1.58533 0.21867,0.216 0.50267,0.32267 0.788,0.32267 0.28933,0 0.57867,-0.112 0.79867,-0.33467 0.216,-0.21867 0.43866,-0.44533 0.632,-0.532 l 0.0427,-0.0147 0.0707,0.12667 c 0.128,0.22667 0.30133,0.53467 0.60667,0.796 0.43733,0.37467 0.92533,0.49867 1.38666,0.49867 0.73067,0 1.39734,-0.31334 1.69334,-0.45334 l 1.59066,-0.75066 c 0.5,-0.236 0.74534,-0.79467 0.60267,-1.31067 0.52533,-0.008 1.06,-0.02 1.60267,-0.0373 2.61466,-0.084 5,-0.216 7.19466,-0.38534 -0.19733,0.30267 -0.388,0.6 -0.57066,0.888 -0.33067,0.52267 -0.17467,1.216 0.34933,1.54667 0.18667,0.11733 0.39333,0.17333 0.59867,0.17333 0.372,0 0.73466,-0.184 0.948,-0.52133 0.464,-0.73467 0.98266,-1.52667 1.55733,-2.33867 6.66267,-0.656 11.528,-1.65333 16.17067,-2.60266 0.13733,0.46 0.34933,0.90666 0.672,1.31733 0.81333,1.04 2.14666,1.58267 3.82133,1.58267 0.42533,0 0.87333,-0.0347 1.34,-0.10667 1.80133,-0.27333 3.52267,-0.86267 5.112,-1.75467 0.60667,-0.34 1.18267,-0.71733 1.73733,-1.08266 0.66267,-0.43467 1.288,-0.84534 1.94534,-1.18534 0.696,-0.36 1.652,-0.736 2.61066,-0.736 0.268,0 0.53734,0.0307 0.8,0.0973 0.27067,0.0693 0.33867,0.13466 0.34667,0.14266 0.08,0.0853 0.13867,0.424 0.18,0.67334 0.0373,0.228 0.0773,0.45733 0.136,0.67733 0.34667,1.27467 1.37333,2.37467 2.74533,2.944 0.80667,0.33467 1.73334,0.49867 2.812,0.49867 0.25334,0 0.51467,-0.009 0.784,-0.0267 2.852,-0.19067 5.67067,-1.252 7.94,-2.988 0.49067,-0.376 0.58534,-1.08 0.20934,-1.572 -0.22,-0.288 -0.55467,-0.44 -0.892,-0.44 -0.23734,0 -0.47734,0.076 -0.68,0.23067 -1.92267,1.47066 -4.312,2.37066 -6.72534,2.53066 -0.23066,0.016 -0.448,0.024 -0.656,0.024 -0.772,0 -1.39866,-0.108 -1.93466,-0.32933 -0.724,-0.3 -1.27467,-0.85867 -1.436,-1.45867 -0.0413,-0.14933 -0.0667,-0.30666 -0.092,-0.464 -0.0613,-0.36133 -0.13067,-0.77866 -0.31867,-1.18533 0.96933,-0.024 1.976,-0.036 3.02667,-0.036 0.81733,0 1.66,0.007 2.53066,0.024 0.45467,0.008 0.904,0.012 1.348,0.012 4.996,0 9.35334,-0.516 13.032,-1.38133 -0.22133,0.43866 -0.13466,0.98666 0.244,1.33333 0.216,0.19733 0.48667,0.29467 0.75734,0.29467 0.304,0 0.60666,-0.12267 0.828,-0.36534 0.49066,-0.53866 1.10666,-0.96 1.78533,-1.22533 l 0.052,0.21067 c 0.0733,0.30533 0.16267,0.68533 0.396,1.06 0.45733,0.736 1.328,1.18266 2.26933,1.18266 l 0.28,-0.0133 c 0.84667,-0.08 1.55334,-0.47467 2.07467,-0.81067 0.76533,-0.492 1.472,-1.07333 2.1,-1.72933 0.42933,-0.44667 0.41466,-1.156 -0.032,-1.58533 -0.21733,-0.208 -0.496,-0.312 -0.776,-0.312 -0.29467,0 -0.588,0.11466 -0.80933,0.34533 -0.508,0.528 -1.07867,0.99733 -1.69734,1.39467 -0.30666,0.19866 -0.70666,0.42933 -1.068,0.46266 -0.0253,0.003 -0.0493,0.004 -0.0733,0.004 -0.192,0 -0.33467,-0.0747 -0.36267,-0.12133 -0.0413,-0.0653 -0.0827,-0.24 -0.11866,-0.396 -0.0307,-0.12533 -0.06,-0.252 -0.0973,-0.37333 -0.11466,-0.38934 -0.29466,-0.72267 -0.524,-0.98534 3.27334,-1.316 5.68267,-2.95333 7.16533,-4.68533 2.164,-0.37867 4.23867,-1.33333 5.892,-2.76133 0.468,-0.404 0.52,-1.112 0.116,-1.58134 -0.22133,-0.25733 -0.53466,-0.38933 -0.84933,-0.38933 -0.26,0 -0.52133,0.0893 -0.73333,0.27333 -0.844,0.728 -1.82267,1.30534 -2.87067,1.712 0.57333,-2.012 -0.0893,-3.992 -2.076,-5.608 -5.75066,-4.67333 -11.05066,-7.937328 -17.27866,-9.399995 0.296,-0.0027 0.58933,-0.0053 0.88,-0.0053 12.82,0 21.37599,3.466666 27.62933,12.971995 1.98133,3.012 2.812,5.492 2.81466,7.52667 0.005,4.62133 -4.26666,6.952 -9.03733,8.032 -6.872,1.556 -3.37067,6.484 -12.57733,6.484 v 0 c -1.43467,0 -2.51733,0.0693 -3.37733,0.184 -4.30667,0.57866 -3.05467,2.316 -12.69867,2.316 0,0 -0.001,0 -0.003,0 v 0 h -10e-4 c -0.744,0 -1.55467,-0.0107 -2.43467,-0.0333 -0.016,0 -0.0307,0 -0.0467,-0.001 -0.0107,0 -0.0213,0 -0.032,0 -0.0253,-10e-4 -0.052,-10e-4 -0.0773,-0.003 v 0 c -0.0613,-0.001 -0.124,-0.003 -0.188,-0.004 -10e-4,0 -0.003,0 -0.004,0 h -10e-4 c -0.0307,-0.001 -0.0627,-0.001 -0.0933,-0.003 -0.73334,-0.016 -1.49867,-0.024 -2.29467,-0.024 v 0 c -5.928,0 -13.51333,0.43466 -21.388,0.86933 -7.87467,0.43467 -16.04,0.86933 -23.128,0.86933 m 13.02667,-5.33733 c 0.016,0 0.0253,0.001 0.0307,0.003 l 0.28134,0.28133 c 0.23466,0.26133 0.52933,0.58667 0.98266,0.80267 0.3,0.14266 0.63067,0.212 0.96934,0.212 0.508,0 1.032,-0.15467 1.496,-0.45867 0.56666,-0.372 0.95733,-0.884 1.27066,-1.296 0.37467,-0.492 0.27867,-1.196 -0.21333,-1.572 -0.20267,-0.15333 -0.44133,-0.228 -0.67867,-0.228 -0.33866,0 -0.672,0.152 -0.89333,0.44267 -0.24,0.316 -0.46933,0.61733 -0.71333,0.776 -0.13334,0.0893 -0.252,0.0933 -0.272,0.1 l -0.28134,-0.28 c -0.236,-0.26134 -0.528,-0.58667 -0.98133,-0.804 -0.33067,-0.15734 -0.664,-0.21867 -0.98267,-0.21867 -0.85066,0 -1.60666,0.43867 -1.99066,0.66 -0.536,0.30933 -0.72,0.99467 -0.40934,1.53067 0.208,0.36 0.58534,0.56133 0.97334,0.56133 0.18933,0 0.38266,-0.0493 0.55866,-0.152 0.55734,-0.32133 0.77734,-0.36 0.85334,-0.36 m -23.64534,-2.236 -0.0867,-0.14667 c -0.0293,-0.052 -0.06,-0.10666 -0.0947,-0.16533 0.32,0.012 0.644,0.0213 0.97067,0.0293 l -0.1,0.048 c -0.39334,0.18534 -0.59734,0.22667 -0.68934,0.23467 m 36.18,-2.89067 c -0.73733,0 -1.60133,-0.14133 -2.056,-0.72133 -0.0893,-0.11467 -0.16133,-0.244 -0.21866,-0.384 2.96666,-0.59467 5.944,-1.144 9.35066,-1.544 -0.0387,0.0253 -0.0773,0.0507 -0.116,0.076 -0.54666,0.36 -1.064,0.7 -1.60133,1.00133 -1.35333,0.75867 -2.81867,1.26134 -4.35333,1.49334 -0.24134,0.0373 -0.604,0.0787 -1.00534,0.0787"
         style="fill:#8f3141;fill-opacity:1;fill-rule:nonzero;stroke:none;stroke-width:0.133333" />
      <path
         id="path600"
         d="m 631.04798,105.47734 -0.264,-0.032 c -0.60133,-0.14533 -0.972,-0.75066 -0.82666,-1.352 0.652,-2.704 2.57333,-5.143995 5.14,-6.526662 1.68,-0.905333 3.596,-1.370666 5.56666,-1.370666 0.85734,0 1.72534,0.088 2.588,0.266666 0.252,0.052 0.50134,0.110667 0.752,0.170667 0.49867,0.118667 0.97067,0.230667 1.42667,0.270667 0.12533,0.01067 0.24933,0.01733 0.37333,0.01733 1.14267,0 2.28,-0.457333 3.1,-1.258667 0.21867,-0.213333 0.50134,-0.318666 0.784,-0.318666 0.29067,0 0.58267,0.113333 0.80134,0.337333 0.43333,0.441333 0.42533,1.152 -0.016,1.585333 -1.236,1.208 -2.944,1.897334 -4.672,1.897334 -0.18934,0 -0.37867,-0.0093 -0.56667,-0.02533 -0.62,-0.05467 -1.19467,-0.190666 -1.75067,-0.324 -0.228,-0.05333 -0.456,-0.109333 -0.68533,-0.156 -0.696,-0.142666 -1.40267,-0.213333 -2.104,-0.213333 -1.61333,0 -3.19333,0.373333 -4.532,1.096 -2.01733,1.085334 -3.52133,2.983994 -4.02667,5.077334 -0.12133,0.51466 -0.58133,0.85866 -1.088,0.85866"
         style="fill:#7b3546;fill-opacity:1;fill-rule:nonzero;stroke:none;stroke-width:0.133333" />
      <path
         id="path601"
         d="m 649.18665,110.37201 c -0.168,0 -0.33867,-0.0387 -0.49867,-0.11733 -0.55466,-0.27734 -0.78,-0.95067 -0.504,-1.50534 3.016,-6.05333 8.48534,-10.122662 14.26934,-10.621328 0.27333,-0.024 0.55333,-0.036 0.83733,-0.036 2.21067,0 4.64267,0.764 5.62,2.939998 0.28267,0.62933 0.388,1.28267 0.48,1.85867 0.0867,0.53066 0.168,1.03333 0.36933,1.404 0.37867,0.69333 1.25334,1.00266 2.068,1.00266 0.21067,0 0.416,-0.02 0.60934,-0.06 1.23866,-0.25466 2.368,-1.132 3.308,-1.956 0.19866,-0.176 0.396,-0.352 0.592,-0.52933 0.95066,-0.852 1.932,-1.73467 3.14133,-2.36267 0.98533,-0.511995 2.01067,-0.767995 2.98133,-0.767995 0.85467,0 1.66534,0.198667 2.36667,0.597335 0.95067,0.54266 1.58933,1.376 2.15067,2.112 0.38533,0.504 0.74933,0.98 1.16933,1.32 0.94667,0.76533 2.30933,0.93733 3.55467,0.93733 0.284,0 0.56266,-0.009 0.828,-0.0227 0.79066,-0.0373 1.71733,-0.108 2.592,-0.35066 1.352,-0.376 2.58933,-1.18267 3.48133,-2.26667 0.22133,-0.26933 0.54267,-0.40933 0.86667,-0.40933 0.25066,0 0.504,0.0827 0.71333,0.25466 0.47733,0.39334 0.54667,1.1 0.152,1.57867 -1.18133,1.43733 -2.81867,2.504 -4.612,3.00267 -1.08933,0.304 -2.172,0.388 -3.08667,0.432 -0.29466,0.0133 -0.60266,0.0227 -0.92,0.0227 -1.64266,0 -3.51066,-0.248 -4.97866,-1.43466 -0.62934,-0.508 -1.09334,-1.11467 -1.54134,-1.70134 -0.47466,-0.62133 -0.924,-1.20933 -1.48,-1.52533 -0.37733,-0.216 -0.804,-0.30267 -1.23733,-0.30267 -0.696,0 -1.40933,0.22534 -1.96533,0.51467 -0.95734,0.49733 -1.792,1.24667 -2.67734,2.04133 -0.20266,0.184 -0.40666,0.36667 -0.612,0.54534 -1.16,1.01866 -2.584,2.10666 -4.33333,2.46666 -0.36667,0.076 -0.73467,0.11334 -1.096,0.11334 -1.70133,0 -3.25867,-0.816 -4.00267,-2.176 -0.38666,-0.70934 -0.508,-1.46134 -0.61466,-2.12267 -0.0787,-0.48267 -0.152,-0.93733 -0.31334,-1.29733 -0.54133,-1.204 -2.152,-1.61467 -3.58266,-1.61467 -0.21734,0 -0.42934,0.009 -0.63467,0.0267 -1.44933,0.12533 -2.87867,0.51333 -4.24267,1.13466 -4.06933,0.75067 -6.12,3.66267 -6.92266,6.03334 -0.47067,0.7 -0.90267,1.44133 -1.29067,2.21866 -0.196,0.39467 -0.59333,0.62267 -1.004,0.62267"
         style="fill:#7b3546;fill-opacity:1;fill-rule:nonzero;stroke:none;stroke-width:0.133333" />
      <path
         id="path602"
         d="m 643.34932,122.64268 c -0.20267,0 -0.40134,-0.02 -0.596,-0.0613 -1.43467,-0.308 -2.44534,-1.688 -2.70267,-3.696 -0.024,-0.192 -0.0467,-0.38933 -0.068,-0.58533 -0.092,-0.86 -0.17867,-1.67067 -0.59733,-2.136 -0.284,-0.31467 -0.77867,-0.5 -1.32,-0.5 -0.0653,0 -0.13067,0.003 -0.196,0.008 -0.58667,0.0467 -1.23734,0.27867 -2.04667,0.73467 -1.99067,1.11866 -3.64933,2.75333 -4.796,4.72666 -0.208,0.35867 -0.584,0.55734 -0.97067,0.55734 -0.192,0 -0.38666,-0.048 -0.564,-0.152 -0.53466,-0.31067 -0.716,-0.99734 -0.40533,-1.532 1.348,-2.32 3.29733,-4.24134 5.63733,-5.556 0.69334,-0.39067 1.756,-0.92 2.972,-1.01467 0.12134,-0.009 0.24267,-0.0147 0.36267,-0.0147 1.18133,0 2.284,0.45334 2.996,1.244 0.90133,1.00267 1.03733,2.27334 1.15733,3.392 0.0213,0.18267 0.04,0.364 0.0627,0.54134 0.10533,0.812 0.43867,1.68 0.948,1.78933 0.0387,0.008 0.0813,0.012 0.128,0.012 0.176,0 0.39467,-0.0627 0.62133,-0.18 0.55867,-0.28533 1.048,-0.79333 1.56534,-1.32933 0.35333,-0.368 0.71866,-0.74667 1.14,-1.09334 0.82533,-0.68266 1.9,-1.13333 2.92933,-1.13333 0.76,0 1.496,0.24533 2.08933,0.82267 0.48667,0.472 0.73334,1.05333 0.932,1.51866 0.128,0.30534 0.252,0.59334 0.4,0.76267 0.19067,0.21467 0.536,0.34 0.91867,0.34 0.0813,0 0.16533,-0.005 0.248,-0.0173 0.616,-0.0827 1.23733,-0.43734 1.712,-0.73734 1.28533,-0.81333 2.42133,-1.82533 3.37733,-3.00666 0.22134,-0.27334 0.54534,-0.416 0.872,-0.416 0.248,0 0.49734,0.0827 0.70534,0.25066 0.48133,0.39067 0.556,1.096 0.16666,1.57734 -1.11066,1.37066 -2.43066,2.54533 -3.92266,3.48933 -0.66534,0.42267 -1.56534,0.92533 -2.61067,1.06533 -0.18533,0.0253 -0.37067,0.0373 -0.552,0.0373 -1.02933,0 -1.972,-0.392 -2.59467,-1.09867 -0.39066,-0.44133 -0.6,-0.93467 -0.78533,-1.36933 -0.13733,-0.324 -0.26667,-0.63067 -0.428,-0.78667 -0.13067,-0.12667 -0.31867,-0.18133 -0.53467,-0.18133 -0.46533,0 -1.064,0.25466 -1.49466,0.612 -0.32267,0.26533 -0.62934,0.58266 -0.95334,0.91866 -0.62266,0.64667 -1.26533,1.31467 -2.156,1.77067 -0.552,0.28267 -1.11066,0.42667 -1.64666,0.42667"
         style="fill:#7b3546;fill-opacity:1;fill-rule:nonzero;stroke:none;stroke-width:0.133333" />
      <path
         id="path603"
         d="m 663.21332,129.78534 c -0.20534,0 -0.412,-0.056 -0.59867,-0.17333 -0.524,-0.33067 -0.68,-1.024 -0.34933,-1.54667 0.18266,-0.288 0.37333,-0.58533 0.57066,-0.888 1.61334,-2.46533 3.76534,-5.36533 6.62667,-7.63066 3.11333,-2.46534 6.66533,-3.80267 10.06667,-3.80267 0.224,0 0.44666,0.005 0.668,0.0173 0.55866,0.028 1.21466,0.1 1.83466,0.41734 1.43867,0.73466 2.13867,2.436 1.97067,4.792 l -0.028,0.36 c -0.0693,0.92 -0.14267,1.86533 0.13067,2.54133 0.0573,0.14 0.12933,0.26933 0.21866,0.384 0.45467,0.58 1.31867,0.72133 2.056,0.72133 0.40134,0 0.764,-0.0413 1.00534,-0.0787 1.53466,-0.232 3,-0.73467 4.35333,-1.49334 0.53733,-0.30133 1.05467,-0.64133 1.60133,-1.00133 0.0387,-0.0253 0.0773,-0.0507 0.116,-0.076 0.64534,-0.424 1.31334,-0.85733 2.03067,-1.228 1.26267,-0.652 2.50267,-0.984 3.64933,-0.984 0.46667,0 0.91734,0.056 1.348,0.16533 0.60934,0.156 1.07467,0.40934 1.42134,0.77467 0.196,0.208 0.336,0.43067 0.44133,0.656 0.188,0.40667 0.25733,0.824 0.31867,1.18533 0.0253,0.15734 0.0507,0.31467 0.092,0.464 0.16133,0.6 0.712,1.15867 1.436,1.45867 0.536,0.22133 1.16266,0.32933 1.93466,0.32933 0.208,0 0.42534,-0.008 0.656,-0.024 2.41334,-0.16 4.80267,-1.06 6.72534,-2.53066 0.20266,-0.15467 0.44266,-0.23067 0.68,-0.23067 0.33733,0 0.672,0.152 0.892,0.44 0.376,0.492 0.28133,1.196 -0.20934,1.572 -2.26933,1.736 -5.088,2.79733 -7.94,2.988 -0.26933,0.0173 -0.53066,0.0267 -0.784,0.0267 -1.07866,0 -2.00533,-0.164 -2.812,-0.49867 -1.372,-0.56933 -2.39866,-1.66933 -2.74533,-2.944 -0.0587,-0.22 -0.0987,-0.44933 -0.136,-0.67733 -0.0413,-0.24934 -0.1,-0.588 -0.18,-0.67334 -0.008,-0.008 -0.076,-0.0733 -0.34667,-0.14266 -0.26266,-0.0667 -0.532,-0.0973 -0.8,-0.0973 -0.95866,0 -1.91466,0.376 -2.61066,0.736 -0.65734,0.34 -1.28267,0.75067 -1.94534,1.18534 -0.55466,0.36533 -1.13066,0.74266 -1.73733,1.08266 -1.58933,0.892 -3.31067,1.48134 -5.112,1.75467 -0.46667,0.072 -0.91467,0.10667 -1.34,0.10667 -1.67467,0 -3.008,-0.54267 -3.82133,-1.58267 -0.32267,-0.41067 -0.53467,-0.85733 -0.672,-1.31733 -0.312,-1.056 -0.224,-2.19334 -0.14934,-3.16267 l 0.0253,-0.34933 c 0.036,-0.508 0.0893,-2.204 -0.752,-2.63467 -0.24667,-0.124 -0.608,-0.16 -0.93067,-0.176 -0.18133,-0.008 -0.36267,-0.0133 -0.544,-0.0133 -2.89467,0 -5.964,1.16533 -8.684,3.31866 -2.07467,1.64267 -3.768,3.688 -5.136,5.62 -0.57467,0.812 -1.09333,1.604 -1.55733,2.33867 -0.21334,0.33733 -0.576,0.52133 -0.948,0.52133"
         style="fill:#7b3546;fill-opacity:1;fill-rule:nonzero;stroke:none;stroke-width:0.133333" />
      <path
         id="path604"
         d="m 716.92398,114.52134 c -0.28933,0 -0.576,-0.0187 -0.856,-0.0547 -0.88533,-0.116 -1.59066,-0.42134 -2.09466,-0.90934 -0.88934,-0.864 -0.968,-2.02133 -1.03067,-2.952 -0.036,-0.55866 -0.0733,-1.084 -0.25733,-1.42933 -0.29467,-0.54533 -1.06534,-0.76267 -1.90534,-0.76267 -0.348,0 -0.708,0.0373 -1.052,0.10267 -2.848,0.55467 -5.75333,2.24533 -8.636,5.024 -0.21733,0.20933 -0.49733,0.31467 -0.77733,0.31467 -0.29333,0 -0.58667,-0.11467 -0.808,-0.34267 -0.42933,-0.44667 -0.41733,-1.15733 0.0293,-1.58533 3.2,-3.08534 6.48534,-4.97334 9.76267,-5.61067 0.468,-0.092 0.96533,-0.144 1.46533,-0.144 1.55067,0 3.12267,0.50667 3.89467,1.94 0.41733,0.77333 0.47333,1.60667 0.52267,2.34133 0.044,0.66 0.0827,1.22934 0.352,1.492 0.14933,0.14267 0.43333,0.24534 0.82266,0.29734 0.184,0.024 0.37334,0.036 0.568,0.036 1.05867,0 2.26134,-0.356 3.66267,-1.07867 0.53067,-0.27333 1.04933,-0.572 1.56667,-0.872 0.96266,-0.552 1.956,-1.12533 3.04133,-1.55733 0.58,-0.23067 1.21333,-0.368 1.82133,-0.368 0.988,0 1.90667,0.36133 2.40934,1.26666 0.20933,0.37467 0.28133,0.74534 0.34,1.04267 l 0.084,0.34933 c 0.18266,0.508 1.04933,0.77067 1.79866,0.848 0.31334,0.0307 0.628,0.0467 0.94267,0.0467 1.236,0 2.48,-0.23867 3.64133,-0.68667 1.048,-0.40666 2.02667,-0.984 2.87067,-1.712 0.212,-0.184 0.47333,-0.27333 0.73333,-0.27333 0.31467,0 0.628,0.132 0.84933,0.38933 0.404,0.46934 0.352,1.17734 -0.116,1.58134 -1.65333,1.428 -3.728,2.38266 -5.892,2.76133 -0.692,0.12 -1.39199,0.18267 -2.09066,0.18267 -0.38933,0 -0.77867,-0.02 -1.16667,-0.0587 -1.90266,-0.19467 -3.212,-1.016 -3.68,-2.31467 -0.0893,-0.24666 -0.136,-0.47733 -0.17466,-0.68 -0.0307,-0.15066 -0.064,-0.32133 -0.1,-0.38666 -0.04,-0.0733 -0.19867,-0.11867 -0.42667,-0.11867 -0.268,0 -0.632,0.0627 -1.01333,0.21467 -0.936,0.372 -1.81867,0.88 -2.75334,1.41866 -0.54666,0.31467 -1.09466,0.62934 -1.656,0.92 -1.72533,0.88934 -3.268,1.328 -4.692,1.328"
         style="fill:#7b3546;fill-opacity:1;fill-rule:nonzero;stroke:none;stroke-width:0.133333" />
      <path
         id="path605"
         d="m 728.61598,122.82134 c -0.94133,0 -1.812,-0.44666 -2.26933,-1.18266 -0.23333,-0.37467 -0.32267,-0.75467 -0.396,-1.06 l -0.052,-0.21067 c -0.67867,0.26533 -1.29467,0.68667 -1.78533,1.22533 -0.22134,0.24267 -0.524,0.36534 -0.828,0.36534 -0.27067,0 -0.54134,-0.0973 -0.75734,-0.29467 -0.37866,-0.34667 -0.46533,-0.89467 -0.244,-1.33333 0.0453,-0.0893 0.10267,-0.17334 0.17334,-0.25067 0.74933,-0.82 1.696,-1.45867 2.73733,-1.844 0.25067,-0.0933 0.56133,-0.18667 0.90933,-0.18667 0.15067,0 0.30667,0.0173 0.46934,0.06 0.36266,0.0947 0.68133,0.3 0.93866,0.592 0.22934,0.26267 0.40934,0.596 0.524,0.98534 0.0373,0.12133 0.0667,0.248 0.0973,0.37333 0.036,0.156 0.0773,0.33067 0.11866,0.396 0.028,0.0467 0.17067,0.12133 0.36267,0.12133 0.024,0 0.048,-0.001 0.0733,-0.004 0.36134,-0.0333 0.76134,-0.264 1.068,-0.46266 0.61867,-0.39734 1.18934,-0.86667 1.69734,-1.39467 0.22133,-0.23067 0.51466,-0.34533 0.80933,-0.34533 0.28,0 0.55867,0.104 0.776,0.312 0.44666,0.42933 0.46133,1.13866 0.032,1.58533 -0.628,0.656 -1.33467,1.23733 -2.1,1.72933 -0.52133,0.336 -1.228,0.73067 -2.07467,0.81067 l -0.28,0.0133"
         style="fill:#7b3546;fill-opacity:1;fill-rule:nonzero;stroke:none;stroke-width:0.133333" />
      <path
         id="path606"
         d="m 691.88398,114.65868 c -0.23466,0 -0.48,-0.044 -0.732,-0.156 -0.70133,-0.312 -0.972,-0.94267 -1.152,-1.36 l -0.0467,-0.10934 c -0.46134,0.10267 -0.89067,0.34 -1.224,0.67334 -0.22,0.22 -0.50667,0.33066 -0.79467,0.33066 -0.28667,0 -0.572,-0.10933 -0.792,-0.328 -0.43867,-0.43733 -0.44,-1.14666 -0.003,-1.58533 0.688,-0.69067 1.59467,-1.16 2.552,-1.32533 0.12934,-0.0213 0.28934,-0.044 0.46667,-0.044 0.20133,0 0.42667,0.028 0.656,0.11466 0.772,0.28267 1.06933,0.97467 1.24667,1.388 l 0.012,0.0253 0.10133,-0.0733 0.93067,-0.692 c 0.20133,-0.148 0.43733,-0.22 0.66933,-0.22 0.34267,0 0.68133,0.156 0.9,0.452 0.36933,0.49734 0.26533,1.2 -0.23067,1.56934 l -0.93066,0.69066 c -0.24534,0.18267 -0.87334,0.64934 -1.62934,0.64934"
         style="fill:#7b3546;fill-opacity:1;fill-rule:nonzero;stroke:none;stroke-width:0.133333" />
      <path
         id="path607"
         d="m 723.94932,105.06401 c -0.70667,0 -1.35467,-0.3 -1.75467,-0.82267 -0.25867,-0.336 -0.37467,-0.71333 -0.45733,-0.99466 -0.612,0.15333 -1.188,0.472 -1.64134,0.908 -0.21733,0.20933 -0.49733,0.31466 -0.77866,0.31466 -0.29334,0 -0.58667,-0.11466 -0.80667,-0.34266 -0.42933,-0.44667 -0.41733,-1.156 0.028,-1.58667 0.824,-0.79467 1.89733,-1.344 3.024,-1.54933 0.14133,-0.0267 0.304,-0.0493 0.48267,-0.0493 0.196,0 0.40933,0.028 0.63066,0.11067 0.84667,0.31733 1.08,1.10933 1.20534,1.536 l 0.0693,0.22267 c 0.21733,-0.0173 0.42933,-0.124 0.57867,-0.204 0.51466,-0.276 0.992,-0.61867 1.416,-1.02267 0.216,-0.20667 0.49333,-0.30933 0.77066,-0.30933 0.29734,0 0.59334,0.11733 0.81334,0.34933 0.428,0.44933 0.40933,1.15867 -0.04,1.58533 -0.56934,0.54267 -1.20934,1.00534 -1.90134,1.376 -0.372,0.19734 -0.87466,0.43067 -1.464,0.472 l -0.17466,0.007"
         style="fill:#7b3546;fill-opacity:1;fill-rule:nonzero;stroke:none;stroke-width:0.133333" />
      <path
         id="path608"
         d="m 664.21198,112.08534 c -0.45466,0 -0.80666,-0.13866 -1.06533,-0.3 -0.42,-0.264 -0.64667,-0.62933 -0.812,-0.89466 l -0.13867,-0.20934 c -0.0907,-0.10933 -0.30133,-0.17466 -0.53466,-0.17466 -0.0653,0 -0.132,0.005 -0.19867,0.016 -0.45467,0.0733 -0.94533,0.34666 -1.42133,0.60933 l -0.30667,0.19333 c -0.196,0.38134 -0.57333,0.592 -0.96933,0.592 -0.17734,0 -0.35867,-0.0427 -0.528,-0.13066 -0.55067,-0.284 -0.75334,-0.98134 -0.46934,-1.532 0.312,-0.6 0.85867,-0.90267 1.18667,-1.08267 0.58133,-0.324 1.30667,-0.72667 2.14933,-0.864 0.18934,-0.0307 0.37734,-0.0453 0.56267,-0.0453 0.90133,0 1.72933,0.35466 2.25067,0.98266 0.12,0.14134 0.22266,0.30134 0.324,0.46134 l 0.0733,0.11733 c 0.072,-0.0213 0.18667,-0.0653 0.35333,-0.15733 0.52934,-0.29467 1.02934,-0.64667 1.49067,-1.044 0.212,-0.18267 0.472,-0.27334 0.732,-0.27334 0.31467,0 0.62667,0.132 0.84933,0.388 0.404,0.46934 0.35334,1.17734 -0.11466,1.58267 -0.576,0.49733 -1.204,0.936 -1.86667,1.30533 -0.60533,0.33867 -1.12,0.46 -1.54667,0.46"
         style="fill:#7b3546;fill-opacity:1;fill-rule:nonzero;stroke:none;stroke-width:0.133333" />
      <path
         id="path609"
         d="m 650.15198,130.11468 c -0.46133,0 -0.94933,-0.124 -1.38666,-0.49867 -0.30534,-0.26133 -0.47867,-0.56933 -0.60667,-0.796 l -0.0707,-0.12667 -0.0427,0.0147 c -0.19334,0.0867 -0.416,0.31333 -0.632,0.532 -0.22,0.22267 -0.50934,0.33467 -0.79867,0.33467 -0.28533,0 -0.56933,-0.10667 -0.788,-0.32267 -0.44,-0.43467 -0.44667,-1.144 -0.012,-1.58533 0.11333,-0.11467 0.236,-0.24 0.372,-0.364 0.25733,-0.236 0.56267,-0.47067 0.94,-0.64 0.328,-0.148 0.67467,-0.22 1.012,-0.22 0.49467,0 0.97067,0.15466 1.33733,0.45733 0.25467,0.208 0.42,0.44933 0.54267,0.656 0.0347,0.0587 0.0653,0.11333 0.0947,0.16533 l 0.0867,0.14667 c 0.092,-0.008 0.296,-0.0493 0.68934,-0.23467 l 0.1,-0.048 1.48933,-0.70266 c 0.15467,-0.0733 0.31733,-0.10667 0.47733,-0.10667 0.42,0 0.824,0.236 1.016,0.64267 0.028,0.0587 0.0493,0.12 0.0667,0.18133 0.14267,0.516 -0.10267,1.07467 -0.60267,1.31067 l -1.59066,0.75066 c -0.296,0.14 -0.96267,0.45334 -1.69334,0.45334"
         style="fill:#7b3546;fill-opacity:1;fill-rule:nonzero;stroke:none;stroke-width:0.133333" />
      <path
         id="path610"
         d="m 676.10932,131.40268 c -0.33867,0 -0.66934,-0.0693 -0.96934,-0.212 -0.45333,-0.216 -0.748,-0.54134 -0.98266,-0.80267 l -0.28134,-0.28133 c -0.005,-0.001 -0.0147,-0.003 -0.0307,-0.003 -0.076,0 -0.296,0.0387 -0.85334,0.36 -0.176,0.10267 -0.36933,0.152 -0.55866,0.152 -0.388,0 -0.76534,-0.20133 -0.97334,-0.56133 -0.31066,-0.536 -0.12666,-1.22134 0.40934,-1.53067 0.384,-0.22133 1.14,-0.66 1.99066,-0.66 0.31867,0 0.652,0.0613 0.98267,0.21867 0.45333,0.21733 0.74533,0.54266 0.98133,0.804 l 0.28134,0.28 c 0.02,-0.007 0.13866,-0.0107 0.272,-0.1 0.244,-0.15867 0.47333,-0.46 0.71333,-0.776 0.22133,-0.29067 0.55467,-0.44267 0.89333,-0.44267 0.23734,0 0.476,0.0747 0.67867,0.228 0.492,0.376 0.588,1.08 0.21333,1.572 -0.31333,0.412 -0.704,0.924 -1.27066,1.296 -0.464,0.304 -0.988,0.45867 -1.496,0.45867"
         style="fill:#7b3546;fill-opacity:1;fill-rule:nonzero;stroke:none;stroke-width:0.133333" />
      <path
         id="path611"
         d="m 636.20265,108.69734 c -0.16,0 -0.32267,-0.036 -0.476,-0.108 -0.56133,-0.264 -0.80133,-0.932 -0.53733,-1.492 0.45733,-0.97333 1.51066,-1.628 2.68533,-1.66666 0.048,-10e-4 0.0947,-0.003 0.14267,-0.003 0.78933,0 1.63066,0.27467 2.46133,0.80133 l 0.112,0.0707 c 0.50133,-0.448 0.992,-0.924 1.45867,-1.412 0.22133,-0.23067 0.51733,-0.348 0.81333,-0.348 0.27733,0 0.556,0.10267 0.77333,0.30933 0.448,0.428 0.464,1.13867 0.0373,1.58667 -0.512,0.536 -1.04934,1.05733 -1.60134,1.54933 -0.21466,0.192 -0.61466,0.548 -1.208,0.624 -0.0773,0.009 -0.15333,0.0147 -0.228,0.0147 -0.58266,0 -1.02933,-0.29067 -1.31333,-0.472 -0.50933,-0.32267 -0.95067,-0.48 -1.32533,-0.48 -0.016,0 -0.032,0 -0.048,0 -0.31867,0.0107 -0.63334,0.17467 -0.73067,0.38 -0.192,0.40533 -0.59467,0.64533 -1.016,0.64533"
         style="fill:#7b3546;fill-opacity:1;fill-rule:nonzero;stroke:none;stroke-width:0.133333" />
      <path
         id="path612"
         d="m 660.97865,97.576012 h -0.0573 c -0.556,0 -1.03067,-0.281334 -1.45067,-0.424 -0.14133,-0.04933 -0.28267,-0.152 -0.428,-0.190667 -0.19067,-0.05333 -0.33733,-0.07333 -0.424,-0.07333 -0.0387,0 -0.0653,0.004 -0.0787,0.01067 -0.21333,0.214667 -0.488,0.318667 -0.76533,0.318667 -0.29067,0 -0.58267,-0.114667 -0.80667,-0.338667 -0.43866,-0.436 -0.428,-1.162666 0.008,-1.602666 0.43334,-0.436 1.03334,-0.662667 1.71734,-0.662667 0.30133,0 0.61733,0.044 0.944,0.133333 0.18666,0.05067 0.37333,0.113334 0.55866,0.176 0.29067,0.09867 0.564,0.192 0.772,0.196 0.252,-0.0067 0.46267,-0.113333 0.59734,-0.290666 0.22,-0.292 0.556,-0.445334 0.89466,-0.445334 0.236,0 0.47334,0.07467 0.676,0.226667 0.49467,0.373333 0.592,1.185333 0.21867,1.678667 -0.55333,0.732 -1.45867,1.288 -2.376,1.288"
         style="fill:#7b3546;fill-opacity:1;fill-rule:nonzero;stroke:none;stroke-width:0.133333" />
      <path
         id="path613"
         d="m 624.62798,115.52268 -0.32666,-0.0493 c -0.59334,-0.18 -0.928,-0.80533 -0.748,-1.39866 0.256,-0.84267 0.724,-1.54 1.352,-2.016 0.556,-0.42267 1.22,-0.64534 1.876,-0.64534 0.26133,0 0.52266,0.036 0.776,0.108 0.316,0.0933 0.57333,0.228 0.8,0.34534 l 0.34133,0.164 0.009,0.004 c 0.2,-0.15734 0.44534,-0.23734 0.69067,-0.23734 0.25333,0 0.508,0.0853 0.71733,0.25867 0.476,0.39733 0.54,1.10533 0.144,1.58 -0.356,0.42933 -0.89333,0.65733 -1.48,0.65733 -0.27866,0 -0.568,-0.0507 -0.856,-0.15733 -0.20933,-0.076 -0.408,-0.17733 -0.60666,-0.28133 -0.14667,-0.0773 -0.28534,-0.14934 -0.38534,-0.17867 -0.0453,-0.0133 -0.0947,-0.0187 -0.14666,-0.0187 -0.17067,0 -0.36667,0.068 -0.52534,0.188 -0.24533,0.18667 -0.444,0.49867 -0.56,0.88134 -0.14666,0.484 -0.592,0.796 -1.072,0.796"
         style="fill:#7b3546;fill-opacity:1;fill-rule:nonzero;stroke:none;stroke-width:0.133333" />
      <path
         id="path614"
         d="m 647.96532,114.77334 c -0.35067,0 -0.70667,-0.1 -1.02134,-0.30533 -0.684,-0.44667 -1.252,-0.58533 -1.692,-0.58533 -0.70533,0 -1.08266,0.35466 -1.088,0.36133 -0.36266,0.352 -0.83333,0.528 -1.30266,0.528 -0.488,0 -0.97467,-0.18933 -1.34,-0.56667 -0.71867,-0.74 -0.70267,-1.92266 0.0373,-2.64266 0.65867,-0.64 2.00933,-1.40934 3.73467,-1.40934 1.10533,0 2.36533,0.316 3.69466,1.18534 0.86534,0.564 1.108,1.72133 0.54267,2.58666 -0.35733,0.548 -0.956,0.848 -1.56533,0.848"
         style="fill:#a95464;fill-opacity:1;fill-rule:nonzero;stroke:none;stroke-width:0.133333" />
      <path
         id="path615"
         d="m 652.95865,111.24668 -0.23467,-0.016 c -1.01866,-0.128 -1.744,-1.04534 -1.62266,-2.06534 0.0573,-0.48266 0.18,-1.04133 0.38,-1.63466 0.80266,-2.37067 2.85333,-5.28267 6.92266,-6.03334 0.644,-0.11866 1.33734,-0.184 2.084,-0.184 0.048,0 0.0947,0.001 0.14267,0.001 1.032,0.009 1.86133,0.85466 1.852,1.88533 -0.009,1.02667 -0.844,1.852 -1.86933,1.852 h -0.0987 c -4.94267,0 -5.64,4.09733 -5.70267,4.56667 -0.12533,0.93866 -0.93066,1.628 -1.85333,1.628"
         style="fill:#a95464;fill-opacity:1;fill-rule:nonzero;stroke:none;stroke-width:0.133333" />
      <path
         id="path616"
         d="m 672.42798,102.27201 c -0.24533,0 -0.496,-0.0493 -0.73333,-0.152 -0.944,-0.40667 -1.38533,-1.49067 -0.98533,-2.437332 0.88133,-2.084 3.64533,-5.52 8.31066,-5.52 0.70534,0 1.452,0.07733 2.24267,0.250667 1.00933,0.22 1.648,1.217333 1.42667,2.225333 -0.192,0.874667 -0.96134,1.470667 -1.824,1.470667 -0.132,0 -0.26667,-0.01467 -0.40134,-0.044 -0.512,-0.112 -0.98933,-0.162667 -1.43066,-0.162667 -3.35067,0 -4.724,2.878662 -4.88667,3.248002 -0.308,0.7 -0.99733,1.12133 -1.71867,1.12133"
         style="fill:#a95464;fill-opacity:1;fill-rule:nonzero;stroke:none;stroke-width:0.133333" />
      <path
         id="path617"
         d="m 663.21198,122.06001 c -0.36933,0 -0.74266,-0.10933 -1.068,-0.336 -0.84533,-0.59067 -1.05466,-1.75333 -0.46266,-2.6 0.24,-0.34667 5.496,-7.77467 11.996,-7.77467 0.64533,0 1.30133,0.0733 1.96666,0.23334 1.004,0.24133 1.62267,1.25066 1.38134,2.25466 -0.208,0.85734 -0.97334,1.432 -1.81867,1.432 -0.144,0 -0.29067,-0.0173 -0.43733,-0.052 -0.35467,-0.0853 -0.71467,-0.12533 -1.07467,-0.12533 -3.764,0 -7.66133,4.33467 -8.948,6.172 -0.36533,0.51867 -0.94533,0.796 -1.53467,0.796"
         style="fill:#a95464;fill-opacity:1;fill-rule:nonzero;stroke:none;stroke-width:0.133333" />
      <path
         id="path618"
         d="m 702.73198,120.36268 c -0.24266,0 -0.488,-0.0467 -0.724,-0.14667 -0.952,-0.4 -1.4,-1.49467 -0.99866,-2.44667 0.32266,-0.76933 3.08,-7.01733 7.40133,-7.01733 0.364,0 0.74,0.044 1.12667,0.14133 1.00133,0.248 1.612,1.26134 1.364,2.264 -0.212,0.84934 -0.97467,1.41867 -1.81334,1.41867 -0.14933,0 -0.3,-0.0187 -0.45066,-0.056 -0.0627,-0.0147 -0.12667,-0.0227 -0.192,-0.0227 -1.25334,0 -3.124,2.65867 -3.99067,4.72134 -0.30133,0.71466 -0.99333,1.144 -1.72267,1.144"
         style="fill:#a95464;fill-opacity:1;fill-rule:nonzero;stroke:none;stroke-width:0.133333" />
      <path
         id="path619"
         d="m 708.59465,104.24001 c -0.67867,0 -1.33067,-0.368 -1.664,-1.00933 -0.472,-0.91467 -0.12133,-2.03734 0.792,-2.51467 0.13867,-0.072 2.432,-1.246665 5.15467,-1.246665 1.252,0 2.596,0.249333 3.86266,0.969335 0.89734,0.50933 1.21067,1.65066 0.70134,2.548 -0.344,0.60666 -0.976,0.94533 -1.62667,0.94666 -0.31333,0 -0.63067,-0.08 -0.92267,-0.24533 -0.63466,-0.36 -1.34666,-0.48933 -2.03866,-0.48933 -1.74934,0 -3.384,0.82266 -3.40667,0.83466 -0.27333,0.14 -0.564,0.20667 -0.852,0.20667"
         style="fill:#a95464;fill-opacity:1;fill-rule:nonzero;stroke:none;stroke-width:0.133333" />
    </g>
  </g>
</svg>
