<?xml version="1.0" encoding="UTF-8" standalone="no"?>
<!-- Created with Inkscape (http://www.inkscape.org/) -->

<svg
   width="45.097343mm"
   height="45.702747mm"
   viewBox="0 0 45.097343 45.702747"
   version="1.1"
   id="svg1"
   inkscape:version="1.4.2 (ebf0e94, 2025-05-08)"
   sodipodi:docname="type7.svg"
   xmlns:inkscape="http://www.inkscape.org/namespaces/inkscape"
   xmlns:sodipodi="http://sodipodi.sourceforge.net/DTD/sodipodi-0.dtd"
   xmlns="http://www.w3.org/2000/svg"
   xmlns:svg="http://www.w3.org/2000/svg">
  <sodipodi:namedview
     id="namedview1"
     pagecolor="#ffffff"
     bordercolor="#000000"
     borderopacity="0.25"
     inkscape:showpageshadow="2"
     inkscape:pageopacity="0.0"
     inkscape:pagecheckerboard="0"
     inkscape:deskcolor="#d1d1d1"
     inkscape:document-units="mm"
     inkscape:zoom="0.71535494"
     inkscape:cx="2.7958149"
     inkscape:cy="102.7462"
     inkscape:window-width="1920"
     inkscape:window-height="1011"
     inkscape:window-x="0"
     inkscape:window-y="0"
     inkscape:window-maximized="1"
     inkscape:current-layer="layer1" />
  <defs
     id="defs1" />
  <g
     inkscape:label="Layer 1"
     inkscape:groupmode="layer"
     id="layer1"
     transform="translate(-104.24583,-121.44375)">
    <g
       id="g888"
       transform="matrix(0.26458333,0,0,0.26458333,-54.272746,62.631812)">
      <path
         id="path326"
         d="m 630.78532,253.61467 c 0.39466,0 1.25466,0 1.68533,-0.072 l 0.17867,4.48134 c -0.932,0.32266 -2.58134,0.53733 -3.90667,0.53733 -3.51333,0 -7.13467,-1.50533 -7.13467,-6.596 v -7.20533 h -2.47333 v -4.48134 h 2.47333 v -3.908 l 6.45334,-1.07466 v 4.98266 h 4.26533 v 4.48134 h -4.26533 v 6.16533 c 0,1.972 0.96666,2.68933 2.724,2.68933"
         style="fill:#3239b0;fill-opacity:1;fill-rule:nonzero;stroke:none;stroke-width:0.133333" />
      <path
         id="path327"
         d="m 638.31332,257.84534 -5.664,-17.56667 h 6.812 l 1.46933,8.06667 0.50133,3.15467 h 0.0733 l 0.60933,-3.15467 1.68533,-8.06667 h 6.452 l -8.46,26.70667 h -6.45333 l 2.97467,-9.14"
         style="fill:#3239b0;fill-opacity:1;fill-rule:nonzero;stroke:none;stroke-width:0.133333" />
      <path
         id="path328"
         d="m 658.67465,251.89334 c 0,0.89733 0.57333,1.46933 1.36267,1.46933 0.896,0 1.39733,-0.644 1.39733,-1.43333 v -5.37733 c 0,-1.076 -0.42933,-1.61334 -1.25333,-1.61334 -0.86134,0 -1.50667,0.78934 -1.50667,1.68534 v 5.26933 m -6.452,-5.26933 c 0,-1.36267 -0.53733,-1.864 -1.79333,-1.864 v -4.48134 c 2.116,-0.53733 5.48533,-0.644 7.13466,1.97067 0,0 1.576,-2.508 4.80267,-2.508 3.156,0 5.37867,2.15067 5.52133,6.16667 0.072,1.89866 0.072,4.01333 0,6.09333 -0.14266,4.51733 -2.832,6.56 -6.416,6.56 -1.72133,0 -2.79733,-0.57333 -2.79733,-0.57333 v 8.99733 h -6.452 v -20.36133"
         style="fill:#3239b0;fill-opacity:1;fill-rule:nonzero;stroke:none;stroke-width:0.133333" />
      <path
         id="path329"
         d="m 676.59865,247.91467 c 0,0 0.60933,-0.036 1.21867,-0.17866 0.824,-0.18 1.076,-0.39467 1.076,-1.47067 0,-0.896 -0.42934,-1.32667 -1.11067,-1.32667 -0.68133,0 -1.184,0.43067 -1.184,1.25467 v 1.72133 m 1.29067,5.448 c 0.71733,0 1.29066,-0.50133 1.32666,-1.43333 l 5.916,0.18 c -0.14533,3.97867 -3.22666,6.452 -7.24266,6.452 -3.97867,0 -7.492,-2.11467 -7.70667,-6.70267 -0.072,-1.75733 -0.072,-3.33466 0,-5.19866 0.14267,-4.15867 3.54933,-6.91867 7.88667,-6.91867 3.94266,0 7.27733,2.07867 7.27733,6.344 0,2.51067 -1.21867,3.264 -3.98,3.836 -2.18667,0.46667 -4.768,0.82533 -4.768,0.82533 v 1.112 c 0,0.932 0.50267,1.504 1.29067,1.504"
         style="fill:#3239b0;fill-opacity:1;fill-rule:nonzero;stroke:none;stroke-width:0.133333" />
      <path
         id="path330"
         d="m 711.94532,242.78801 -8.92534,20.97066 h -7.13466 l 8.64,-20.07333 h -10.21734 v -5.37867 h 16.92 l 0.71734,4.48134"
         style="fill:#3239b0;fill-opacity:1;fill-rule:nonzero;stroke:none;stroke-width:0.133333" />
      <path
         id="path331"
         d="m 623.22932,353.59321 -1.93734,-7.63694 h 1.04134 l 0.90666,3.86347 c 0.228,0.95213 0.43067,1.90427 0.56667,2.64173 h 0.0227 c 0.12533,-0.75986 0.36266,-1.66666 0.624,-2.65213 l 1.01866,-3.85307 h 1.032 l 0.92934,3.87547 c 0.21466,0.9068 0.42,1.812 0.53333,2.61773 h 0.0213 c 0.15867,-0.83906 0.37334,-1.6896 0.612,-2.64013 l 1.00934,-3.85307 h 1.008 l -2.164,7.63694 h -1.032 l -0.96267,-3.97707 c -0.23867,-0.97493 -0.396,-1.72293 -0.49867,-2.49213 h -0.0227 c -0.136,0.7588 -0.30534,1.50666 -0.58934,2.49213 l -1.088,3.97707 h -1.03066"
         style="fill:#000000;fill-opacity:1;fill-rule:nonzero;stroke:none;stroke-width:0.133333" />
      <path
         id="path332"
         d="m 634.05332,350.79481 c -1.088,-0.0229 -2.324,0.17026 -2.324,1.2344 0,0.6468 0.43066,0.952 0.94133,0.952 0.71333,0 1.16667,-0.45307 1.32533,-0.9172 l 0.0573,-0.31707 v -0.95213 m 0.14666,2.7984 -0.0787,-0.69054 h -0.0347 c -0.30533,0.43067 -0.89467,0.81614 -1.676,0.81614 -1.11067,0 -1.67733,-0.7828 -1.67733,-1.57614 0,-1.32546 1.17866,-2.05053 3.296,-2.04 v -0.1136 c 0,-0.45306 -0.124,-1.26773 -1.24534,-1.26773 -0.51066,0 -1.04266,0.15893 -1.428,0.40787 l -0.22666,-0.6584 c 0.45333,-0.29374 1.11066,-0.48694 1.80133,-0.48694 1.67733,0 2.08533,1.14534 2.08533,2.24427 v 2.05053 c 0,0.476 0.0227,0.94107 0.0907,1.31454 h -0.90667"
         style="fill:#000000;fill-opacity:1;fill-rule:nonzero;stroke:none;stroke-width:0.133333" />
      <path
         id="path333"
         d="m 637.78398,346.53334 v 1.576 h 1.42667 v 0.75893 h -1.42667 v 2.9572 c 0,0.67974 0.192,1.0652 0.74667,1.0652 0.26133,0 0.45333,-0.0333 0.57867,-0.0683 l 0.0453,0.74946 c -0.192,0.0787 -0.49867,0.13494 -0.884,0.13494 -0.46533,0 -0.83867,-0.14694 -1.076,-0.4188 -0.28267,-0.2948 -0.38667,-0.7828 -0.38667,-1.42814 v -2.9916 h -0.848 v -0.75893 h 0.848 v -1.31453 l 0.976,-0.26147"
         style="fill:#000000;fill-opacity:1;fill-rule:nonzero;stroke:none;stroke-width:0.133333" />
      <path
         id="path334"
         d="m 643.74532,350.31881 c 0.0107,-0.63494 -0.26134,-1.62147 -1.384,-1.62147 -1.00667,0 -1.44934,0.9308 -1.52934,1.62147 h 2.91334 m -2.924,0.71293 c 0.0227,1.34947 0.884,1.90427 1.88133,1.90427 0.71467,0 1.14533,-0.1256 1.51867,-0.28294 l 0.16933,0.7136 c -0.352,0.15987 -0.952,0.34014 -1.824,0.34014 -1.68933,0 -2.69733,-1.11094 -2.69733,-2.7656 0,-1.6532 0.97466,-2.95734 2.572,-2.95734 1.79066,0 2.26666,1.576 2.26666,2.5844 0,0.2036 -0.0213,0.3624 -0.0333,0.46347 h -3.85333"
         style="fill:#000000;fill-opacity:1;fill-rule:nonzero;stroke:none;stroke-width:0.133333" />
      <path
         id="path335"
         d="m 645.94398,349.81974 c 0,-0.6452 -0.0107,-1.20093 -0.044,-1.7104 h 0.872 l 0.0333,1.07613 h 0.0467 c 0.248,-0.736 0.848,-1.2016 1.51734,-1.2016 l 0.28266,0.0349 v 0.94 c -0.10133,-0.0228 -0.20266,-0.0348 -0.34,-0.0348 -0.70133,0 -1.2,0.53333 -1.336,1.2812 -0.0227,0.136 -0.0467,0.2948 -0.0467,0.4656 v 2.9224 h -0.98534 v -3.77347"
         style="fill:#000000;fill-opacity:1;fill-rule:nonzero;stroke:none;stroke-width:0.133333" />
      <path
         id="path336"
         d="m 650.29732,348.10934 1.2,3.2412 c 0.12533,0.36147 0.26133,0.79213 0.352,1.12027 h 0.0227 c 0.10134,-0.32814 0.21467,-0.7468 0.35067,-1.14427 l 1.088,-3.2172 h 1.05333 l -1.496,3.90947 c -0.71333,1.8812 -1.2,2.84373 -1.88,3.43333 -0.488,0.43067 -0.97466,0.60093 -1.224,0.6452 l -0.24933,-0.83853 c 0.24933,-0.0785 0.57733,-0.2364 0.872,-0.48694 0.272,-0.21453 0.612,-0.6 0.83867,-1.1104 l 0.0787,-0.23906 c 0,-0.0557 -0.0213,-0.1344 -0.0667,-0.25987 l -2.02934,-5.0532 h 1.08934"
         style="fill:#000000;fill-opacity:1;fill-rule:nonzero;stroke:none;stroke-width:0.133333" />
      <path
         id="path337"
         d="m 654.18532,354.98641 c 0.24933,-0.6676 0.556,-1.8796 0.67866,-2.70774 l 1.11067,-0.1136 c -0.26,0.96414 -0.75867,2.22134 -1.07467,2.75374 l -0.71466,0.0676"
         style="fill:#000000;fill-opacity:1;fill-rule:nonzero;stroke:none;stroke-width:0.133333" />
      <path
         id="path338"
         d="m 659.57998,349.59321 c 0,-0.56507 -0.0107,-1.03067 -0.0453,-1.48387 h 0.88267 l 0.0573,0.9068 h 0.0227 c 0.272,-0.52133 0.908,-1.03227 1.81333,-1.03227 0.76,0 1.93867,0.4536 1.93867,2.33494 v 3.2744 h -0.99867 v -3.16147 c 0,-0.88387 -0.328,-1.62133 -1.26933,-1.62133 -0.656,0 -1.16667,0.4656 -1.33734,1.02133 -0.044,0.12453 -0.0667,0.2948 -0.0667,0.46413 v 3.29734 h -0.99734 v -4"
         style="fill:#000000;fill-opacity:1;fill-rule:nonzero;stroke:none;stroke-width:0.133333" />
      <path
         id="path339"
         d="m 666.48132,350.86254 c 0,1.20147 0.692,2.1068 1.66666,2.1068 0.952,0 1.66534,-0.89333 1.66534,-2.1292 0,-0.92973 -0.464,-2.1084 -1.64267,-2.1084 -1.17867,0 -1.68933,1.088 -1.68933,2.1308 m 4.352,-0.0557 c 0,2.02813 -1.40534,2.912 -2.73067,2.912 -1.484,0 -2.628,-1.08814 -2.628,-2.82147 0,-1.83587 1.2,-2.91347 2.71867,-2.91347 1.57466,0 2.64,1.14534 2.64,2.82294"
         style="fill:#000000;fill-opacity:1;fill-rule:nonzero;stroke:none;stroke-width:0.133333" />
      <path
         id="path340"
         d="m 674.36132,352.57454 c 0.29333,0.19213 0.816,0.3948 1.31333,0.3948 0.72533,0 1.06667,-0.36147 1.06667,-0.81467 0,-0.476 -0.284,-0.73586 -1.02134,-1.00933 -0.98533,-0.35053 -1.45066,-0.8948 -1.45066,-1.55213 0,-0.88387 0.71466,-1.60934 1.89333,-1.60934 0.55467,0 1.04133,0.1588 1.348,0.34014 l -0.24933,0.72546 c -0.21467,-0.13493 -0.612,-0.31773 -1.12267,-0.31773 -0.588,0 -0.91733,0.34013 -0.91733,0.74853 0,0.45307 0.32933,0.6572 1.04266,0.92907 0.952,0.36253 1.43867,0.83853 1.43867,1.65467 0,0.96253 -0.74667,1.6428 -2.05067,1.6428 -0.6,0 -1.156,-0.14694 -1.54133,-0.37347 l 0.25067,-0.7588"
         style="fill:#000000;fill-opacity:1;fill-rule:nonzero;stroke:none;stroke-width:0.133333" />
      <path
         id="path341"
         d="m 679.59598,350.86254 c 0,1.20147 0.692,2.1068 1.66667,2.1068 0.952,0 1.66533,-0.89333 1.66533,-2.1292 0,-0.92973 -0.464,-2.1084 -1.64266,-2.1084 -1.17867,0 -1.68934,1.088 -1.68934,2.1308 m 4.352,-0.0557 c 0,2.02813 -1.40533,2.912 -2.73066,2.912 -1.484,0 -2.62934,-1.08814 -2.62934,-2.82147 0,-1.83587 1.20134,-2.91347 2.71867,-2.91347 1.576,0 2.64133,1.14534 2.64133,2.82294"
         style="fill:#000000;fill-opacity:1;fill-rule:nonzero;stroke:none;stroke-width:0.133333" />
      <path
         id="path342"
         d="m 685.20665,353.59321 h 0.9974 v -8.04531 h -0.9974 z"
         style="fill:#000000;fill-opacity:1;fill-rule:nonzero;stroke:none;stroke-width:0.133333" />
      <path
         id="path343"
         d="m 687.88265,353.59321 v -5.48387 h 0.99733 v 5.48387 h -0.99733 m 1.11067,-7.02494 c 0.012,0.3396 -0.23867,0.612 -0.63467,0.612 -0.35067,0 -0.6,-0.2724 -0.6,-0.612 0,-0.35213 0.26133,-0.62453 0.62267,-0.62453 0.37333,0 0.612,0.2724 0.612,0.62453"
         style="fill:#000000;fill-opacity:1;fill-rule:nonzero;stroke:none;stroke-width:0.133333" />
      <path
         id="path344"
         d="m 694.27465,350.34121 c 0,-0.12507 -0.0107,-0.29427 -0.044,-0.41987 -0.148,-0.63333 -0.692,-1.15627 -1.44,-1.15627 -1.032,0 -1.644,0.9084 -1.644,2.1204 0,1.1104 0.54533,2.02907 1.62133,2.02907 0.668,0 1.28,-0.44373 1.46267,-1.19053 0.0333,-0.136 0.044,-0.27187 0.044,-0.4308 v -0.952 m 0.99733,-4.79334 v 6.6292 c 0,0.48694 0.012,1.04267 0.0453,1.41614 h -0.896 l -0.044,-0.952 h -0.0227 c -0.30667,0.61186 -0.97467,1.0776 -1.87067,1.0776 -1.32533,0 -2.34533,-1.12294 -2.34533,-2.78814 -0.0107,-1.82386 1.12133,-2.9468 2.45867,-2.9468 0.83866,0 1.40533,0.39734 1.65466,0.83854 h 0.0227 v -3.27454 h 0.99733"
         style="fill:#000000;fill-opacity:1;fill-rule:nonzero;stroke:none;stroke-width:0.133333" />
      <path
         id="path345"
         d="m 700.31732,351.35987 c 0,0.14947 0.0227,0.28387 0.044,0.40947 0.18266,0.69213 0.78266,1.16667 1.496,1.16667 1.056,0 1.66666,-0.86 1.66666,-2.1188 0,-1.0984 -0.57733,-2.04014 -1.632,-2.04014 -0.68,0 -1.31333,0.48694 -1.50666,1.23654 -0.0333,0.12386 -0.068,0.27186 -0.068,0.40613 v 0.94013 m -0.98667,-1.45986 c 0,-0.70414 -0.0227,-1.26934 -0.044,-1.79067 h 0.89467 l 0.0453,0.94013 h 0.0213 c 0.40934,-0.66826 1.056,-1.0656 1.94934,-1.0656 1.32666,0 2.324,1.12294 2.324,2.788 0,1.97187 -1.20134,2.94694 -2.49334,2.94694 -0.724,0 -1.36,-0.3172 -1.688,-0.86147 h -0.0227 v 2.98013 h -0.98667 v -5.93746"
         style="fill:#000000;fill-opacity:1;fill-rule:nonzero;stroke:none;stroke-width:0.133333" />
      <path
         id="path346"
         d="m 705.77998,353.59321 v -5.48387 h 0.99734 v 5.48387 h -0.99734 m 1.11067,-7.02494 c 0.012,0.3396 -0.23867,0.612 -0.63467,0.612 -0.35066,0 -0.6,-0.2724 -0.6,-0.612 0,-0.35213 0.26134,-0.62453 0.62267,-0.62453 0.37333,0 0.612,0.2724 0.612,0.62453"
         style="fill:#000000;fill-opacity:1;fill-rule:nonzero;stroke:none;stroke-width:0.133333" />
      <path
         id="path347"
         d="m 711.91198,350.31881 c 0.0107,-0.63494 -0.26133,-1.62147 -1.384,-1.62147 -1.00666,0 -1.44933,0.9308 -1.52933,1.62147 h 2.91333 m -2.924,0.71293 c 0.0227,1.34947 0.884,1.90427 1.88134,1.90427 0.71466,0 1.14533,-0.1256 1.51866,-0.28294 l 0.16934,0.7136 c -0.352,0.15987 -0.952,0.34014 -1.824,0.34014 -1.68934,0 -2.69734,-1.11094 -2.69734,-2.7656 0,-1.6532 0.97467,-2.95734 2.572,-2.95734 1.79067,0 2.26667,1.576 2.26667,2.5844 0,0.2036 -0.0213,0.3624 -0.0333,0.46347 h -3.85334"
         style="fill:#000000;fill-opacity:1;fill-rule:nonzero;stroke:none;stroke-width:0.133333" />
      <path
         id="path348"
         d="m 718.02132,353.38907 c -0.26134,0.13747 -0.83867,0.31774 -1.576,0.31774 -1.65334,0 -2.73067,-1.12294 -2.73067,-2.79894 0,-1.68813 1.15467,-2.912 2.94667,-2.912 0.58933,0 1.10933,0.1468 1.38133,0.2828 l -0.22667,0.7708 c -0.23733,-0.13493 -0.612,-0.25986 -1.15466,-0.25986 -1.25867,0 -1.93867,0.9292 -1.93867,2.07293 0,1.2692 0.816,2.052 1.904,2.052 0.56667,0 0.94133,-0.14787 1.224,-0.27333 l 0.17067,0.74786"
         style="fill:#000000;fill-opacity:1;fill-rule:nonzero;stroke:none;stroke-width:0.133333" />
      <path
         id="path349"
         d="m 722.59998,350.31881 c 0.012,-0.63494 -0.26,-1.62147 -1.38266,-1.62147 -1.008,0 -1.45067,0.9308 -1.52934,1.62147 h 2.912 m -2.92266,0.71293 c 0.0213,1.34947 0.884,1.90427 1.88,1.90427 0.71466,0 1.14533,-0.1256 1.52,-0.28294 l 0.168,0.7136 c -0.35067,0.15987 -0.95067,0.34014 -1.824,0.34014 -1.688,0 -2.696,-1.11094 -2.696,-2.7656 0,-1.6532 0.97333,-2.95734 2.572,-2.95734 1.78933,0 2.26666,1.576 2.26666,2.5844 0,0.2036 -0.0227,0.3624 -0.0347,0.46347 h -3.852"
         style="fill:#000000;fill-opacity:1;fill-rule:nonzero;stroke:none;stroke-width:0.133333" />
      <path
         id="path350"
         d="m 724.66398,352.57454 c 0.29467,0.19213 0.816,0.3948 1.31334,0.3948 0.72533,0 1.06666,-0.36147 1.06666,-0.81467 0,-0.476 -0.284,-0.73586 -1.02,-1.00933 -0.98666,-0.35053 -1.45066,-0.8948 -1.45066,-1.55213 0,-0.88387 0.71466,-1.60934 1.89333,-1.60934 0.55467,0 1.04133,0.1588 1.34667,0.34014 l -0.248,0.72546 c -0.21467,-0.13493 -0.612,-0.31773 -1.12267,-0.31773 -0.588,0 -0.91867,0.34013 -0.91867,0.74853 0,0.45307 0.33067,0.6572 1.044,0.92907 0.952,0.36253 1.43867,0.83853 1.43867,1.65467 0,0.96253 -0.748,1.6428 -2.05067,1.6428 -0.6,0 -1.156,-0.14694 -1.54266,-0.37347 l 0.25066,-0.7588"
         style="fill:#000000;fill-opacity:1;fill-rule:nonzero;stroke:none;stroke-width:0.133333" />
      <path
         id="path351"
         d="m 728.51865,354.98641 c 0.24933,-0.6676 0.556,-1.8796 0.67867,-2.70774 l 1.11066,-0.1136 c -0.26,0.96414 -0.75866,2.22134 -1.07466,2.75374 l -0.71467,0.0676"
         style="fill:#000000;fill-opacity:1;fill-rule:nonzero;stroke:none;stroke-width:0.133333" />
      <path
         id="path352"
         d="m 625.42665,363.91974 c 0.012,-0.63427 -0.26,-1.61974 -1.38267,-1.61974 -1.008,0 -1.45066,0.9292 -1.52933,1.61974 h 2.912 m -2.92267,0.7152 c 0.0213,1.34786 0.884,1.90253 1.88134,1.90253 0.71333,0 1.144,-0.12387 1.51866,-0.2828 l 0.16934,0.71467 c -0.352,0.1588 -0.952,0.33853 -1.824,0.33853 -1.68934,0 -2.69734,-1.11053 -2.69734,-2.7652 0,-1.6536 0.97334,-2.9572 2.572,-2.9572 1.78934,0 2.26667,1.576 2.26667,2.58387 0,0.20413 -0.0227,0.3624 -0.0333,0.4656 h -3.85334"
         style="fill:#000000;fill-opacity:1;fill-rule:nonzero;stroke:none;stroke-width:0.133333" />
      <path
         id="path353"
         d="m 627.62665,363.1948 c 0,-0.5656 -0.0107,-1.0308 -0.044,-1.4844 h 0.88267 l 0.0573,0.9068 h 0.0213 c 0.272,-0.52133 0.908,-1.03173 1.81334,-1.03173 0.76,0 1.93866,0.45307 1.93866,2.33427 v 3.27506 h -0.99733 v -3.16146 c 0,-0.88387 -0.328,-1.61974 -1.27067,-1.61974 -0.656,0 -1.16666,0.46347 -1.33733,1.01974 -0.044,0.124 -0.0667,0.2948 -0.0667,0.464 v 3.29746 h -0.99733 v -4"
         style="fill:#000000;fill-opacity:1;fill-rule:nonzero;stroke:none;stroke-width:0.133333" />
      <path
         id="path354"
         d="m 635.07465,360.136 v 1.5744 h 1.42667 v 0.7604 h -1.42667 v 2.95574 c 0,0.68026 0.192,1.0656 0.74667,1.0656 0.26,0 0.45333,-0.0333 0.57866,-0.0681 l 0.0453,0.74947 c -0.19334,0.0787 -0.49867,0.1344 -0.884,0.1344 -0.46534,0 -0.83867,-0.1464 -1.07734,-0.4188 -0.28266,-0.29427 -0.38533,-0.78227 -0.38533,-1.4276 v -2.99067 h -0.84933 v -0.7604 h 0.84933 v -1.31453 l 0.976,-0.25987"
         style="fill:#000000;fill-opacity:1;fill-rule:nonzero;stroke:none;stroke-width:0.133333" />
      <path
         id="path355"
         d="m 637.62398,367.1948 v -5.4844 h 0.99734 v 5.4844 h -0.99734 m 1.11067,-7.02546 c 0.012,0.34 -0.23867,0.61186 -0.63467,0.61186 -0.352,0 -0.6,-0.27186 -0.6,-0.61186 0,-0.35213 0.26,-0.624 0.62267,-0.624 0.37333,0 0.612,0.27187 0.612,0.624"
         style="fill:#000000;fill-opacity:1;fill-rule:nonzero;stroke:none;stroke-width:0.133333" />
      <path
         id="path356"
         d="m 640.27598,363.42134 c 0,-0.64534 -0.0107,-1.2016 -0.044,-1.71094 h 0.872 l 0.0347,1.076 h 0.0453 c 0.248,-0.73586 0.848,-1.20093 1.51734,-1.20093 l 0.28266,0.0343 v 0.94013 c -0.10133,-0.0224 -0.20266,-0.0333 -0.34,-0.0333 -0.70133,0 -1.2,0.53226 -1.33733,1.28026 -0.0213,0.13587 -0.044,0.29427 -0.044,0.46507 v 2.92293 h -0.98667 v -3.77346"
         style="fill:#000000;fill-opacity:1;fill-rule:nonzero;stroke:none;stroke-width:0.133333" />
      <path
         id="path357"
         d="m 647.34932,363.91974 c 0.012,-0.63427 -0.26134,-1.61974 -1.38267,-1.61974 -1.008,0 -1.45067,0.9292 -1.53067,1.61974 h 2.91334 m -2.924,0.7152 c 0.0227,1.34786 0.884,1.90253 1.88133,1.90253 0.71467,0 1.14533,-0.12387 1.51867,-0.2828 l 0.16933,0.71467 c -0.352,0.1588 -0.952,0.33853 -1.824,0.33853 -1.68933,0 -2.69733,-1.11053 -2.69733,-2.7652 0,-1.6536 0.97466,-2.9572 2.572,-2.9572 1.79066,0 2.26666,1.576 2.26666,2.58387 0,0.20413 -0.0213,0.3624 -0.0333,0.4656 h -3.85333"
         style="fill:#000000;fill-opacity:1;fill-rule:nonzero;stroke:none;stroke-width:0.133333" />
      <path
         id="path358"
         d="m 649.54798,367.1948 h 0.9974 v -8.0453 h -0.9974 z"
         style="fill:#000000;fill-opacity:1;fill-rule:nonzero;stroke:none;stroke-width:0.133333" />
      <path
         id="path359"
         d="m 652.58532,361.7104 1.20133,3.24174 c 0.12533,0.36146 0.26133,0.7932 0.352,1.12133 h 0.0227 c 0.10133,-0.32813 0.21466,-0.748 0.35066,-1.14533 l 1.088,-3.21774 h 1.05334 l -1.496,3.90934 c -0.71334,1.88186 -1.2,2.84533 -1.88,3.43333 -0.488,0.4308 -0.97467,0.6016 -1.224,0.64533 l -0.25067,-0.83693 c 0.25067,-0.0803 0.57867,-0.23747 0.87333,-0.488 0.272,-0.21467 0.612,-0.6 0.83867,-1.11093 l 0.0787,-0.23707 c 0,-0.0561 -0.0213,-0.1364 -0.0667,-0.26147 l -2.02933,-5.0536 h 1.088"
         style="fill:#000000;fill-opacity:1;fill-rule:nonzero;stroke:none;stroke-width:0.133333" />
      <path
         id="path360"
         d="m 659.96532,367.1948 h 0.99688 v -8.0453 h -0.99688 z"
         style="fill:#000000;fill-opacity:1;fill-rule:nonzero;stroke:none;stroke-width:0.133333" />
      <path
         id="path361"
         d="m 662.63998,367.1948 v -5.4844 h 0.99734 v 5.4844 h -0.99734 m 1.10934,-7.02546 c 0.012,0.34 -0.23734,0.61186 -0.63334,0.61186 -0.352,0 -0.6,-0.27186 -0.6,-0.61186 0,-0.35213 0.26,-0.624 0.62267,-0.624 0.37333,0 0.61067,0.27187 0.61067,0.624"
         style="fill:#000000;fill-opacity:1;fill-rule:nonzero;stroke:none;stroke-width:0.133333" />
      <path
         id="path362"
         d="m 669.03065,363.93174 c 0,-0.13587 -0.009,-0.29574 -0.044,-0.41974 -0.148,-0.6104 -0.68,-1.13333 -1.428,-1.13333 -1.032,0 -1.65467,0.87187 -1.65467,2.10773 0,1.08814 0.52134,2.04174 1.62134,2.04174 0.64533,0 1.2,-0.39747 1.42666,-1.0896 0.0453,-0.13587 0.0787,-0.32814 0.0787,-0.476 v -1.0308 m 0,2.4136 h -0.0213 c -0.29467,0.54373 -0.90667,0.9744 -1.79067,0.9744 -1.28133,0 -2.32267,-1.1104 -2.32267,-2.77707 0,-2.05053 1.32534,-2.9572 2.48134,-2.9572 0.84933,0 1.41733,0.41973 1.688,0.952 h 0.0227 l 0.0347,-0.82707 h 0.94 c -0.0227,0.4656 -0.0347,0.94014 -0.0347,1.5068 v 6.22134 h -0.99733 v -3.0932"
         style="fill:#000000;fill-opacity:1;fill-rule:nonzero;stroke:none;stroke-width:0.133333" />
      <path
         id="path363"
         d="m 676.26265,365.6984 c 0,0.56667 0.012,1.0656 0.0453,1.4964 h -0.884 l -0.056,-0.8948 h -0.0227 c -0.26,0.44267 -0.83867,1.01974 -1.81334,1.01974 -0.86133,0 -1.892,-0.476 -1.892,-2.40254 v -3.2068 h 0.99734 v 3.03654 c 0,1.04373 0.31733,1.7452 1.22266,1.7452 0.66934,0 1.13334,-0.464 1.316,-0.90667 0.056,-0.14693 0.0893,-0.32813 0.0893,-0.5084 v -3.36667 h 0.99733 v 3.988"
         style="fill:#000000;fill-opacity:1;fill-rule:nonzero;stroke:none;stroke-width:0.133333" />
      <path
         id="path364"
         d="m 677.91865,367.1948 v -5.4844 h 0.99867 v 5.4844 h -0.99867 m 1.112,-7.02546 c 0.0107,0.34 -0.23867,0.61186 -0.63467,0.61186 -0.352,0 -0.6,-0.27186 -0.6,-0.61186 0,-0.35213 0.26,-0.624 0.62134,-0.624 0.37466,0 0.61333,0.27187 0.61333,0.624"
         style="fill:#000000;fill-opacity:1;fill-rule:nonzero;stroke:none;stroke-width:0.133333" />
      <path
         id="path365"
         d="m 684.31065,363.94267 c 0,-0.12547 -0.009,-0.2948 -0.044,-0.41867 -0.148,-0.63493 -0.69067,-1.15733 -1.44,-1.15733 -1.03067,0 -1.64267,0.90787 -1.64267,2.11973 0,1.11094 0.544,2.02974 1.62134,2.02974 0.66666,0 1.27866,-0.44267 1.46133,-1.19067 0.0347,-0.1348 0.044,-0.2724 0.044,-0.43067 v -0.95213 m 0.99733,-4.7932 v 6.6292 c 0,0.4864 0.012,1.04267 0.0467,1.41613 h -0.896 l -0.044,-0.95106 h -0.024 c -0.30667,0.612 -0.97467,1.076 -1.86933,1.076 -1.32534,0 -2.34534,-1.1224 -2.34534,-2.788 -0.012,-1.82387 1.12134,-2.94627 2.45867,-2.94627 0.83733,0 1.404,0.39733 1.65467,0.83853 h 0.0213 v -3.27453 h 0.99733"
         style="fill:#000000;fill-opacity:1;fill-rule:nonzero;stroke:none;stroke-width:0.133333" />
      <path
         id="path366"
         d="m 691.53198,359.33067 c -0.828,1.11053 -1.428,2.58387 -1.428,4.636 0,2.01613 0.624,3.46667 1.428,4.6 h -0.78266 c -0.71334,-0.94013 -1.484,-2.39067 -1.484,-4.6 0.012,-2.23333 0.77066,-3.68387 1.484,-4.636 h 0.78266"
         style="fill:#000000;fill-opacity:1;fill-rule:nonzero;stroke:none;stroke-width:0.133333" />
      <path
         id="path367"
         d="m 696.32532,363.94267 c 0,-0.12547 -0.0107,-0.2948 -0.044,-0.41867 -0.148,-0.63493 -0.692,-1.15733 -1.44,-1.15733 -1.032,0 -1.644,0.90787 -1.644,2.11973 0,1.11094 0.54533,2.02974 1.62133,2.02974 0.668,0 1.28,-0.44267 1.46267,-1.19067 0.0333,-0.1348 0.044,-0.2724 0.044,-0.43067 v -0.95213 m 0.99733,-4.7932 v 6.6292 c 0,0.4864 0.012,1.04267 0.0453,1.41613 h -0.89466 l -0.0453,-0.95106 h -0.0227 c -0.30667,0.612 -0.97467,1.076 -1.87067,1.076 -1.32533,0 -2.344,-1.1224 -2.344,-2.788 -0.012,-1.82387 1.12,-2.94627 2.45733,-2.94627 0.83867,0 1.40534,0.39733 1.656,0.83853 h 0.0213 v -3.27453 h 0.99733"
         style="fill:#000000;fill-opacity:1;fill-rule:nonzero;stroke:none;stroke-width:0.133333" />
      <path
         id="path368"
         d="m 698.97865,367.1948 v -5.4844 h 0.99733 v 5.4844 h -0.99733 m 1.11067,-7.02546 c 0.012,0.34 -0.23734,0.61186 -0.63334,0.61186 -0.352,0 -0.6,-0.27186 -0.6,-0.61186 0,-0.35213 0.26,-0.624 0.62134,-0.624 0.37466,0 0.612,0.27187 0.612,0.624"
         style="fill:#000000;fill-opacity:1;fill-rule:nonzero;stroke:none;stroke-width:0.133333" />
      <path
         id="path369"
         d="m 704.52265,364.39587 c -1.08933,-0.0224 -2.32533,0.1708 -2.32533,1.23587 0,0.64533 0.432,0.95213 0.94133,0.95213 0.71467,0 1.16667,-0.4532 1.32667,-0.9188 l 0.0573,-0.3172 v -0.952 m 0.14667,2.79893 -0.08,-0.69066 h -0.0333 c -0.30533,0.43026 -0.896,0.8156 -1.67733,0.8156 -1.11067,0 -1.67733,-0.78227 -1.67733,-1.5744 0,-1.32654 1.17866,-2.05214 3.29733,-2.0412 v -0.11347 c 0,-0.4532 -0.12533,-1.26827 -1.24533,-1.26827 -0.51067,0 -1.044,0.1588 -1.42934,0.40827 l -0.22666,-0.6572 c 0.45333,-0.2948 1.11066,-0.488 1.80266,-0.488 1.67734,0 2.084,1.1452 2.084,2.24373 v 2.05107 c 0,0.47707 0.024,0.94107 0.092,1.31453 h -0.90666"
         style="fill:#000000;fill-opacity:1;fill-rule:nonzero;stroke:none;stroke-width:0.133333" />
      <path
         id="path370"
         d="m 707.09465,363.42134 c 0,-0.64534 -0.0107,-1.2016 -0.044,-1.71094 h 0.872 l 0.0347,1.076 h 0.0453 c 0.248,-0.73586 0.84933,-1.20093 1.51867,-1.20093 l 0.28133,0.0343 v 0.94013 c -0.10133,-0.0224 -0.20267,-0.0333 -0.33867,-0.0333 -0.70266,0 -1.20133,0.53226 -1.33733,1.28026 -0.0227,0.13587 -0.0467,0.29427 -0.0467,0.46507 v 2.92293 h -0.98533 v -3.77346"
         style="fill:#000000;fill-opacity:1;fill-rule:nonzero;stroke:none;stroke-width:0.133333" />
      <path
         id="path371"
         d="m 710.84665,363.42134 c 0,-0.64534 -0.0107,-1.2016 -0.044,-1.71094 h 0.872 l 0.0333,1.076 h 0.0453 c 0.24933,-0.73586 0.84933,-1.20093 1.51866,-1.20093 l 0.28267,0.0343 v 0.94013 c -0.10133,-0.0224 -0.20267,-0.0333 -0.34,-0.0333 -0.70133,0 -1.2,0.53226 -1.33733,1.28026 -0.0213,0.13587 -0.044,0.29427 -0.044,0.46507 v 2.92293 h -0.98667 v -3.77346"
         style="fill:#000000;fill-opacity:1;fill-rule:nonzero;stroke:none;stroke-width:0.133333" />
      <path
         id="path372"
         d="m 714.59732,359.14947 h 0.99733 v 3.4224 h 0.024 c 0.15733,-0.28227 0.40667,-0.53333 0.71333,-0.70253 0.29467,-0.17094 0.64534,-0.28387 1.02,-0.28387 0.736,0 1.91467,0.45307 1.91467,2.34627 v 3.26306 h -0.99733 v -3.14946 c 0,-0.88387 -0.328,-1.63174 -1.26934,-1.63174 -0.64533,0 -1.15466,0.45147 -1.33733,0.9968 -0.056,0.13654 -0.068,0.2828 -0.068,0.476 v 3.3084 h -0.99733 v -8.04533"
         style="fill:#000000;fill-opacity:1;fill-rule:nonzero;stroke:none;stroke-width:0.133333" />
      <path
         id="path373"
         d="m 721.50132,364.46507 c 0,1.2 0.692,2.1068 1.66666,2.1068 0.952,0 1.66534,-0.8948 1.66534,-2.13067 0,-0.9292 -0.46534,-2.10786 -1.64267,-2.10786 -1.17867,0 -1.68933,1.088 -1.68933,2.13173 m 4.352,-0.0572 c 0,2.02813 -1.40534,2.91187 -2.73067,2.91187 -1.484,0 -2.62933,-1.088 -2.62933,-2.82134 0,-1.83586 1.20133,-2.91293 2.71866,-2.91293 1.576,0 2.64134,1.1452 2.64134,2.8224"
         style="fill:#000000;fill-opacity:1;fill-rule:nonzero;stroke:none;stroke-width:0.133333" />
      <path
         id="path374"
         d="m 730.59065,363.91974 c 0.012,-0.63427 -0.26,-1.61974 -1.38267,-1.61974 -1.008,0 -1.45066,0.9292 -1.52933,1.61974 h 2.912 m -2.92267,0.7152 c 0.0227,1.34786 0.884,1.90253 1.88134,1.90253 0.71333,0 1.144,-0.12387 1.51866,-0.2828 l 0.16934,0.71467 c -0.352,0.1588 -0.952,0.33853 -1.824,0.33853 -1.68934,0 -2.69734,-1.11053 -2.69734,-2.7652 0,-1.6536 0.97467,-2.9572 2.572,-2.9572 1.78934,0 2.26667,1.576 2.26667,2.58387 0,0.20413 -0.0227,0.3624 -0.0333,0.4656 h -3.85334"
         style="fill:#000000;fill-opacity:1;fill-rule:nonzero;stroke:none;stroke-width:0.133333" />
      <path
         id="path375"
         d="m 735.68131,364.39587 c -1.08933,-0.0224 -2.324,0.1708 -2.324,1.23587 0,0.64533 0.43067,0.95213 0.94134,0.95213 0.71333,0 1.16666,-0.4532 1.32533,-0.9188 l 0.0573,-0.3172 v -0.952 m 0.14667,2.79893 -0.0787,-0.69066 h -0.0347 c -0.30534,0.43026 -0.896,0.8156 -1.67734,0.8156 -1.11066,0 -1.67599,-0.78227 -1.67599,-1.5744 0,-1.32654 1.17733,-2.05214 3.29599,-2.0412 v -0.11347 c 0,-0.4532 -0.12533,-1.26827 -1.24533,-1.26827 -0.51067,0 -1.044,0.1588 -1.42933,0.40827 l -0.22667,-0.6572 c 0.45334,-0.2948 1.11067,-0.488 1.80267,-0.488 1.67733,0 2.084,1.1452 2.084,2.24373 v 2.05107 c 0,0.47707 0.024,0.94107 0.092,1.31453 h -0.90667"
         style="fill:#000000;fill-opacity:1;fill-rule:nonzero;stroke:none;stroke-width:0.133333" />
      <path
         id="path376"
         d="m 737.65331,368.56667 c 0.80534,-1.12293 1.42934,-2.5948 1.42934,-4.63493 0,-2.0276 -0.612,-3.47867 -1.42934,-4.60107 h 0.77067 c 0.72533,0.9292 1.48533,2.37973 1.48533,4.612 0,2.22133 -0.76,3.66 -1.48533,4.624 h -0.77067"
         style="fill:#000000;fill-opacity:1;fill-rule:nonzero;stroke:none;stroke-width:0.133333" />
      <path
         id="path708"
         d="M 747.65331,395.01614 H 621.04132 c -12.104,0 -21.916,-9.81347 -21.916,-21.91774 V 244.19867 c 0,-12.10533 9.812,-21.91733 21.916,-21.91733 h 126.61199 c 12.10534,0 21.91867,9.812 21.91867,21.91733 V 373.0984 c 0,12.10427 -9.81333,21.91774 -21.91867,21.91774 m -96.15599,-33.30574 2.02933,5.0536 c 0.0453,0.12507 0.0667,0.20534 0.0667,0.26147 l -0.0787,0.23707 c -0.22667,0.51093 -0.56667,0.89626 -0.83867,1.11093 -0.29466,0.25053 -0.62266,0.40773 -0.87333,0.488 l 0.25067,0.83693 c 0.24933,-0.0437 0.736,-0.21453 1.224,-0.64533 0.68,-0.588 1.16666,-1.55147 1.88,-3.43333 l 1.496,-3.90934 h -1.05334 l -1.088,3.21774 c -0.136,0.39733 -0.24933,0.8172 -0.35066,1.14533 h -0.0227 c -0.0907,-0.32813 -0.22667,-0.75987 -0.352,-1.12133 l -1.20133,-3.24174 h -1.088 m 17.512,4.63494 h 0.0213 v 3.0932 h 0.99733 v -6.22134 c 0,-0.56666 0.012,-1.0412 0.0347,-1.5068 h -0.94 l -0.0347,0.82707 h -0.0227 c -0.27067,-0.53227 -0.83867,-0.952 -1.688,-0.952 -1.156,0 -2.48134,0.90667 -2.48134,2.9572 0,1.66667 1.04134,2.77707 2.32267,2.77707 0.884,0 1.496,-0.43067 1.79067,-0.9744 m 68.64399,-7.01467 c 0.81734,1.1224 1.42934,2.57347 1.42934,4.60107 0,2.04013 -0.624,3.512 -1.42934,4.63493 h 0.77067 c 0.72533,-0.964 1.48533,-2.40267 1.48533,-4.624 0,-2.23227 -0.76,-3.6828 -1.48533,-4.612 h -0.77067 m -46.12133,9.236 v 0 c -0.804,-1.13333 -1.428,-2.58387 -1.428,-4.6 0,-2.05213 0.6,-3.52547 1.428,-4.636 h -0.78266 c -0.71334,0.95213 -1.472,2.40267 -1.484,4.636 0,2.20933 0.77066,3.65987 1.484,4.6 h 0.78266 m 44.08133,-4.86253 c -2.09066,0 -3.25199,0.72506 -3.25199,2.0412 0,0.79213 0.56533,1.5744 1.67599,1.5744 0.78134,0 1.372,-0.38534 1.67734,-0.8156 h 0.0347 l 0.0787,0.69066 h 0.90667 v 0 c -0.068,-0.37346 -0.092,-0.83746 -0.092,-1.31453 v -2.05107 c 0,-1.09853 -0.40667,-2.24373 -2.084,-2.24373 -0.692,0 -1.34933,0.1932 -1.80267,0.488 l 0.22667,0.6572 c 0.38533,-0.24947 0.91866,-0.40827 1.42933,-0.40827 1.12,0 1.24533,0.81507 1.24533,1.26827 v 0.11347 c -0.0147,0 -0.0293,0 -0.044,0 m -12.40133,-2.11867 c -1.51733,0 -2.71866,1.07707 -2.71866,2.91293 0,1.73334 1.14533,2.82134 2.62933,2.82134 1.32533,0 2.73067,-0.88374 2.73067,-2.91187 0,-1.6772 -1.06534,-2.8224 -2.64134,-2.8224 m -18.75866,2.11867 c -2.08934,0 -3.252,0.72506 -3.252,2.0412 0,0.79213 0.56666,1.5744 1.67733,1.5744 0.78133,0 1.372,-0.38534 1.67733,-0.8156 h 0.0333 l 0.08,0.69066 h 0.90666 v 0 c -0.068,-0.37346 -0.092,-0.83746 -0.092,-1.31453 v -2.05107 c 0,-1.09853 -0.40666,-2.24373 -2.084,-2.24373 -0.692,0 -1.34933,0.1932 -1.80266,0.488 l 0.22666,0.6572 c 0.38534,-0.24947 0.91867,-0.40827 1.42934,-0.40827 1.12,0 1.24533,0.81507 1.24533,1.26827 v 0.11347 c -0.0147,0 -0.0293,0 -0.0453,0 m -9.80534,-2.11867 c -1.33733,0 -2.46933,1.1224 -2.45733,2.94627 0,1.6656 1.01867,2.788 2.344,2.788 0.896,0 1.564,-0.464 1.87067,-1.076 h 0.0227 l 0.0453,0.95106 h 0.89466 v 0 c -0.0333,-0.37346 -0.0453,-0.92973 -0.0453,-1.41613 v -6.6292 h -0.99733 v 3.27453 h -0.0213 c -0.25066,-0.4412 -0.81733,-0.83853 -1.656,-0.83853 m -12.01333,0 c -1.33733,0 -2.47067,1.1224 -2.45867,2.94627 0,1.6656 1.02,2.788 2.34534,2.788 0.89466,0 1.56266,-0.464 1.86933,-1.076 h 0.024 l 0.044,0.95106 h 0.896 v 0 c -0.0347,-0.37346 -0.0467,-0.92973 -0.0467,-1.41613 v -6.6292 h -0.99733 v 3.27453 h -0.0213 c -0.25067,-0.4412 -0.81734,-0.83853 -1.65467,-0.83853 m -10.99467,0.12493 v 3.2068 c 0,1.92654 1.03067,2.40254 1.892,2.40254 0.97467,0 1.55334,-0.57707 1.81334,-1.01974 h 0.0227 l 0.056,0.8948 h 0.884 v 0 c -0.0333,-0.4308 -0.0453,-0.92973 -0.0453,-1.4964 v -3.988 h -0.99733 v 3.36667 c 0,0.18027 -0.0333,0.36147 -0.0893,0.5084 -0.18266,0.44267 -0.64666,0.90667 -1.316,0.90667 -0.90533,0 -1.22266,-0.70147 -1.22266,-1.7452 v -3.03654 h -0.99734 m 57.648,-0.12493 c -1.59733,0 -2.572,1.3036 -2.572,2.9572 0,1.65467 1.008,2.7652 2.69734,2.7652 0.872,0 1.472,-0.17973 1.824,-0.33853 l -0.16934,-0.71467 c -0.37466,0.15893 -0.80533,0.2828 -1.51866,0.2828 -0.99734,0 -1.85867,-0.55467 -1.88134,-1.90253 h 3.85334 c 0.0107,-0.1032 0.0333,-0.26147 0.0333,-0.4656 0,-1.00787 -0.47733,-2.58387 -2.26667,-2.58387 m -83.24266,0 c -1.59734,0 -2.572,1.3036 -2.572,2.9572 0,1.65467 1.008,2.7652 2.69733,2.7652 0.872,0 1.472,-0.17973 1.824,-0.33853 l -0.16933,-0.71467 c -0.37334,0.15893 -0.804,0.2828 -1.51867,0.2828 -0.99733,0 -1.85867,-0.55467 -1.88133,-1.90253 h 3.85333 c 0.012,-0.1032 0.0333,-0.26147 0.0333,-0.4656 0,-1.00787 -0.476,-2.58387 -2.26666,-2.58387 m -12.796,0.12493 v 0.7604 h 0.84933 v 2.99067 c 0,0.64533 0.10267,1.13333 0.38533,1.4276 0.23867,0.2724 0.612,0.4188 1.07734,0.4188 0.38533,0 0.69066,-0.0557 0.884,-0.1344 l -0.0453,-0.74947 c -0.12533,0.0348 -0.31866,0.0681 -0.57866,0.0681 -0.55467,0 -0.74667,-0.38534 -0.74667,-1.0656 v -2.95574 h 1.42667 v -0.7604 h -1.42667 v -1.5744 l -0.976,0.25987 v 1.31453 h -0.84933 m -9.12534,-0.12493 c -1.59866,0 -2.572,1.3036 -2.572,2.9572 0,1.65467 1.008,2.7652 2.69734,2.7652 0.872,0 1.472,-0.17973 1.824,-0.33853 l -0.16934,-0.71467 c -0.37466,0.15893 -0.80533,0.2828 -1.51866,0.2828 -0.99734,0 -1.86,-0.55467 -1.88134,-1.90253 h 3.85334 c 0.0107,-0.1032 0.0333,-0.26147 0.0333,-0.4656 0,-1.00787 -0.47733,-2.58387 -2.26667,-2.58387 m 92.876,0.82813 c 0.94134,0 1.26934,0.74787 1.26934,1.63174 v 3.14946 h 0.99733 v -3.26306 c 0,-1.8932 -1.17867,-2.34627 -1.91467,-2.34627 -0.37466,0 -0.72533,0.11293 -1.02,0.28387 -0.30666,0.1692 -0.556,0.42026 -0.71333,0.70253 h -0.024 v -3.4224 h -0.99733 v 8.04533 h 0.99733 v -3.3084 c 0,-0.1932 0.012,-0.33946 0.068,-0.476 0.18267,-0.54533 0.692,-0.9968 1.33733,-0.9968 m -6.19733,-0.7032 c 0.0333,0.50934 0.044,1.0656 0.044,1.71094 v 3.77346 h 0.98667 v -2.92293 c 0,-0.1708 0.0227,-0.3292 0.044,-0.46507 0.13733,-0.748 0.636,-1.28026 1.33733,-1.28026 0.13733,0 0.23867,0.0109 0.34,0.0333 v -0.94013 l -0.28267,-0.0343 c -0.66933,0 -1.26933,0.46507 -1.51866,1.20093 h -0.0453 l -0.0333,-1.076 h -0.872 m -3.752,0 c 0.0333,0.50934 0.044,1.0656 0.044,1.71094 v 3.77346 h 0.98533 v -2.92293 c 0,-0.1708 0.024,-0.3292 0.0467,-0.46507 0.136,-0.748 0.63467,-1.28026 1.33733,-1.28026 0.136,0 0.23734,0.0109 0.33867,0.0333 v -0.94013 l -0.28133,-0.0343 c -0.66934,0 -1.27067,0.46507 -1.51867,1.20093 h -0.0453 l -0.0347,-1.076 h -0.872 m -8.072,0 v 5.4844 h 0.99733 v -5.4844 h -0.99733 m -21.06,0 v 5.4844 h 0.99867 v -5.4844 h -0.99867 m -15.27867,0 v 5.4844 h 0.99734 v -5.4844 h -0.99734 m -2.67466,-2.56093 v 8.04533 h 0.99733 v -8.04533 h -0.99733 m -10.41734,0 v 8.04533 h 0.99734 v -8.04533 h -0.99734 m -9.316,2.56093 c 0.0333,0.50934 0.044,1.0656 0.044,1.71094 v 3.77346 h 0.98667 v -2.92293 c 0,-0.1708 0.0227,-0.3292 0.044,-0.46507 0.13733,-0.748 0.636,-1.28026 1.33733,-1.28026 0.13734,0 0.23867,0.0109 0.34,0.0333 v -0.94013 l -0.28266,-0.0343 c -0.66934,0 -1.26934,0.46507 -1.51734,1.20093 h -0.0453 l -0.0347,-1.076 h -0.872 m -2.608,0 v 5.4844 h 0.99734 v -5.4844 h -0.99734 m -7.596,0.7032 c 0.94267,0 1.27067,0.73587 1.27067,1.61974 v 3.16146 h 0.99733 v -3.27506 c 0,-1.8812 -1.17866,-2.33427 -1.93866,-2.33427 -0.90534,0 -1.54134,0.5104 -1.81334,1.03173 h -0.0213 l -0.0573,-0.9068 h -0.88267 c 0.0333,0.4536 0.044,0.9188 0.044,1.4844 v 4 h 0.99733 v -3.29746 c 0,-0.1692 0.0227,-0.34 0.0667,-0.464 0.17067,-0.55627 0.68133,-1.01974 1.33733,-1.01974 m 69.44934,-2.86826 c -0.36134,0 -0.62134,0.27187 -0.62134,0.624 0,0.34 0.248,0.61186 0.6,0.61186 0.396,0 0.64534,-0.27186 0.63334,-0.61186 0,-0.35213 -0.23734,-0.624 -0.612,-0.624 m -21.06,0 c -0.36134,0 -0.62134,0.27187 -0.62134,0.624 0,0.34 0.248,0.61186 0.6,0.61186 0.396,0 0.64534,-0.27186 0.63467,-0.61186 0,-0.35213 -0.23867,-0.624 -0.61333,-0.624 m -15.27867,0 c -0.36267,0 -0.62267,0.27187 -0.62267,0.624 0,0.34 0.248,0.61186 0.6,0.61186 0.396,0 0.64534,-0.27186 0.63334,-0.61186 0,-0.35213 -0.23734,-0.624 -0.61067,-0.624 m -25.016,0 c -0.36267,0 -0.62267,0.27187 -0.62267,0.624 0,0.34 0.248,0.61186 0.6,0.61186 0.396,0 0.64667,-0.27186 0.63467,-0.61186 0,-0.35213 -0.23867,-0.624 -0.612,-0.624 m 11.08533,-11.436 2.02934,5.0532 c 0.0453,0.12547 0.0667,0.20413 0.0667,0.25987 l -0.0787,0.23906 c -0.22667,0.5104 -0.56667,0.89587 -0.83867,1.1104 -0.29467,0.25054 -0.62267,0.4084 -0.872,0.48694 l 0.24933,0.83853 c 0.24934,-0.0443 0.736,-0.21453 1.224,-0.6452 0.68,-0.5896 1.16667,-1.55213 1.88,-3.43333 l 1.496,-3.90947 h -1.05333 l -1.088,3.2172 c -0.136,0.39747 -0.24933,0.81613 -0.35067,1.14427 h -0.0227 c -0.0907,-0.32814 -0.22667,-0.7588 -0.352,-1.12027 l -1.2,-3.2412 h -1.08934 m 50.07867,0 c 0.0213,0.52133 0.044,1.08653 0.044,1.79067 v 5.93746 h 0.98667 v -2.98013 h 0.0227 c 0.328,0.54427 0.964,0.86147 1.688,0.86147 1.292,0 2.49334,-0.97507 2.49334,-2.94694 0,-1.66506 -0.99734,-2.788 -2.324,-2.788 -0.89334,0 -1.54,0.39734 -1.94934,1.0656 h -0.0213 l -0.0453,-0.94013 h -0.89467 m 31.02133,4.05573 -1.11066,0.1136 c -0.12267,0.82814 -0.42934,2.04014 -0.67867,2.70774 l 0.71467,-0.0676 c 0.316,-0.5324 0.81466,-1.7896 1.07466,-2.75374 m -74.33333,0 -1.11067,0.1136 c -0.12266,0.82814 -0.42933,2.04014 -0.67866,2.70774 l 0.71466,-0.0676 c 0.316,-0.5324 0.81467,-1.7896 1.07467,-2.75374 m 36.62267,-4.1812 c -1.33734,0 -2.46934,1.12294 -2.45867,2.9468 0,1.6652 1.02,2.78814 2.34533,2.78814 0.896,0 1.564,-0.46574 1.87067,-1.0776 h 0.0227 l 0.044,0.952 h 0.896 v 0 c -0.0333,-0.37347 -0.0453,-0.9292 -0.0453,-1.41614 v -6.6292 h -0.99733 v 3.27454 h -0.0227 c -0.24933,-0.4412 -0.816,-0.83854 -1.65466,-0.83854 m -11.29067,0 c -1.51733,0 -2.71867,1.0776 -2.71867,2.91347 0,1.73333 1.14534,2.82147 2.62934,2.82147 1.32533,0 2.73066,-0.88387 2.73066,-2.912 0,-1.6776 -1.06533,-2.82294 -2.64133,-2.82294 m -13.11333,0 c -1.51867,0 -2.71867,1.0776 -2.71867,2.91347 0,1.73333 1.144,2.82147 2.628,2.82147 1.32533,0 2.73067,-0.88387 2.73067,-2.912 0,-1.6776 -1.06534,-2.82294 -2.64,-2.82294 m -34.208,2.1188 c -2.09067,0 -3.252,0.72387 -3.252,2.04 0,0.79334 0.56666,1.57614 1.67733,1.57614 0.78133,0 1.37067,-0.38547 1.676,-0.81614 h 0.0347 l 0.0787,0.69054 h 0.90667 v 0 c -0.068,-0.37347 -0.0907,-0.83854 -0.0907,-1.31454 v -2.05053 c 0,-1.09893 -0.408,-2.24427 -2.08533,-2.24427 -0.69067,0 -1.348,0.1932 -1.80133,0.48694 l 0.22666,0.6584 c 0.38534,-0.24894 0.91734,-0.40787 1.428,-0.40787 1.12134,0 1.24534,0.81467 1.24534,1.26773 v 0.1136 c -0.0147,0 -0.0293,0 -0.044,0 m 90.67866,2.47187 -0.25066,0.7588 c 0.38666,0.22653 0.94266,0.37347 1.54266,0.37347 1.30267,0 2.05067,-0.68027 2.05067,-1.6428 0,-0.81614 -0.48667,-1.29214 -1.43867,-1.65467 -0.71333,-0.27187 -1.044,-0.476 -1.044,-0.92907 0,-0.4084 0.33067,-0.74853 0.91867,-0.74853 0.51067,0 0.908,0.1828 1.12267,0.31773 l 0.248,-0.72546 c -0.30534,-0.18134 -0.792,-0.34014 -1.34667,-0.34014 -1.17867,0 -1.89333,0.72547 -1.89333,1.60934 0,0.65733 0.464,1.2016 1.45066,1.55213 0.736,0.27347 1.02,0.53333 1.02,1.00933 0,0.4532 -0.34133,0.81467 -1.06666,0.81467 -0.49734,0 -1.01867,-0.20267 -1.31334,-0.3948 m -3.36666,-4.59067 c -1.59867,0 -2.572,1.30414 -2.572,2.95734 0,1.65466 1.008,2.7656 2.696,2.7656 0.87333,0 1.47333,-0.18027 1.824,-0.34014 l -0.168,-0.7136 c -0.37467,0.15734 -0.80534,0.28294 -1.52,0.28294 -0.996,0 -1.85867,-0.5548 -1.88,-1.90427 h 3.852 c 0.012,-0.10107 0.0347,-0.25987 0.0347,-0.46347 0,-1.0084 -0.47733,-2.5844 -2.26666,-2.5844 m -4.636,0.012 c -1.792,0 -2.94667,1.22387 -2.94667,2.912 0,1.676 1.07733,2.79894 2.73067,2.79894 0.73733,0 1.31466,-0.18027 1.576,-0.31774 l -0.17067,-0.74786 c -0.28267,0.12546 -0.65733,0.27333 -1.224,0.27333 -1.088,0 -1.904,-0.7828 -1.904,-2.052 0,-1.14373 0.68,-2.07293 1.93867,-2.07293 0.54266,0 0.91733,0.12493 1.15466,0.25986 l 0.22667,-0.7708 c -0.272,-0.136 -0.792,-0.2828 -1.38133,-0.2828 m -6.05334,-0.012 c -1.59733,0 -2.572,1.30414 -2.572,2.95734 0,1.65466 1.008,2.7656 2.69734,2.7656 0.872,0 1.472,-0.18027 1.824,-0.34014 l -0.16934,-0.7136 c -0.37333,0.15734 -0.804,0.28294 -1.51866,0.28294 -0.99734,0 -1.85867,-0.5548 -1.88134,-1.90427 h 3.85334 c 0.012,-0.10107 0.0333,-0.25987 0.0333,-0.46347 0,-1.0084 -0.476,-2.5844 -2.26667,-2.5844 m -36.24666,4.59067 -0.25067,0.7588 c 0.38533,0.22653 0.94133,0.37347 1.54133,0.37347 1.304,0 2.05067,-0.68027 2.05067,-1.6428 0,-0.81614 -0.48667,-1.29214 -1.43867,-1.65467 -0.71333,-0.27187 -1.04266,-0.476 -1.04266,-0.92907 0,-0.4084 0.32933,-0.74853 0.91733,-0.74853 0.51067,0 0.908,0.1828 1.12267,0.31773 l 0.24933,-0.72546 c -0.30667,-0.18134 -0.79333,-0.34014 -1.348,-0.34014 -1.17867,0 -1.89333,0.72547 -1.89333,1.60934 0,0.65733 0.46533,1.2016 1.45066,1.55213 0.73734,0.27347 1.02134,0.53333 1.02134,1.00933 0,0.4532 -0.34134,0.81467 -1.06667,0.81467 -0.49733,0 -1.02,-0.20267 -1.31333,-0.3948 m -31.92,-4.59067 c -1.59734,0 -2.572,1.30414 -2.572,2.95734 0,1.65466 1.008,2.7656 2.69733,2.7656 0.872,0 1.472,-0.18027 1.824,-0.34014 l -0.16933,-0.7136 c -0.37334,0.15734 -0.804,0.28294 -1.51867,0.28294 -0.99733,0 -1.85867,-0.5548 -1.88133,-1.90427 h 3.85333 c 0.012,-0.10107 0.0333,-0.25987 0.0333,-0.46347 0,-1.0084 -0.476,-2.5844 -2.26666,-2.5844 m -6.48134,0.12547 v 0.75893 h 0.848 v 2.9916 c 0,0.64534 0.104,1.13334 0.38667,1.42814 0.23733,0.27186 0.61067,0.4188 1.076,0.4188 0.38533,0 0.692,-0.0563 0.884,-0.13494 l -0.0453,-0.74946 c -0.12534,0.0349 -0.31734,0.0683 -0.57867,0.0683 -0.55467,0 -0.74667,-0.38546 -0.74667,-1.0652 v -2.9572 h 1.42667 v -0.75893 h -1.42667 v -1.576 l -0.976,0.26147 v 1.31453 h -0.848 m 69.82,0 v 5.48387 h 0.99734 v -5.48387 h -0.99734 m -17.89733,0 v 5.48387 h 0.99733 v -5.48387 h -0.99733 m -2.676,-2.56147 v 8.04534 h 0.99733 v -8.04534 h -0.99733 m -23.22533,3.26254 c 0.94133,0 1.26933,0.73746 1.26933,1.62133 v 3.16147 h 0.99867 v -3.2744 c 0,-1.88134 -1.17867,-2.33494 -1.93867,-2.33494 -0.90533,0 -1.54133,0.51094 -1.81333,1.03227 h -0.0227 l -0.0573,-0.9068 h -0.88267 c 0.0347,0.4532 0.0453,0.9188 0.0453,1.48387 v 4 h 0.99734 v -3.29734 c 0,-0.16933 0.0227,-0.3396 0.0667,-0.46413 0.17067,-0.55573 0.68134,-1.02133 1.33734,-1.02133 m -16.08134,-0.70107 c 0.0333,0.50947 0.044,1.0652 0.044,1.7104 v 3.77347 h 0.98534 v -2.9224 c 0,-0.1708 0.024,-0.3296 0.0467,-0.4656 0.136,-0.74787 0.63467,-1.2812 1.336,-1.2812 0.13734,0 0.23867,0.012 0.34,0.0348 v -0.94 l -0.28266,-0.0349 c -0.66934,0 -1.26934,0.4656 -1.51734,1.2016 h -0.0467 l -0.0333,-1.07613 h -0.872 m -19.96266,-0.98533 h 0.0227 c 0.10267,0.7692 0.26,1.5172 0.49867,2.49213 l 0.96267,3.97707 h 1.032 l 2.164,-7.63694 h -1.008 l -1.00934,3.85307 c -0.23866,0.95053 -0.45333,1.80107 -0.612,2.64013 h -0.0213 c -0.11333,-0.80573 -0.31867,-1.71093 -0.53333,-2.61773 l -0.92934,-3.87547 h -1.032 l -1.01866,3.85307 c -0.26134,0.98547 -0.49867,1.89227 -0.624,2.65213 h -0.0227 c -0.136,-0.73746 -0.33867,-1.6896 -0.56667,-2.64173 l -0.90666,-3.86347 h -1.04134 l 1.93734,7.63694 h 1.03066 l 1.088,-3.97707 c 0.284,-0.98547 0.45334,-1.73333 0.58934,-2.49213 m 80.34133,-1.18027 c -0.36133,0 -0.62267,0.2724 -0.62267,0.62453 0,0.3396 0.24934,0.612 0.6,0.612 0.396,0 0.64667,-0.2724 0.63467,-0.612 0,-0.35213 -0.23867,-0.62453 -0.612,-0.62453 m -17.89733,0 c -0.36134,0 -0.62267,0.2724 -0.62267,0.62453 0,0.3396 0.24933,0.612 0.6,0.612 0.396,0 0.64667,-0.2724 0.63467,-0.612 0,-0.35213 -0.23867,-0.62453 -0.612,-0.62453 M 652.8405,239.9692 c -0.86933,0 -1.70933,0.13067 -2.41066,0.30933 v 4.48134 c 1.256,0 1.79333,0.50133 1.79333,1.864 v 20.36133 h 6.452 v -8.99733 c 0,0 1.076,0.57333 2.79733,0.57333 3.584,0 6.27334,-2.04267 6.416,-6.56 0.072,-2.08 0.072,-4.19467 0,-6.09333 -0.14266,-4.016 -2.36533,-6.16667 -5.52133,-6.16667 -3.22667,0 -4.80267,2.508 -4.80267,2.508 -1.10266,-1.748 -2.97333,-2.28 -4.724,-2.28 m -20.19066,0.30933 5.664,17.56667 -2.97467,9.14 h 6.45333 l 8.46,-26.70667 h -6.452 l -1.68533,8.06667 -0.60933,3.15467 h -0.0733 l -0.50133,-3.15467 -1.46933,-8.06667 h -6.812 m 61.65866,-1.972 v 5.37867 h 10.21734 l -8.64,20.07333 h 7.13466 l 8.92534,-20.97066 -0.71734,-4.48134 h -16.92 m -16.23866,1.43467 c -4.33734,0 -7.744,2.76 -7.88667,6.91867 -0.072,1.864 -0.072,3.44133 0,5.19866 0.21467,4.588 3.728,6.70267 7.70667,6.70267 4.016,0 7.09733,-2.47333 7.24266,-6.452 l -5.916,-0.18 c -0.036,0.932 -0.60933,1.43333 -1.32666,1.43333 -0.788,0 -1.29067,-0.572 -1.29067,-1.504 v -1.112 c 0,0 2.58133,-0.35866 4.768,-0.82533 2.76133,-0.572 3.98,-1.32533 3.98,-3.836 0,-4.26533 -3.33467,-6.344 -7.27733,-6.344 m -58.93467,0.53733 v 4.48134 h 2.47333 v 7.20533 c 0,5.09067 3.62134,6.596 7.13467,6.596 1.32533,0 2.97467,-0.21467 3.90667,-0.53733 l -0.17867,-4.48134 c -0.43067,0.072 -1.29067,0.072 -1.68533,0.072 -1.75734,0 -2.724,-0.71733 -2.724,-2.68933 v -6.16533 h 4.26533 v -4.48134 h -4.26533 v -4.98266 l -6.45334,1.07466 v 3.908 h -2.47333 m 84.004,126.3052 c -0.50933,0 -0.94133,-0.3068 -0.94133,-0.95213 0,-1.01454 1.12,-1.23694 2.16666,-1.23694 0.0533,0 0.10534,0 0.15867,0.001 v 0.952 l -0.0573,0.3172 c -0.16,0.4656 -0.612,0.9188 -1.32667,0.9188 m -35.61333,-0.0557 c -1.1,0 -1.62134,-0.9536 -1.62134,-2.04174 0,-1.23586 0.62267,-2.10773 1.65467,-2.10773 0.748,0 1.28,0.52293 1.428,1.13333 0.0347,0.124 0.044,0.28387 0.044,0.41974 v 1.0308 c 0,0.14786 -0.0333,0.34013 -0.0787,0.476 -0.22666,0.69213 -0.78133,1.0896 -1.42666,1.0896 m 27.29333,-0.012 c -1.076,0 -1.62133,-0.9188 -1.62133,-2.02974 0,-1.21186 0.612,-2.11973 1.644,-2.11973 0.748,0 1.292,0.5224 1.44,1.15733 0.0333,0.12387 0.044,0.2932 0.044,0.41867 v 0.95213 c 0,0.15827 -0.0107,0.29587 -0.044,0.43067 -0.18267,0.748 -0.79467,1.19067 -1.46267,1.19067 m -12.01333,0 c -1.07734,0 -1.62134,-0.9188 -1.62134,-2.02974 0,-1.21186 0.612,-2.11973 1.64267,-2.11973 0.74933,0 1.292,0.5224 1.44,1.15733 0.0347,0.12387 0.044,0.2932 0.044,0.41867 v 0.95213 c 0,0.15827 -0.009,0.29587 -0.044,0.43067 -0.18267,0.748 -0.79467,1.19067 -1.46133,1.19067 m -35.456,-2.5964 h -2.91334 c 0.08,-0.69054 0.52267,-1.61974 1.53067,-1.61974 1.12133,0 1.39467,0.98547 1.38267,1.61974 m -21.92267,0 h -2.912 c 0.0787,-0.69054 0.52133,-1.61974 1.52933,-1.61974 1.12267,0 1.39467,0.98547 1.38267,1.61974 m 7.244,-10.93853 c -0.51067,0 -0.94133,-0.3052 -0.94133,-0.952 0,-1.01307 1.12,-1.23707 2.16666,-1.23707 0.0533,0 0.10534,10e-4 0.15734,0.003 v 0.95213 l -0.0573,0.31707 c -0.15866,0.46413 -0.612,0.9172 -1.32533,0.9172 m 48.592,-0.0119 c -0.97467,0 -1.66667,-0.90533 -1.66667,-2.1068 0,-1.0428 0.51067,-2.1308 1.68934,-2.1308 1.17866,0 1.64266,1.17867 1.64266,2.1084 0,1.23587 -0.71333,2.1292 -1.66533,2.1292 m -13.11467,0 c -0.97466,0 -1.66666,-0.90533 -1.66666,-2.1068 0,-1.0428 0.51066,-2.1308 1.68933,-2.1308 1.17867,0 1.64267,1.17867 1.64267,2.1084 0,1.23587 -0.71334,2.1292 -1.66534,2.1292 m 33.70934,-0.0333 c -0.71334,0 -1.31334,-0.47454 -1.496,-1.16667 -0.0213,-0.1256 -0.044,-0.26 -0.044,-0.40947 v -0.94013 c 0,-0.13427 0.0347,-0.28227 0.068,-0.40613 0.19333,-0.7496 0.82666,-1.23654 1.50666,-1.23654 1.05467,0 1.632,0.94174 1.632,2.04014 0,1.2588 -0.61066,2.1188 -1.66666,2.1188 m -9.08934,-0.0215 c -1.076,0 -1.62133,-0.91867 -1.62133,-2.02907 0,-1.212 0.612,-2.1204 1.644,-2.1204 0.748,0 1.292,0.52294 1.44,1.15627 0.0333,0.1256 0.044,0.2948 0.044,0.41987 v 0.952 c 0,0.15893 -0.0107,0.2948 -0.044,0.4308 -0.18267,0.7468 -0.79467,1.19053 -1.46267,1.19053 m 29.832,-2.59573 h -2.912 c 0.0787,-0.69067 0.52134,-1.62147 1.52934,-1.62147 1.12266,0 1.39466,0.98653 1.38266,1.62147 m -10.688,0 h -2.91333 c 0.08,-0.69067 0.52267,-1.62147 1.52933,-1.62147 1.12267,0 1.39467,0.98653 1.384,1.62147 m -68.16666,0 h -2.91334 c 0.08,-0.69067 0.52267,-1.62147 1.52934,-1.62147 1.12266,0 1.39466,0.98653 1.384,1.62147 m 16.292,-96.95614 c -0.78934,0 -1.36267,-0.572 -1.36267,-1.46933 v -5.26933 c 0,-0.896 0.64533,-1.68534 1.50667,-1.68534 0.824,0 1.25333,0.53734 1.25333,1.61334 v 5.37733 c 0,0.78933 -0.50133,1.43333 -1.39733,1.43333 m 16.56133,-5.448 v -1.72133 c 0,-0.824 0.50267,-1.25467 1.184,-1.25467 0.68133,0 1.11067,0.43067 1.11067,1.32667 0,1.076 -0.252,1.29067 -1.076,1.47067 -0.60934,0.14266 -1.21867,0.17866 -1.21867,0.17866"
         style="fill:#e2e3f4;fill-opacity:1;fill-rule:nonzero;stroke:none;stroke-width:0.133333" />
      <path
         id="path709"
         d="m 628.74265,258.56134 c -3.51333,0 -7.13467,-1.50533 -7.13467,-6.596 v -7.20533 h -2.47333 v -4.48134 h 2.47333 v -3.908 l 6.45334,-1.07466 v 4.98266 h 4.26533 v 4.48134 h -4.26533 v 6.16533 c 0,1.972 0.96666,2.68933 2.724,2.68933 0.39466,0 1.25466,0 1.68533,-0.072 l 0.17867,4.48134 c -0.932,0.32266 -2.58134,0.53733 -3.90667,0.53733"
         style="fill:#3239b0;fill-opacity:1;fill-rule:nonzero;stroke:none;stroke-width:0.133333" />
      <path
         id="path710"
         d="m 641.79198,266.98534 h -6.45333 l 2.97467,-9.14 -5.664,-17.56667 h 6.812 l 1.46933,8.06667 0.50133,3.15467 h 0.0733 l 0.60933,-3.15467 1.68533,-8.06667 h 6.452 l -8.46,26.70667"
         style="fill:#3239b0;fill-opacity:1;fill-rule:nonzero;stroke:none;stroke-width:0.133333" />
      <path
         id="path711"
         d="m 658.67465,266.98534 h -6.452 v -20.36133 c 0,-1.36267 -0.53733,-1.864 -1.79333,-1.864 v -4.48134 c 0.70133,-0.17866 1.54133,-0.30933 2.41066,-0.30933 1.75067,0 3.62134,0.532 4.724,2.28 0,0 1.576,-2.508 4.80267,-2.508 3.156,0 5.37867,2.15067 5.52133,6.16667 0.072,1.89866 0.072,4.01333 0,6.09333 -0.14266,4.51733 -2.832,6.56 -6.416,6.56 -1.72133,0 -2.79733,-0.57333 -2.79733,-0.57333 v 8.99733 m 1.50667,-22.04667 c -0.86134,0 -1.50667,0.78934 -1.50667,1.68534 v 5.26933 c 0,0.89733 0.57333,1.46933 1.36267,1.46933 0.896,0 1.39733,-0.644 1.39733,-1.43333 v -5.37733 c 0,-1.076 -0.42933,-1.61334 -1.25333,-1.61334"
         style="fill:#3239b0;fill-opacity:1;fill-rule:nonzero;stroke:none;stroke-width:0.133333" />
      <path
         id="path712"
         d="m 677.88932,258.56134 c -3.97867,0 -7.492,-2.11467 -7.70667,-6.70267 -0.072,-1.75733 -0.072,-3.33466 0,-5.19866 0.14267,-4.15867 3.54933,-6.91867 7.88667,-6.91867 3.94266,0 7.27733,2.07867 7.27733,6.344 0,2.51067 -1.21867,3.264 -3.98,3.836 -2.18667,0.46667 -4.768,0.82533 -4.768,0.82533 v 1.112 c 0,0.932 0.50267,1.504 1.29067,1.504 0.71733,0 1.29066,-0.50133 1.32666,-1.43333 l 5.916,0.18 c -0.14533,3.97867 -3.22666,6.452 -7.24266,6.452 m -0.10667,-13.62267 c -0.68133,0 -1.184,0.43067 -1.184,1.25467 v 1.72133 c 0,0 0.60933,-0.036 1.21867,-0.17866 0.824,-0.18 1.076,-0.39467 1.076,-1.47067 0,-0.896 -0.42934,-1.32667 -1.11067,-1.32667"
         style="fill:#3239b0;fill-opacity:1;fill-rule:nonzero;stroke:none;stroke-width:0.133333" />
      <path
         id="path713"
         d="m 703.01998,263.75867 h -7.13466 l 8.64,-20.07333 h -10.21734 v -5.37867 h 16.92 l 0.71734,4.48134 -8.92534,20.97066"
         style="fill:#3239b0;fill-opacity:1;fill-rule:nonzero;stroke:none;stroke-width:0.133333" />
      <path
         id="path714"
         d="m 628.45332,353.59321 h -1.032 l -0.96267,-3.97707 c -0.23867,-0.97493 -0.396,-1.72293 -0.49867,-2.49213 h -0.0227 c -0.136,0.7588 -0.30534,1.50666 -0.58934,2.49213 l -1.088,3.97707 h -1.03066 l -1.93734,-7.63694 h 1.04134 l 0.90666,3.86347 c 0.228,0.95213 0.43067,1.90427 0.56667,2.64173 h 0.0227 c 0.12533,-0.75986 0.36266,-1.66666 0.624,-2.65213 l 1.01866,-3.85307 h 1.032 l 0.92934,3.87547 c 0.21466,0.9068 0.42,1.812 0.53333,2.61773 h 0.0213 c 0.15867,-0.83906 0.37334,-1.6896 0.612,-2.64013 l 1.00934,-3.85307 h 1.008 l -2.164,7.63694"
         style="fill:#070819;fill-opacity:1;fill-rule:nonzero;stroke:none;stroke-width:0.133333" />
      <path
         id="path715"
         d="m 632.41065,353.71881 c -1.11067,0 -1.67733,-0.7828 -1.67733,-1.57614 0,-1.31613 1.16133,-2.04 3.252,-2.04 0.0147,0 0.0293,0 0.044,0 v -0.1136 c 0,-0.45306 -0.124,-1.26773 -1.24534,-1.26773 -0.51066,0 -1.04266,0.15893 -1.428,0.40787 l -0.22666,-0.6584 c 0.45333,-0.29374 1.11066,-0.48694 1.80133,-0.48694 1.67733,0 2.08533,1.14534 2.08533,2.24427 v 2.05053 c 0,0.476 0.0227,0.94107 0.0907,1.31454 h -0.90667 l -0.0787,-0.69054 h -0.0347 c -0.30533,0.43067 -0.89467,0.81614 -1.676,0.81614 m 1.48533,-2.92667 c -1.04666,0 -2.16666,0.224 -2.16666,1.23707 0,0.6468 0.43066,0.952 0.94133,0.952 0.71333,0 1.16667,-0.45307 1.32533,-0.9172 l 0.0573,-0.31707 v -0.95213 c -0.052,-0.002 -0.104,-0.003 -0.15734,-0.003"
         style="fill:#070819;fill-opacity:1;fill-rule:nonzero;stroke:none;stroke-width:0.133333" />
      <path
         id="path716"
         d="m 638.27065,353.70681 c -0.46533,0 -0.83867,-0.14694 -1.076,-0.4188 -0.28267,-0.2948 -0.38667,-0.7828 -0.38667,-1.42814 v -2.9916 h -0.848 v -0.75893 h 0.848 v -1.31453 l 0.976,-0.26147 v 1.576 h 1.42667 v 0.75893 h -1.42667 v 2.9572 c 0,0.67974 0.192,1.0652 0.74667,1.0652 0.26133,0 0.45333,-0.0333 0.57867,-0.0683 l 0.0453,0.74946 c -0.192,0.0787 -0.49867,0.13494 -0.884,0.13494"
         style="fill:#070819;fill-opacity:1;fill-rule:nonzero;stroke:none;stroke-width:0.133333" />
      <path
         id="path717"
         d="m 642.56665,353.70681 c -1.68933,0 -2.69733,-1.11094 -2.69733,-2.7656 0,-1.6532 0.97466,-2.95734 2.572,-2.95734 1.79066,0 2.26666,1.576 2.26666,2.5844 0,0.2036 -0.0213,0.3624 -0.0333,0.46347 h -3.85333 c 0.0227,1.34947 0.884,1.90427 1.88133,1.90427 0.71467,0 1.14533,-0.1256 1.51867,-0.28294 l 0.16933,0.7136 c -0.352,0.15987 -0.952,0.34014 -1.824,0.34014 m -0.20533,-5.00947 c -1.00667,0 -1.44934,0.9308 -1.52934,1.62147 h 2.91334 c 0.0107,-0.63494 -0.26134,-1.62147 -1.384,-1.62147"
         style="fill:#070819;fill-opacity:1;fill-rule:nonzero;stroke:none;stroke-width:0.133333" />
      <path
         id="path718"
         d="m 646.92932,353.59321 h -0.98534 v -3.77347 c 0,-0.6452 -0.0107,-1.20093 -0.044,-1.7104 h 0.872 l 0.0333,1.07613 h 0.0467 c 0.248,-0.736 0.848,-1.2016 1.51734,-1.2016 l 0.28266,0.0349 v 0.94 c -0.10133,-0.0228 -0.20266,-0.0348 -0.34,-0.0348 -0.70133,0 -1.2,0.53333 -1.336,1.2812 -0.0227,0.136 -0.0467,0.2948 -0.0467,0.4656 v 2.9224"
         style="fill:#070819;fill-opacity:1;fill-rule:nonzero;stroke:none;stroke-width:0.133333" />
      <path
         id="path719"
         d="m 649.76398,356.09734 -0.24933,-0.83853 c 0.24933,-0.0785 0.57733,-0.2364 0.872,-0.48694 0.272,-0.21453 0.612,-0.6 0.83867,-1.1104 l 0.0787,-0.23906 c 0,-0.0557 -0.0213,-0.1344 -0.0667,-0.25987 l -2.02934,-5.0532 h 1.08934 l 1.2,3.2412 c 0.12533,0.36147 0.26133,0.79213 0.352,1.12027 h 0.0227 c 0.10134,-0.32814 0.21467,-0.7468 0.35067,-1.14427 l 1.088,-3.2172 h 1.05333 l -1.496,3.90947 c -0.71333,1.8812 -1.2,2.84373 -1.88,3.43333 -0.488,0.43067 -0.97466,0.60093 -1.224,0.6452"
         style="fill:#070819;fill-opacity:1;fill-rule:nonzero;stroke:none;stroke-width:0.133333" />
      <path
         id="path720"
         d="m 654.18532,354.98641 c 0.24933,-0.6676 0.556,-1.8796 0.67866,-2.70774 l 1.11067,-0.1136 c -0.26,0.96414 -0.75867,2.22134 -1.07467,2.75374 l -0.71466,0.0676"
         style="fill:#070819;fill-opacity:1;fill-rule:nonzero;stroke:none;stroke-width:0.133333" />
      <path
         id="path721"
         d="m 664.24932,353.59321 h -0.99867 v -3.16147 c 0,-0.88387 -0.328,-1.62133 -1.26933,-1.62133 -0.656,0 -1.16667,0.4656 -1.33734,1.02133 -0.044,0.12453 -0.0667,0.2948 -0.0667,0.46413 v 3.29734 h -0.99734 v -4 c 0,-0.56507 -0.0107,-1.03067 -0.0453,-1.48387 h 0.88267 l 0.0573,0.9068 h 0.0227 c 0.272,-0.52133 0.908,-1.03227 1.81333,-1.03227 0.76,0 1.93867,0.4536 1.93867,2.33494 v 3.2744"
         style="fill:#070819;fill-opacity:1;fill-rule:nonzero;stroke:none;stroke-width:0.133333" />
      <path
         id="path722"
         d="m 668.10265,353.71881 c -1.484,0 -2.628,-1.08814 -2.628,-2.82147 0,-1.83587 1.2,-2.91347 2.71867,-2.91347 1.57466,0 2.64,1.14534 2.64,2.82294 0,2.02813 -1.40534,2.912 -2.73067,2.912 m 0.068,-4.98707 c -1.17867,0 -1.68933,1.088 -1.68933,2.1308 0,1.20147 0.692,2.1068 1.66666,2.1068 0.952,0 1.66534,-0.89333 1.66534,-2.1292 0,-0.92973 -0.464,-2.1084 -1.64267,-2.1084"
         style="fill:#070819;fill-opacity:1;fill-rule:nonzero;stroke:none;stroke-width:0.133333" />
      <path
         id="path723"
         d="m 675.65198,353.70681 c -0.6,0 -1.156,-0.14694 -1.54133,-0.37347 l 0.25067,-0.7588 c 0.29333,0.19213 0.816,0.3948 1.31333,0.3948 0.72533,0 1.06667,-0.36147 1.06667,-0.81467 0,-0.476 -0.284,-0.73586 -1.02134,-1.00933 -0.98533,-0.35053 -1.45066,-0.8948 -1.45066,-1.55213 0,-0.88387 0.71466,-1.60934 1.89333,-1.60934 0.55467,0 1.04133,0.1588 1.348,0.34014 l -0.24933,0.72546 c -0.21467,-0.13493 -0.612,-0.31773 -1.12267,-0.31773 -0.588,0 -0.91733,0.34013 -0.91733,0.74853 0,0.45307 0.32933,0.6572 1.04266,0.92907 0.952,0.36253 1.43867,0.83853 1.43867,1.65467 0,0.96253 -0.74667,1.6428 -2.05067,1.6428"
         style="fill:#070819;fill-opacity:1;fill-rule:nonzero;stroke:none;stroke-width:0.133333" />
      <path
         id="path724"
         d="m 681.21732,353.71881 c -1.484,0 -2.62934,-1.08814 -2.62934,-2.82147 0,-1.83587 1.20134,-2.91347 2.71867,-2.91347 1.576,0 2.64133,1.14534 2.64133,2.82294 0,2.02813 -1.40533,2.912 -2.73066,2.912 m 0.068,-4.98707 c -1.17867,0 -1.68934,1.088 -1.68934,2.1308 0,1.20147 0.692,2.1068 1.66667,2.1068 0.952,0 1.66533,-0.89333 1.66533,-2.1292 0,-0.92973 -0.464,-2.1084 -1.64266,-2.1084"
         style="fill:#070819;fill-opacity:1;fill-rule:nonzero;stroke:none;stroke-width:0.133333" />
      <path
         id="path725"
         d="m 685.20665,353.59321 h 0.9974 v -8.04531 h -0.9974 z"
         style="fill:#070819;fill-opacity:1;fill-rule:nonzero;stroke:none;stroke-width:0.133333" />
      <path
         id="path726"
         d="m 688.87998,353.59321 h -0.99733 v -5.48387 h 0.99733 v 5.48387 m -0.52133,-6.41294 c -0.35067,0 -0.6,-0.2724 -0.6,-0.612 0,-0.35213 0.26133,-0.62453 0.62267,-0.62453 0.37333,0 0.612,0.2724 0.612,0.62453 0.012,0.3396 -0.23867,0.612 -0.63467,0.612"
         style="fill:#070819;fill-opacity:1;fill-rule:nonzero;stroke:none;stroke-width:0.133333" />
      <path
         id="path727"
         d="m 692.48398,353.71881 c -1.32533,0 -2.34533,-1.12294 -2.34533,-2.78814 -0.0107,-1.82386 1.12133,-2.9468 2.45867,-2.9468 0.83866,0 1.40533,0.39734 1.65466,0.83854 h 0.0227 v -3.27454 h 0.99733 v 6.6292 c 0,0.48694 0.012,1.04267 0.0453,1.41614 h -0.896 l -0.044,-0.952 h -0.0227 c -0.30667,0.61186 -0.97467,1.0776 -1.87067,1.0776 m 0.30667,-4.95374 c -1.032,0 -1.644,0.9084 -1.644,2.1204 0,1.1104 0.54533,2.02907 1.62133,2.02907 0.668,0 1.28,-0.44373 1.46267,-1.19053 0.0333,-0.136 0.044,-0.27187 0.044,-0.4308 v -0.952 c 0,-0.12507 -0.0107,-0.29427 -0.044,-0.41987 -0.148,-0.63333 -0.692,-1.15627 -1.44,-1.15627"
         style="fill:#070819;fill-opacity:1;fill-rule:nonzero;stroke:none;stroke-width:0.133333" />
      <path
         id="path728"
         d="m 700.31732,355.83747 h -0.98667 v -5.93746 c 0,-0.70414 -0.0227,-1.26934 -0.044,-1.79067 h 0.89467 l 0.0453,0.94013 h 0.0213 c 0.40934,-0.66826 1.056,-1.0656 1.94934,-1.0656 1.32666,0 2.324,1.12294 2.324,2.788 0,1.97187 -1.20134,2.94694 -2.49334,2.94694 -0.724,0 -1.36,-0.3172 -1.688,-0.86147 h -0.0227 v 2.98013 m 1.57466,-7.0604 c -0.68,0 -1.31333,0.48694 -1.50666,1.23654 -0.0333,0.12386 -0.068,0.27186 -0.068,0.40613 v 0.94013 c 0,0.14947 0.0227,0.28387 0.044,0.40947 0.18266,0.69213 0.78266,1.16667 1.496,1.16667 1.056,0 1.66666,-0.86 1.66666,-2.1188 0,-1.0984 -0.57733,-2.04014 -1.632,-2.04014"
         style="fill:#070819;fill-opacity:1;fill-rule:nonzero;stroke:none;stroke-width:0.133333" />
      <path
         id="path729"
         d="m 706.77732,353.59321 h -0.99734 v -5.48387 h 0.99734 v 5.48387 m -0.52134,-6.41294 c -0.35066,0 -0.6,-0.2724 -0.6,-0.612 0,-0.35213 0.26134,-0.62453 0.62267,-0.62453 0.37333,0 0.612,0.2724 0.612,0.62453 0.012,0.3396 -0.23867,0.612 -0.63467,0.612"
         style="fill:#070819;fill-opacity:1;fill-rule:nonzero;stroke:none;stroke-width:0.133333" />
      <path
         id="path730"
         d="m 710.73332,353.70681 c -1.68934,0 -2.69734,-1.11094 -2.69734,-2.7656 0,-1.6532 0.97467,-2.95734 2.572,-2.95734 1.79067,0 2.26667,1.576 2.26667,2.5844 0,0.2036 -0.0213,0.3624 -0.0333,0.46347 h -3.85334 c 0.0227,1.34947 0.884,1.90427 1.88134,1.90427 0.71466,0 1.14533,-0.1256 1.51866,-0.28294 l 0.16934,0.7136 c -0.352,0.15987 -0.952,0.34014 -1.824,0.34014 m -0.20534,-5.00947 c -1.00666,0 -1.44933,0.9308 -1.52933,1.62147 h 2.91333 c 0.0107,-0.63494 -0.26133,-1.62147 -1.384,-1.62147"
         style="fill:#070819;fill-opacity:1;fill-rule:nonzero;stroke:none;stroke-width:0.133333" />
      <path
         id="path731"
         d="m 716.44532,353.70681 c -1.65334,0 -2.73067,-1.12294 -2.73067,-2.79894 0,-1.68813 1.15467,-2.912 2.94667,-2.912 0.58933,0 1.10933,0.1468 1.38133,0.2828 l -0.22667,0.7708 c -0.23733,-0.13493 -0.612,-0.25986 -1.15466,-0.25986 -1.25867,0 -1.93867,0.9292 -1.93867,2.07293 0,1.2692 0.816,2.052 1.904,2.052 0.56667,0 0.94133,-0.14787 1.224,-0.27333 l 0.17067,0.74786 c -0.26134,0.13747 -0.83867,0.31774 -1.576,0.31774"
         style="fill:#070819;fill-opacity:1;fill-rule:nonzero;stroke:none;stroke-width:0.133333" />
      <path
         id="path732"
         d="m 721.42132,353.70681 c -1.688,0 -2.696,-1.11094 -2.696,-2.7656 0,-1.6532 0.97333,-2.95734 2.572,-2.95734 1.78933,0 2.26666,1.576 2.26666,2.5844 0,0.2036 -0.0227,0.3624 -0.0347,0.46347 h -3.852 c 0.0213,1.34947 0.884,1.90427 1.88,1.90427 0.71466,0 1.14533,-0.1256 1.52,-0.28294 l 0.168,0.7136 c -0.35067,0.15987 -0.95067,0.34014 -1.824,0.34014 m -0.204,-5.00947 c -1.008,0 -1.45067,0.9308 -1.52934,1.62147 h 2.912 c 0.012,-0.63494 -0.26,-1.62147 -1.38266,-1.62147"
         style="fill:#070819;fill-opacity:1;fill-rule:nonzero;stroke:none;stroke-width:0.133333" />
      <path
         id="path733"
         d="m 725.95598,353.70681 c -0.6,0 -1.156,-0.14694 -1.54266,-0.37347 l 0.25066,-0.7588 c 0.29467,0.19213 0.816,0.3948 1.31334,0.3948 0.72533,0 1.06666,-0.36147 1.06666,-0.81467 0,-0.476 -0.284,-0.73586 -1.02,-1.00933 -0.98666,-0.35053 -1.45066,-0.8948 -1.45066,-1.55213 0,-0.88387 0.71466,-1.60934 1.89333,-1.60934 0.55467,0 1.04133,0.1588 1.34667,0.34014 l -0.248,0.72546 c -0.21467,-0.13493 -0.612,-0.31773 -1.12267,-0.31773 -0.588,0 -0.91867,0.34013 -0.91867,0.74853 0,0.45307 0.33067,0.6572 1.044,0.92907 0.952,0.36253 1.43867,0.83853 1.43867,1.65467 0,0.96253 -0.748,1.6428 -2.05067,1.6428"
         style="fill:#070819;fill-opacity:1;fill-rule:nonzero;stroke:none;stroke-width:0.133333" />
      <path
         id="path734"
         d="m 728.51865,354.98641 c 0.24933,-0.6676 0.556,-1.8796 0.67867,-2.70774 l 1.11066,-0.1136 c -0.26,0.96414 -0.75866,2.22134 -1.07466,2.75374 l -0.71467,0.0676"
         style="fill:#070819;fill-opacity:1;fill-rule:nonzero;stroke:none;stroke-width:0.133333" />
      <path
         id="path735"
         d="m 624.24932,367.30787 c -1.68934,0 -2.69734,-1.11053 -2.69734,-2.7652 0,-1.6536 0.97334,-2.9572 2.572,-2.9572 1.78934,0 2.26667,1.576 2.26667,2.58387 0,0.20413 -0.0227,0.3624 -0.0333,0.4656 h -3.85334 c 0.0213,1.34786 0.884,1.90253 1.88134,1.90253 0.71333,0 1.144,-0.12387 1.51866,-0.2828 l 0.16934,0.71467 c -0.352,0.1588 -0.952,0.33853 -1.824,0.33853 M 624.04398,362.3 c -1.008,0 -1.45066,0.9292 -1.52933,1.61974 h 2.912 c 0.012,-0.63427 -0.26,-1.61974 -1.38267,-1.61974"
         style="fill:#070819;fill-opacity:1;fill-rule:nonzero;stroke:none;stroke-width:0.133333" />
      <path
         id="path736"
         d="m 632.29598,367.1948 h -0.99733 v -3.16146 c 0,-0.88387 -0.328,-1.61974 -1.27067,-1.61974 -0.656,0 -1.16666,0.46347 -1.33733,1.01974 -0.044,0.124 -0.0667,0.2948 -0.0667,0.464 v 3.29746 h -0.99733 v -4 c 0,-0.5656 -0.0107,-1.0308 -0.044,-1.4844 h 0.88267 l 0.0573,0.9068 h 0.0213 c 0.272,-0.52133 0.908,-1.03173 1.81334,-1.03173 0.76,0 1.93866,0.45307 1.93866,2.33427 v 3.27506"
         style="fill:#070819;fill-opacity:1;fill-rule:nonzero;stroke:none;stroke-width:0.133333" />
      <path
         id="path737"
         d="m 635.56132,367.30787 c -0.46534,0 -0.83867,-0.1464 -1.07734,-0.4188 -0.28266,-0.29427 -0.38533,-0.78227 -0.38533,-1.4276 v -2.99067 h -0.84933 v -0.7604 h 0.84933 v -1.31453 l 0.976,-0.25987 v 1.5744 h 1.42667 v 0.7604 h -1.42667 v 2.95574 c 0,0.68026 0.192,1.0656 0.74667,1.0656 0.26,0 0.45333,-0.0333 0.57866,-0.0681 l 0.0453,0.74947 c -0.19334,0.0787 -0.49867,0.1344 -0.884,0.1344"
         style="fill:#070819;fill-opacity:1;fill-rule:nonzero;stroke:none;stroke-width:0.133333" />
      <path
         id="path738"
         d="m 638.62132,367.1948 h -0.99734 v -5.4844 h 0.99734 v 5.4844 m -0.52134,-6.4136 c -0.352,0 -0.6,-0.27186 -0.6,-0.61186 0,-0.35213 0.26,-0.624 0.62267,-0.624 0.37333,0 0.612,0.27187 0.612,0.624 0.012,0.34 -0.23867,0.61186 -0.63467,0.61186"
         style="fill:#070819;fill-opacity:1;fill-rule:nonzero;stroke:none;stroke-width:0.133333" />
      <path
         id="path739"
         d="m 641.26265,367.1948 h -0.98667 v -3.77346 c 0,-0.64534 -0.0107,-1.2016 -0.044,-1.71094 h 0.872 l 0.0347,1.076 h 0.0453 c 0.248,-0.73586 0.848,-1.20093 1.51734,-1.20093 l 0.28266,0.0343 v 0.94013 c -0.10133,-0.0224 -0.20266,-0.0333 -0.34,-0.0333 -0.70133,0 -1.2,0.53226 -1.33733,1.28026 -0.0213,0.13587 -0.044,0.29427 -0.044,0.46507 v 2.92293"
         style="fill:#070819;fill-opacity:1;fill-rule:nonzero;stroke:none;stroke-width:0.133333" />
      <path
         id="path740"
         d="m 646.17065,367.30787 c -1.68933,0 -2.69733,-1.11053 -2.69733,-2.7652 0,-1.6536 0.97466,-2.9572 2.572,-2.9572 1.79066,0 2.26666,1.576 2.26666,2.58387 0,0.20413 -0.0213,0.3624 -0.0333,0.4656 h -3.85333 c 0.0227,1.34786 0.884,1.90253 1.88133,1.90253 0.71467,0 1.14533,-0.12387 1.51867,-0.2828 l 0.16933,0.71467 c -0.352,0.1588 -0.952,0.33853 -1.824,0.33853 m -0.204,-5.00787 c -1.008,0 -1.45067,0.9292 -1.53067,1.61974 h 2.91334 c 0.012,-0.63427 -0.26134,-1.61974 -1.38267,-1.61974"
         style="fill:#070819;fill-opacity:1;fill-rule:nonzero;stroke:none;stroke-width:0.133333" />
      <path
         id="path741"
         d="m 649.54798,367.1948 h 0.9974 v -8.0453 h -0.9974 z"
         style="fill:#070819;fill-opacity:1;fill-rule:nonzero;stroke:none;stroke-width:0.133333" />
      <path
         id="path742"
         d="m 652.05332,369.6984 -0.25067,-0.83693 c 0.25067,-0.0803 0.57867,-0.23747 0.87333,-0.488 0.272,-0.21467 0.612,-0.6 0.83867,-1.11093 l 0.0787,-0.23707 c 0,-0.0561 -0.0213,-0.1364 -0.0667,-0.26147 l -2.02933,-5.0536 h 1.088 l 1.20133,3.24174 c 0.12533,0.36146 0.26133,0.7932 0.352,1.12133 h 0.0227 c 0.10133,-0.32813 0.21466,-0.748 0.35066,-1.14533 l 1.088,-3.21774 h 1.05334 l -1.496,3.90934 c -0.71334,1.88186 -1.2,2.84533 -1.88,3.43333 -0.488,0.4308 -0.97467,0.6016 -1.224,0.64533"
         style="fill:#070819;fill-opacity:1;fill-rule:nonzero;stroke:none;stroke-width:0.133333" />
      <path
         id="path743"
         d="m 659.96532,367.1948 h 0.99688 v -8.0453 h -0.99688 z"
         style="fill:#070819;fill-opacity:1;fill-rule:nonzero;stroke:none;stroke-width:0.133333" />
      <path
         id="path744"
         d="m 663.63732,367.1948 h -0.99734 v -5.4844 h 0.99734 v 5.4844 m -0.52134,-6.4136 c -0.352,0 -0.6,-0.27186 -0.6,-0.61186 0,-0.35213 0.26,-0.624 0.62267,-0.624 0.37333,0 0.61067,0.27187 0.61067,0.624 0.012,0.34 -0.23734,0.61186 -0.63334,0.61186"
         style="fill:#070819;fill-opacity:1;fill-rule:nonzero;stroke:none;stroke-width:0.133333" />
      <path
         id="path745"
         d="m 670.02798,369.43854 h -0.99733 v -3.0932 h -0.0213 c -0.29467,0.54373 -0.90667,0.9744 -1.79067,0.9744 -1.28133,0 -2.32267,-1.1104 -2.32267,-2.77707 0,-2.05053 1.32534,-2.9572 2.48134,-2.9572 0.84933,0 1.41733,0.41973 1.688,0.952 h 0.0227 l 0.0347,-0.82707 h 0.94 c -0.0227,0.4656 -0.0347,0.94014 -0.0347,1.5068 v 6.22134 m -2.46933,-7.05987 c -1.032,0 -1.65467,0.87187 -1.65467,2.10773 0,1.08814 0.52134,2.04174 1.62134,2.04174 0.64533,0 1.2,-0.39747 1.42666,-1.0896 0.0453,-0.13587 0.0787,-0.32814 0.0787,-0.476 v -1.0308 c 0,-0.13587 -0.009,-0.29574 -0.044,-0.41974 -0.148,-0.6104 -0.68,-1.13333 -1.428,-1.13333"
         style="fill:#070819;fill-opacity:1;fill-rule:nonzero;stroke:none;stroke-width:0.133333" />
      <path
         id="path746"
         d="m 673.53198,367.31974 c -0.86133,0 -1.892,-0.476 -1.892,-2.40254 v -3.2068 h 0.99734 v 3.03654 c 0,1.04373 0.31733,1.7452 1.22266,1.7452 0.66934,0 1.13334,-0.464 1.316,-0.90667 0.056,-0.14693 0.0893,-0.32813 0.0893,-0.5084 v -3.36667 h 0.99733 v 3.988 c 0,0.56667 0.012,1.0656 0.0453,1.4964 h -0.884 l -0.056,-0.8948 h -0.0227 c -0.26,0.44267 -0.83867,1.01974 -1.81334,1.01974"
         style="fill:#070819;fill-opacity:1;fill-rule:nonzero;stroke:none;stroke-width:0.133333" />
      <path
         id="path747"
         d="m 678.91732,367.1948 h -0.99867 v -5.4844 h 0.99867 v 5.4844 m -0.52134,-6.4136 c -0.352,0 -0.6,-0.27186 -0.6,-0.61186 0,-0.35213 0.26,-0.624 0.62134,-0.624 0.37466,0 0.61333,0.27187 0.61333,0.624 0.0107,0.34 -0.23867,0.61186 -0.63467,0.61186"
         style="fill:#070819;fill-opacity:1;fill-rule:nonzero;stroke:none;stroke-width:0.133333" />
      <path
         id="path748"
         d="m 682.52132,367.31974 c -1.32534,0 -2.34534,-1.1224 -2.34534,-2.788 -0.012,-1.82387 1.12134,-2.94627 2.45867,-2.94627 0.83733,0 1.404,0.39733 1.65467,0.83853 h 0.0213 v -3.27453 h 0.99733 v 6.6292 c 0,0.4864 0.012,1.04267 0.0467,1.41613 h -0.896 l -0.044,-0.95106 h -0.024 c -0.30667,0.612 -0.97467,1.076 -1.86933,1.076 m 0.30533,-4.95307 c -1.03067,0 -1.64267,0.90787 -1.64267,2.11973 0,1.11094 0.544,2.02974 1.62134,2.02974 0.66666,0 1.27866,-0.44267 1.46133,-1.19067 0.0347,-0.1348 0.044,-0.2724 0.044,-0.43067 v -0.95213 c 0,-0.12547 -0.009,-0.2948 -0.044,-0.41867 -0.148,-0.63493 -0.69067,-1.15733 -1.44,-1.15733"
         style="fill:#070819;fill-opacity:1;fill-rule:nonzero;stroke:none;stroke-width:0.133333" />
      <path
         id="path749"
         d="m 691.53198,368.56667 h -0.78266 c -0.71334,-0.94013 -1.484,-2.39067 -1.484,-4.6 0.012,-2.23333 0.77066,-3.68387 1.484,-4.636 h 0.78266 c -0.828,1.11053 -1.428,2.58387 -1.428,4.636 0,2.01613 0.624,3.46667 1.428,4.6"
         style="fill:#070819;fill-opacity:1;fill-rule:nonzero;stroke:none;stroke-width:0.133333" />
      <path
         id="path750"
         d="m 694.53465,367.31974 c -1.32533,0 -2.344,-1.1224 -2.344,-2.788 -0.012,-1.82387 1.12,-2.94627 2.45733,-2.94627 0.83867,0 1.40534,0.39733 1.656,0.83853 h 0.0213 v -3.27453 h 0.99733 v 6.6292 c 0,0.4864 0.012,1.04267 0.0453,1.41613 h -0.89466 l -0.0453,-0.95106 h -0.0227 c -0.30667,0.612 -0.97467,1.076 -1.87067,1.076 m 0.30667,-4.95307 c -1.032,0 -1.644,0.90787 -1.644,2.11973 0,1.11094 0.54533,2.02974 1.62133,2.02974 0.668,0 1.28,-0.44267 1.46267,-1.19067 0.0333,-0.1348 0.044,-0.2724 0.044,-0.43067 v -0.95213 c 0,-0.12547 -0.0107,-0.2948 -0.044,-0.41867 -0.148,-0.63493 -0.692,-1.15733 -1.44,-1.15733"
         style="fill:#070819;fill-opacity:1;fill-rule:nonzero;stroke:none;stroke-width:0.133333" />
      <path
         id="path751"
         d="m 699.97598,367.1948 h -0.99733 v -5.4844 h 0.99733 v 5.4844 m -0.52,-6.4136 c -0.352,0 -0.6,-0.27186 -0.6,-0.61186 0,-0.35213 0.26,-0.624 0.62134,-0.624 0.37466,0 0.612,0.27187 0.612,0.624 0.012,0.34 -0.23734,0.61186 -0.63334,0.61186"
         style="fill:#070819;fill-opacity:1;fill-rule:nonzero;stroke:none;stroke-width:0.133333" />
      <path
         id="path752"
         d="m 702.87865,367.31974 c -1.11067,0 -1.67733,-0.78227 -1.67733,-1.5744 0,-1.31614 1.16266,-2.0412 3.252,-2.0412 0.016,0 0.0307,0 0.0453,0 v -0.11347 c 0,-0.4532 -0.12533,-1.26827 -1.24533,-1.26827 -0.51067,0 -1.044,0.1588 -1.42934,0.40827 l -0.22666,-0.6572 c 0.45333,-0.2948 1.11066,-0.488 1.80266,-0.488 1.67734,0 2.084,1.1452 2.084,2.24373 v 2.05107 c 0,0.47707 0.024,0.94107 0.092,1.31453 h -0.90666 l -0.08,-0.69066 h -0.0333 c -0.30533,0.43026 -0.896,0.8156 -1.67733,0.8156 m 1.48533,-2.92494 c -1.04666,0 -2.16666,0.2224 -2.16666,1.23694 0,0.64533 0.432,0.95213 0.94133,0.95213 0.71467,0 1.16667,-0.4532 1.32667,-0.9188 l 0.0573,-0.3172 v -0.952 c -0.0533,-10e-4 -0.10533,-10e-4 -0.15867,-10e-4"
         style="fill:#070819;fill-opacity:1;fill-rule:nonzero;stroke:none;stroke-width:0.133333" />
      <path
         id="path753"
         d="m 723.16798,366.57187 c -0.97466,0 -1.66666,-0.9068 -1.66666,-2.1068 0,-1.04373 0.51066,-2.13173 1.68933,-2.13173 1.17733,0 1.64267,1.17866 1.64267,2.10786 0,1.23587 -0.71334,2.13067 -1.66534,2.13067 m 7.42267,-2.65213 h -2.912 c 0.0787,-0.69054 0.52133,-1.61974 1.52933,-1.61974 1.12267,0 1.39467,0.98547 1.38267,1.61974"
         style="fill:#e2e3f4;fill-opacity:1;fill-rule:nonzero;stroke:none;stroke-width:0.133333" />
      <path
         id="path754"
         d="m 708.07998,367.1948 h -0.98533 v -3.77346 c 0,-0.64534 -0.0107,-1.2016 -0.044,-1.71094 h 0.872 l 0.0347,1.076 h 0.0453 c 0.248,-0.73586 0.84933,-1.20093 1.51867,-1.20093 l 0.28133,0.0343 v 0.94013 c -0.10133,-0.0224 -0.20267,-0.0333 -0.33867,-0.0333 -0.70266,0 -1.20133,0.53226 -1.33733,1.28026 -0.0227,0.13587 -0.0467,0.29427 -0.0467,0.46507 v 2.92293"
         style="fill:#070819;fill-opacity:1;fill-rule:nonzero;stroke:none;stroke-width:0.133333" />
      <path
         id="path755"
         d="m 711.83332,367.1948 h -0.98667 v -3.77346 c 0,-0.64534 -0.0107,-1.2016 -0.044,-1.71094 h 0.872 l 0.0333,1.076 h 0.0453 c 0.24933,-0.73586 0.84933,-1.20093 1.51866,-1.20093 l 0.28267,0.0343 v 0.94013 c -0.10133,-0.0224 -0.20267,-0.0333 -0.34,-0.0333 -0.70133,0 -1.2,0.53226 -1.33733,1.28026 -0.0213,0.13587 -0.044,0.29427 -0.044,0.46507 v 2.92293"
         style="fill:#070819;fill-opacity:1;fill-rule:nonzero;stroke:none;stroke-width:0.133333" />
      <path
         id="path756"
         d="m 719.26665,367.1948 h -0.99733 v -3.14946 c 0,-0.88387 -0.328,-1.63174 -1.26934,-1.63174 -0.64533,0 -1.15466,0.45147 -1.33733,0.9968 -0.056,0.13654 -0.068,0.2828 -0.068,0.476 v 3.3084 h -0.99733 v -8.04533 h 0.99733 v 3.4224 h 0.024 c 0.15733,-0.28227 0.40667,-0.53333 0.71333,-0.70253 0.29467,-0.17094 0.64534,-0.28387 1.02,-0.28387 0.736,0 1.91467,0.45307 1.91467,2.34627 v 3.26306"
         style="fill:#070819;fill-opacity:1;fill-rule:nonzero;stroke:none;stroke-width:0.133333" />
      <path
         id="path757"
         d="m 723.12265,367.31974 c -1.484,0 -2.62933,-1.088 -2.62933,-2.82134 0,-1.83586 1.20133,-2.91293 2.71866,-2.91293 1.576,0 2.64134,1.1452 2.64134,2.8224 0,2.02813 -1.40534,2.91187 -2.73067,2.91187 m 0.068,-4.9864 c -1.17867,0 -1.68933,1.088 -1.68933,2.13173 0,1.2 0.692,2.1068 1.66666,2.1068 0.952,0 1.66534,-0.8948 1.66534,-2.13067 0,-0.9292 -0.46534,-2.10786 -1.64267,-2.10786"
         style="fill:#070819;fill-opacity:1;fill-rule:nonzero;stroke:none;stroke-width:0.133333" />
      <path
         id="path758"
         d="m 729.41332,367.30787 c -1.68934,0 -2.69734,-1.11053 -2.69734,-2.7652 0,-1.6536 0.97467,-2.9572 2.572,-2.9572 1.78934,0 2.26667,1.576 2.26667,2.58387 0,0.20413 -0.0227,0.3624 -0.0333,0.4656 h -3.85334 c 0.0227,1.34786 0.884,1.90253 1.88134,1.90253 0.71333,0 1.144,-0.12387 1.51866,-0.2828 l 0.16934,0.71467 c -0.352,0.1588 -0.952,0.33853 -1.824,0.33853 M 729.20798,362.3 c -1.008,0 -1.45066,0.9292 -1.52933,1.61974 h 2.912 c 0.012,-0.63427 -0.26,-1.61974 -1.38267,-1.61974"
         style="fill:#070819;fill-opacity:1;fill-rule:nonzero;stroke:none;stroke-width:0.133333" />
      <path
         id="path759"
         d="m 734.29865,366.58387 c -0.51067,0 -0.94134,-0.3068 -0.94134,-0.95213 0,-1.01454 1.11867,-1.23694 2.16534,-1.23694 0.0533,0 0.10533,0 0.15866,0.001 v 0.952 l -0.0573,0.3172 c -0.15867,0.4656 -0.612,0.9188 -1.32533,0.9188"
         style="fill:#e2e3f4;fill-opacity:1;fill-rule:nonzero;stroke:none;stroke-width:0.133333" />
      <path
         id="path760"
         d="m 734.03731,367.31974 c -1.11066,0 -1.67599,-0.78227 -1.67599,-1.5744 0,-1.31614 1.16133,-2.0412 3.25199,-2.0412 0.0147,0 0.0293,0 0.044,0 v -0.11347 c 0,-0.4532 -0.12533,-1.26827 -1.24533,-1.26827 -0.51067,0 -1.044,0.1588 -1.42933,0.40827 l -0.22667,-0.6572 c 0.45334,-0.2948 1.11067,-0.488 1.80267,-0.488 1.67733,0 2.084,1.1452 2.084,2.24373 v 2.05107 c 0,0.47707 0.024,0.94107 0.092,1.31453 h -0.90667 l -0.0787,-0.69066 h -0.0347 c -0.30534,0.43026 -0.896,0.8156 -1.67734,0.8156 m 1.48534,-2.92494 c -1.04667,0 -2.16534,0.2224 -2.16534,1.23694 0,0.64533 0.43067,0.95213 0.94134,0.95213 0.71333,0 1.16666,-0.4532 1.32533,-0.9188 l 0.0573,-0.3172 v -0.952 c -0.0533,-10e-4 -0.10533,-10e-4 -0.15866,-10e-4"
         style="fill:#070819;fill-opacity:1;fill-rule:nonzero;stroke:none;stroke-width:0.133333" />
      <path
         id="path761"
         d="m 738.42398,368.56667 h -0.77067 c 0.80534,-1.12293 1.42934,-2.5948 1.42934,-4.63493 0,-2.0276 -0.612,-3.47867 -1.42934,-4.60107 h 0.77067 c 0.72533,0.9292 1.48533,2.37973 1.48533,4.612 0,2.22133 -0.76,3.66 -1.48533,4.624"
         style="fill:#070819;fill-opacity:1;fill-rule:nonzero;stroke:none;stroke-width:0.133333" />
      <path
         id="path875"
         d="m 668.96665,282.26801 c -3.72533,-2.49734 -8.65733,-1.62667 -13.10267,-2.23467 -0.98,-0.13333 -1.99333,-0.34133 -2.944,-0.068 -0.70133,0.2 -1.30266,0.64667 -1.888,1.084 -2.928,2.196 -5.856,4.38933 -8.784,6.584 -0.692,0.51733 -1.43866,1.12267 -1.56266,1.97733 -0.2,1.356 1.25866,2.36667 2.59066,2.68934 1.82134,0.44133 3.728,0.276 5.59467,0.108 4.88533,-0.44134 9.76933,-0.88134 14.65467,-1.324 1.20266,-0.108 2.41866,-0.22 3.56,-0.612 0.96266,-0.332 1.85733,-0.86 2.61066,-1.54534 0.812,-0.736 1.48,-1.712 1.56,-2.80533 0.11467,-1.56267 -0.98933,-2.98133 -2.28933,-3.85333"
         style="fill:#ab4140;fill-opacity:1;fill-rule:nonzero;stroke:none;stroke-width:0.133333" />
      <path
         id="path876"
         d="m 668.96665,282.26801 c -2.27333,-1.524 -4.99867,-1.79334 -7.78667,-1.90934 -0.14133,3.14267 -8.912,4.508 -16.92933,5.77334 -0.668,0.50133 -1.336,1.00133 -2.00267,1.50133 -0.692,0.51733 -1.43866,1.12267 -1.56266,1.97733 -0.2,1.356 1.26,2.36667 2.59066,2.69067 1.82134,0.44 3.728,0.27467 5.59467,0.10667 4.88533,-0.44134 9.76933,-0.88134 14.65467,-1.324 1.20266,-0.108 2.41866,-0.22 3.56,-0.612 0.96266,-0.332 1.85733,-0.86 2.61066,-1.54534 0.812,-0.736 1.48,-1.712 1.56,-2.80533 0.11467,-1.56267 -0.98933,-2.98133 -2.28933,-3.85333"
         style="fill:#9e302f;fill-opacity:1;fill-rule:nonzero;stroke:none;stroke-width:0.133333" />
      <path
         id="path877"
         d="m 657.11598,298.90521 c 10.45867,-0.3224 20.39867,-4.88547 30.84134,-5.5412 5.26266,-0.32934 10.588,0.35213 15.59733,1.99746 3.90533,1.28387 7.59333,3.13587 11.416,4.64787 4.904,1.9412 10.03067,3.32133 15.248,4.1068 3.86533,0.57973 7.81066,0.84373 11.536,2.03173 3.724,1.19067 7.31066,3.48387 8.992,7.0136 1.272,2.67187 1.30666,5.90254 0.0933,8.60107 -2.08667,4.64013 -7.39467,7.1 -12.46933,7.44533 -5.07467,0.34427 -10.088,-1.012 -15.08133,-1.98493 -14.328,-2.79227 -29.24667,-2.45627 -43.46,0.87187 -6.09067,1.4276 -12.124,3.4052 -18.376,3.63853 -6.252,0.23333 -12.97734,-1.60413 -16.88134,-6.49213 -1.68266,-2.1052 -2.80666,-4.71574 -4.94666,-6.3532 -2.32,-1.77187 -5.45867,-2.08387 -8.36267,-1.77187 -3.73067,0.40267 -7.93867,1.6 -10.92133,-0.6776 -2.94667,-2.24947 -2.91334,-6.88907 -1.132,-10.14013 3.27733,-5.97867 10.696,-8.45574 17.51066,-8.62134 6.81334,-0.16346 13.584,1.43907 20.396,1.22814"
         style="fill:#ab4140;fill-opacity:1;fill-rule:nonzero;stroke:none;stroke-width:0.133333" />
      <path
         id="path878"
         d="m 620.34132,316.43747 c 2.98133,2.27867 7.19066,1.08134 10.92133,0.67867 2.904,-0.312 6.04267,0 8.36267,1.77187 2.14,1.63746 3.264,4.248 4.94666,6.3532 3.904,4.888 10.62934,6.72546 16.88134,6.49213 6.252,-0.23333 12.28533,-2.21093 18.37733,-3.63853 14.212,-3.32814 29.13067,-3.66414 43.45867,-0.87187 4.99333,0.97293 10.00666,2.3292 15.08133,1.98493 5.07466,-0.34533 10.38266,-2.8052 12.46933,-7.44533 1.21333,-2.69853 1.17867,-5.9292 -0.0933,-8.60107 -1.68134,-3.52973 -5.268,-5.82293 -8.992,-7.012 -2.44,-0.78013 -4.97334,-1.1604 -7.516,-1.49373 1.16133,1.82027 1.408,4.10307 -0.56667,6.82547 -5.688,7.83333 -32.12133,-3.89734 -54.7,1.0376 -22.57866,4.93173 -29.93066,6.0932 -39.09733,0 -9.16667,-6.0964 -21.89333,-1.54694 -20.66533,-6.2204 -1.78134,3.25106 -1.81467,7.89066 1.132,10.13906"
         style="fill:#9e302f;fill-opacity:1;fill-rule:nonzero;stroke:none;stroke-width:0.133333" />
      <path
         id="path879"
         d="m 750.74665,313.16147 c -1.476,-3.0964 -4.416,-5.24173 -7.62934,-6.52293 0.892,2.0844 1.23734,4.3932 0.67867,6.57347 -0.976,3.8016 -4.52533,6.52293 -8.30933,7.56826 -3.784,1.04374 -7.79867,0.69427 -11.69333,0.2156 -14.33067,-1.76253 -28.844,-5.18386 -43.03734,-2.53333 -7.052,1.31613 -13.75066,4.09627 -20.74666,5.6844 -5.23067,1.1864 -10.85467,1.6452 -15.98934,0.35987 0.17734,0.24893 0.36134,0.49586 0.552,0.7344 3.904,4.888 10.62934,6.72546 16.88134,6.49213 6.252,-0.23333 12.28533,-2.21093 18.37733,-3.63853 14.212,-3.32814 29.13067,-3.66414 43.45867,-0.87187 4.99333,0.97293 10.00666,2.3292 15.08133,1.98493 5.07466,-0.34533 10.38266,-2.8052 12.46933,-7.44533 1.21333,-2.69853 1.17867,-5.9292 -0.0933,-8.60107"
         style="fill:#873434;fill-opacity:1;fill-rule:nonzero;stroke:none;stroke-width:0.133333" />
      <path
         id="path880"
         d="m 635.91732,310.09481 c 0.048,0.85826 0.58933,1.62133 1.24533,2.176 1.70267,1.43706 4.09067,1.69586 6.31867,1.69746 2.11466,10e-4 4.23333,-0.1724 6.344,-0.0213 2.876,0.2052 5.72666,1.01293 8.6,0.77853 2.876,-0.2364 5.94533,-1.92706 6.496,-4.7588 0.13333,-0.688 0.104,-1.42133 -0.18534,-2.0588 -0.212,-0.4704 -0.55733,-0.8704 -0.94266,-1.21053 -1.444,-1.27493 -3.44267,-1.73853 -5.368,-1.79893 -1.924,-0.0599 -3.84134,0.24013 -5.768,0.2828 -2.71867,0.0625 -5.43334,-0.38387 -8.152,-0.3 -2.72,0.0839 -5.57867,0.79333 -7.46667,2.75373 -0.64267,0.66773 -1.17333,1.5344 -1.12133,2.45987"
         style="fill:#bd5858;fill-opacity:1;fill-rule:nonzero;stroke:none;stroke-width:0.133333" />
      <path
         id="path881"
         d="m 683.30532,299.98641 c -0.49734,0.26413 -1.01334,0.5948 -1.204,1.12293 -0.236,0.66 0.148,1.41467 0.71733,1.8188 0.572,0.4052 1.288,0.53693 1.98133,0.63587 0.64134,0.0917 1.288,0.16413 1.93867,0.15213 1.484,-0.0271 2.93067,-0.5 4.41333,-0.56827 0.85734,-0.0385 1.75734,0.0495 2.53467,-0.31186 0.776,-0.36254 1.312,-1.4224 0.78,-2.09334 -0.22533,-0.28386 -0.57867,-0.42653 -0.916,-0.5572 -0.56667,-0.2188 -1.132,-0.43853 -1.69733,-0.65733 -0.81734,-0.3188 -1.63867,-0.63747 -2.5,-0.788 -2.06667,-0.3656 -4.19734,0.26147 -6.048,1.24627"
         style="fill:#bd5858;fill-opacity:1;fill-rule:nonzero;stroke:none;stroke-width:0.133333" />
      <path
         id="path882"
         d="m 668.96665,282.26801 c -0.45733,-0.30534 -0.93467,-0.56267 -1.42667,-0.776 -0.18533,1.012 -0.75466,1.93066 -1.46666,2.68 -2.48134,2.61066 -6.392,3.248 -9.992,3.18533 -3.60134,-0.0627 -7.24267,-0.67467 -10.77467,0.0347 -1.56533,0.31333 -3.076,0.89466 -4.45733,1.696 -0.08,0.164 -0.13734,0.33733 -0.164,0.52266 -0.2,1.356 1.25866,2.36667 2.59066,2.69067 1.82134,0.44 3.728,0.27467 5.59467,0.10667 4.88533,-0.44134 9.76933,-0.88134 14.65467,-1.324 1.20266,-0.108 2.41866,-0.22 3.56,-0.612 0.96266,-0.332 1.85733,-0.86 2.61066,-1.54534 0.812,-0.736 1.48,-1.712 1.56,-2.80533 0.11467,-1.56267 -0.98933,-2.98133 -2.28933,-3.85333"
         style="fill:#873434;fill-opacity:1;fill-rule:nonzero;stroke:none;stroke-width:0.133333" />
      <path
         id="path883"
         d="m 653.51998,284.87601 c 1.09867,0.008 2.216,0.0133 3.27067,-0.29867 0.86933,-0.26 1.78133,-0.91333 1.74933,-1.82133 -0.87733,-0.45067 -1.916,-0.40267 -2.90133,-0.34534 -1.05467,0.0613 -2.216,0.16934 -2.948,0.92934 -0.29867,0.308 -0.49733,0.80266 -0.26,1.16266 0.22133,0.33334 0.688,0.36934 1.08933,0.37334"
         style="fill:#bd5858;fill-opacity:1;fill-rule:nonzero;stroke:none;stroke-width:0.133333" />
    </g>
  </g>
</svg>
