<?xml version="1.0" encoding="UTF-8" standalone="no"?>
<!-- Created with Inkscape (http://www.inkscape.org/) -->

<svg
   width="32.332069mm"
   height="14.109267mm"
   viewBox="0 0 32.332069 14.109267"
   version="1.1"
   id="svg1"
   inkscape:version="1.4.2 (ebf0e94, 2025-05-08)"
   sodipodi:docname="type_1.svg"
   xmlns:inkscape="http://www.inkscape.org/namespaces/inkscape"
   xmlns:sodipodi="http://sodipodi.sourceforge.net/DTD/sodipodi-0.dtd"
   xmlns="http://www.w3.org/2000/svg"
   xmlns:svg="http://www.w3.org/2000/svg">
  <sodipodi:namedview
     id="namedview1"
     pagecolor="#ffffff"
     bordercolor="#000000"
     borderopacity="0.25"
     inkscape:showpageshadow="2"
     inkscape:pageopacity="0.0"
     inkscape:pagecheckerboard="0"
     inkscape:deskcolor="#d1d1d1"
     inkscape:document-units="mm"
     inkscape:zoom="0.71535494"
     inkscape:cx="136.99493"
     inkscape:cy="355.76745"
     inkscape:window-width="1920"
     inkscape:window-height="1011"
     inkscape:window-x="0"
     inkscape:window-y="0"
     inkscape:window-maximized="1"
     inkscape:current-layer="layer1" />
  <defs
     id="defs1" />
  <g
     inkscape:label="Layer 1"
     inkscape:groupmode="layer"
     id="layer1"
     transform="translate(-68.791666,-54.239582)">
    <g
       id="g883"
       transform="matrix(0.26458333,0,0,0.26458333,5.2433217,31.605035)">
      <path
         id="path3"
         d="m 326.42266,105.64268 c 1.29333,-8.872002 21.84933,-11.374668 31.27733,-4.04134 9.428,7.33334 3.592,16.01334 -8.38,17.66 -11.97333,1.64534 -23.94533,-6.436 -22.89733,-13.61866"
         style="fill:#ab4140;fill-opacity:1;fill-rule:nonzero;stroke:none;stroke-width:0.133333" />
      <path
         id="path4"
         d="m 357.69999,101.60134 c -2.796,-2.174662 -6.572,-3.477328 -10.53333,-4.013328 1.988,2.829328 2.152,5.370668 0.136,8.787998 -2.636,4.472 -11.032,5.36533 -19.968,3.74267 2.99867,5.632 12.488,10.448 21.98533,9.14266 11.972,-1.64666 17.808,-10.32666 8.38,-17.66"
         style="fill:#9e302f;fill-opacity:1;fill-rule:nonzero;stroke:none;stroke-width:0.133333" />
      <path
         id="path5"
         d="m 289.15866,122.70268 c 2.09733,-11.53467 21.7,-10.77467 32.624,-3.89067 10.92533,6.884 5.23867,20.35333 -10.32533,20.05333 -15.564,-0.29866 -23.79467,-7.932 -22.29867,-16.16266"
         style="fill:#ab4140;fill-opacity:1;fill-rule:nonzero;stroke:none;stroke-width:0.133333" />
      <path
         id="path6"
         d="m 321.78266,118.81201 c -2.336,-1.47333 -5.07067,-2.66133 -7.94533,-3.51333 2.13866,3.04 2.052,6.90933 -1.05334,10.45066 -4.72933,5.39467 -16.18133,3.584 -23.548,1.07867 1.45334,6.49467 9.312,11.78933 22.22134,12.03733 15.564,0.3 21.25066,-13.16933 10.32533,-20.05333"
         style="fill:#9e302f;fill-opacity:1;fill-rule:nonzero;stroke:none;stroke-width:0.133333" />
      <path
         id="path7"
         d="m 286.61466,95.765345 c -0.112,-8.7 12.42133,-11.224 21.99867,-9.877333 9.57866,1.346666 14.36666,14.068 5.68666,18.257328 -8.68,4.19067 -27.536,3.29334 -27.68533,-8.379995"
         style="fill:#ab4140;fill-opacity:1;fill-rule:nonzero;stroke:none;stroke-width:0.133333" />
      <path
         id="path8"
         d="m 308.61333,85.888012 c -0.34,-0.048 -0.68534,-0.09067 -1.032,-0.128 2.22666,3.641333 2.376,8.606666 -2.17867,11.54 -5.32267,3.429328 -12.77467,3.373328 -18.444,0.890666 2.57067,9.345332 19.308,9.833332 27.34133,5.954662 8.68,-4.189328 3.892,-16.910662 -5.68666,-18.257328"
         style="fill:#9e302f;fill-opacity:1;fill-rule:nonzero;stroke:none;stroke-width:0.133333" />
      <path
         id="path9"
         d="m 240.22133,112.07734 c 0.69733,-8.364 13.02,-17.509328 26.93866,-10.32666 13.91734,7.184 11.672,19.30533 -0.6,22.14933 -12.27066,2.84267 -27.236,-1.048 -26.33866,-11.82267"
         style="fill:#ab4140;fill-opacity:1;fill-rule:nonzero;stroke:none;stroke-width:0.133333" />
      <path
         id="path10"
         d="m 267.15999,101.75068 c -0.53733,-0.276 -1.07066,-0.52134 -1.60133,-0.75067 0.56533,5.608 -3.33333,9.8 -7.11333,11.528 -4.13867,1.89333 -11.22934,3.34267 -18.22934,1.13867 0.63734,9.56 14.69867,12.932 26.344,10.23333 12.272,-2.844 14.51734,-14.96533 0.6,-22.14933"
         style="fill:#9e302f;fill-opacity:1;fill-rule:nonzero;stroke:none;stroke-width:0.133333" />
      <path
         id="path11"
         d="m 267.60133,101.98668 c 3.76666,6.336 0.12266,13.14133 -8.67334,15.17866 -6.14933,1.42534 -12.97733,1.15867 -18.144,-0.81866 2.844,7.49466 15.29334,9.98266 25.776,7.55333 12.14,-2.81333 14.46534,-14.704 1.04134,-21.91333"
         style="fill:#873434;fill-opacity:1;fill-rule:nonzero;stroke:none;stroke-width:0.133333" />
      <path
         id="path12"
         d="m 311.64933,86.745345 c 3.07866,4.438667 2.97066,10.488 -2.512,13.134667 -5.46134,2.637328 -14.95067,3.258668 -21.27467,0.447998 4.36,7.264 19.06667,7.37733 26.43733,3.81733 7.704,-3.71866 4.79734,-14.157328 -2.65066,-17.399995"
         style="fill:#873434;fill-opacity:1;fill-rule:nonzero;stroke:none;stroke-width:0.133333" />
      <path
         id="path13"
         d="m 357.69999,101.60134 c -1.33467,-1.03733 -2.892,-1.878662 -4.58667,-2.531995 4.66,6.506665 -1.1,13.159995 -11.42666,14.579995 -4.696,0.64534 -9.39333,-0.20666 -13.304,-1.91333 3.79333,4.89467 12.36533,8.70267 20.93733,7.52533 11.972,-1.64666 17.808,-10.32666 8.38,-17.66"
         style="fill:#873434;fill-opacity:1;fill-rule:nonzero;stroke:none;stroke-width:0.133333" />
      <path
         id="path14"
         d="m 321.78266,118.81201 c -0.51333,-0.324 -1.04533,-0.63333 -1.59467,-0.92933 3.476,6.936 -2.65466,15.384 -15.01733,15.14666 -6.14533,-0.11866 -11.14533,-1.38133 -14.85733,-3.37066 2.844,5.14 10.17066,8.996 21.144,9.20666 15.564,0.3 21.25066,-13.16933 10.32533,-20.05333"
         style="fill:#873434;fill-opacity:1;fill-rule:nonzero;stroke:none;stroke-width:0.133333" />
      <path
         id="path15"
         d="m 294.77066,124.79868 c -1.808,-2.84667 8.08133,-8.24934 9.87733,-5.32267 1.796,2.928 -7.85733,8.504 -9.87733,5.32267"
         style="fill:#bd5858;fill-opacity:1;fill-rule:nonzero;stroke:none;stroke-width:0.133333" />
      <path
         id="path16"
         d="m 293.75999,95.353345 c -2.78666,-3.869333 7.17467,-8.417333 9.59334,-4.601333 2.41733,3.816 -7.572,7.408 -9.59334,4.601333"
         style="fill:#bd5858;fill-opacity:1;fill-rule:nonzero;stroke:none;stroke-width:0.133333" />
      <path
         id="path17"
         d="m 332.14666,106.43201 c -1.332,-4.056 8.98,-5.916 10.21466,-3.22267 1.23334,2.69467 -8.53066,8.352 -10.21466,3.22267"
         style="fill:#bd5858;fill-opacity:1;fill-rule:nonzero;stroke:none;stroke-width:0.133333" />
      <path
         id="path18"
         d="m 249.19999,107.81201 c -1.08,-2.62533 6.96934,-6.39733 9.54667,-3.25467 2.576,3.14267 -7.97467,7.07067 -9.54667,3.25467"
         style="fill:#bd5858;fill-opacity:1;fill-rule:nonzero;stroke:none;stroke-width:0.133333" />
      <path
         id="path380"
         d="m 346.13466,119.47734 c -10.81467,0 -20.66667,-7.29066 -19.712,-13.83466 0.77467,-5.312 8.45733,-8.341335 16.52133,-8.341335 5.24533,0 10.64933,1.28 14.42133,4.047995 -0.164,-0.12 -0.32933,-0.23733 -0.49866,-0.35066 -0.003,-0.003 -0.007,-0.004 -0.009,-0.007 -0.005,-0.004 -0.0107,-0.007 -0.0147,-0.0107 -0.008,-0.005 -0.0147,-0.009 -0.0227,-0.0147 -0.001,-10e-4 -0.003,-0.003 -0.005,-0.003 -1.12134,-0.75067 -2.36934,-1.381332 -3.70134,-1.894665 10e-4,0.0013 0.003,0.0027 0.003,0.004 -1.856,-0.714667 -3.87733,-1.205333 -5.94933,-1.485333 1.988,2.829328 2.152,5.370668 0.136,8.787998 -1.83734,3.11733 -6.47334,4.49467 -12.13867,4.49467 -2.464,10e-4 -5.12133,-0.26 -7.82933,-0.752 0.29333,0.55066 0.648,1.092 1.05733,1.62133 -0.003,-10e-4 -0.005,-10e-4 -0.009,-0.004 3.32133,4.28667 10.31066,7.74 17.75333,7.74 0.42667,0.001 0.85467,-0.0107 1.28533,-0.0333 -0.43066,0.0227 -0.85866,0.0347 -1.28666,0.0347 m -7.10934,-17.532 c -3.34266,0 -7.77999,1.74 -6.87866,4.48667 0.492,1.49867 1.67333,2.076 3.06933,2.076 3.38133,0 8.01867,-3.392 7.14533,-5.29867 -0.39866,-0.86933 -1.74266,-1.264 -3.336,-1.264 m 9.916,17.364 c 0.12667,-0.0147 0.252,-0.0307 0.37867,-0.048 -0.12667,0.0173 -0.25333,0.0333 -0.37867,0.048 m 8.71867,-17.73866 c -0.004,-0.003 -0.008,-0.005 -0.0107,-0.009 0.003,0.003 0.007,0.007 0.0107,0.009 m -0.0427,-0.032 c -0.003,-0.003 -0.007,-0.005 -0.0107,-0.008 0.004,0.003 0.008,0.005 0.0107,0.008 m -0.0507,-0.0387 c -0.001,-0.003 -0.003,-0.003 -0.005,-0.005 0.003,0.003 0.003,0.003 0.005,0.005 m -0.04,-0.0307 c -0.004,-0.004 -0.009,-0.008 -0.0133,-0.0107 0.004,0.003 0.009,0.007 0.0133,0.0107 m -0.04,-0.0307 c -0.005,-0.003 -0.0107,-0.008 -0.016,-0.012 0.005,0.004 0.0107,0.009 0.016,0.012 m -0.0413,-0.0307 c -0.012,-0.009 -0.024,-0.0173 -0.036,-0.0267 0.012,0.009 0.024,0.0173 0.036,0.0267 m -0.0467,-0.0347 c -0.009,-0.007 -0.02,-0.0133 -0.0293,-0.0213 0.0107,0.008 0.0187,0.0147 0.0293,0.0213"
         style="fill:#9a4050;fill-opacity:1;fill-rule:nonzero;stroke:none;stroke-width:0.133333" />
      <path
         id="path381"
         d="m 338.50266,113.86534 c -3.59734,0 -7.088,-0.80666 -10.11067,-2.12533 -0.40933,-0.52933 -0.764,-1.07067 -1.05733,-1.62133 2.708,0.492 5.36533,0.75333 7.82933,0.752 5.66533,0 10.30133,-1.37734 12.13867,-4.49467 2.016,-3.41733 1.852,-5.95867 -0.136,-8.787998 2.072,0.28 4.09333,0.770666 5.94933,1.485333 4.65333,6.506665 -1.10533,13.155995 -11.42933,14.575995 -1.064,0.14534 -2.128,0.216 -3.184,0.216 m 23.88,-4.54266 c 0.004,-2.50534 -1.43334,-5.19334 -4.68267,-7.72134 -0.26933,-0.208 -0.54667,-0.40933 -0.83333,-0.60266 0.16933,0.11333 0.33466,0.23066 0.49866,0.35066 10e-4,0 0.003,0.001 0.004,0.003 0.009,0.008 0.02,0.0147 0.0293,0.0213 0.004,0.003 0.008,0.005 0.0107,0.008 0.012,0.009 0.024,0.0173 0.036,0.0267 0.008,0.007 0.0173,0.0133 0.0253,0.0187 0.005,0.004 0.0107,0.009 0.016,0.012 0.009,0.007 0.0173,0.0133 0.0267,0.02 0.004,0.003 0.009,0.007 0.0133,0.0107 0.012,0.009 0.024,0.0173 0.0347,0.0253 0.003,0.003 0.004,0.003 0.005,0.005 0.0133,0.009 0.0267,0.02 0.04,0.0307 0.004,0.003 0.008,0.005 0.0107,0.008 0.0107,0.008 0.0213,0.016 0.032,0.0227 0.003,0.004 0.007,0.007 0.0107,0.009 0.0133,0.0107 0.0267,0.02 0.04,0.0307 v 0 c 3.24933,2.528 4.68667,5.216 4.68267,7.72134 v 0 m -5.52534,-8.33067 c -0.005,-0.004 -0.0107,-0.007 -0.0147,-0.0107 0.004,0.004 0.009,0.007 0.0147,0.0107 m -0.0373,-0.0253 c -10e-4,-0.001 -0.003,-0.003 -0.005,-0.003 0.003,0 0.004,0.001 0.005,0.003"
         style="fill:#8f3141;fill-opacity:1;fill-rule:nonzero;stroke:none;stroke-width:0.133333" />
      <path
         id="path382"
         d="m 311.96533,138.87068 v 0 c 0.001,0 0.004,0 0.007,0 -0.003,0 -0.005,0 -0.007,0 m 0,0 c -0.16934,0 -0.33734,-0.001 -0.508,-0.005 0.16933,0.004 0.34,0.005 0.508,0.005 m -0.508,-0.005 c -0.0187,0 -0.0373,0 -0.0573,0 0.0187,0 0.0387,0 0.0573,0 m -0.0787,-0.001 c -0.012,0 -0.0253,0 -0.036,0 0.009,0 0.02,0 0.0293,0 0.003,0 0.004,0 0.007,0 m -0.056,-0.001 c -0.004,0 -0.009,0 -0.0147,0 0.001,0 0.003,0 0.004,0 0.004,0 0.007,0 0.0107,0 m -0.02,0 c -0.0107,0 -0.0213,0 -0.032,0 0.009,0 0.0187,0 0.0267,0 10e-4,0 0.003,0 0.005,0 m -0.0533,-10e-4 c -0.012,0 -0.0227,0 -0.0333,0 0.004,0 0.007,0 0.0107,0 0.003,0 0.005,0 0.009,0 0.004,0 0.009,0 0.0133,0 m -0.0587,-0.001 c -0.0133,0 -0.024,0 -0.036,-0.001 0.012,0.001 0.024,0.001 0.036,0.001 m -0.0747,-0.001 c -0.0107,-0.001 -0.0187,-0.001 -0.0293,-0.001 0.009,0 0.02,0 0.0293,0.001 m -0.06,-0.003 c -0.008,0 -0.0147,0 -0.024,0 0.008,0 0.016,0 0.024,0 m -0.092,-0.003 c -0.003,0 -0.004,0 -0.007,0 0.003,0 0.004,0 0.007,0 m -0.0413,0 c -0.007,-0.001 -0.0133,-0.001 -0.0187,-0.001 0.005,0 0.012,0 0.0187,0.001 m -0.0533,-0.003 c -0.003,0 -0.005,0 -0.008,0 10e-4,0 0.005,0 0.008,0 m -0.0827,-0.003 c -0.004,0 -0.009,0 -0.012,0 0.004,0 0.008,0 0.012,0 m -0.052,-0.001 c -0.003,0 -0.004,0 -0.007,0 0.003,0 0.005,0 0.007,0 m -0.136,-0.005 v 0 0 m -7.06667,-0.864 c -0.003,0 -0.005,-0.001 -0.008,-0.001 0.003,0 0.005,0.001 0.008,0.001 m -0.10666,-0.024 c -0.004,0 -0.009,-0.001 -0.0133,-0.003 0.004,10e-4 0.009,0.003 0.0133,0.003 m -0.0427,-0.009 c -0.005,-0.001 -0.0107,-0.003 -0.016,-0.003 0.005,0 0.0107,0.001 0.016,0.003 m -0.06,-0.0133 c -0.007,-0.001 -0.0133,-0.003 -0.0213,-0.005 0.007,0.003 0.0147,0.004 0.0213,0.005 m -0.0453,-0.0107 c -0.008,-0.001 -0.0147,-0.003 -0.0213,-0.004 0.007,0.001 0.0133,0.003 0.0213,0.004 m -0.0453,-0.009 c -0.0133,-0.004 -0.0267,-0.007 -0.04,-0.009 0.0133,0.003 0.0267,0.005 0.04,0.009 m -0.0587,-0.0147 c -0.009,-10e-4 -0.0173,-0.004 -0.0267,-0.005 0.008,0.001 0.0173,0.004 0.0267,0.005 m -0.048,-0.0107 c -0.009,-0.003 -0.02,-0.004 -0.0293,-0.007 0.0107,0.003 0.02,0.004 0.0293,0.007 m -0.056,-0.0133 c -0.0107,-0.003 -0.02,-0.004 -0.0307,-0.007 0.0107,0.003 0.0213,0.005 0.0307,0.007 m -0.048,-0.0107 c -0.0107,-0.003 -0.0227,-0.005 -0.0333,-0.008 0.0107,0.003 0.0227,0.005 0.0333,0.008 m -0.0453,-0.0107 c -0.0147,-0.004 -0.0307,-0.008 -0.0467,-0.012 0.016,0.004 0.032,0.008 0.0467,0.012 m -0.0533,-0.0133 c -0.0147,-0.003 -0.028,-0.007 -0.0427,-0.009 0.0147,0.003 0.0293,0.007 0.0427,0.009 m -0.0493,-0.012 c -0.0333,-0.008 -0.0653,-0.016 -0.0973,-0.024 0.032,0.008 0.0653,0.016 0.0973,0.024 m -0.10267,-0.024 c -9.864,-2.41466 -14.8,-8.568 -13.612,-15.09866 1.13867,-6.264 7.44267,-8.90267 14.71333,-8.90267 6.11734,0 12.92,1.86667 17.91067,5.012 0.012,0.007 0.024,0.0147 0.036,0.0213 -0.012,-0.007 -0.024,-0.0147 -0.036,-0.0213 -0.51333,-0.324 -1.04533,-0.63333 -1.59467,-0.92933 0,0 0,0 0,0 -1.94933,-1.04934 -4.108,-1.92 -6.35066,-2.584 2.13866,3.04 2.052,6.90933 -1.05334,10.45066 -2.256,2.57467 -6.04533,3.508 -10.18933,3.508 -4.54,0 -9.50667,-1.12 -13.35867,-2.42933 0.21867,0.976 0.58267,1.92667 1.08667,2.836 -0.004,-0.003 -0.007,-0.004 -0.009,-0.005 2.01066,3.63466 6.26133,6.62533 12.45733,8.14266 m -0.0453,-19.168 c -3.39867,0 -9.39734,3.89467 -7.95467,6.16534 0.42533,0.67066 1.188,0.95066 2.112,0.95066 3.464,0 9.18267,-3.96133 7.76533,-6.27333 -0.364,-0.592 -1.05866,-0.84267 -1.92266,-0.84267"
         style="fill:#9a4050;fill-opacity:1;fill-rule:nonzero;stroke:none;stroke-width:0.133333" />
      <path
         id="path383"
         d="m 311.38399,138.86401 c -10e-4,0 -0.004,0 -0.005,0 -0.003,0 -0.004,0 -0.007,0 0.004,0 0.008,0 0.012,0 m -0.072,-0.001 c -10e-4,0 -0.003,0 -0.004,0 -0.001,0 -0.004,0 -0.005,0 -0.003,0 -0.004,0 -0.005,0 0.005,0 0.009,0 0.0147,0 m -0.076,-0.001 c -0.004,0 -0.007,0 -0.009,0 0.003,0 0.005,0 0.009,0 m -5.55733,-5.828 c -0.168,0 -0.336,-0.001 -0.508,-0.004 -6.14,-0.11866 -11.13733,-1.37866 -14.848,-3.36533 -0.504,-0.90933 -0.868,-1.86 -1.08667,-2.836 3.852,1.30933 8.81867,2.42933 13.35867,2.42933 4.144,0 7.93333,-0.93333 10.18933,-3.508 3.10534,-3.54133 3.192,-7.41066 1.05334,-10.45066 2.24266,0.664 4.40133,1.53466 6.35066,2.584 3.42667,6.84 -2.48933,15.15066 -14.50933,15.15066"
         style="fill:#8f3141;fill-opacity:1;fill-rule:nonzero;stroke:none;stroke-width:0.133333" />
      <path
         id="path384"
         d="m 302.86266,106.43201 c -8.03067,0 -16.15067,-3.02267 -16.248,-10.666665 -0.0933,-7.257333 8.61333,-10.217333 17.06267,-10.217333 1.67866,0 3.348,0.116 4.936,0.34 6.08,0.854666 10.23066,6.293333 10.23066,11.222666 0,-4.929333 -4.15066,-10.368 -10.23066,-11.222666 -0.34,-0.048 -0.68534,-0.09067 -1.032,-0.128 2.22666,3.641333 2.376,8.606666 -2.17867,11.54 -2.84933,1.836 -6.31067,2.673333 -9.78133,2.673333 -3.01067,0 -6.028,-0.629333 -8.66267,-1.782667 0.21333,0.774667 0.524,1.489334 0.92,2.145332 -0.005,-0.003 -0.0107,-0.005 -0.016,-0.008 2.588,4.312 8.82267,6.104 15.00267,6.104 1.27333,0 2.544,-0.076 3.78,-0.22133 -1.23734,0.14533 -2.50934,0.22133 -3.78267,0.22133 m -2.66667,-17.119998 c -3.66533,0 -8.48,3.202666 -6.436,6.041333 0.504,0.7 1.50267,1.001333 2.68134,1.001333 3.54933,0 8.72666,-2.738666 6.912,-5.602666 -0.64534,-1.017334 -1.82534,-1.44 -3.15734,-1.44"
         style="fill:#9a4050;fill-opacity:1;fill-rule:nonzero;stroke:none;stroke-width:0.133333" />
      <path
         id="path385"
         d="m 313.90799,104.32801 c 0.001,0 0.001,0 0.003,-0.001 0,0.001 -0.003,0.001 -0.003,0.001 m 0.108,-0.048 c 0.0293,-0.0147 0.06,-0.028 0.0893,-0.0413 -0.0307,0.0133 -0.06,0.0267 -0.0893,0.0413 m 0.15067,-0.0707 c 0.016,-0.007 0.0307,-0.0147 0.0467,-0.0213 -0.016,0.007 -0.0307,0.0147 -0.0467,0.0213 m 0.0987,-0.0467 c 0.012,-0.005 0.0227,-0.0107 0.0347,-0.0173 -0.012,0.007 -0.0227,0.012 -0.0347,0.0173 m 0.0587,-0.028 c 0.003,-10e-4 0.005,-0.003 0.008,-0.004 -0.003,10e-4 -0.005,0.003 -0.008,0.004 m 0.024,-0.012 c 0.004,-10e-4 0.005,-0.003 0.008,-0.004 -0.001,10e-4 -0.005,0.003 -0.008,0.004 m 0.0253,-0.0133 c 0.003,0 0.004,-10e-4 0.007,-0.003 -0.003,0.001 -0.004,0.003 -0.007,0.003 m 0.024,-0.0107 c 0.003,-10e-4 0.005,-0.003 0.008,-0.004 -0.003,0 -0.005,0.003 -0.008,0.004 m 0.0253,-0.0133 c 10e-4,0 0.004,-0.001 0.005,-0.003 -10e-4,0 -0.004,0.003 -0.005,0.003 m 0.0253,-0.012 c 10e-4,-0.001 0.003,-0.001 0.004,-0.003 -10e-4,10e-4 -10e-4,10e-4 -0.004,0.003 m 0.10267,-0.052 v 0 0 m 0.048,-0.0253 c 10e-4,-0.001 10e-4,-0.001 0.003,-0.001 -10e-4,0 -10e-4,0 -0.003,0.001 m -16.896,-1.82933 c -3.47733,0 -6.972,-0.56667 -9.824,-1.83067 -0.396,-0.655998 -0.70667,-1.370665 -0.92,-2.145332 2.63467,1.153334 5.652,1.782667 8.66267,1.782667 3.47066,0 6.932,-0.837333 9.78133,-2.673333 4.55467,-2.933334 4.40533,-7.898667 2.17867,-11.54 0.34666,0.03733 0.692,0.08 1.032,0.128 6.08,0.854666 10.23066,6.293333 10.23066,11.222666 0,0.601334 -0.0627,1.196 -0.18933,1.773334 0.988,-4.469334 -1.972,-9.946667 -7.00533,-12.138667 3.07866,4.438667 2.97066,10.488 -2.512,13.134667 -2.99467,1.446668 -7.20267,2.286668 -11.43467,2.286668 m 20.908,-3.093335 c 0,-0.0013 0,-0.0027 0,-0.004 0,0.0013 0,0.0027 0,0.004 m 0.004,-0.02 c 0.001,-0.0027 0.001,-0.0053 0.003,-0.008 -0.001,0.0027 -0.001,0.0053 -0.003,0.008 m 0.005,-0.02 c 0,-0.0027 0.001,-0.0067 0.003,-0.0093 -0.001,0.0027 -0.003,0.0067 -0.003,0.0093 m 0.004,-0.01867 c 0.001,-0.004 0.003,-0.008 0.003,-0.012 0,0.004 -10e-4,0.008 -0.003,0.012 m 0.005,-0.02 c 0.001,-0.004 0.001,-0.0093 0.003,-0.01333 -10e-4,0.004 -10e-4,0.0093 -0.003,0.01333 m 0.004,-0.02 c 10e-4,-0.004 0.003,-0.008 0.004,-0.01333 -0.001,0.004 -0.003,0.0093 -0.004,0.01333 m 0.004,-0.016 c 0.005,-0.02533 0.012,-0.04933 0.0173,-0.07467 -0.005,0.02533 -0.012,0.05067 -0.0173,0.07467"
         style="fill:#8f3141;fill-opacity:1;fill-rule:nonzero;stroke:none;stroke-width:0.133333" />
      <path
         id="path386"
         d="m 258.62266,124.80001 c -9.93467,0 -19.11067,-4.216 -18.40133,-12.72267 0.52,-6.24133 7.51733,-12.919995 16.81733,-12.919995 3.16267,0 6.58933,0.770667 10.12133,2.593335 v 0 0 c -0.53733,-0.276 -1.07066,-0.52134 -1.60133,-0.75067 0.56533,5.608 -3.33333,9.8 -7.11333,11.528 -2.65734,1.216 -6.532,2.248 -10.81867,2.248 -2.388,0 -4.90533,-0.32 -7.41067,-1.10933 0.064,0.95733 0.26267,1.852 0.57867,2.684 -0.004,-10e-4 -0.007,-0.003 -0.0107,-0.004 2.14267,5.648 9.74,8.452 17.84,8.452 0.932,0 1.87067,-0.0373 2.808,-0.11067 0.0187,-0.001 0.0373,-0.003 0.0547,-0.005 0.003,0 0.005,0 0.007,0 0.29066,-0.0227 0.58266,-0.0507 0.87333,-0.0813 -1.248,0.132 -2.50267,0.19867 -3.744,0.19867 m -2.868,-21.43467 c -3.26267,0 -7.344,2.52934 -6.55467,4.44667 0.46267,1.12133 1.7,1.57467 3.15334,1.57467 3.488,0 8.212,-2.61067 6.39333,-4.82934 -0.696,-0.848 -1.788,-1.192 -2.992,-1.192"
         style="fill:#9a4050;fill-opacity:1;fill-rule:nonzero;stroke:none;stroke-width:0.133333" />
      <path
         id="path387"
         d="m 261.43199,124.68801 c 0.0187,-0.001 0.0373,-0.003 0.0547,-0.005 -0.0173,0.003 -0.036,0.004 -0.0547,0.005 m 0.0613,-0.005 c 1.708,-0.13734 3.412,-0.39867 5.06666,-0.78267 -1.37333,0.31867 -2.77866,0.552 -4.19333,0.70133 -0.29067,0.0307 -0.58267,0.0587 -0.87333,0.0813 m 5.06666,-0.78267 c 12.14,-2.81333 14.46534,-14.704 1.04134,-21.91333 3.76666,6.336 0.12266,13.14133 -8.67334,15.17866 -2.584,0.59867 -5.28933,0.89867 -7.93866,0.89867 -3.652,0 -7.20134,-0.56933 -10.19467,-1.71333 -0.316,-0.832 -0.51467,-1.72667 -0.57867,-2.684 2.50534,0.78933 5.02267,1.10933 7.41067,1.10933 4.28667,0 8.16133,-1.032 10.81867,-2.248 3.78,-1.728 7.67866,-5.92 7.11333,-11.528 0.53067,0.22933 1.064,0.47467 1.60133,0.75067 v 0 c 13.91734,7.184 11.672,19.30533 -0.6,22.14933"
         style="fill:#8f3141;fill-opacity:1;fill-rule:nonzero;stroke:none;stroke-width:0.133333" />
      <path
         id="path388"
         d="m 258.62399,124.79868 c -8.1,0 -15.69733,-2.804 -17.84,-8.452 0.004,10e-4 0.007,0.003 0.0107,0.004 2.99333,1.144 6.54267,1.71333 10.19467,1.71333 2.64933,0 5.35466,-0.3 7.93866,-0.89867 8.796,-2.03733 12.44,-8.84266 8.67334,-15.17866 13.424,7.20933 11.09866,19.1 -1.04134,21.91333 v 0 0 c -1.65466,0.384 -3.35866,0.64533 -5.06666,0.78267 -10e-4,0 -0.004,0 -0.007,0 -0.0173,0.003 -0.036,0.004 -0.0547,0.005 -0.93733,0.0733 -1.876,0.11067 -2.808,0.11067"
         style="fill:#7b3546;fill-opacity:1;fill-rule:nonzero;stroke:none;stroke-width:0.133333" />
      <path
         id="path389"
         d="m 302.86533,106.43201 c -6.18,0 -12.41467,-1.792 -15.00267,-6.104 0.005,0.003 0.0107,0.005 0.016,0.008 2.852,1.264 6.34667,1.83067 9.824,1.83067 4.232,0 8.44,-0.84 11.43467,-2.286668 5.48266,-2.646667 5.59066,-8.696 2.512,-13.134667 5.03333,2.192 7.99333,7.669333 7.00533,12.138667 v 0 c -0.005,0.02533 -0.012,0.04933 -0.0173,0.07467 0,0.0013 0,0.0027 0,0.0027 -10e-4,0.0053 -0.003,0.0093 -0.004,0.01333 0,0.0027 0,0.0053 -10e-4,0.0067 -0.001,0.004 -0.001,0.0093 -0.003,0.01333 -0.001,0.0027 -0.001,0.0053 -0.003,0.008 0,0.004 -10e-4,0.008 -0.003,0.012 0,0.0027 -10e-4,0.0053 -10e-4,0.0093 -0.001,0.0027 -0.003,0.0067 -0.003,0.0093 -10e-4,0.0053 -0.003,0.008 -0.003,0.012 -10e-4,0.0027 -10e-4,0.0053 -0.003,0.008 -10e-4,0.0053 -0.003,0.01067 -0.004,0.016 0,0.0013 0,0.0027 0,0.004 -0.49067,1.979998 -1.772,3.747998 -4.00933,4.921338 -10e-4,0 -10e-4,0 -0.003,10e-4 -0.016,0.008 -0.032,0.016 -0.048,0.0253 v 0 c -0.032,0.016 -0.0653,0.0333 -0.0987,0.0493 -0.001,0.001 -0.003,0.001 -0.004,0.003 -0.005,0.003 -0.0133,0.007 -0.02,0.009 -0.001,0.001 -0.004,0.003 -0.005,0.003 -0.005,0.003 -0.012,0.007 -0.0173,0.009 -0.003,0.001 -0.005,0.003 -0.008,0.004 -0.005,0.003 -0.012,0.005 -0.0173,0.008 -0.003,0.001 -0.004,0.003 -0.007,0.003 -0.005,0.004 -0.012,0.007 -0.0173,0.009 -0.003,0.001 -0.004,0.003 -0.008,0.004 -0.005,0.003 -0.0107,0.005 -0.016,0.008 -0.003,0.001 -0.005,0.003 -0.008,0.004 -0.008,0.004 -0.016,0.008 -0.024,0.0107 v 0 c -0.012,0.007 -0.0227,0.012 -0.0347,0.0173 -0.0173,0.008 -0.036,0.0173 -0.052,0.0253 -0.016,0.007 -0.0307,0.0147 -0.0467,0.0213 -0.02,0.009 -0.0413,0.0187 -0.0613,0.0293 -0.0293,0.0133 -0.06,0.0267 -0.0893,0.0413 -0.0347,0.0147 -0.0693,0.032 -0.10533,0.0467 -0.001,0.001 -0.001,0.001 -0.003,0.001 -2.03333,0.916 -4.56533,1.56533 -7.26266,1.88267 -1.236,0.14533 -2.50667,0.22133 -3.78,0.22133"
         style="fill:#7b3546;fill-opacity:1;fill-rule:nonzero;stroke:none;stroke-width:0.133333" />
      <path
         id="path390"
         d="m 346.13599,119.47601 c -7.44267,0 -14.432,-3.45333 -17.75333,-7.74 0.004,0.003 0.007,0.003 0.009,0.004 3.02267,1.31867 6.51333,2.12533 10.11067,2.12533 1.056,0 2.12,-0.0707 3.184,-0.216 10.324,-1.42 16.08266,-8.06933 11.42933,-14.575995 0,-0.0013 -10e-4,-0.0027 -0.003,-0.004 1.332,0.513333 2.58,1.143995 3.70134,1.894665 0.003,0 0.004,0.001 0.005,0.003 0.008,0.005 0.0147,0.009 0.0227,0.0147 0.004,0.004 0.009,0.007 0.0147,0.0107 0.003,0.003 0.007,0.004 0.009,0.007 0.28666,0.19333 0.564,0.39466 0.83333,0.60266 3.24933,2.528 4.68667,5.216 4.68267,7.72134 -0.008,4.76 -5.21867,8.86 -13.06267,9.93866 v 0 c -0.12667,0.0173 -0.252,0.0333 -0.37867,0.048 -0.50666,0.0613 -1.01466,0.10534 -1.52,0.13334 -0.43066,0.0227 -0.85866,0.0347 -1.28533,0.0333"
         style="fill:#7b3546;fill-opacity:1;fill-rule:nonzero;stroke:none;stroke-width:0.133333" />
      <path
         id="path391"
         d="m 311.96533,138.87068 v 0 c -0.168,0 -0.33867,-0.001 -0.508,-0.005 v 0 0 c -0.0187,0 -0.0387,0 -0.0573,0 -0.005,0 -0.0107,-0.001 -0.016,-0.001 -0.004,0 -0.008,0 -0.012,0 -0.009,0 -0.02,0 -0.0293,0 -0.007,0 -0.0133,-0.001 -0.02,-0.001 -0.004,0 -0.007,0 -0.0107,0 -0.005,0 -0.009,0 -0.0147,0 -0.008,0 -0.0173,0 -0.0267,0 -0.007,-10e-4 -0.0147,-10e-4 -0.0213,-10e-4 -0.004,0 -0.009,0 -0.0133,0 -0.004,0 -0.007,0 -0.009,0 -0.004,0 -0.007,0 -0.0107,0 -0.008,-0.001 -0.0173,-0.001 -0.0253,-0.001 -0.012,0 -0.024,0 -0.036,-0.001 -0.0133,0 -0.0267,0 -0.0387,0 -0.009,-0.001 -0.02,-0.001 -0.0293,-0.001 -0.0107,0 -0.02,0 -0.0307,-0.001 -0.008,0 -0.016,0 -0.024,0 -0.0227,-0.001 -0.0453,-0.001 -0.068,-0.003 -0.003,0 -0.004,0 -0.007,0 -0.012,0 -0.0227,0 -0.0347,0 -0.007,-0.001 -0.0133,-0.001 -0.0187,-0.001 -0.012,0 -0.0227,0 -0.0347,-0.001 -0.003,0 -0.007,0 -0.008,0 -0.0253,0 -0.0507,-0.001 -0.0747,-0.003 -0.004,0 -0.008,0 -0.012,0 -0.0133,0 -0.0267,-0.001 -0.04,-0.001 -0.001,0 -0.004,0 -0.007,0 -0.0427,-0.001 -0.0867,-0.004 -0.12933,-0.005 v 0 c -2.568,-0.0947 -4.92667,-0.39333 -7.06667,-0.864 -0.003,0 -0.005,-0.001 -0.008,-0.001 -0.0333,-0.008 -0.0653,-0.0147 -0.0987,-0.0227 -0.004,0 -0.009,-10e-4 -0.0133,-0.003 -0.0107,-0.003 -0.02,-0.004 -0.0293,-0.007 -0.005,-0.001 -0.0107,-0.003 -0.016,-0.003 -0.0147,-0.004 -0.0293,-0.007 -0.044,-0.0107 -0.007,-0.001 -0.0147,-0.003 -0.0213,-0.005 -0.008,-0.001 -0.016,-0.003 -0.024,-0.005 -0.008,-0.001 -0.0147,-0.003 -0.0213,-0.004 -0.008,-0.003 -0.016,-0.004 -0.024,-0.005 -0.0133,-0.004 -0.0267,-0.007 -0.04,-0.009 -0.007,-0.001 -0.0133,-0.004 -0.0187,-0.005 -0.009,-0.001 -0.0187,-0.004 -0.0267,-0.005 -0.007,-0.001 -0.0133,-0.004 -0.0213,-0.005 -0.009,-0.003 -0.0187,-0.004 -0.0293,-0.007 -0.009,-0.003 -0.0173,-0.004 -0.0267,-0.007 -0.009,-0.001 -0.02,-0.004 -0.0307,-0.007 -0.005,-0.001 -0.0107,-0.003 -0.0173,-0.004 -0.0107,-0.003 -0.0227,-0.005 -0.0333,-0.008 -0.004,-0.001 -0.008,-0.003 -0.012,-0.003 -0.0147,-0.004 -0.0307,-0.008 -0.0467,-0.012 -0.003,0 -0.004,0 -0.007,-10e-4 -0.0133,-0.003 -0.028,-0.007 -0.0427,-0.009 -0.003,-0.001 -0.004,-0.001 -0.007,-0.003 -0.032,-0.008 -0.0653,-0.016 -0.0973,-0.024 -0.003,0 -0.004,0 -0.005,0 -6.196,-1.51733 -10.44667,-4.508 -12.45733,-8.14266 0.003,0.001 0.005,0.003 0.009,0.005 3.71067,1.98667 8.708,3.24667 14.848,3.36533 0.172,0.003 0.34,0.004 0.508,0.004 12.02,0 17.936,-8.31066 14.50933,-15.15066 0,0 0,0 0,0 0.54934,0.296 1.08134,0.60533 1.59467,0.92933 0.012,0.007 0.024,0.0147 0.036,0.0213 10.75467,6.81467 5.312,20.03467 -9.84667,20.03734 -0.003,0 -0.005,0 -0.007,0 v 0"
         style="fill:#7b3546;fill-opacity:1;fill-rule:nonzero;stroke:none;stroke-width:0.133333" />
      <path
         id="path392"
         d="m 296.88266,125.74934 c -0.924,0 -1.68667,-0.28 -2.112,-0.95066 -1.44267,-2.27067 4.556,-6.16534 7.95467,-6.16534 0.864,0 1.55866,0.25067 1.92266,0.84267 1.41734,2.312 -4.30133,6.27333 -7.76533,6.27333"
         style="fill:#a95464;fill-opacity:1;fill-rule:nonzero;stroke:none;stroke-width:0.133333" />
      <path
         id="path393"
         d="m 296.44133,96.354678 c -1.17867,0 -2.17734,-0.301333 -2.68134,-1.001333 -2.044,-2.838667 2.77067,-6.041333 6.436,-6.041333 1.332,0 2.512,0.422666 3.15734,1.44 1.81466,2.864 -3.36267,5.602666 -6.912,5.602666"
         style="fill:#a95464;fill-opacity:1;fill-rule:nonzero;stroke:none;stroke-width:0.133333" />
      <path
         id="path394"
         d="m 335.21599,108.50801 c -1.396,0 -2.57733,-0.57733 -3.06933,-2.076 -0.90133,-2.74667 3.536,-4.48667 6.87866,-4.48667 1.59334,0 2.93734,0.39467 3.336,1.264 0.87334,1.90667 -3.764,5.29867 -7.14533,5.29867"
         style="fill:#a95464;fill-opacity:1;fill-rule:nonzero;stroke:none;stroke-width:0.133333" />
      <path
         id="path395"
         d="m 252.35333,109.38668 c -1.45334,0 -2.69067,-0.45334 -3.15334,-1.57467 -0.78933,-1.91733 3.292,-4.44667 6.55467,-4.44667 1.204,0 2.296,0.344 2.992,1.192 1.81867,2.21867 -2.90533,4.82934 -6.39333,4.82934"
         style="fill:#a95464;fill-opacity:1;fill-rule:nonzero;stroke:none;stroke-width:0.133333" />
    </g>
  </g>
</svg>
