<?xml version="1.0" encoding="UTF-8" standalone="no"?>
<!-- Created with Inkscape (http://www.inkscape.org/) -->

<svg
   width="33.932693mm"
   height="11.843723mm"
   viewBox="0 0 33.932693 11.843723"
   version="1.1"
   id="svg1"
   inkscape:version="1.4.2 (ebf0e94, 2025-05-08)"
   sodipodi:docname="type5.svg"
   xmlns:inkscape="http://www.inkscape.org/namespaces/inkscape"
   xmlns:sodipodi="http://sodipodi.sourceforge.net/DTD/sodipodi-0.dtd"
   xmlns="http://www.w3.org/2000/svg"
   xmlns:svg="http://www.w3.org/2000/svg">
  <sodipodi:namedview
     id="namedview1"
     pagecolor="#ffffff"
     bordercolor="#000000"
     borderopacity="0.25"
     inkscape:showpageshadow="2"
     inkscape:pageopacity="0.0"
     inkscape:pagecheckerboard="0"
     inkscape:deskcolor="#d1d1d1"
     inkscape:document-units="mm"
     inkscape:zoom="0.71535494"
     inkscape:cx="684.97465"
     inkscape:cy="-143.28551"
     inkscape:window-width="1920"
     inkscape:window-height="1011"
     inkscape:window-x="0"
     inkscape:window-y="0"
     inkscape:window-maximized="1"
     inkscape:current-layer="layer1" />
  <defs
     id="defs1" />
  <g
     inkscape:label="Layer 1"
     inkscape:groupmode="layer"
     id="layer1"
     transform="translate(76.199998,-186.53125)">
    <g
       id="g887"
       transform="matrix(0.26458333,0,0,0.26458333,-139.74828,112.0033)">
      <path
         id="path837"
         d="m 264.75466,303.98801 c -3.032,-0.212 -6.08533,-0.10934 -9.09467,0.30786 -0.73866,0.10147 -1.48133,0.22294 -2.22533,0.1724 -1.02667,-0.0724 -2,-0.46826 -3.008,-0.68026 -2.296,-0.48387 -4.78533,0.036 -6.69333,1.4 -1.90934,1.36253 -3.20934,3.54946 -3.49734,5.87706 -0.208,1.688 0.17334,3.5604 1.44534,4.69067 1.09466,0.97493 2.63066,1.23747 4.08133,1.46147 2.91467,0.45106 5.83067,0.9 8.76133,1.23226 2.20134,0.24787 4.448,0.4292 6.61867,-0.0188 3.532,-0.728 6.66133,-3.19893 8.188,-6.4656 1.05867,-2.26346 1.17333,-5.35146 -0.79733,-6.8848 -1.052,-0.8188 -2.45067,-0.99906 -3.77867,-1.09226"
         style="fill:#ab4140;fill-opacity:1;fill-rule:nonzero;stroke:none;stroke-width:0.133333" />
      <path
         id="path838"
         d="m 266.16666,301.11721 c 1.784,1.52293 4.444,1.00933 6.788,1.04426 2.03867,0.0307 4.03333,0.54267 6.03733,0.9156 2.00534,0.37347 4.09334,0.6068 6.064,0.0869 1.972,-0.52134 3.81467,-1.9348 4.33467,-3.9052 0.36933,-1.39374 0.048,-2.8828 -0.48933,-4.22027 -0.31867,-0.7948 -0.72134,-1.57027 -1.30134,-2.20253 -1.20133,-1.308 -3.04133,-1.85867 -4.81466,-1.94 -1.77334,-0.0827 -3.536,0.24533 -5.304,0.416 -2.14534,0.208 -4.32134,0.184 -6.42934,0.63733 -2.10666,0.45333 -4.20666,1.46787 -5.38533,3.272 -1.18,1.80413 -1.13867,4.49587 0.5,5.89587"
         style="fill:#ab4140;fill-opacity:1;fill-rule:nonzero;stroke:none;stroke-width:0.133333" />
      <path
         id="path839"
         d="m 332.21733,293.74787 c 0.228,-3.15453 0.34266,-6.67453 -1.72934,-9.06386 -1.96666,-2.26934 -5.26266,-2.748 -8.26133,-2.908 -5.29067,-0.28267 -10.72133,-0.02 -15.65467,1.90933 -4.93333,1.928 -9.33866,5.732 -10.97733,10.76933 -0.75067,2.30934 -0.62667,5.35894 1.49467,6.54267 0.61733,0.34533 1.32933,0.4772 2.03066,0.56667 2.168,0.27346 4.36267,0.16 6.54667,0.1068 4.192,-0.10254 8.38933,0.0131 12.56933,0.348 2.42934,0.1932 4.892,0.45986 7.28534,0.003 2.39333,-0.4588 4.76,-1.776 5.82666,-3.96827 0.64534,-1.32386 0.76267,-2.83586 0.86934,-4.3052"
         style="fill:#ab4140;fill-opacity:1;fill-rule:nonzero;stroke:none;stroke-width:0.133333" />
      <path
         id="path840"
         d="m 278.06266,313.49214 c -1.42533,1.81573 -1.75733,4.26093 -1.72933,6.57187 0.0133,1.06146 0.108,2.17613 0.688,3.06413 0.75333,1.15213 2.152,1.67867 3.48,2.03853 5.33333,1.44534 10.94666,1.33334 16.47066,1.2104 1.612,-0.0359 3.29334,-0.088 4.71334,-0.85466 1.67466,-0.9052 2.72533,-2.69427 3.17333,-4.54374 0.44933,-1.848 0.37467,-3.78026 0.296,-5.68133 -0.064,-1.57187 -0.192,-3.3 -1.29333,-4.42387 -1.15734,-1.18026 -2.99334,-1.2948 -4.64667,-1.30413 -4.02133,-0.0256 -8.04533,0.1228 -12.05333,0.44267 -3.336,0.26666 -7.03334,0.84786 -9.09867,3.48013"
         style="fill:#ab4140;fill-opacity:1;fill-rule:nonzero;stroke:none;stroke-width:0.133333" />
      <path
         id="path841"
         d="m 317.15733,314.95987 c -0.69334,1.67867 -0.62934,3.65467 0.17333,5.28387 0.48533,0.98547 1.26667,1.86987 2.29733,2.2484 0.656,0.2412 1.37067,0.2636 2.06934,0.28493 6.30533,0.19374 12.61066,0.3844 18.91599,0.576 1.88934,0.0573 3.82934,0.1084 5.61467,-0.51293 2.54667,-0.88547 4.55733,-3.212 4.976,-5.87507 0.41733,-2.66346 -0.824,-5.5396 -3.09867,-6.9864 -0.976,-0.6188 -2.09066,-0.97706 -3.192,-1.3292 -3.57733,-1.14266 -7.25333,-2.29893 -11.004,-2.0948 -3.20533,0.176 -6.26533,1.33854 -9.23199,2.56147 -3.01734,1.24267 -6.27334,2.8276 -7.52,5.84373"
         style="fill:#ab4140;fill-opacity:1;fill-rule:nonzero;stroke:none;stroke-width:0.133333" />
      <path
         id="path842"
         d="m 358.08266,303.64267 c 1.80666,0.0557 3.64133,0.10947 5.39733,-0.32386 1.756,-0.43334 3.45467,-1.424 4.33467,-3.00427 1.50533,-2.6984 0.0867,-6.30253 -2.408,-8.1252 -2.49467,-1.824 -5.736,-2.244 -8.82534,-2.312 -3.29066,-0.072 -6.588,0.18933 -9.82666,0.77733 -1.25467,0.228 -2.528,0.51734 -3.604,1.20134 -1.93467,1.228 -2.94267,3.70906 -2.53734,5.96533 0.40667,2.25733 2.14267,4.19067 4.30267,4.95987 1.36533,0.48813 2.84267,0.5376 4.292,0.5828 2.95867,0.0933 5.916,0.18546 8.87467,0.27866"
         style="fill:#ab4140;fill-opacity:1;fill-rule:nonzero;stroke:none;stroke-width:0.133333" />
      <path
         id="path843"
         d="m 268.53199,305.08027 c -1.05066,-0.81773 -2.44933,-0.99906 -3.77733,-1.09226 -0.99333,-0.0708 -1.98933,-0.0921 -2.98533,-0.0948 0.16266,2.148 -0.23334,5.26666 -3.44267,6.82813 -3.872,1.88387 -12.07067,1.1412 -18.13733,1.1708 -0.009,1.44533 0.424,2.91467 1.492,3.8636 1.09466,0.97493 2.63066,1.23747 4.08,1.46147 2.916,0.45106 5.832,0.9 8.76266,1.23226 2.20134,0.24787 4.448,0.4292 6.61867,-0.0188 3.532,-0.728 6.66133,-3.19893 8.188,-6.4656 1.05867,-2.26346 1.17467,-5.35146 -0.79867,-6.8848"
         style="fill:#9e302f;fill-opacity:1;fill-rule:nonzero;stroke:none;stroke-width:0.133333" />
      <path
         id="path844"
         d="m 288.90133,295.03854 c -0.31867,-0.7948 -0.72134,-1.57027 -1.30134,-2.20253 -1.20133,-1.308 -3.04133,-1.85867 -4.81466,-1.94 -0.33067,-0.016 -0.66267,-0.005 -0.99467,0.005 0.29067,0.988 0.41467,2.21467 0.052,3.60027 -0.82,3.13853 -9.61733,3.26506 -16.92,4.24373 0.14133,0.91347 0.53467,1.76507 1.244,2.37187 1.784,1.52293 4.444,1.00933 6.788,1.04426 2.03867,0.0307 4.03333,0.54267 6.03867,0.9156 2.004,0.37347 4.092,0.6068 6.06266,0.0869 1.972,-0.52134 3.81467,-1.9348 4.33467,-3.9052 0.36933,-1.39374 0.048,-2.8828 -0.48933,-4.22027"
         style="fill:#9e302f;fill-opacity:1;fill-rule:nonzero;stroke:none;stroke-width:0.133333" />
      <path
         id="path845"
         d="m 330.48799,284.68401 c -1.92533,-2.22134 -5.12266,-2.724 -8.07066,-2.89467 1.01066,3.336 0.432,7.816 -1.9,10.52 -3.21334,3.72813 -15.64,0.832 -25,2.4376 -0.65067,2.2692 -0.46267,5.11453 1.572,6.2504 0.61733,0.34533 1.32933,0.4772 2.03066,0.56667 2.168,0.27346 4.36267,0.16 6.54667,0.1068 4.192,-0.10254 8.38933,0.0131 12.56933,0.348 2.42934,0.1932 4.892,0.45986 7.28534,0.003 2.39333,-0.4588 4.76,-1.776 5.82666,-3.96827 0.64534,-1.32386 0.76267,-2.83586 0.86934,-4.3052 0.228,-3.15453 0.34266,-6.67453 -1.72934,-9.06386"
         style="fill:#9e302f;fill-opacity:1;fill-rule:nonzero;stroke:none;stroke-width:0.133333" />
      <path
         id="path846"
         d="m 305.15466,315.29734 c -0.064,-1.57187 -0.192,-3.3 -1.29333,-4.42387 -1.15734,-1.18026 -2.99334,-1.2948 -4.64667,-1.30413 -0.556,-0.004 -1.112,0.004 -1.66667,0.008 1.70267,10.5484 -13.40266,10.2136 -21.188,9.3084 -0.02,0.3948 -0.0307,0.788 -0.0267,1.17854 0.0133,1.06146 0.108,2.17613 0.688,3.06413 0.752,1.15213 2.152,1.67867 3.48,2.03853 5.33333,1.44534 10.94666,1.33334 16.47066,1.2104 1.612,-0.0344 3.29334,-0.088 4.71334,-0.85466 1.67466,-0.9052 2.72533,-2.69427 3.17333,-4.54374 0.44933,-1.848 0.37467,-3.78026 0.296,-5.68133"
         style="fill:#9e302f;fill-opacity:1;fill-rule:nonzero;stroke:none;stroke-width:0.133333" />
      <path
         id="path847"
         d="m 348.10532,309.97867 c -0.976,-0.6188 -2.09066,-0.97706 -3.192,-1.3292 -1.30533,-0.41773 -2.62533,-0.83493 -3.956,-1.188 0.80667,2.0188 1.24134,4.60254 -0.432,6.65827 -2.95466,3.62973 -13.54533,0.73907 -23.77066,2.3376 -0.18667,1.28387 0.003,2.62293 0.576,3.7864 0.48533,0.98547 1.26667,1.86987 2.29733,2.2484 0.656,0.2412 1.37067,0.2636 2.06934,0.28493 6.30533,0.19374 12.61066,0.3844 18.91599,0.576 1.88934,0.0573 3.82934,0.1084 5.61467,-0.51293 2.54667,-0.88547 4.55733,-3.212 4.976,-5.87507 0.41733,-2.66346 -0.824,-5.5396 -3.09867,-6.9864"
         style="fill:#9e302f;fill-opacity:1;fill-rule:nonzero;stroke:none;stroke-width:0.133333" />
      <path
         id="path848"
         d="m 365.40666,292.18934 c -1.98667,-1.452 -4.44534,-2.008 -6.924,-2.21067 0.836,1.54134 1.37866,3.26 0.92133,4.7744 -1.10933,3.66307 -8.10933,1.76667 -18.74,3.26414 0.46933,2.1708 2.156,4.01613 4.252,4.764 1.36533,0.48813 2.84267,0.5376 4.292,0.5828 2.95867,0.0933 5.916,0.18546 8.87467,0.27866 1.80666,0.0557 3.64133,0.10947 5.39733,-0.32386 1.75733,-0.43334 3.45467,-1.424 4.33467,-3.00427 1.50533,-2.6984 0.0867,-6.30253 -2.408,-8.1252"
         style="fill:#9e302f;fill-opacity:1;fill-rule:nonzero;stroke:none;stroke-width:0.133333" />
      <path
         id="path849"
         d="m 268.53333,305.08027 c -0.636,-0.4948 -1.39867,-0.75626 -2.196,-0.90573 0.13333,1.30147 -0.15867,2.72027 -0.716,3.91093 -1.52667,3.2676 -4.65467,5.73854 -8.188,6.46667 -2.16934,0.44787 -4.416,0.26667 -6.61867,0.0187 -2.93067,-0.33227 -5.84667,-0.7828 -8.76133,-1.23227 -0.59334,-0.0907 -1.2,-0.19067 -1.78534,-0.3412 0.172,1.05893 0.61867,2.05213 1.41334,2.7584 1.09466,0.97493 2.63066,1.23747 4.08133,1.46147 2.91467,0.45106 5.83067,0.9 8.76133,1.23226 2.20134,0.24787 4.448,0.4292 6.61867,-0.0188 3.532,-0.728 6.66133,-3.19893 8.188,-6.4656 1.05867,-2.26346 1.17333,-5.35146 -0.79733,-6.8848"
         style="fill:#873434;fill-opacity:1;fill-rule:nonzero;stroke:none;stroke-width:0.133333" />
      <path
         id="path850"
         d="m 288.90133,295.03854 c -0.31867,-0.7948 -0.72134,-1.57027 -1.30134,-2.20253 -0.63333,-0.69067 -1.44533,-1.16667 -2.33066,-1.47734 0.48933,1.284 0.764,2.696 0.41333,4.0216 -0.52133,1.97027 -2.364,3.38374 -4.33467,3.9052 -1.972,0.51974 -4.06,0.2864 -6.064,-0.0871 -2.00533,-0.37294 -4,-0.8864 -6.03733,-0.9156 -1.43733,-0.0229 -2.99067,0.16093 -4.388,-0.0427 0.052,1.10253 0.46933,2.15987 1.308,2.87707 1.784,1.52293 4.444,1.00933 6.788,1.04426 2.03867,0.0307 4.03333,0.54267 6.03733,0.9156 2.00534,0.37347 4.09334,0.6068 6.064,0.0869 1.972,-0.52134 3.81467,-1.9348 4.33467,-3.9052 0.36933,-1.39374 0.048,-2.8828 -0.48933,-4.22027"
         style="fill:#873434;fill-opacity:1;fill-rule:nonzero;stroke:none;stroke-width:0.133333" />
      <path
         id="path851"
         d="m 330.48799,284.68401 c -0.68933,-0.796 -1.544,-1.36934 -2.49066,-1.78667 0.784,2.124 0.67866,4.64667 0.51066,6.97067 -0.10666,1.47066 -0.224,2.98266 -0.86933,4.308 -1.06667,2.18906 -3.43333,3.50786 -5.82667,3.9652 -2.39333,0.4588 -4.856,0.19213 -7.28533,-0.003 -4.18,-0.33333 -8.37733,-0.44947 -12.568,-0.3464 -2.184,0.0532 -4.37867,0.16667 -6.54667,-0.10667 l -0.208,-0.0281 c 0.12267,1.39573 0.68134,2.66813 1.88534,3.34 0.61733,0.34533 1.32933,0.4772 2.03066,0.56667 2.168,0.27346 4.36267,0.16 6.54667,0.1068 4.192,-0.10254 8.38933,0.0131 12.56933,0.348 2.42934,0.1932 4.892,0.45986 7.28534,0.003 2.39333,-0.4588 4.76,-1.776 5.82666,-3.96827 0.64534,-1.32386 0.76267,-2.83586 0.86934,-4.3052 0.228,-3.15453 0.34266,-6.67453 -1.72934,-9.06386"
         style="fill:#873434;fill-opacity:1;fill-rule:nonzero;stroke:none;stroke-width:0.133333" />
      <path
         id="path852"
         d="m 305.15466,315.29734 c -0.064,-1.57187 -0.192,-3.3 -1.29333,-4.42387 -0.676,-0.6896 -1.584,-1.0136 -2.552,-1.16826 0.0813,0.56826 0.11333,1.15053 0.136,1.712 0.0787,1.9016 0.15333,3.83333 -0.29467,5.6812 -0.44933,1.85106 -1.5,3.64013 -3.17467,4.54426 -1.41866,0.76667 -3.10133,0.82134 -4.71333,0.85574 -5.524,0.12293 -11.13733,0.23493 -16.46933,-1.2104 -0.132,-0.0359 -0.26534,-0.0744 -0.39867,-0.11347 0.0773,0.6948 0.24667,1.3724 0.62667,1.9536 0.75333,1.15213 2.152,1.67867 3.48,2.03853 5.33333,1.44534 10.94666,1.33334 16.47066,1.2104 1.612,-0.0359 3.29334,-0.088 4.71334,-0.85466 1.67466,-0.9052 2.72533,-2.69427 3.17333,-4.54374 0.44933,-1.848 0.37467,-3.78026 0.296,-5.68133"
         style="fill:#873434;fill-opacity:1;fill-rule:nonzero;stroke:none;stroke-width:0.133333" />
      <path
         id="path853"
         d="m 348.10532,309.97867 c -0.32933,-0.20933 -0.676,-0.38653 -1.032,-0.54693 0.45067,1.15627 0.61467,2.42707 0.42134,3.65373 -0.41734,2.664 -2.42934,4.99054 -4.976,5.876 -1.78534,0.62134 -3.724,0.5692 -5.61334,0.512 -6.30533,-0.19066 -12.61066,-0.3828 -18.91599,-0.57346 -0.384,-0.012 -0.772,-0.0265 -1.15334,-0.0745 0.10934,0.48907 0.27334,0.96774 0.49467,1.41827 0.48533,0.98547 1.26667,1.86987 2.29733,2.24693 0.656,0.24267 1.37067,0.26507 2.06934,0.2864 6.30533,0.19374 12.61066,0.3844 18.91599,0.576 1.88934,0.0573 3.82934,0.1084 5.61467,-0.51293 2.54667,-0.88547 4.55733,-3.212 4.976,-5.87507 0.41733,-2.66346 -0.824,-5.5396 -3.09867,-6.9864"
         style="fill:#873434;fill-opacity:1;fill-rule:nonzero;stroke:none;stroke-width:0.133333" />
      <path
         id="path854"
         d="m 365.40666,292.18934 c -0.39467,-0.28933 -0.81067,-0.54 -1.24,-0.76267 0.704,1.632 0.79866,3.4692 -0.06,5.00934 -0.88134,1.58013 -2.57867,2.57186 -4.33467,3.00413 -1.756,0.43333 -3.59067,0.3796 -5.39867,0.3224 -2.95733,-0.0917 -5.916,-0.18387 -8.87333,-0.27707 -1.45067,-0.0453 -2.928,-0.0959 -4.29333,-0.5828 l -0.33467,-0.13186 c 0.65733,1.83706 2.19467,3.3516 4.044,4.0104 1.36533,0.48813 2.84267,0.5376 4.292,0.5828 2.95867,0.0933 5.916,0.18546 8.87467,0.27866 1.80666,0.0557 3.64133,0.10947 5.39733,-0.32386 1.756,-0.43334 3.45467,-1.424 4.33467,-3.00427 1.50533,-2.6984 0.0867,-6.30253 -2.408,-8.1252"
         style="fill:#873434;fill-opacity:1;fill-rule:nonzero;stroke:none;stroke-width:0.133333" />
      <path
         id="path855"
         d="m 244.99733,307.30681 -0.252,0.1796 c -1.32,1.024 -2.17334,3.1016 -0.344,4.17346 1.49466,0.87507 4.14266,0.62134 5.56266,-0.252 1.612,-0.99066 2.10267,-3.1428 0.84267,-4.58386 -1.28533,-1.47347 -4.47467,-0.26147 -5.80933,0.4828"
         style="fill:#bd5858;fill-opacity:1;fill-rule:nonzero;stroke:none;stroke-width:0.133333" />
      <path
         id="path856"
         d="m 274.39199,292.86934 c -1.45866,-0.16933 -3.428,0.32667 -4.07466,1.8 -0.69734,1.5828 0.38133,2.78373 1.856,3.03067 0.116,0.0317 0.23866,0.0547 0.37733,0.0531 1.59733,-0.008 3.36267,-0.2984 4.316,-1.70613 0.41333,-0.61093 0.46267,-1.67347 -0.0787,-2.2136 -0.59466,-0.59467 -1.588,-0.87067 -2.396,-0.964"
         style="fill:#bd5858;fill-opacity:1;fill-rule:nonzero;stroke:none;stroke-width:0.133333" />
      <path
         id="path857"
         d="m 307.34799,286.55067 c -1.736,0.772 -3.65066,2.77067 -2.216,4.69467 l 0.14267,0.15733 c 0.0853,0.11067 0.18667,0.21734 0.32133,0.30667 1.58534,1.07067 3.86667,0.53867 5.43734,-0.26533 1.296,-0.66267 3.86133,-3.344 2.332,-4.872 -1.79334,-1.79467 -4.03334,-0.90267 -6.01734,-0.0213"
         style="fill:#bd5858;fill-opacity:1;fill-rule:nonzero;stroke:none;stroke-width:0.133333" />
      <path
         id="path858"
         d="m 284.82933,312.36667 -0.096,-0.007 -0.248,-0.0401 c -2.084,-0.12387 -4.156,0.94853 -5.192,2.78547 -0.44267,0.7828 -0.32667,1.73333 0.16933,2.45106 0.648,0.93694 1.764,1.14214 2.82933,1.18747 1.94267,0.0776 4.20667,-0.50773 5.084,-2.4172 0.88667,-1.92813 -0.69066,-3.64373 -2.54666,-3.95987"
         style="fill:#bd5858;fill-opacity:1;fill-rule:nonzero;stroke:none;stroke-width:0.133333" />
      <path
         id="path859"
         d="m 320.98266,315.57707 0.12,0.13494 c 0.0893,0.11973 0.19867,0.23333 0.344,0.3292 1.57067,1.0348 3.96667,0.3468 5.51067,-0.38814 1.38533,-0.65986 3.02666,-2.73333 1.59466,-4.16506 -2.20533,-2.2052 -10.00266,0.7104 -7.56933,4.08906"
         style="fill:#bd5858;fill-opacity:1;fill-rule:nonzero;stroke:none;stroke-width:0.133333" />
      <path
         id="path860"
         d="m 349.49199,292.35067 c -1.44533,-0.43066 -2.988,-0.18 -4.22533,0.624 -0.14,0.064 -0.27734,0.15467 -0.40534,0.28667 l -0.24266,0.30373 c -0.89467,1.1964 -0.83734,2.93334 0.76266,3.54854 1.43467,0.55146 3.77067,0.1676 4.9,-0.89067 1.32,-1.23747 1.044,-3.32693 -0.78933,-3.87227"
         style="fill:#bd5858;fill-opacity:1;fill-rule:nonzero;stroke:none;stroke-width:0.133333" />
    </g>
  </g>
</svg>
