<?xml version="1.0" encoding="UTF-8" standalone="no"?>
<!-- Created with Inkscape (http://www.inkscape.org/) -->

<svg
   width="33.990181mm"
   height="9.5990667mm"
   viewBox="0 0 33.990181 9.5990667"
   version="1.1"
   id="svg1"
   inkscape:version="1.4.2 (ebf0e94, 2025-05-08)"
   sodipodi:docname="type6.svg"
   xmlns:inkscape="http://www.inkscape.org/namespaces/inkscape"
   xmlns:sodipodi="http://sodipodi.sourceforge.net/DTD/sodipodi-0.dtd"
   xmlns="http://www.w3.org/2000/svg"
   xmlns:svg="http://www.w3.org/2000/svg">
  <sodipodi:namedview
     id="namedview1"
     pagecolor="#ffffff"
     bordercolor="#000000"
     borderopacity="0.25"
     inkscape:showpageshadow="2"
     inkscape:pageopacity="0.0"
     inkscape:pagecheckerboard="0"
     inkscape:deskcolor="#d1d1d1"
     inkscape:document-units="mm"
     inkscape:zoom="0.71535494"
     inkscape:cx="69.895373"
     inkscape:cy="-140.4897"
     inkscape:window-width="1920"
     inkscape:window-height="1011"
     inkscape:window-x="0"
     inkscape:window-y="0"
     inkscape:window-maximized="1"
     inkscape:current-layer="layer1" />
  <defs
     id="defs1" />
  <g
     inkscape:label="Layer 1"
     inkscape:groupmode="layer"
     id="layer1"
     transform="translate(-86.518753,-185.73749)">
    <g
       id="g888"
       transform="matrix(0.26458333,0,0,0.26458333,-28.11038,110.47294)">
      <path
         id="path861"
         d="m 491.97065,292.68401 c 6.764,-3.92 13.07467,-6.136 19.364,-5.54267 6.29067,0.59467 4.748,-3.288 15.308,-2.59333 10.56134,0.696 8.54534,2.468 14.24134,7.1 5.69733,4.63226 9.612,3.18533 14.95333,7.4692 5.34,4.2828 8.30533,6.99893 3.32133,7.36146 -4.98266,0.36254 -8.424,0.83747 -12.22266,2.3812 -3.79734,1.5428 -5.81467,-0.94946 -12.34267,0 -6.52533,0.948 -28.48,-3.72386 -33.34533,-6.37186 -4.86667,-2.64787 -9.27734,-9.804 -9.27734,-9.804"
         style="fill:#ab4140;fill-opacity:1;fill-rule:nonzero;stroke:none;stroke-width:0.133333" />
      <path
         id="path862"
         d="m 433.24932,311.23334 c -0.19333,-6.17867 4.86534,-7.5948 13.528,-9.96933 8.66267,-2.37334 11.66934,-3.79574 15.20934,-7.3572 3.54133,-3.56014 8.16933,-3.44147 12.08533,-2.01747 3.916,1.424 5.45866,0.356 11.512,-0.11867 6.052,-0.47466 7.356,1.77987 11.50933,3.6788 4.15467,1.8984 10.088,6.17027 14.716,6.29067 4.628,0.11867 8.54533,0.94787 13.292,2.49053 4.74667,1.5428 13.05333,3.20427 13.528,6.52667 0.47467,3.32387 -3.56,6.52813 -15.78267,7.83173 -12.224,1.3068 -19.07466,-2.25306 -27.93066,0.5948 -8.85867,2.8468 -16.572,1.3052 -25.35334,-0.712 -8.78133,-2.0172 -19.58133,-0.71306 -26.81999,0 -7.23867,0.712 -9.376,-3.44266 -9.49334,-7.23853"
         style="fill:#bd5858;fill-opacity:1;fill-rule:nonzero;stroke:none;stroke-width:0.133333" />
      <path
         id="path863"
         d="m 525.10132,304.23067 c -4.74667,-1.54266 -8.664,-2.37186 -13.292,-2.49053 -0.612,-0.0161 -1.24667,-0.1084 -1.896,-0.25467 6.45333,4.788 0.504,9.62907 -14.50933,10.20774 -17.79334,0.68386 -27.20267,-5.476 -41.40267,-2.3172 -11.77733,2.62133 -18.22533,1.0136 -19.032,-3.1744 -1.18266,1.25053 -1.78933,2.83586 -1.72,5.03173 0.11734,3.79587 2.25467,7.95053 9.49334,7.23853 7.23866,-0.71306 18.03866,-2.0172 26.81999,0 8.78134,2.0172 16.49467,3.5588 25.35334,0.712 8.856,-2.84786 15.70666,0.712 27.93066,-0.5948 12.22267,-1.3036 16.25734,-4.50786 15.78267,-7.83173 -0.47467,-3.3224 -8.78133,-4.98387 -13.528,-6.52667"
         style="fill:#ab4140;fill-opacity:1;fill-rule:nonzero;stroke:none;stroke-width:0.133333" />
      <path
         id="path864"
         d="m 555.83732,299.11721 c -2.79067,-2.23694 -5.192,-2.912 -7.66,-3.7052 5.908,4.5172 6.532,7.45306 0.48,9.5016 -6.05333,2.04786 -9.61333,-1.42454 -14.77467,0 -5.16266,1.42386 -8.36666,0.93853 -8.36666,0.93853 0,0 0.42133,1.32653 1.83866,2.788 3.03334,0.34267 5.616,0.45467 7.23867,0.21973 6.528,-0.94946 8.54533,1.5428 12.34267,0 3.79866,-1.54373 7.24,-2.01866 12.22266,-2.3812 4.984,-0.36253 2.01867,-3.07866 -3.32133,-7.36146"
         style="fill:#873434;fill-opacity:1;fill-rule:nonzero;stroke:none;stroke-width:0.133333" />
      <path
         id="path865"
         d="m 538.62932,310.75734 c -0.47467,-3.3224 -8.78133,-4.98387 -13.528,-6.52667 -2.30667,-0.74946 -4.41867,-1.32906 -6.51067,-1.74266 10.104,8.10413 -0.492,10.64373 -15.40666,12.65986 -14.916,2.0188 -31.84134,0.35734 -45.13333,-0.94946 -13.292,-1.3036 -18.632,1.89893 -24.436,-0.59574 0.864,2.9452 3.396,5.43227 9.128,4.8692 7.23866,-0.71306 18.03866,-2.0172 26.81999,0 8.78134,2.0172 16.49467,3.5588 25.35334,0.712 8.856,-2.84786 15.70666,0.712 27.93066,-0.5948 12.22267,-1.3036 16.25734,-4.50786 15.78267,-7.83173"
         style="fill:#9e302f;fill-opacity:1;fill-rule:nonzero;stroke:none;stroke-width:0.133333" />
      <path
         id="path866"
         d="m 447.77332,310.91721 c 1.16267,-1.36774 2.42,-2.4 4.00267,-3.27454 2.78533,-1.53746 5.06133,-0.7052 7.69467,0.50947 2.81466,1.29733 5.792,1.65573 8.73866,0.68387 1.252,-0.4136 0.716,-2.39587 -0.54533,-1.97867 -4.72267,1.5572 -7.86533,-1.79067 -12.26,-2.23853 -3.41867,-0.34947 -7.03867,2.44373 -9.08267,4.84786 -0.852,1.00267 0.59334,2.46147 1.452,1.45054"
         style="fill:#873434;fill-opacity:1;fill-rule:nonzero;stroke:none;stroke-width:0.133333" />
      <path
         id="path867"
         d="m 472.04132,301.80787 c 3.93067,-2.312 6.99467,-3.32506 11.37333,-1.48133 2.54,1.07187 4.81734,1.25053 7.384,0.17867 1.20267,-0.50254 0.67467,-2.48907 -0.54666,-1.97867 -4.28,1.78547 -6.53334,-1.50933 -10.528,-1.48907 -3.26134,0.0188 -5.95867,1.37454 -8.71867,2.99747 -1.14,0.67187 -0.10667,2.44627 1.036,1.77293"
         style="fill:#873434;fill-opacity:1;fill-rule:nonzero;stroke:none;stroke-width:0.133333" />
      <path
         id="path868"
         d="m 487.12532,312.12547 c 3.656,-3.0656 8.42533,-1.3776 12.49333,-0.25466 3.14534,0.86933 6.284,1.212 9.39867,0.0849 1.23467,-0.44533 0.70267,-2.4292 -0.54533,-1.97973 -7.62667,2.75573 -15.75334,-5.20934 -22.79867,0.69746 -1.016,0.852 0.444,2.29734 1.452,1.452"
         style="fill:#873434;fill-opacity:1;fill-rule:nonzero;stroke:none;stroke-width:0.133333" />
      <path
         id="path869"
         d="m 509.70799,293.39214 c -0.17467,-0.0333 -0.348,-0.0695 -0.52267,-0.1028 0.0813,0.6252 0.164,1.2508 0.24533,1.87573 3.00667,-1.6052 6.05467,-1.8704 9.316,-0.94893 1.92134,0.54267 3.408,0.73333 5.25067,-0.112 1.20133,-0.552 0.15733,-2.32147 -1.036,-1.77347 -2.176,1 -6.16667,-0.792 -8.61867,-0.728 -2.104,0.0547 -4.116,0.812 -5.948,1.79054 -0.75466,0.40266 -0.63066,1.70413 0.244,1.87506 0.17467,0.0359 0.34934,0.0692 0.524,0.10254 1.29334,0.2532 1.84534,-1.72547 0.54534,-1.97867"
         style="fill:#873434;fill-opacity:1;fill-rule:nonzero;stroke:none;stroke-width:0.133333" />
      <path
         id="path870"
         d="m 531.73332,296.37601 c 1.864,-2.3932 3.984,-0.964 6.18267,-0.11867 1.60133,0.6172 3.024,0.75627 4.67866,0.26507 1.26667,-0.37547 0.72667,-2.35734 -0.54533,-1.97974 -2.68667,0.79587 -4.72267,-1.1588 -7.272,-1.57333 -1.788,-0.292 -3.424,0.57853 -4.496,1.95467 -0.804,1.03066 0.63733,2.4948 1.452,1.452"
         style="fill:#873434;fill-opacity:1;fill-rule:nonzero;stroke:none;stroke-width:0.133333" />
      <path
         id="path871"
         d="m 536.06665,303.21881 c 3.73867,-2.01614 9.59734,2.5052 12.34,-1.8 0.71334,-1.1188 -1.064,-2.14947 -1.77333,-1.036 -1.20533,1.89173 -4.96,0.47866 -6.68,0.30266 -1.788,-0.18386 -3.32267,-0.1016 -4.924,0.75987 -1.16533,0.6292 -0.128,2.4016 1.03733,1.77347"
         style="fill:#873434;fill-opacity:1;fill-rule:nonzero;stroke:none;stroke-width:0.133333" />
      <path
         id="path872"
         d="m 501.38265,294.51974 c -0.24266,0 -0.48533,-0.0864 -0.68266,-0.26093 -0.42267,-0.376 -0.45867,-1.02414 -0.084,-1.44947 0.12266,-0.136 3.04666,-3.35733 8.12933,-3.35733 0.56533,0 1.02533,0.46 1.02533,1.02533 0,0.56667 -0.46,1.02667 -1.02533,1.02667 -4.17067,0 -6.57067,2.64386 -6.59467,2.67053 -0.20266,0.22813 -0.484,0.3452 -0.768,0.3452"
         style="fill:#bd5858;fill-opacity:1;fill-rule:nonzero;stroke:none;stroke-width:0.133333" />
      <path
         id="path873"
         d="m 525.51599,291.98534 c -0.22667,0 -0.45467,-0.0747 -0.64534,-0.228 -0.44133,-0.356 -0.50933,-1.00267 -0.15333,-1.444 1.03333,-1.28133 4.11733,-3.232 8.37333,-1.468 0.52534,0.21733 0.77334,0.81733 0.556,1.34133 -0.21733,0.52267 -0.82,0.77067 -1.34133,0.556 -3.92267,-1.628 -5.97067,0.836 -5.99067,0.86134 -0.20266,0.25066 -0.5,0.38133 -0.79866,0.38133"
         style="fill:#bd5858;fill-opacity:1;fill-rule:nonzero;stroke:none;stroke-width:0.133333" />
      <path
         id="path874"
         d="m 521.07199,299.86147 c -0.312,0 -0.61734,-0.14173 -0.82,-0.4068 -0.34134,-0.452 -0.25334,-1.09586 0.19866,-1.43853 0.17467,-0.13333 4.34134,-3.23227 8.30267,-1.00413 0.49467,0.27706 0.66933,0.90413 0.392,1.3984 -0.27867,0.49226 -0.904,0.66826 -1.39733,0.3912 -2.80134,-1.57614 -6.024,0.82493 -6.05734,0.84893 -0.18533,0.14267 -0.40266,0.21093 -0.61866,0.21093"
         style="fill:#bd5858;fill-opacity:1;fill-rule:nonzero;stroke:none;stroke-width:0.133333" />
    </g>
  </g>
</svg>
