<?xml version="1.0" encoding="UTF-8" standalone="no"?>
<!-- Created with Inkscape (http://www.inkscape.org/) -->

<svg
   width="45.097027mm"
   height="45.702747mm"
   viewBox="0 0 45.097027 45.702747"
   version="1.1"
   id="svg1"
   inkscape:version="1.4.2 (ebf0e94, 2025-05-08)"
   sodipodi:docname="type4.svg"
   xmlns:inkscape="http://www.inkscape.org/namespaces/inkscape"
   xmlns:sodipodi="http://sodipodi.sourceforge.net/DTD/sodipodi-0.dtd"
   xmlns="http://www.w3.org/2000/svg"
   xmlns:svg="http://www.w3.org/2000/svg">
  <sodipodi:namedview
     id="namedview1"
     pagecolor="#ffffff"
     bordercolor="#000000"
     borderopacity="0.25"
     inkscape:showpageshadow="2"
     inkscape:pageopacity="0.0"
     inkscape:pagecheckerboard="0"
     inkscape:deskcolor="#d1d1d1"
     inkscape:document-units="mm"
     inkscape:zoom="0.71535494"
     inkscape:cx="740.89095"
     inkscape:cy="63.604789"
     inkscape:window-width="1920"
     inkscape:window-height="1011"
     inkscape:window-x="0"
     inkscape:window-y="0"
     inkscape:window-maximized="1"
     inkscape:current-layer="layer1" />
  <defs
     id="defs1" />
  <g
     inkscape:label="Layer 1"
     inkscape:groupmode="layer"
     id="layer1"
     transform="translate(91.016667,-131.7625)">
    <g
       id="g885"
       transform="matrix(0.26458333,0,0,0.26458333,-99.067726,72.950562)">
      <path
         id="path762"
         d="M 178.95733,395.01614 H 52.345865 c -12.104133,0 -21.916666,-9.81347 -21.916666,-21.91774 V 244.19867 c 0,-12.10533 9.812533,-21.91733 21.916666,-21.91733 H 178.95733 c 12.10533,0 21.91733,9.812 21.91733,21.91733 V 373.0984 c 0,12.10427 -9.812,21.91774 -21.91733,21.91774"
         style="fill:#e2e3f4;fill-opacity:1;fill-rule:nonzero;stroke:none;stroke-width:0.133333" />
      <path
         id="path763"
         d="m 62.090665,253.61467 c 0.394267,0 1.254667,0 1.6848,-0.072 l 0.178667,4.48134 c -0.9312,0.32266 -2.580134,0.53733 -3.9072,0.53733 -3.513067,0 -7.133333,-1.50533 -7.133333,-6.596 v -7.20533 h -2.473467 v -4.48134 h 2.473467 v -3.908 l 6.452,-1.07466 v 4.98266 h 4.266666 v 4.48134 h -4.266666 v 6.16533 c 0,1.972 0.968266,2.68933 2.725066,2.68933"
         style="fill:#3239b0;fill-opacity:1;fill-rule:nonzero;stroke:none;stroke-width:0.133333" />
      <path
         id="path764"
         d="m 69.619332,257.84534 -5.664134,-17.56667 h 6.810934 l 1.469866,8.06667 0.501467,3.15467 h 0.07187 l 0.609466,-3.15467 1.6848,-8.06667 h 6.452667 l -8.459867,26.70667 h -6.4532 l 2.976134,-9.14"
         style="fill:#3239b0;fill-opacity:1;fill-rule:nonzero;stroke:none;stroke-width:0.133333" />
      <path
         id="path765"
         d="m 89.980664,251.89334 c 0,0.89733 0.573467,1.46933 1.361467,1.46933 0.896933,0 1.399067,-0.644 1.399067,-1.43333 v -5.37733 c 0,-1.076 -0.4308,-1.61334 -1.2548,-1.61334 -0.860934,0 -1.505734,0.78934 -1.505734,1.68534 z m -6.452533,-5.26933 c 0,-1.36267 -0.538,-1.864 -1.792133,-1.864 v -4.48134 c 2.114533,-0.53733 5.483733,-0.644 7.133333,1.972 0,0 1.5776,-2.50933 4.803067,-2.50933 3.1552,0 5.3776,2.15067 5.5208,6.16667 0.07187,1.89866 0.07187,4.01333 0,6.09333 -0.1432,4.51733 -2.831734,6.56 -6.416667,6.56 -1.720267,0 -2.795867,-0.57333 -2.795867,-0.57333 v 8.99733 h -6.452533 v -20.36133"
         style="fill:#3239b0;fill-opacity:1;fill-rule:nonzero;stroke:none;stroke-width:0.133333" />
      <path
         id="path766"
         d="m 107.90466,247.91467 c 0,0 0.60934,-0.036 1.21934,-0.17866 0.8244,-0.18 1.07493,-0.39467 1.07493,-1.47067 0,-0.896 -0.43013,-1.32667 -1.11093,-1.32667 -0.6812,0 -1.18334,0.43067 -1.18334,1.256 z m 1.29067,5.448 c 0.71773,0 1.29107,-0.50133 1.32707,-1.43333 l 5.91453,0.18 c -0.1432,3.97867 -3.22653,6.452 -7.2416,6.452 -3.9792,0 -7.49227,-2.11467 -7.70733,-6.70267 -0.0713,-1.75733 -0.0713,-3.33466 0,-5.19866 0.1432,-4.15867 3.54893,-6.91867 7.88706,-6.91867 3.9432,0 7.27654,2.07867 7.27654,6.344 0,2.51067 -1.2188,3.264 -3.97814,3.836 -2.18706,0.46667 -4.7688,0.82533 -4.7688,0.82533 v 1.112 c 0,0.932 0.50214,1.504 1.29067,1.504"
         style="fill:#3239b0;fill-opacity:1;fill-rule:nonzero;stroke:none;stroke-width:0.133333" />
      <path
         id="path767"
         d="m 142.85733,246.19467 v 6.81067 h 2.25733 v 4.84 h -2.25733 l -0.18,5.91333 H 136.584 v -5.91333 h -9.57147 l -0.68133,-3.47867 5.41306,-16.06 6.77574,-1.43333 -5.34134,16.132 h 3.40534 l 0.35866,-5.19867 5.91467,-1.612"
         style="fill:#3239b0;fill-opacity:1;fill-rule:nonzero;stroke:none;stroke-width:0.133333" />
      <path
         id="path768"
         d="m 53.286399,345.95627 h 0.986 v 6.8104 h 3.2636 v 0.82654 h -4.2496 v -7.63694"
         style="fill:#000000;fill-opacity:1;fill-rule:nonzero;stroke:none;stroke-width:0.133333" />
      <path
         id="path769"
         d="m 58.602132,353.59321 v -5.48387 h 0.9968 v 5.48387 z m 1.1104,-7.02494 c 0.01147,0.3396 -0.238,0.612 -0.6344,0.612 -0.3516,0 -0.601067,-0.2724 -0.601067,-0.612 0,-0.35213 0.260934,-0.62453 0.624,-0.62453 0.373467,0 0.611467,0.2724 0.611467,0.62453"
         style="fill:#000000;fill-opacity:1;fill-rule:nonzero;stroke:none;stroke-width:0.133333" />
      <path
         id="path770"
         d="m 62.240132,350.62547 h 0.02293 c 0.135867,-0.19373 0.328667,-0.43066 0.486933,-0.62386 l 1.609334,-1.89227 h 1.201066 l -2.118666,2.25467 2.414,3.2292 h -1.213067 l -1.892667,-2.62814 -0.509866,0.5656 v 2.06254 h -0.985467 v -8.04534 h 0.985467 v 5.0776"
         style="fill:#000000;fill-opacity:1;fill-rule:nonzero;stroke:none;stroke-width:0.133333" />
      <path
         id="path771"
         d="m 70.049465,350.31881 c 0.012,-0.63494 -0.2604,-1.62147 -1.382267,-1.62147 -1.0084,0 -1.450533,0.9308 -1.529733,1.62147 z m -2.923467,0.71293 c 0.0224,1.34947 0.883867,1.90427 1.881334,1.90427 0.714,0 1.144266,-0.1256 1.518133,-0.28294 l 0.1704,0.7136 c -0.3516,0.15987 -0.952667,0.34014 -1.825067,0.34014 -1.688,0 -2.6968,-1.11094 -2.6968,-2.7656 0,-1.6532 0.9744,-2.95734 2.572934,-2.95734 1.79,0 2.266133,1.576 2.266133,2.5844 0,0.2036 -0.02293,0.3624 -0.03387,0.46347 h -3.8532"
         style="fill:#000000;fill-opacity:1;fill-rule:nonzero;stroke:none;stroke-width:0.133333" />
      <path
         id="path772"
         d="m 77.541731,350.79481 c -1.088133,-0.0229 -2.322933,0.17026 -2.322933,1.2344 0,0.6468 0.430133,0.952 0.940533,0.952 0.7136,0 1.1672,-0.45307 1.3256,-0.9172 l 0.0568,-0.31707 z m 0.147867,2.7984 -0.07973,-0.69054 h -0.0344 c -0.306134,0.43067 -0.8952,0.81614 -1.677067,0.81614 -1.109867,0 -1.677067,-0.7828 -1.677067,-1.57614 0,-1.32546 1.178134,-2.05053 3.297467,-2.04 v -0.1136 c 0,-0.45306 -0.124,-1.26773 -1.245867,-1.26773 -0.5104,0 -1.0432,0.15893 -1.4276,0.40787 l -0.2276,-0.65734 c 0.4536,-0.2948 1.110934,-0.488 1.802,-0.488 1.6772,0 2.085467,1.14534 2.085467,2.24427 v 2.05053 c 0,0.476 0.02293,0.94107 0.09067,1.31454 h -0.906267"
         style="fill:#000000;fill-opacity:1;fill-rule:nonzero;stroke:none;stroke-width:0.133333" />
      <path
         id="path773"
         d="m 82.382798,352.57454 c 0.294267,0.19213 0.8156,0.39627 1.314533,0.39627 0.725067,0 1.0652,-0.36294 1.0652,-0.81614 0,-0.476 -0.283333,-0.73746 -1.019866,-1.00933 -0.985867,-0.35053 -1.450534,-0.8948 -1.450534,-1.55213 0,-0.88387 0.7136,-1.60934 1.892267,-1.60934 0.5552,0 1.042667,0.1588 1.348933,0.34014 l -0.249466,0.72546 c -0.2156,-0.13493 -0.612,-0.31773 -1.121867,-0.31773 -0.5896,0 -0.917733,0.34013 -0.917733,0.74853 0,0.45307 0.328133,0.65827 1.042133,0.92907 0.9516,0.36253 1.4396,0.83853 1.4396,1.65467 0,0.96413 -0.747867,1.6428 -2.051467,1.6428 -0.6,0 -1.155733,-0.14694 -1.5412,-0.37347 l 0.249467,-0.7588"
         style="fill:#000000;fill-opacity:1;fill-rule:nonzero;stroke:none;stroke-width:0.133333" />
      <path
         id="path774"
         d="m 89.896398,350.79481 c -1.088,-0.0229 -2.322934,0.17026 -2.322934,1.2344 0,0.6468 0.430134,0.952 0.940534,0.952 0.714133,0 1.167733,-0.45307 1.326133,-0.9172 l 0.05627,-0.31707 z m 0.147866,2.7984 -0.07973,-0.69054 h -0.03427 c -0.3052,0.43067 -0.8948,0.81614 -1.6772,0.81614 -1.109866,0 -1.677066,-0.7828 -1.677066,-1.57614 0,-1.32546 1.178666,-2.05053 3.298,-2.04 v -0.1136 c 0,-0.45306 -0.124534,-1.26773 -1.2464,-1.26773 -0.5104,0 -1.042667,0.15893 -1.4276,0.40787 l -0.227067,-0.65734 c 0.4536,-0.2948 1.1104,-0.488 1.802133,-0.488 1.677067,0 2.0848,1.14534 2.0848,2.24427 v 2.05053 c 0,0.476 0.02293,0.94107 0.09067,1.31454 h -0.906267"
         style="fill:#000000;fill-opacity:1;fill-rule:nonzero;stroke:none;stroke-width:0.133333" />
      <path
         id="path775"
         d="m 97.059864,352.09734 c 0,0.56667 0.01147,1.0652 0.04587,1.49587 h -0.8844 l -0.0568,-0.89587 h -0.0228 c -0.260533,0.4428 -0.838667,1.02147 -1.813067,1.02147 -0.860933,0 -1.892666,-0.47614 -1.892666,-2.40267 v -3.2068 h 0.997866 v 3.036 c 0,1.04373 0.317734,1.74533 1.224,1.74533 0.668134,0 1.133334,-0.46413 1.314,-0.9068 0.0568,-0.1464 0.09067,-0.32813 0.09067,-0.50933 v -3.3652 h 0.997333 v 3.988"
         style="fill:#000000;fill-opacity:1;fill-rule:nonzero;stroke:none;stroke-width:0.133333" />
      <path
         id="path776"
         d="m 98.580264,352.57454 c 0.294267,0.19213 0.8156,0.39627 1.314534,0.39627 0.724932,0 1.064532,-0.36294 1.064532,-0.81614 0,-0.476 -0.2828,-0.73746 -1.019199,-1.00933 -0.986533,-0.35053 -1.450533,-0.8948 -1.450533,-1.55213 0,-0.88387 0.713466,-1.60934 1.891602,-1.60934 0.55573,0 1.04333,0.1588 1.34946,0.34014 l -0.24946,0.72546 c -0.2156,-0.13493 -0.61187,-0.31773 -1.12187,-0.31773 -0.589999,0 -0.917599,0.34013 -0.917599,0.74853 0,0.45307 0.3276,0.65827 1.042129,0.92907 0.9516,0.36253 1.4396,0.83853 1.4396,1.65467 0,0.96413 -0.7484,1.6428 -2.051596,1.6428 -0.600533,0 -1.155733,-0.14694 -1.5412,-0.37347 l 0.2496,-0.7588"
         style="fill:#000000;fill-opacity:1;fill-rule:nonzero;stroke:none;stroke-width:0.133333" />
      <path
         id="path777"
         d="m 106.09426,350.79481 c -1.08746,-0.0229 -2.32293,0.17026 -2.32293,1.2344 0,0.6468 0.4308,0.952 0.9412,0.952 0.71293,0 1.1672,-0.45307 1.32493,-0.9172 l 0.0568,-0.31707 z m 0.14787,2.7984 -0.0791,-0.69054 h -0.0349 c -0.3052,0.43067 -0.89533,0.81614 -1.67707,0.81614 -1.10986,0 -1.67706,-0.7828 -1.67706,-1.57614 0,-1.32546 1.17866,-2.05053 3.29733,-2.04 v -0.1136 c 0,-0.45306 -0.124,-1.26773 -1.24587,-1.26773 -0.5104,0 -1.0432,0.15893 -1.4276,0.40787 l -0.2276,-0.65734 c 0.45427,-0.2948 1.11094,-0.488 1.80267,-0.488 1.67653,0 2.08493,1.14534 2.08493,2.24427 v 2.05053 c 0,0.476 0.0228,0.94107 0.0905,1.31454 h -0.90627"
         style="fill:#000000;fill-opacity:1;fill-rule:nonzero;stroke:none;stroke-width:0.133333" />
      <path
         id="path778"
         d="m 112.36253,350.27347 c 0,-0.1708 -0.0109,-0.3172 -0.0563,-0.45373 -0.1812,-0.57707 -0.6688,-1.05467 -1.39426,-1.05467 -0.9516,0 -1.63134,0.80574 -1.63134,2.07507 0,1.07707 0.54387,1.97027 1.6204,1.97027 0.612,0 1.1672,-0.38387 1.38227,-1.01827 0.0568,-0.1692 0.0792,-0.36293 0.0792,-0.53333 z m 1.0312,-2.16413 c -0.0229,0.39587 -0.0453,0.83853 -0.0453,1.5068 v 3.18547 c 0,1.2572 -0.24947,2.0276 -0.78227,2.5036 -0.53227,0.49893 -1.30253,0.65733 -1.99373,0.65733 -0.65787,0 -1.3828,-0.1584 -1.82507,-0.4532 l 0.2496,-0.7588 c 0.3624,0.22547 0.9296,0.42973 1.60933,0.42973 1.01974,0 1.76774,-0.53333 1.76774,-1.9152 v -0.612 h -0.0224 c -0.30574,0.50947 -0.89534,0.9188 -1.74534,0.9188 -1.35986,0 -2.33493,-1.15573 -2.33493,-2.67453 0,-1.85987 1.21307,-2.91347 2.4708,-2.91347 0.9516,0 1.47347,0.49894 1.71093,0.95214 h 0.0229 l 0.0453,-0.82667 h 0.8724"
         style="fill:#000000;fill-opacity:1;fill-rule:nonzero;stroke:none;stroke-width:0.133333" />
      <path
         id="path779"
         d="m 118.4828,350.31881 c 0.012,-0.63494 -0.25987,-1.62147 -1.38174,-1.62147 -1.00893,0 -1.45053,0.9308 -1.53026,1.62147 z m -2.92294,0.71293 c 0.0219,1.34947 0.88334,1.90427 1.8808,1.90427 0.714,0 1.1448,-0.1256 1.51814,-0.28294 l 0.17093,0.7136 c -0.3516,0.15987 -0.95267,0.34014 -1.82507,0.34014 -1.688,0 -2.69733,-1.11094 -2.69733,-2.7656 0,-1.6532 0.9744,-2.95734 2.57293,-2.95734 1.79054,0 2.26667,1.576 2.26667,2.5844 0,0.2036 -0.0229,0.3624 -0.0339,0.46347 h -3.8532"
         style="fill:#000000;fill-opacity:1;fill-rule:nonzero;stroke:none;stroke-width:0.133333" />
      <path
         id="path780"
         d="m 123.69786,350.86254 c 0,1.20147 0.69067,2.10827 1.66574,2.10827 0.95146,0 1.6656,-0.8948 1.6656,-2.13067 0,-0.92973 -0.46467,-2.1084 -1.6432,-2.1084 -1.17814,0 -1.68814,1.088 -1.68814,2.1308 z m 4.3516,-0.0573 c 0,2.02973 -1.40573,2.9136 -2.7312,2.9136 -1.48493,0 -2.6292,-1.08814 -2.6292,-2.82147 0,-1.83587 1.2016,-2.91347 2.71974,-2.91347 1.57506,0 2.64066,1.14534 2.64066,2.82134"
         style="fill:#000000;fill-opacity:1;fill-rule:nonzero;stroke:none;stroke-width:0.133333" />
      <path
         id="path781"
         d="m 129.3084,349.81974 c 0,-0.6452 -0.0115,-1.20093 -0.0453,-1.7104 h 0.8724 l 0.0343,1.07613 h 0.0448 c 0.24947,-0.736 0.85053,-1.2016 1.51933,-1.2016 l 0.28334,0.0349 v 0.94 c -0.10267,-0.0228 -0.20467,-0.0348 -0.34014,-0.0348 -0.70306,0 -1.202,0.53333 -1.33693,1.2812 -0.0229,0.136 -0.0459,0.2948 -0.0459,0.4656 v 2.9224 h -0.98586 v -3.77347"
         style="fill:#000000;fill-opacity:1;fill-rule:nonzero;stroke:none;stroke-width:0.133333" />
      <path
         id="path782"
         d="m 135.28133,352.57454 c 0.29467,0.19213 0.816,0.39627 1.31467,0.39627 0.72533,0 1.06533,-0.36294 1.06533,-0.81614 0,-0.476 -0.28267,-0.73746 -1.02,-1.00933 -0.98533,-0.35053 -1.44933,-0.8948 -1.44933,-1.55213 0,-0.88387 0.71333,-1.60934 1.892,-1.60934 0.55466,0 1.04266,0.1588 1.348,0.34014 l -0.24934,0.72546 c -0.21466,-0.13493 -0.612,-0.31773 -1.12133,-0.31773 -0.58933,0 -0.91867,0.34013 -0.91867,0.74853 0,0.45307 0.32934,0.65827 1.04267,0.92907 0.952,0.36253 1.44,0.83853 1.44,1.65467 0,0.96413 -0.748,1.6428 -2.052,1.6428 -0.6,0 -1.156,-0.14694 -1.54133,-0.37347 l 0.24933,-0.7588"
         style="fill:#000000;fill-opacity:1;fill-rule:nonzero;stroke:none;stroke-width:0.133333" />
      <path
         id="path783"
         d="m 139.90666,349.59321 c 0,-0.56507 -0.012,-1.03067 -0.0453,-1.48387 h 0.884 l 0.0573,0.9068 h 0.0227 c 0.27067,-0.52133 0.90533,-1.03227 1.81333,-1.03227 0.75867,0 1.93734,0.4536 1.93734,2.33494 v 3.2744 h -0.99734 v -3.16147 c 0,-0.88387 -0.328,-1.62133 -1.26933,-1.62133 -0.65733,0 -1.168,0.4656 -1.33733,1.02133 -0.0453,0.12453 -0.068,0.2948 -0.068,0.46413 v 3.29734 h -0.99734 v -4"
         style="fill:#000000;fill-opacity:1;fill-rule:nonzero;stroke:none;stroke-width:0.133333" />
      <path
         id="path784"
         d="m 149.08666,350.79481 c -1.08666,-0.0229 -2.32266,0.17026 -2.32266,1.2344 0,0.6468 0.43066,0.952 0.94133,0.952 0.71333,0 1.16667,-0.45307 1.32533,-0.9172 l 0.056,-0.31707 z m 0.148,2.7984 -0.0787,-0.69054 h -0.0347 c -0.30667,0.43067 -0.896,0.81614 -1.67733,0.81614 -1.11067,0 -1.67734,-0.7828 -1.67734,-1.57614 0,-1.32546 1.17867,-2.05053 3.29734,-2.04 v -0.1136 c 0,-0.45306 -0.124,-1.26773 -1.24534,-1.26773 -0.51066,0 -1.04266,0.15893 -1.428,0.40787 l -0.22666,-0.65734 c 0.45333,-0.2948 1.11066,-0.488 1.80133,-0.488 1.67733,0 2.08533,1.14534 2.08533,2.24427 v 2.05053 c 0,0.476 0.0227,0.94107 0.0907,1.31454 h -0.90667"
         style="fill:#000000;fill-opacity:1;fill-rule:nonzero;stroke:none;stroke-width:0.133333" />
      <path
         id="path785"
         d="m 152.64666,350.62547 h 0.0227 c 0.136,-0.19373 0.32933,-0.43066 0.48667,-0.62386 l 1.60933,-1.89227 h 1.20133 l -2.11866,2.25467 2.41333,3.2292 h -1.212 l -1.89333,-2.62814 -0.50934,0.5656 v 2.06254 h -0.98533 v -8.04534 h 0.98533 v 5.0776"
         style="fill:#000000;fill-opacity:1;fill-rule:nonzero;stroke:none;stroke-width:0.133333" />
      <path
         id="path786"
         d="m 160.456,350.31881 c 0.012,-0.63494 -0.26134,-1.62147 -1.38267,-1.62147 -1.008,0 -1.45067,0.9308 -1.52933,1.62147 z m -2.924,0.71293 c 0.0227,1.34947 0.884,1.90427 1.88133,1.90427 0.71467,0 1.144,-0.1256 1.51867,-0.28294 l 0.17066,0.7136 c -0.352,0.15987 -0.95333,0.34014 -1.82533,0.34014 -1.688,0 -2.69733,-1.11094 -2.69733,-2.7656 0,-1.6532 0.97466,-2.95734 2.57333,-2.95734 1.79067,0 2.26533,1.576 2.26533,2.5844 0,0.2036 -0.0227,0.3624 -0.0333,0.46347 H 157.532"
         style="fill:#000000;fill-opacity:1;fill-rule:nonzero;stroke:none;stroke-width:0.133333" />
      <path
         id="path787"
         d="m 161.87333,354.98641 c 0.24933,-0.6676 0.556,-1.8796 0.68133,-2.70774 l 1.11067,-0.1136 c -0.26133,0.96414 -0.76,2.22134 -1.07733,2.75374 l -0.71467,0.0676"
         style="fill:#000000;fill-opacity:1;fill-rule:nonzero;stroke:none;stroke-width:0.133333" />
      <path
         id="path788"
         d="m 53.116665,366.176 c 0.294267,0.19227 0.8156,0.39587 1.314,0.39587 0.7256,0 1.065734,-0.36253 1.065734,-0.81613 0,-0.47547 -0.283334,-0.736 -1.019867,-1.00787 -0.9864,-0.352 -1.450533,-0.8948 -1.450533,-1.55307 0,-0.8844 0.7136,-1.60933 1.892266,-1.60933 0.5552,0 1.042667,0.15987 1.348934,0.34 l -0.249467,0.72507 c -0.2156,-0.1344 -0.612,-0.3172 -1.121867,-0.3172 -0.5896,0 -0.917733,0.34013 -0.917733,0.74946 0,0.45214 0.328133,0.65734 1.042133,0.9276 0.9516,0.36307 1.439067,0.83907 1.439067,1.65467 0,0.96413 -0.747867,1.6428 -2.050933,1.6428 -0.600534,0 -1.155734,-0.1464 -1.5412,-0.37347 l 0.249466,-0.7584"
         style="fill:#000000;fill-opacity:1;fill-rule:nonzero;stroke:none;stroke-width:0.133333" />
      <path
         id="path789"
         d="m 57.741732,363.1948 c 0,-0.5656 -0.012,-1.0308 -0.04587,-1.4844 h 0.8724 l 0.04573,0.8844 h 0.03387 c 0.305734,-0.52133 0.815734,-1.00933 1.7224,-1.00933 0.748533,0 1.314667,0.45307 1.5532,1.1 h 0.02187 c 0.169733,-0.3068 0.385333,-0.54533 0.612,-0.7136 0.328666,-0.25053 0.691066,-0.3864 1.212933,-0.3864 0.725067,0 1.801067,0.476 1.801067,2.3812 v 3.22813 h -0.9744 v -3.10573 c 0,-1.05307 -0.3844,-1.6864 -1.189067,-1.6864 -0.5672,0 -1.008933,0.41867 -1.178667,0.9052 -0.04533,0.13587 -0.07973,0.31867 -0.07973,0.49893 v 3.388 h -0.9744 v -3.28546 c 0,-0.87334 -0.385467,-1.50667 -1.1444,-1.50667 -0.623866,0 -1.077066,0.49893 -1.235866,0.99573 -0.0568,0.14854 -0.07867,0.31774 -0.07867,0.488 v 3.3084 h -0.9744 v -4"
         style="fill:#000000;fill-opacity:1;fill-rule:nonzero;stroke:none;stroke-width:0.133333" />
      <path
         id="path790"
         d="m 67.806798,364.46507 c 0,1.2 0.690534,2.1068 1.665067,2.1068 0.952133,0 1.666133,-0.8948 1.666133,-2.13067 0,-0.9292 -0.464533,-2.10786 -1.6432,-2.10786 -1.178666,0 -1.688,1.088 -1.688,2.13173 z m 4.3516,-0.0572 c 0,2.02813 -1.405733,2.91187 -2.731333,2.91187 -1.484933,0 -2.629733,-1.088 -2.629733,-2.82134 0,-1.83586 1.201066,-2.91293 2.7204,-2.91293 1.5744,0 2.640666,1.1452 2.640666,2.8224"
         style="fill:#000000;fill-opacity:1;fill-rule:nonzero;stroke:none;stroke-width:0.133333" />
      <path
         id="path791"
         d="m 74.029198,364.46507 c 0,1.2 0.690533,2.1068 1.6656,2.1068 0.9516,0 1.6656,-0.8948 1.6656,-2.13067 0,-0.9292 -0.464533,-2.10786 -1.642667,-2.10786 -1.178666,0 -1.688533,1.088 -1.688533,2.13173 z m 4.351467,-0.0572 c 0,2.02813 -1.4056,2.91187 -2.7312,2.91187 -1.484934,0 -2.6292,-1.088 -2.6292,-2.82134 0,-1.83586 1.201066,-2.91293 2.719866,-2.91293 1.574934,0 2.640534,1.1452 2.640534,2.8224"
         style="fill:#000000;fill-opacity:1;fill-rule:nonzero;stroke:none;stroke-width:0.133333" />
      <path
         id="path792"
         d="m 80.841198,360.136 v 1.5744 h 1.4276 v 0.7604 h -1.4276 v 2.95574 c 0,0.68026 0.192667,1.0656 0.747867,1.0656 0.2604,0 0.453066,-0.0333 0.5776,-0.0681 l 0.04587,0.74947 c -0.1932,0.0787 -0.498933,0.1344 -0.8844,0.1344 -0.464133,0 -0.838533,-0.1464 -1.076,-0.4188 -0.283866,-0.29427 -0.385466,-0.78227 -0.385466,-1.4276 v -2.99067 h -0.850534 v -0.7604 h 0.850534 v -1.31453 l 0.974533,-0.25987"
         style="fill:#000000;fill-opacity:1;fill-rule:nonzero;stroke:none;stroke-width:0.133333" />
      <path
         id="path793"
         d="m 83.391731,359.14947 h 0.9968 v 3.4224 h 0.02293 c 0.1588,-0.28227 0.408266,-0.53333 0.714,-0.70253 0.294266,-0.17094 0.645866,-0.28387 1.019866,-0.28387 0.736933,0 1.915067,0.45307 1.915067,2.34627 v 3.26306 H 87.06306 v -3.14946 c 0,-0.88387 -0.328666,-1.63174 -1.268799,-1.63174 -0.645867,0 -1.156267,0.45147 -1.336934,0.9968 -0.0568,0.13654 -0.0688,0.2844 -0.0688,0.476 v 3.3084 h -0.9968 v -8.04533"
         style="fill:#000000;fill-opacity:1;fill-rule:nonzero;stroke:none;stroke-width:0.133333" />
      <path
         id="path794"
         d="m 94.975064,364.39587 c -1.0876,-0.0224 -2.3224,0.1708 -2.3224,1.23587 0,0.64533 0.430134,0.95213 0.940534,0.95213 0.7136,0 1.1672,-0.4532 1.3256,-0.9188 l 0.05627,-0.3172 z m 0.147867,2.79893 -0.0792,-0.69066 h -0.03493 c -0.305734,0.43026 -0.8948,0.8156 -1.677067,0.8156 -1.109867,0 -1.677067,-0.78227 -1.677067,-1.5744 0,-1.32654 1.178667,-2.05054 3.298,-2.0412 v -0.11347 c 0,-0.45213 -0.124533,-1.26827 -1.2464,-1.26827 -0.5104,0 -1.042666,0.1588 -1.4276,0.40827 l -0.227066,-0.6572 c 0.4536,-0.2948 1.1104,-0.488 1.802,-0.488 1.677066,0 2.085466,1.1452 2.085466,2.24373 v 2.05107 c 0,0.47707 0.0224,0.94107 0.09013,1.31453 H 95.12293"
         style="fill:#000000;fill-opacity:1;fill-rule:nonzero;stroke:none;stroke-width:0.133333" />
      <path
         id="path795"
         d="m 97.548931,363.1948 c 0,-0.5656 -0.012,-1.0308 -0.04587,-1.4844 h 0.8844 l 0.05627,0.9068 h 0.02293 c 0.271334,-0.52133 0.906267,-1.03173 1.813599,-1.03173 0.7588,0 1.93747,0.45307 1.93747,2.33427 v 3.27506 h -0.998 v -3.16146 c 0,-0.88387 -0.328,-1.61974 -1.268669,-1.61974 -0.657333,0 -1.1672,0.46347 -1.337066,1.01974 -0.04573,0.124 -0.06813,0.2948 -0.06813,0.464 v 3.29746 h -0.996933 v -4"
         style="fill:#000000;fill-opacity:1;fill-rule:nonzero;stroke:none;stroke-width:0.133333" />
      <path
         id="path796"
         d="m 107.57973,363.94267 c 0,-0.12547 -0.012,-0.2948 -0.0459,-0.41867 -0.14746,-0.63493 -0.69173,-1.15733 -1.43853,-1.15733 -1.03133,0 -1.6432,0.90787 -1.6432,2.11973 0,1.11094 0.5432,2.02974 1.62027,2.02974 0.6688,0 1.28026,-0.44267 1.46146,-1.19067 0.0339,-0.1348 0.0459,-0.2724 0.0459,-0.43067 z m 0.99627,-4.7932 v 6.6292 c 0,0.4864 0.012,1.04267 0.0459,1.41613 h -0.89533 l -0.0459,-0.95106 h -0.0219 c -0.30614,0.612 -0.9744,1.076 -1.86974,1.076 -1.326,0 -2.3464,-1.1224 -2.3464,-2.788 -0.0109,-1.82387 1.1224,-2.94627 2.46,-2.94627 0.83854,0 1.40467,0.39733 1.65414,0.83853 h 0.0229 v -3.27453 h 0.99627"
         style="fill:#000000;fill-opacity:1;fill-rule:nonzero;stroke:none;stroke-width:0.133333" />
      <path
         id="path797"
         d="m 112.49946,366.176 c 0.29427,0.19227 0.8156,0.39587 1.31454,0.39587 0.72506,0 1.0652,-0.36253 1.0652,-0.81613 0,-0.47547 -0.28334,-0.736 -1.01987,-1.00787 -0.9864,-0.352 -1.45053,-0.8948 -1.45053,-1.55307 0,-0.8844 0.7136,-1.60933 1.89226,-1.60933 0.5552,0 1.04267,0.15987 1.3484,0.34 l -0.24893,0.72507 c -0.2156,-0.1344 -0.612,-0.3172 -1.12187,-0.3172 -0.5896,0 -0.91826,0.34013 -0.91826,0.74946 0,0.45214 0.32866,0.65734 1.04266,0.9276 0.9516,0.36307 1.43907,0.83907 1.43907,1.65467 0,0.96413 -0.74787,1.6428 -2.05093,1.6428 -0.60054,0 -1.15574,-0.1464 -1.5412,-0.37347 l 0.24946,-0.7584"
         style="fill:#000000;fill-opacity:1;fill-rule:nonzero;stroke:none;stroke-width:0.133333" />
      <path
         id="path798"
         d="m 117.7364,364.46507 c 0,1.2 0.69066,2.1068 1.6652,2.1068 0.952,0 1.66613,-0.8948 1.66613,-2.13067 0,-0.9292 -0.46507,-2.10786 -1.6432,-2.10786 -1.17813,0 -1.68813,1.088 -1.68813,2.13173 z m 4.3516,-0.0572 c 0,2.02813 -1.40574,2.91187 -2.7312,2.91187 -1.48494,0 -2.62974,-1.088 -2.62974,-2.82134 0,-1.83586 1.2016,-2.91293 2.72027,-2.91293 1.57507,0 2.64067,1.1452 2.64067,2.8224"
         style="fill:#000000;fill-opacity:1;fill-rule:nonzero;stroke:none;stroke-width:0.133333" />
      <path
         id="path799"
         d="m 123.4484,367.1948 v -4.724 h -0.76974 v -0.7604 h 0.76974 v -0.25986 c 0,-0.77027 0.1704,-1.47453 0.63493,-1.9156 0.374,-0.36307 0.8724,-0.50947 1.33693,-0.50947 0.35214,0 0.65787,0.0787 0.85,0.1584 l -0.13533,0.7708 c -0.148,-0.0692 -0.3516,-0.12546 -0.63493,-0.12546 -0.85054,0 -1.06507,0.74786 -1.06507,1.58693 v 0.29426 h 1.32547 v 0.7604 h -1.32547 v 4.724 h -0.98653"
         style="fill:#000000;fill-opacity:1;fill-rule:nonzero;stroke:none;stroke-width:0.133333" />
      <path
         id="path800"
         d="m 127.98226,360.136 v 1.5744 h 1.4276 v 0.7604 h -1.4276 v 2.95574 c 0,0.68026 0.1928,1.0656 0.7484,1.0656 0.26054,0 0.4532,-0.0333 0.5772,-0.0681 l 0.0457,0.74947 c -0.19267,0.0787 -0.49894,0.1344 -0.88427,0.1344 -0.46413,0 -0.83867,-0.1464 -1.07613,-0.4188 -0.28387,-0.29427 -0.38534,-0.78227 -0.38534,-1.4276 v -2.99067 h -0.85 v -0.7604 h 0.85 v -1.31453 l 0.9744,-0.25987"
         style="fill:#000000;fill-opacity:1;fill-rule:nonzero;stroke:none;stroke-width:0.133333" />
      <path
         id="path801"
         d="m 55.416665,372.93334 c -0.826533,1.1104 -1.4276,2.58386 -1.4276,4.636 0,2.01613 0.622934,3.46666 1.4276,4.6 h -0.781733 c -0.7136,-0.94014 -1.4844,-2.39067 -1.4844,-4.6 0.01093,-2.23334 0.7708,-3.68387 1.4844,-4.636 h 0.781733"
         style="fill:#000000;fill-opacity:1;fill-rule:nonzero;stroke:none;stroke-width:0.133333" />
      <path
         id="path802"
         d="m 59.361465,377.9984 c -1.088,-0.0224 -2.322933,0.17094 -2.322933,1.23654 0,0.64533 0.430267,0.95146 0.940667,0.95146 0.713466,0 1.1672,-0.45306 1.325466,-0.91866 l 0.0568,-0.3172 z m 0.147334,2.8 -0.07907,-0.6916 h -0.0344 c -0.3052,0.43067 -0.895333,0.8156 -1.677067,0.8156 -1.109866,0 -1.677066,-0.78226 -1.677066,-1.57453 0,-1.32547 1.178133,-2.05053 3.297333,-2.04107 v -0.112 c 0,-0.4536 -0.124533,-1.26933 -1.2464,-1.26933 -0.5104,0 -1.042667,0.1584 -1.4276,0.40787 L 56.437465,375.676 c 0.453734,-0.2948 1.1104,-0.48693 1.802134,-0.48693 1.677066,0 2.085466,1.14427 2.085466,2.24267 v 2.05106 c 0,0.47707 0.02227,0.9412 0.09,1.3156 h -0.906266"
         style="fill:#000000;fill-opacity:1;fill-rule:nonzero;stroke:none;stroke-width:0.133333" />
      <path
         id="path803"
         d="m 62.229198,375.3136 1.077067,3.08227 c 0.1812,0.49893 0.328667,0.952 0.4416,1.40573 h 0.03387 c 0.125066,-0.45373 0.283333,-0.9068 0.4652,-1.40573 l 1.065066,-3.08227 h 1.042134 l -2.153067,5.4848 h -0.9516 l -2.085467,-5.4848 h 1.0652"
         style="fill:#000000;fill-opacity:1;fill-rule:nonzero;stroke:none;stroke-width:0.133333" />
      <path
         id="path804"
         d="m 70.661465,377.524 c 0.012,-0.636 -0.2604,-1.62133 -1.382267,-1.62133 -1.0084,0 -1.450533,0.92907 -1.529733,1.62133 z m -2.923467,0.71347 c 0.0224,1.348 0.883867,1.90267 1.881334,1.90267 0.714,0 1.144266,-0.124 1.518133,-0.28134 l 0.1704,0.71307 c -0.3516,0.1588 -0.952133,0.34013 -1.825067,0.34013 -1.688,0 -2.6968,-1.1104 -2.6968,-2.76666 0,-1.6532 0.9744,-2.95627 2.5728,-2.95627 1.790134,0 2.266267,1.57493 2.266267,2.5828 0,0.20413 -0.02293,0.36413 -0.03387,0.4656 h -3.8532"
         style="fill:#000000;fill-opacity:1;fill-rule:nonzero;stroke:none;stroke-width:0.133333" />
      <path
         id="path805"
         d="m 72.861998,377.02547 c 0,-0.6468 -0.01147,-1.20307 -0.04587,-1.71187 h 0.872933 l 0.0344,1.07547 h 0.0448 c 0.249466,-0.736 0.850533,-1.2 1.518666,-1.2 l 0.283334,0.0333 v 0.94014 c -0.102,-0.0224 -0.204667,-0.0333 -0.3396,-0.0333 -0.7036,0 -1.202,0.53227 -1.337467,1.2812 -0.02293,0.13494 -0.04587,0.29374 -0.04587,0.46414 v 2.92386 h -0.985333 v -3.77293"
         style="fill:#000000;fill-opacity:1;fill-rule:nonzero;stroke:none;stroke-width:0.133333" />
      <path
         id="path806"
         d="m 79.401065,377.9984 c -1.088,-0.0224 -2.322934,0.17094 -2.322934,1.23654 0,0.64533 0.430267,0.95146 0.940667,0.95146 0.713467,0 1.1672,-0.45306 1.325467,-0.91866 l 0.0568,-0.3172 z m 0.147866,2.8 -0.0796,-0.6916 h -0.0344 c -0.305733,0.43067 -0.895333,0.8156 -1.677066,0.8156 -1.11,0 -1.6772,-0.78226 -1.6772,-1.57453 0,-1.32547 1.178133,-2.05053 3.297466,-2.04107 v -0.112 c 0,-0.4536 -0.124533,-1.26933 -1.245866,-1.26933 -0.5104,0 -1.0432,0.1584 -1.428134,0.40787 L 76.477065,375.676 c 0.4536,-0.2948 1.110933,-0.48693 1.802133,-0.48693 1.677067,0 2.085333,1.14427 2.085333,2.24267 v 2.05106 c 0,0.47707 0.02293,0.9412 0.09067,1.3156 h -0.906267"
         style="fill:#000000;fill-opacity:1;fill-rule:nonzero;stroke:none;stroke-width:0.133333" />
      <path
         id="path807"
         d="m 85.669331,377.47707 c 0,-0.17027 -0.01093,-0.3172 -0.0568,-0.4516 -0.1808,-0.57853 -0.6688,-1.05467 -1.393733,-1.05467 -0.9516,0 -1.631867,0.80374 -1.631867,2.07294 0,1.0776 0.543734,1.9724 1.620934,1.9724 0.611866,0 1.1672,-0.3844 1.382266,-1.02027 0.05627,-0.16933 0.0792,-0.36093 0.0792,-0.53187 z m 1.0312,-2.16347 c -0.02293,0.39574 -0.04587,0.83854 -0.04587,1.50614 v 3.18546 c 0,1.25734 -0.2484,2.02814 -0.781734,2.50414 -0.532266,0.49853 -1.302666,0.65733 -1.993733,0.65733 -0.657867,0 -1.3828,-0.1588 -1.824533,-0.45307 l 0.2484,-0.75893 c 0.363066,0.22653 0.929733,0.4292 1.61,0.4292 1.019733,0 1.7676,-0.53173 1.7676,-1.91307 v -0.612 h -0.02227 c -0.306267,0.50787 -0.895333,0.9172 -1.745333,0.9172 -1.3604,0 -2.334934,-1.15626 -2.334934,-2.67493 0,-1.8584 1.213067,-2.912 2.4708,-2.912 0.9516,0 1.473467,0.49893 1.710934,0.95107 h 0.0224 l 0.04587,-0.82654 h 0.8724"
         style="fill:#000000;fill-opacity:1;fill-rule:nonzero;stroke:none;stroke-width:0.133333" />
      <path
         id="path808"
         d="m 91.789598,377.524 c 0.012,-0.636 -0.2604,-1.62133 -1.381734,-1.62133 -1.008933,0 -1.450533,0.92907 -1.530266,1.62133 z m -2.922934,0.71347 c 0.02187,1.348 0.883334,1.90267 1.880667,1.90267 0.714133,0 1.1444,-0.124 1.518267,-0.28134 l 0.1704,0.71307 c -0.351067,0.1588 -0.952134,0.34013 -1.824534,0.34013 -1.688,0 -2.697466,-1.1104 -2.697466,-2.76666 0,-1.6532 0.974533,-2.95627 2.572933,-2.95627 1.790133,0 2.266133,1.57493 2.266133,2.5828 0,0.20413 -0.0224,0.36413 -0.03373,0.4656 h -3.852667"
         style="fill:#000000;fill-opacity:1;fill-rule:nonzero;stroke:none;stroke-width:0.133333" />
      <path
         id="path809"
         d="m 96.257331,379.77867 c 0.294267,0.1932 0.8156,0.39587 1.314,0.39587 0.7256,0 1.065067,-0.36254 1.065067,-0.81467 0,-0.47707 -0.2828,-0.73693 -1.0192,-1.00933 -0.986534,-0.35214 -1.450534,-0.89427 -1.450534,-1.55214 0,-0.88386 0.7136,-1.60933 1.891734,-1.60933 0.5556,0 1.0432,0.1588 1.349466,0.33907 l -0.249466,0.72493 c -0.215734,-0.13427 -0.612,-0.31707 -1.122,-0.31707 -0.589467,0 -0.9176,0.34 -0.9176,0.74947 0,0.45307 0.328133,0.6572 1.042133,0.92813 0.9516,0.3624 1.4396,0.83854 1.4396,1.65414 0,0.964 -0.7484,1.64426 -2.0516,1.64426 -0.600533,0 -1.155733,-0.148 -1.541067,-0.37453 l 0.249467,-0.7588"
         style="fill:#000000;fill-opacity:1;fill-rule:nonzero;stroke:none;stroke-width:0.133333" />
      <path
         id="path810"
         d="m 102.0828,373.73854 v 1.57506 h 1.4276 v 0.75987 h -1.4276 v 2.95573 c 0,0.6812 0.19266,1.0656 0.74786,1.0656 0.26054,0 0.4532,-0.0333 0.57774,-0.0667 l 0.0452,0.74786 c -0.19267,0.0797 -0.4984,0.136 -0.88387,0.136 -0.464,0 -0.83853,-0.148 -1.07653,-0.41986 -0.28387,-0.2948 -0.3848,-0.78174 -0.3848,-1.42814 v -2.99053 h -0.85054 v -0.75987 h 0.85054 v -1.3152 l 0.9744,-0.25986"
         style="fill:#000000;fill-opacity:1;fill-rule:nonzero;stroke:none;stroke-width:0.133333" />
      <path
         id="path811"
         d="m 105.1776,378.06827 c 0,1.19947 0.6912,2.10627 1.6656,2.10627 0.9516,0 1.6656,-0.89427 1.6656,-2.1308 0,-0.9292 -0.46454,-2.10774 -1.6432,-2.10774 -1.17814,0 -1.688,1.08947 -1.688,2.13227 z m 4.3516,-0.0579 c 0,2.02814 -1.4052,2.912 -2.73134,2.912 -1.4848,0 -2.62906,-1.08746 -2.62906,-2.82133 0,-1.836 1.20093,-2.912 2.71973,-2.912 1.57507,0 2.64067,1.14427 2.64067,2.82133"
         style="fill:#000000;fill-opacity:1;fill-rule:nonzero;stroke:none;stroke-width:0.133333" />
      <path
         id="path812"
         d="m 111.40053,378.06827 c 0,1.19947 0.69067,2.10627 1.66507,2.10627 0.95213,0 1.66613,-0.89427 1.66613,-2.1308 0,-0.9292 -0.46453,-2.10774 -1.6432,-2.10774 -1.17867,0 -1.688,1.08947 -1.688,2.13227 z m 4.3516,-0.0579 c 0,2.02814 -1.40573,2.912 -2.73133,2.912 -1.4848,0 -2.6296,-1.08746 -2.6296,-2.82133 0,-1.836 1.20093,-2.912 2.72026,-2.912 1.57454,0 2.64067,1.14427 2.64067,2.82133"
         style="fill:#000000;fill-opacity:1;fill-rule:nonzero;stroke:none;stroke-width:0.133333" />
      <path
         id="path813"
         d="m 117.01093,372.75214 h 0.99693 v 8.04626 h -0.99693 v -8.04626"
         style="fill:#000000;fill-opacity:1;fill-rule:nonzero;stroke:none;stroke-width:0.133333" />
      <path
         id="path814"
         d="m 119.08546,382.16934 c 0.80467,-1.1224 1.4276,-2.5948 1.4276,-4.636 0,-2.02654 -0.612,-3.4776 -1.4276,-4.6 h 0.7708 c 0.72494,0.9292 1.4844,2.38026 1.4844,4.612 0,2.22133 -0.75946,3.65986 -1.4844,4.624 h -0.7708"
         style="fill:#000000;fill-opacity:1;fill-rule:nonzero;stroke:none;stroke-width:0.133333" />
      <path
         id="path815"
         d="m 51.260399,304.55734 c -0.107734,-12.62667 11.840133,-21.60133 27.421866,-23.00267 15.581333,-1.4 26.890135,2.80134 42.237065,3.60134 15.34733,0.8 45.55,-0.684 54.35133,7.75866 8.8,8.44267 11.85067,19.04414 -3.976,28.24414 -15.82533,9.20106 -34.428,7 -58.2296,7.80106 -23.801462,0.79894 -61.604661,-1 -61.804661,-24.40253"
         style="fill:#ab4140;fill-opacity:1;fill-rule:nonzero;stroke:none;stroke-width:0.133333" />
      <path
         id="path816"
         d="m 113.06506,328.95987 c 23.8016,-0.80106 42.40427,1.4 58.2296,-7.80106 15.82667,-9.2 12.776,-19.80147 3.976,-28.24414 -3.332,-3.19733 -9.736,-4.96933 -17.236,-5.98266 8.28934,2.164 11.49467,7.06386 8.996,13.88413 -2.49866,6.8224 -11.72533,11.824 -33.89626,11.24787 -22.1708,-0.5776 -30.50107,1.1532 -54.452135,0.96146 -23.947866,-0.19213 -24.490533,-14.41186 -19.2744,-24.4268 -5.11,4.02134 -8.202666,9.51174 -8.147466,15.95867 0.2,23.40253 38.003199,25.20147 61.804661,24.40253"
         style="fill:#9e302f;fill-opacity:1;fill-rule:nonzero;stroke:none;stroke-width:0.133333" />
      <path
         id="path817"
         d="m 175.27066,292.91467 c -0.29866,-0.28666 -0.62533,-0.56133 -0.972,-0.82533 4.17067,7.10653 3.15334,14.99973 -9.004,22.068 -15.82666,9.20147 -34.428,7.00147 -58.2296,7.80147 -17.171862,0.57613 -41.630662,-0.2 -53.999995,-9.4656 7.809467,15.88133 39.232799,17.16413 59.999995,16.46666 23.8016,-0.80106 42.40427,1.4 58.2296,-7.80106 15.82667,-9.2 12.776,-19.80147 3.976,-28.24414"
         style="fill:#873434;fill-opacity:1;fill-rule:nonzero;stroke:none;stroke-width:0.133333" />
      <path
         id="path818"
         d="m 68.863998,293.37707 c 1.861067,-1.4864 4.076134,-2.4544 6.281333,-3.35706 3.166667,-1.29734 6.411467,-2.50534 9.807334,-2.92667 2.851466,-0.35067 5.771866,-0.13467 8.539999,0.636 2.7876,0.77467 5.402667,2.09867 8.205196,2.816 4.61254,1.18133 9.7308,0.73333 13.8552,3.1104 0.46254,0.26667 0.93134,0.5964 1.13134,1.09213 0.30733,0.76 -0.13854,1.6376 -0.7568,2.17614 -1.65987,1.45053 -4.15467,1.18533 -6.33854,0.88386 -7.0964,-0.97613 -14.456262,-1.38906 -21.304662,0.71187 -1.5984,0.4896 -3.153733,1.112 -4.752667,1.6 -2.006266,0.6152 -4.072933,1.0136 -6.1432,1.35733 -1.622933,0.2708 -3.272933,0.5068 -4.908799,0.33334 -1.636,-0.17187 -3.2792,-0.7984 -4.383867,-2.0172 -1.104667,-1.21867 -1.557333,-3.0932 -0.840133,-4.57347 0.3588,-0.73947 0.966133,-1.32907 1.608266,-1.84267"
         style="fill:#bd5858;fill-opacity:1;fill-rule:nonzero;stroke:none;stroke-width:0.133333" />
      <path
         id="path819"
         d="m 138.256,294.74014 c 0.232,-0.34013 0.576,-0.588 0.93466,-0.79067 1.56,-0.88146 3.42534,-0.9908 5.216,-1.0628 3.11067,-0.12666 6.23067,-0.204 9.33467,0.044 1.452,0.11467 2.99467,0.344 4.08133,1.31307 1.088,0.96827 1.39867,2.92133 0.25334,3.82133 -0.61067,0.47867 -1.44,0.54014 -2.216,0.58187 -2.22534,0.11813 -4.45067,0.23693 -6.67734,0.35467 -2.50133,0.1344 -5.028,0.26506 -7.5,-0.14854 -1.052,-0.17706 -2.13866,-0.47853 -2.912,-1.21453 -0.77333,-0.73587 -1.11733,-2.01613 -0.51466,-2.8984"
         style="fill:#bd5858;fill-opacity:1;fill-rule:nonzero;stroke:none;stroke-width:0.133333" />
    </g>
  </g>
</svg>
