<?xml version="1.0" encoding="UTF-8" standalone="no"?>
<!-- Created with Inkscape (http://www.inkscape.org/) -->

<svg
   width="35.387447mm"
   height="13.737576mm"
   viewBox="0 0 35.387447 13.737576"
   version="1.1"
   id="svg1"
   inkscape:version="1.4.2 (ebf0e94, 2025-05-08)"
   sodipodi:docname="type7.svg"
   xmlns:inkscape="http://www.inkscape.org/namespaces/inkscape"
   xmlns:sodipodi="http://sodipodi.sourceforge.net/DTD/sodipodi-0.dtd"
   xmlns="http://www.w3.org/2000/svg"
   xmlns:svg="http://www.w3.org/2000/svg">
  <sodipodi:namedview
     id="namedview1"
     pagecolor="#ffffff"
     bordercolor="#000000"
     borderopacity="0.25"
     inkscape:showpageshadow="2"
     inkscape:pageopacity="0.0"
     inkscape:pagecheckerboard="0"
     inkscape:deskcolor="#d1d1d1"
     inkscape:document-units="mm"
     inkscape:zoom="0.71535494"
     inkscape:cx="-683.57674"
     inkscape:cy="-179.63111"
     inkscape:window-width="1920"
     inkscape:window-height="1011"
     inkscape:window-x="0"
     inkscape:window-y="0"
     inkscape:window-maximized="1"
     inkscape:current-layer="layer1" />
  <defs
     id="defs1" />
  <g
     inkscape:label="Layer 1"
     inkscape:groupmode="layer"
     id="layer1"
     transform="translate(-286.01457,-196.05625)">
    <g
       id="g889"
       transform="matrix(0.26458333,0,0,0.26458333,122.50787,122.01754)">
      <path
         id="path875"
         d="m 668.96665,282.26801 c -3.72533,-2.49734 -8.65733,-1.62667 -13.10267,-2.23467 -0.98,-0.13333 -1.99333,-0.34133 -2.944,-0.068 -0.70133,0.2 -1.30266,0.64667 -1.888,1.084 -2.928,2.196 -5.856,4.38933 -8.784,6.584 -0.692,0.51733 -1.43866,1.12267 -1.56266,1.97733 -0.2,1.356 1.25866,2.36667 2.59066,2.68934 1.82134,0.44133 3.728,0.276 5.59467,0.108 4.88533,-0.44134 9.76933,-0.88134 14.65467,-1.324 1.20266,-0.108 2.41866,-0.22 3.56,-0.612 0.96266,-0.332 1.85733,-0.86 2.61066,-1.54534 0.812,-0.736 1.48,-1.712 1.56,-2.80533 0.11467,-1.56267 -0.98933,-2.98133 -2.28933,-3.85333"
         style="fill:#ab4140;fill-opacity:1;fill-rule:nonzero;stroke:none;stroke-width:0.133333" />
      <path
         id="path876"
         d="m 668.96665,282.26801 c -2.27333,-1.524 -4.99867,-1.79334 -7.78667,-1.90934 -0.14133,3.14267 -8.912,4.508 -16.92933,5.77334 -0.668,0.50133 -1.336,1.00133 -2.00267,1.50133 -0.692,0.51733 -1.43866,1.12267 -1.56266,1.97733 -0.2,1.356 1.26,2.36667 2.59066,2.69067 1.82134,0.44 3.728,0.27467 5.59467,0.10667 4.88533,-0.44134 9.76933,-0.88134 14.65467,-1.324 1.20266,-0.108 2.41866,-0.22 3.56,-0.612 0.96266,-0.332 1.85733,-0.86 2.61066,-1.54534 0.812,-0.736 1.48,-1.712 1.56,-2.80533 0.11467,-1.56267 -0.98933,-2.98133 -2.28933,-3.85333"
         style="fill:#9e302f;fill-opacity:1;fill-rule:nonzero;stroke:none;stroke-width:0.133333" />
      <path
         id="path877"
         d="m 657.11598,298.90521 c 10.45867,-0.3224 20.39867,-4.88547 30.84134,-5.5412 5.26266,-0.32934 10.588,0.35213 15.59733,1.99746 3.90533,1.28387 7.59333,3.13587 11.416,4.64787 4.904,1.9412 10.03067,3.32133 15.248,4.1068 3.86533,0.57973 7.81066,0.84373 11.536,2.03173 3.724,1.19067 7.31066,3.48387 8.992,7.0136 1.272,2.67187 1.30666,5.90254 0.0933,8.60107 -2.08667,4.64013 -7.39467,7.1 -12.46933,7.44533 -5.07467,0.34427 -10.088,-1.012 -15.08133,-1.98493 -14.328,-2.79227 -29.24667,-2.45627 -43.46,0.87187 -6.09067,1.4276 -12.124,3.4052 -18.376,3.63853 -6.252,0.23333 -12.97734,-1.60413 -16.88134,-6.49213 -1.68266,-2.1052 -2.80666,-4.71574 -4.94666,-6.3532 -2.32,-1.77187 -5.45867,-2.08387 -8.36267,-1.77187 -3.73067,0.40267 -7.93867,1.6 -10.92133,-0.6776 -2.94667,-2.24947 -2.91334,-6.88907 -1.132,-10.14013 3.27733,-5.97867 10.696,-8.45574 17.51066,-8.62134 6.81334,-0.16346 13.584,1.43907 20.396,1.22814"
         style="fill:#ab4140;fill-opacity:1;fill-rule:nonzero;stroke:none;stroke-width:0.133333" />
      <path
         id="path878"
         d="m 620.34132,316.43747 c 2.98133,2.27867 7.19066,1.08134 10.92133,0.67867 2.904,-0.312 6.04267,0 8.36267,1.77187 2.14,1.63746 3.264,4.248 4.94666,6.3532 3.904,4.888 10.62934,6.72546 16.88134,6.49213 6.252,-0.23333 12.28533,-2.21093 18.37733,-3.63853 14.212,-3.32814 29.13067,-3.66414 43.45867,-0.87187 4.99333,0.97293 10.00666,2.3292 15.08133,1.98493 5.07466,-0.34533 10.38266,-2.8052 12.46933,-7.44533 1.21333,-2.69853 1.17867,-5.9292 -0.0933,-8.60107 -1.68134,-3.52973 -5.268,-5.82293 -8.992,-7.012 -2.44,-0.78013 -4.97334,-1.1604 -7.516,-1.49373 1.16133,1.82027 1.408,4.10307 -0.56667,6.82547 -5.688,7.83333 -32.12133,-3.89734 -54.7,1.0376 -22.57866,4.93173 -29.93066,6.0932 -39.09733,0 -9.16667,-6.0964 -21.89333,-1.54694 -20.66533,-6.2204 -1.78134,3.25106 -1.81467,7.89066 1.132,10.13906"
         style="fill:#9e302f;fill-opacity:1;fill-rule:nonzero;stroke:none;stroke-width:0.133333" />
      <path
         id="path879"
         d="m 750.74665,313.16147 c -1.476,-3.0964 -4.416,-5.24173 -7.62934,-6.52293 0.892,2.0844 1.23734,4.3932 0.67867,6.57347 -0.976,3.8016 -4.52533,6.52293 -8.30933,7.56826 -3.784,1.04374 -7.79867,0.69427 -11.69333,0.2156 -14.33067,-1.76253 -28.844,-5.18386 -43.03734,-2.53333 -7.052,1.31613 -13.75066,4.09627 -20.74666,5.6844 -5.23067,1.1864 -10.85467,1.6452 -15.98934,0.35987 0.17734,0.24893 0.36134,0.49586 0.552,0.7344 3.904,4.888 10.62934,6.72546 16.88134,6.49213 6.252,-0.23333 12.28533,-2.21093 18.37733,-3.63853 14.212,-3.32814 29.13067,-3.66414 43.45867,-0.87187 4.99333,0.97293 10.00666,2.3292 15.08133,1.98493 5.07466,-0.34533 10.38266,-2.8052 12.46933,-7.44533 1.21333,-2.69853 1.17867,-5.9292 -0.0933,-8.60107"
         style="fill:#873434;fill-opacity:1;fill-rule:nonzero;stroke:none;stroke-width:0.133333" />
      <path
         id="path880"
         d="m 635.91732,310.09481 c 0.048,0.85826 0.58933,1.62133 1.24533,2.176 1.70267,1.43706 4.09067,1.69586 6.31867,1.69746 2.11466,10e-4 4.23333,-0.1724 6.344,-0.0213 2.876,0.2052 5.72666,1.01293 8.6,0.77853 2.876,-0.2364 5.94533,-1.92706 6.496,-4.7588 0.13333,-0.688 0.104,-1.42133 -0.18534,-2.0588 -0.212,-0.4704 -0.55733,-0.8704 -0.94266,-1.21053 -1.444,-1.27493 -3.44267,-1.73853 -5.368,-1.79893 -1.924,-0.0599 -3.84134,0.24013 -5.768,0.2828 -2.71867,0.0625 -5.43334,-0.38387 -8.152,-0.3 -2.72,0.0839 -5.57867,0.79333 -7.46667,2.75373 -0.64267,0.66773 -1.17333,1.5344 -1.12133,2.45987"
         style="fill:#bd5858;fill-opacity:1;fill-rule:nonzero;stroke:none;stroke-width:0.133333" />
      <path
         id="path881"
         d="m 683.30532,299.98641 c -0.49734,0.26413 -1.01334,0.5948 -1.204,1.12293 -0.236,0.66 0.148,1.41467 0.71733,1.8188 0.572,0.4052 1.288,0.53693 1.98133,0.63587 0.64134,0.0917 1.288,0.16413 1.93867,0.15213 1.484,-0.0271 2.93067,-0.5 4.41333,-0.56827 0.85734,-0.0385 1.75734,0.0495 2.53467,-0.31186 0.776,-0.36254 1.312,-1.4224 0.78,-2.09334 -0.22533,-0.28386 -0.57867,-0.42653 -0.916,-0.5572 -0.56667,-0.2188 -1.132,-0.43853 -1.69733,-0.65733 -0.81734,-0.3188 -1.63867,-0.63747 -2.5,-0.788 -2.06667,-0.3656 -4.19734,0.26147 -6.048,1.24627"
         style="fill:#bd5858;fill-opacity:1;fill-rule:nonzero;stroke:none;stroke-width:0.133333" />
      <path
         id="path882"
         d="m 668.96665,282.26801 c -0.45733,-0.30534 -0.93467,-0.56267 -1.42667,-0.776 -0.18533,1.012 -0.75466,1.93066 -1.46666,2.68 -2.48134,2.61066 -6.392,3.248 -9.992,3.18533 -3.60134,-0.0627 -7.24267,-0.67467 -10.77467,0.0347 -1.56533,0.31333 -3.076,0.89466 -4.45733,1.696 -0.08,0.164 -0.13734,0.33733 -0.164,0.52266 -0.2,1.356 1.25866,2.36667 2.59066,2.69067 1.82134,0.44 3.728,0.27467 5.59467,0.10667 4.88533,-0.44134 9.76933,-0.88134 14.65467,-1.324 1.20266,-0.108 2.41866,-0.22 3.56,-0.612 0.96266,-0.332 1.85733,-0.86 2.61066,-1.54534 0.812,-0.736 1.48,-1.712 1.56,-2.80533 0.11467,-1.56267 -0.98933,-2.98133 -2.28933,-3.85333"
         style="fill:#873434;fill-opacity:1;fill-rule:nonzero;stroke:none;stroke-width:0.133333" />
      <path
         id="path883"
         d="m 653.51998,284.87601 c 1.09867,0.008 2.216,0.0133 3.27067,-0.29867 0.86933,-0.26 1.78133,-0.91333 1.74933,-1.82133 -0.87733,-0.45067 -1.916,-0.40267 -2.90133,-0.34534 -1.05467,0.0613 -2.216,0.16934 -2.948,0.92934 -0.29867,0.308 -0.49733,0.80266 -0.26,1.16266 0.22133,0.33334 0.688,0.36934 1.08933,0.37334"
         style="fill:#bd5858;fill-opacity:1;fill-rule:nonzero;stroke:none;stroke-width:0.133333" />
    </g>
  </g>
</svg>
