<?xml version="1.0" encoding="UTF-8" standalone="no"?>
<!-- Created with Inkscape (http://www.inkscape.org/) -->

<svg
   width="34.729542mm"
   height="12.65572mm"
   viewBox="0 0 34.729542 12.65572"
   version="1.1"
   id="svg1"
   inkscape:version="1.4.2 (ebf0e94, 2025-05-08)"
   sodipodi:docname="type4.svg"
   xmlns:inkscape="http://www.inkscape.org/namespaces/inkscape"
   xmlns:sodipodi="http://sodipodi.sourceforge.net/DTD/sodipodi-0.dtd"
   xmlns="http://www.w3.org/2000/svg"
   xmlns:svg="http://www.w3.org/2000/svg">
  <sodipodi:namedview
     id="namedview1"
     pagecolor="#ffffff"
     bordercolor="#000000"
     borderopacity="0.25"
     inkscape:showpageshadow="2"
     inkscape:pageopacity="0.0"
     inkscape:pagecheckerboard="0"
     inkscape:deskcolor="#d1d1d1"
     inkscape:document-units="mm"
     inkscape:zoom="0.71535494"
     inkscape:cx="766.05328"
     inkscape:cy="-153.07087"
     inkscape:window-width="1920"
     inkscape:window-height="1011"
     inkscape:window-x="0"
     inkscape:window-y="0"
     inkscape:window-maximized="1"
     inkscape:current-layer="layer1" />
  <defs
     id="defs1" />
  <g
     inkscape:label="Layer 1"
     inkscape:groupmode="layer"
     id="layer1"
     transform="translate(97.631245,-188.9125)">
    <g
       id="g886"
       transform="matrix(0.26458333,0,0,0.26458333,-111.1937,114.4928)">
      <path
         id="path815"
         d="m 51.260399,304.55734 c -0.107734,-12.62667 11.840133,-21.60133 27.421866,-23.00267 15.581333,-1.4 26.890135,2.80134 42.237065,3.60134 15.34733,0.8 45.55,-0.684 54.35133,7.75866 8.8,8.44267 11.85067,19.04414 -3.976,28.24414 -15.82533,9.20106 -34.428,7 -58.2296,7.80106 -23.801462,0.79894 -61.604661,-1 -61.804661,-24.40253"
         style="fill:#ab4140;fill-opacity:1;fill-rule:nonzero;stroke:none;stroke-width:0.133333" />
      <path
         id="path816"
         d="m 113.06506,328.95987 c 23.8016,-0.80106 42.40427,1.4 58.2296,-7.80106 15.82667,-9.2 12.776,-19.80147 3.976,-28.24414 -3.332,-3.19733 -9.736,-4.96933 -17.236,-5.98266 8.28934,2.164 11.49467,7.06386 8.996,13.88413 -2.49866,6.8224 -11.72533,11.824 -33.89626,11.24787 -22.1708,-0.5776 -30.50107,1.1532 -54.452135,0.96146 -23.947866,-0.19213 -24.490533,-14.41186 -19.2744,-24.4268 -5.11,4.02134 -8.202666,9.51174 -8.147466,15.95867 0.2,23.40253 38.003199,25.20147 61.804661,24.40253"
         style="fill:#9e302f;fill-opacity:1;fill-rule:nonzero;stroke:none;stroke-width:0.133333" />
      <path
         id="path817"
         d="m 175.27066,292.91467 c -0.29866,-0.28666 -0.62533,-0.56133 -0.972,-0.82533 4.17067,7.10653 3.15334,14.99973 -9.004,22.068 -15.82666,9.20147 -34.428,7.00147 -58.2296,7.80147 -17.171862,0.57613 -41.630662,-0.2 -53.999995,-9.4656 7.809467,15.88133 39.232799,17.16413 59.999995,16.46666 23.8016,-0.80106 42.40427,1.4 58.2296,-7.80106 15.82667,-9.2 12.776,-19.80147 3.976,-28.24414"
         style="fill:#873434;fill-opacity:1;fill-rule:nonzero;stroke:none;stroke-width:0.133333" />
      <path
         id="path818"
         d="m 68.863998,293.37707 c 1.861067,-1.4864 4.076134,-2.4544 6.281333,-3.35706 3.166667,-1.29734 6.411467,-2.50534 9.807334,-2.92667 2.851466,-0.35067 5.771866,-0.13467 8.539999,0.636 2.7876,0.77467 5.402667,2.09867 8.205196,2.816 4.61254,1.18133 9.7308,0.73333 13.8552,3.1104 0.46254,0.26667 0.93134,0.5964 1.13134,1.09213 0.30733,0.76 -0.13854,1.6376 -0.7568,2.17614 -1.65987,1.45053 -4.15467,1.18533 -6.33854,0.88386 -7.0964,-0.97613 -14.456262,-1.38906 -21.304662,0.71187 -1.5984,0.4896 -3.153733,1.112 -4.752667,1.6 -2.006266,0.6152 -4.072933,1.0136 -6.1432,1.35733 -1.622933,0.2708 -3.272933,0.5068 -4.908799,0.33334 -1.636,-0.17187 -3.2792,-0.7984 -4.383867,-2.0172 -1.104667,-1.21867 -1.557333,-3.0932 -0.840133,-4.57347 0.3588,-0.73947 0.966133,-1.32907 1.608266,-1.84267"
         style="fill:#bd5858;fill-opacity:1;fill-rule:nonzero;stroke:none;stroke-width:0.133333" />
      <path
         id="path819"
         d="m 138.256,294.74014 c 0.232,-0.34013 0.576,-0.588 0.93466,-0.79067 1.56,-0.88146 3.42534,-0.9908 5.216,-1.0628 3.11067,-0.12666 6.23067,-0.204 9.33467,0.044 1.452,0.11467 2.99467,0.344 4.08133,1.31307 1.088,0.96827 1.39867,2.92133 0.25334,3.82133 -0.61067,0.47867 -1.44,0.54014 -2.216,0.58187 -2.22534,0.11813 -4.45067,0.23693 -6.67734,0.35467 -2.50133,0.1344 -5.028,0.26506 -7.5,-0.14854 -1.052,-0.17706 -2.13866,-0.47853 -2.912,-1.21453 -0.77333,-0.73587 -1.11733,-2.01613 -0.51466,-2.8984"
         style="fill:#bd5858;fill-opacity:1;fill-rule:nonzero;stroke:none;stroke-width:0.133333" />
    </g>
  </g>
</svg>
